<svg xmlns="http://www.w3.org/2000/svg" xmlns:xlink="http://www.w3.org/1999/xlink" fill="none" version="1.1" width="54.000003814697266" height="54" viewBox="0 0 54.000003814697266 54"><defs><clipPath id="master_svg0_42_1085"><rect x="0" y="0" width="54.000003814697266" height="54" rx="0"/></clipPath><filter id="master_svg1_42_1089" filterUnits="objectBoundingBox" color-interpolation-filters="sRGB" x="0" y="0" width="54.000003814697266" height="54"><feFlood flood-opacity="0" result="BackgroundImageFix"/><feBlend mode="normal" in="SourceGraphic" in2="BackgroundImageFix" result="shape"/><feColorMatrix in="SourceAlpha" type="matrix" result="hardAlpha" values="0 0 0 0 0 0 0 0 0 0 0 0 0 0 0 0 0 0 127 0"/><feOffset dy="0" dx="0"/><feGaussianBlur stdDeviation="5"/><feComposite in2="hardAlpha" operator="arithmetic" k2="-1" k3="1"/><feColorMatrix type="matrix" values="0 0 0 0 0 0 0 0 0 0 0 0 0 0 0 0 0 0 0.019999999552965164 0"/><feBlend mode="normal" in2="shape" result="effect1_innerShadow"/></filter><filter id="master_svg2_42_1092" filterUnits="objectBoundingBox" color-interpolation-filters="sRGB" x="-48" y="-48" width="144.00000381469727" height="144"><feFlood flood-opacity="0" result="BackgroundImageFix"/><feColorMatrix in="SourceAlpha" type="matrix" values="0 0 0 0 0 0 0 0 0 0 0 0 0 0 0 0 0 0 127 0"/><feOffset dy="0" dx="0"/><feGaussianBlur stdDeviation="12"/><feColorMatrix type="matrix" values="0 0 0 0 0 0 0 0 0 0 0 0 0 0 0 0 0 0 0.009999999776482582 0"/><feBlend mode="normal" in2="BackgroundImageFix" result="effect1_dropShadow"/><feBlend mode="normal" in="SourceGraphic" in2="effect1_dropShadow" result="shape"/></filter><filter id="master_svg3_42_1086" filterUnits="objectBoundingBox" color-interpolation-filters="sRGB" x="0" y="0" width="22.250595092773438" height="24"><feFlood flood-opacity="0" result="BackgroundImageFix"/><feBlend mode="normal" in="SourceGraphic" in2="BackgroundImageFix" result="shape"/><feColorMatrix in="SourceAlpha" type="matrix" result="hardAlpha" values="0 0 0 0 0 0 0 0 0 0 0 0 0 0 0 0 0 0 127 0"/><feOffset dy="0" dx="0"/><feGaussianBlur stdDeviation="5"/><feComposite in2="hardAlpha" operator="arithmetic" k2="-1" k3="1"/><feColorMatrix type="matrix" values="0 0 0 0 0 0 0 0 0 0 0 0 0 0 0 0 0 0 0.019999999552965164 0"/><feBlend mode="normal" in2="shape" result="effect1_innerShadow"/></filter></defs><g clip-path="url(#master_svg0_42_1085)"><g filter="url(#master_svg1_42_1089)"><ellipse cx="27.000001907348633" cy="27" rx="27.000001907348633" ry="27" fill="#F2F2F2" fill-opacity="1"/></g><g filter="url(#master_svg2_42_1092)"><ellipse cx="27.000001907348633" cy="27" rx="24.000001907348633" ry="24" fill="#FFFFFF" fill-opacity="1"/></g><g filter="url(#master_svg3_42_1086)"><path d="M17.79591,34.8151C17.79591,34.8151,22.50673,34.8151,22.50673,34.8151C22.58677,36.987700000000004,24.370469999999997,38.9999,27.0003,38.9999C29.6187,38.9999,31.413800000000002,37.010400000000004,31.505200000000002,34.8151C31.505200000000002,34.8151,36.2047,34.8151,36.2047,34.8151C37.3938,34.8151,38.1256,34.1635,38.1256,33.180099999999996C38.1256,31.9567,37.0165,30.9162,35.976,29.9214C35.164100000000005,29.1325,34.9698,27.5545,34.821200000000005,25.9424C34.661100000000005,21.63173,33.3919,18.75035,30.4191,17.67556C29.973100000000002,16.15484,28.704,15,27.0003,15C25.29663,15,24.02745,16.15484,23.59297,17.67556C20.60868,18.75035,19.35095,21.63173,19.17943,25.9424C19.03079,27.5545,18.83641,29.1325,18.02459,29.9214C16.9841,30.9162,15.875,31.9567,15.875,33.180099999999996C15.875,34.1635,16.606777,34.8151,17.79591,34.8151C17.79591,34.8151,17.79591,34.8151,17.79591,34.8151ZM18.6649,32.6884C18.6649,32.6884,18.6649,32.5512,18.6649,32.5512C18.96219,32.2196,19.62535,31.6136,20.18563,30.973300000000002C20.97457,30.0701,21.34046,28.4007,21.4548,26.2282C21.592010000000002,21.643169999999998,23.00983,20.09957,24.83926,19.60791C25.125120000000003,19.52787,25.27376,19.39066,25.29663,19.08195C25.3538,17.92711,26.005499999999998,17.14959,27.0003,17.14959C28.006500000000003,17.14959,28.6468,17.92711,28.704,19.08195C28.7268,19.39066,28.887,19.52787,29.1613,19.60791C31.002200000000002,20.09957,32.4086,21.643169999999998,32.5459,26.2282C32.6715,28.4007,33.0375,30.0701,33.8149,30.973300000000002C34.3752,31.6136,35.0156,32.2196,35.312799999999996,32.5512C35.312799999999996,32.5512,35.312799999999996,32.6884,35.312799999999996,32.6884C35.312799999999996,32.6884,18.6649,32.6884,18.6649,32.6884C18.6649,32.6884,18.6649,32.6884,18.6649,32.6884ZM27.0003,37.159099999999995C25.70825,37.159099999999995,24.7821,36.233000000000004,24.70207,34.8151C24.70207,34.8151,29.3099,34.8151,29.3099,34.8151C29.241300000000003,36.2215,28.303800000000003,37.159099999999995,27.0003,37.159099999999995C27.0003,37.159099999999995,27.0003,37.159099999999995,27.0003,37.159099999999995Z" fill="#000000" fill-opacity="0.8999999761581421"/><path d="M16.063073,34.7451Q16.724346,35.3151,17.79591,35.3151L22.046979999999998,35.3151Q22.25429,36.9015,23.44607,38.078Q24.88635,39.4999,27.0003,39.4999Q29.1096,39.4999,30.5504,38.087900000000005Q31.749200000000002,36.913,31.9632,35.3151L36.2047,35.3151Q37.2763,35.3151,37.9375,34.7451Q38.6256,34.1519,38.6256,33.180099999999996Q38.6256,32.2123,37.860299999999995,31.1906Q37.4387,30.6277,36.3707,29.6069L36.321600000000004,29.560000000000002Q35.880700000000004,29.1316,35.6357,28.1226Q35.4568,27.3858,35.3203,25.91Q35.0597,19.0063,30.8218,17.29436Q30.4162,16.13083,29.497700000000002,15.38032Q28.420299999999997,14.5,27.0003,14.5Q25.57911,14.5,24.50387,15.380698Q23.58615,16.13237,23.18849,17.29478Q18.95924,18.99979,18.68036,25.9093Q18.54376,27.3856,18.36482,28.1226Q18.11984,29.1316,17.67614,29.5628Q17.66222,29.5761,17.62984,29.607Q16.561891,30.6278,16.140248,31.1907Q15.375,32.2124,15.375,33.180099999999996Q15.375,34.1519,16.063073,34.7451ZM17.79591,34.8151L22.50673,34.8151C22.58677,36.987700000000004,24.370469999999997,38.9999,27.0003,38.9999C29.6187,38.9999,31.413800000000002,37.010400000000004,31.505200000000002,34.8151L36.2047,34.8151C37.3938,34.8151,38.1256,34.1635,38.1256,33.180099999999996C38.1256,31.9567,37.0165,30.9162,35.976,29.9214C35.164100000000005,29.1325,34.9698,27.5545,34.821200000000005,25.9424C34.661100000000005,21.63173,33.3919,18.75035,30.4191,17.67556C29.973100000000002,16.15484,28.704,15,27.0003,15C25.29663,15,24.02745,16.15484,23.59297,17.67556C20.60868,18.75035,19.35095,21.63173,19.17943,25.9424C19.03079,27.5545,18.83641,29.1325,18.02459,29.9214C16.9841,30.9162,15.875,31.9567,15.875,33.180099999999996C15.875,34.1635,16.606777,34.8151,17.79591,34.8151ZM20.18563,30.973300000000002C20.97457,30.0701,21.34046,28.4007,21.4548,26.2282C21.592010000000002,21.643169999999998,23.00983,20.09957,24.83926,19.60791C25.125120000000003,19.52787,25.27376,19.39066,25.29663,19.08195C25.3538,17.92711,26.005499999999998,17.14959,27.0003,17.14959C28.006500000000003,17.14959,28.6468,17.92711,28.704,19.08195C28.7268,19.39066,28.887,19.52787,29.1613,19.60791C31.002200000000002,20.09957,32.4086,21.643169999999998,32.5459,26.2282C32.6715,28.4007,33.0375,30.0701,33.8149,30.973300000000002C34.2084,31.423,34.641400000000004,31.8558,34.9673,32.1884C35.1054,32.329499999999996,35.2243,32.4525,35.312799999999996,32.5512L35.312799999999996,32.6884L18.6649,32.6884L18.6649,32.5512C18.7534,32.4525,18.87432,32.329499999999996,19.01529,32.1884C19.3479,31.8558,19.79214,31.423,20.18563,30.973300000000002ZM33.436,31.2995Q33.733599999999996,31.6396,34.267399999999995,32.1884L19.72252,32.1884Q19.74375,32.167100000000005,19.76411,32.1465Q20.27799,31.627,20.56192,31.3025Q21.76065,29.9301,21.95411,26.2545L21.9544,26.2488L21.95457,26.2432Q22.04682,23.16077,22.94341,21.63655Q23.64308,20.44713,24.96903,20.09077Q25.739240000000002,19.87516,25.795270000000002,19.11889L25.79572,19.11278L25.79602,19.10667Q25.83071,18.40595,26.1742,18.01071Q26.4881,17.64959,27.0003,17.64959Q27.5183,17.64959,27.829900000000002,18.0098Q28.1697,18.40273,28.2046,19.10668L28.204900000000002,19.11279L28.2053,19.11889Q28.2607,19.86602,29.0213,20.0879L29.0268,20.0895L29.0323,20.09097Q30.363,20.44639,31.0612,21.636110000000002Q31.9537,23.15691,32.046099999999996,26.2432L32.0463,26.2501L32.0467,26.2571Q32.259299999999996,29.9324,33.436,31.2995ZM24.70207,34.8151L29.3099,34.8151C29.3014,34.9892,29.279600000000002,35.1562,29.2454,35.3151C29.003500000000003,36.4394,28.142400000000002,37.159099999999995,27.0003,37.159099999999995C25.867150000000002,37.159099999999995,25.015430000000002,36.446799999999996,24.76909,35.3151C24.73455,35.156400000000005,24.71191,34.9895,24.70207,34.8151ZM27.0003,36.659099999999995Q27.7717,36.659099999999995,28.2628,36.162800000000004Q28.598599999999998,35.8234,28.73,35.3297Q28.7319,35.322500000000005,28.733800000000002,35.3151L25.28109,35.3151Q25.41368,35.823899999999995,25.75271,36.1678Q26.2372,36.659099999999995,27.0003,36.659099999999995Z" fill-rule="evenodd" fill="#000000" fill-opacity="0.8999999761581421"/></g></g></svg>