<svg xmlns="http://www.w3.org/2000/svg" xmlns:xlink="http://www.w3.org/1999/xlink" fill="none" version="1.1" width="108.00000762939453" height="108" viewBox="0 0 108.00000762939453 108"><defs><clipPath id="master_svg0_492_1101"><rect x="0" y="0" width="108.00000762939453" height="108" rx="0"/></clipPath><filter id="master_svg1_492_1110" filterUnits="objectBoundingBox" color-interpolation-filters="sRGB" x="0" y="0" width="32.99999237060547" height="32.99999237060547"><feFlood flood-opacity="0" result="BackgroundImageFix"/><feBlend mode="normal" in="SourceGraphic" in2="BackgroundImageFix" result="shape"/><feColorMatrix in="SourceAlpha" type="matrix" result="hardAlpha" values="0 0 0 0 0 0 0 0 0 0 0 0 0 0 0 0 0 0 127 0"/><feOffset dy="0" dx="0"/><feGaussianBlur stdDeviation="5"/><feComposite in2="hardAlpha" operator="arithmetic" k2="-1" k3="1"/><feColorMatrix type="matrix" values="0 0 0 0 0 0 0 0 0 0 0 0 0 0 0 0 0 0 0.019999999552965164 0"/><feBlend mode="normal" in2="shape" result="effect1_innerShadow"/></filter></defs><g clip-path="url(#master_svg0_492_1101)"><g><g transform="matrix(0.7071067690849304,-0.7071067690849304,0.7071067690849304,0.7071067690849304,-27.30688651172386,42.075341778676375)" filter="url(#master_svg1_492_1110)"><path d="M37.135986328125,58.5C37.135986328125,56.01472,39.150706328125,54,41.635986328125,54C41.635986328125,54,65.635986328125,54,65.635986328125,54C68.12118632812499,54,70.135986328125,56.01472,70.135986328125,58.5C70.135986328125,60.98529,68.12118632812499,63,65.635986328125,63C65.635986328125,63,46.135986328125,63,46.135986328125,63C46.135986328125,63,46.135986328125,82.5,46.135986328125,82.5C46.135986328125,84.98519999999999,44.121276328125,87,41.635986328125,87C39.150706328125,87,37.135986328125,84.98519999999999,37.135986328125,82.5C37.135986328125,82.5,37.135986328125,58.5,37.135986328125,58.5C37.135986328125,58.5,37.135986328125,58.5,37.135986328125,58.5Z" fill-rule="evenodd" fill="#000000" fill-opacity="0.8999999761581421"/></g></g></g></svg>