<svg xmlns="http://www.w3.org/2000/svg" xmlns:xlink="http://www.w3.org/1999/xlink" fill="none" version="1.1" width="172" height="107" viewBox="0 0 172 107"><defs><filter id="master_svg0_364_0528" filterUnits="objectBoundingBox" color-interpolation-filters="sRGB" x="0" y="0" width="172" height="107"><feFlood flood-opacity="0" result="BackgroundImageFix"/><feBlend mode="normal" in="SourceGraphic" in2="BackgroundImageFix" result="shape"/><feColorMatrix in="SourceAlpha" type="matrix" result="hardAlpha" values="0 0 0 0 0 0 0 0 0 0 0 0 0 0 0 0 0 0 127 0"/><feOffset dy="0" dx="0"/><feGaussianBlur stdDeviation="5"/><feComposite in2="hardAlpha" operator="arithmetic" k2="-1" k3="1"/><feColorMatrix type="matrix" values="0 0 0 0 0 0 0 0 0 0 0 0 0 0 0 0 0 0 0.019999999552965164 0"/><feBlend mode="normal" in2="shape" result="effect1_innerShadow"/></filter></defs><g><g filter="url(#master_svg0_364_0528)"><rect x="0" y="0" width="172" height="107" rx="53.5" fill="#F2F2F2" fill-opacity="1"/><g><rect x="6" y="6" width="160" height="95" rx="47.5" fill="#FFFFFF" fill-opacity="1"/><g><path d="M47.24631,34.50781L52.582,34.50781L52.582,50.871700000000004Q52.582,53.5557,52.406,56.650099999999995Q52.230000000000004,59.7446,51.724000000000004,62.9194Q51.218,66.0943,50.22319,68.9956Q49.22837,71.89609999999999,47.58112,74.2027Q47.10606,73.7373,46.25562,73.1591Q45.40587,72.5809,44.50388,72.03710000000001Q43.60256,71.4933,42.946,71.2093Q44.44613,69.08359999999999,45.311,66.5577Q46.17656,64.0318,46.59181,61.3272Q47.00706,58.6226,47.126689999999996,55.946799999999996Q47.24631,53.271100000000004,47.24631,50.871700000000004L47.24631,34.50781ZM50.96087,34.50781L82.3391,34.50781L82.3391,46.3335L50.96087,46.3335L50.96087,41.8558L76.6699,41.8558L76.6699,38.975899999999996L50.96087,38.975899999999996L50.96087,34.50781ZM52.8982,59.8278L84.12039999999999,59.8278L84.12039999999999,64.26140000000001L52.8982,64.26140000000001L52.8982,59.8278ZM53.8745,50.8566L82.8293,50.8566L82.8293,55.196799999999996L53.8745,55.196799999999996L53.8745,50.8566ZM71.3102,52.2281L76.6019,52.2281L76.6019,73.9572L71.3102,73.9572L71.3102,52.2281ZM59.6028,52.3505L64.7226,52.3505L64.7226,59.3609Q64.7226,61.4193,64.41460000000001,63.4701Q64.1066,65.5209,63.1977,67.44460000000001Q62.288799999999995,69.3682,60.5219,71.0471Q58.7551,72.7259,55.8036,74.0604Q55.4757,73.4726,54.8583,72.71770000000001Q54.240899999999996,71.96350000000001,53.5548,71.221Q52.868700000000004,70.4785,52.2809,70.04740000000001Q54.722899999999996,69.0073,56.183099999999996,67.7498Q57.6441,66.4924,58.3886,65.07339999999999Q59.1339,63.6544,59.368300000000005,62.1914Q59.6028,60.7284,59.6028,59.2578L59.6028,52.3505ZM57.3464,47.4658L62.2558,46.020700000000005Q62.783100000000005,46.8464,63.3806,47.901700000000005Q63.9787,48.9563,64.3355,49.6995L59.2047,51.354299999999995Q58.942099999999996,50.5582,58.3955,49.4644Q57.8489,48.3699,57.3464,47.4658ZM73.3947,46.1987L79.05420000000001,47.5793Q77.8806,49.2705,76.7071,50.907399999999996Q75.5342,52.544399999999996,74.6157,53.6781L70.6619,52.3601Q71.1596,51.460899999999995,71.6814,50.3739Q72.2039,49.2863,72.6604,48.2021Q73.1169,47.1173,73.3947,46.1987ZM88.3409,35.02962L127.7622,35.02962L127.7622,39.472899999999996L88.3409,39.472899999999996L88.3409,35.02962ZM98.0312,32.622L103.2542,32.622L103.2542,41.9129L98.0312,41.9129L98.0312,32.622ZM112.6633,32.622L117.9206,32.622L117.9206,42.0847L112.6633,42.0847L112.6633,32.622ZM88.9982,50.8579L107.5799,50.8579L107.5799,54.7526L92.9953,54.7526L92.9953,73.938L88.9982,73.938L88.9982,50.8579ZM105.45830000000001,50.8579L109.6521,50.8579L109.6521,69.3689Q109.6521,70.78370000000001,109.3853,71.6851Q109.1186,72.5864,108.2475,73.1151Q107.3861,73.5901,106.2538,73.71520000000001Q105.1214,73.8404,103.5526,73.8404Q103.4742,72.9679,103.1311,71.7923Q102.7887,70.61670000000001,102.3818,69.80340000000001Q103.1971,69.8474,103.9341,69.8474Q104.67179999999999,69.8474,104.9454,69.8377Q105.45830000000001,69.8377,105.45830000000001,69.3001L105.45830000000001,50.8579ZM94.2562,56.0767L96.9491,56.434200000000004Q96.7786,59.7253,96.3187,62.7868Q95.8594,65.8475,94.85220000000001,68.00829999999999Q94.5044,67.7147,93.7873,67.2644Q93.0703,66.8134,92.556,66.5983Q93.5144,64.56389999999999,93.8389,61.8022Q94.16409999999999,59.0399,94.2562,56.0767ZM88.68950000000001,44.515100000000004L92.6571,43.0019Q93.6986,44.4387,94.6371,46.227599999999995Q95.5755,48.0165,95.8931,49.3805L91.6849,51.051100000000005Q91.3914,49.7119,90.5437,47.8714Q89.696,46.0303,88.68950000000001,44.515100000000004ZM101.2659,56.5807L103.60210000000001,56.0273Q104.0173,57.576899999999995,104.3322,59.3197Q104.6471,61.0625,104.8423,62.6637Q105.0382,64.2649,105.0479,65.44319999999999L102.56530000000001,66.2071Q102.5461,64.9847,102.3845,63.3519Q102.2236,61.7191,101.9307,59.9371Q101.6379,58.155100000000004,101.2659,56.5807ZM96.7656,42.1329L101.5423,42.1329L101.5423,52.4694L100.8562,52.4694L100.8562,73.31649999999999L97.4524,73.31649999999999L97.4524,52.4694L96.7656,52.4694L96.7656,42.1329ZM114.8386,47.0519L128.1053,47.0519L128.1053,51.485600000000005L114.8386,51.485600000000005L114.8386,47.0519ZM114.1339,42.1721L118.8515,43.225300000000004Q118.0691,46.2709,116.932,49.2141Q115.7949,52.1573,114.4034,54.7265Q113.0126,57.2957,111.4231,59.2413Q111.0511,58.7999,110.3678,58.1709Q109.6844,57.5411,108.9838,56.9066Q108.2832,56.272,107.7202,55.9097Q109.9394,53.4615,111.5771,49.7765Q113.2147,46.091499999999996,114.1339,42.1721ZM121.7259,49.350899999999996L126.6498,50.061099999999996Q124.9984,58.478899999999996,121.4056,64.4436Q117.8127,70.4084,111.7764,73.9916Q111.4822,73.4726,110.882,72.7253Q110.2818,71.9779,109.6081,71.22579999999999Q108.9343,70.4744,108.4153,70.03370000000001Q114.0899,67.1015,117.2854,61.8868Q120.4809,56.6714,121.7259,49.350899999999996ZM115.6966,50.7727Q116.7374,54.9458,118.5552,58.6576Q120.3736,62.3688,123.0418,65.2205Q125.7107,68.07159999999999,129.2108,69.7436Q128.65730000000002,70.2193,128.0007,70.9487Q127.3442,71.6789,126.7564,72.47229999999999Q126.1686,73.2663,125.7959,73.9229Q122.0559,71.8349,119.341,68.5349Q116.6261,65.23490000000001,114.7292,60.9504Q112.8331,56.6652,111.6011,51.6644L115.6966,50.7727ZM105.3758,42.7915L110.2021,44.162400000000005Q109.2286,46.0255,108.2317,47.8708Q107.2348,49.716,106.4476,51.0209L102.8272,49.772400000000005Q103.3161,48.769999999999996,103.7966,47.550399999999996Q104.2779,46.3307,104.69239999999999,45.0843Q105.1077,43.837900000000005,105.3758,42.7915Z" fill="#000000" fill-opacity="0.8999999761581421"/></g></g></g></g></svg>