<svg xmlns="http://www.w3.org/2000/svg" xmlns:xlink="http://www.w3.org/1999/xlink" fill="none" version="1.1" width="28" height="28" viewBox="0 0 28 28"><g><g><g><path d="M2.33331298828125,14.00019609375C2.33331298828125,7.55683609375,7.55665298828125,2.33349609375,14.00001298828125,2.33349609375C20.44321298828125,2.33349609375,25.66661298828125,7.55683609375,25.66661298828125,14.00019609375C25.66661298828125,20.44339609375,20.44321298828125,25.66679609375,14.00001298828125,25.66679609375C7.55665298828125,25.66679609375,2.33331298828125,20.44339609375,2.33331298828125,14.00019609375ZM14.00001298828125,4.66682609375C8.84532298828125,4.66682609375,4.66664298828125,8.84550609375,4.66664298828125,14.00019609375C4.66664298828125,19.15479609375,8.84532298828125,23.33349609375,14.00001298828125,23.33349609375C19.15461298828125,23.33349609375,23.33331298828125,19.15479609375,23.33331298828125,14.00019609375C23.33331298828125,8.84550609375,19.15461298828125,4.66682609375,14.00001298828125,4.66682609375ZM9.05022298828125,12.35029609375L12.35001298828125,9.05041609375C13.26131298828125,8.13918609375,14.73871298828125,8.13918609375,15.64991298828125,9.05041609375L18.94971298828125,12.35029609375C19.86091298828125,13.26149609375,19.86091298828125,14.73889609375,18.94971298828125,15.65009609375L15.64991298828125,18.94989609375C14.73871298828125,19.86109609375,13.26131298828125,19.86109609375,12.35001298828125,18.94989609375L9.05022298828125,15.65009609375C8.138992988281249,14.73889609375,8.138992988281249,13.26149609375,9.05022298828125,12.35029609375ZM14.00001298828125,10.70032609375L10.70014298828125,14.00019609375L14.00001298828125,17.29999609375L17.29981298828125,14.00019609375L14.00001298828125,10.70032609375Z" fill-rule="evenodd" fill="#000000" fill-opacity="0.6000000238418579"/><path d="M2.09331298828125,14.00019609375Q2.09331398828125,16.422396093750002,3.02909598828125,18.63479609375Q3.93288298828125,20.77159609375,5.58069298828125,22.41939609375Q7.22851298828125,24.06729609375,9.36529298828125,24.97099609375Q11.57775298828125,25.90679609375,14.00001298828125,25.90679609375Q16.422212988281252,25.90679609375,18.63461298828125,24.97099609375Q20.77141298828125,24.06719609375,22.41921298828125,22.41939609375Q24.06711298828125,20.77159609375,24.97081298828125,18.63479609375Q25.90661298828125,16.422396093750002,25.90661298828125,14.00019609375Q25.90661298828125,11.57792609375,24.97081298828125,9.36547609375Q24.06701298828125,7.22869609375,22.41921298828125,5.58087609375Q20.77141298828125,3.93306609375,18.63461298828125,3.02927909375Q16.422212988281252,2.09349609375,14.00001298828125,2.09349709375Q11.57773298828125,2.09349709375,9.36529298828125,3.02927909375Q7.22851298828125,3.93306609375,5.58069298828125,5.58087609375Q3.93288298828125,7.22869609375,3.02909598828125,9.36547609375Q2.09331298828125,11.57791609375,2.09331298828125,14.00019609375ZM14.00001298828125,2.33349609375C7.55665298828125,2.33349609375,2.33331298828125,7.55683609375,2.33331298828125,14.00019609375C2.33331298828125,20.44339609375,7.55665298828125,25.66679609375,14.00001298828125,25.66679609375C20.44321298828125,25.66679609375,25.66661298828125,20.44339609375,25.66661298828125,14.00019609375C25.66661298828125,7.55683609375,20.44321298828125,2.33349609375,14.00001298828125,2.33349609375ZM4.66664298828125,14.00019609375C4.66664298828125,8.84550609375,8.84532298828125,4.66682609375,14.00001298828125,4.66682609375C19.15461298828125,4.66682609375,23.33331298828125,8.84550609375,23.33331298828125,14.00019609375C23.33331298828125,19.15479609375,19.15461298828125,23.33349609375,14.00001298828125,23.33349609375C8.84532298828125,23.33349609375,4.66664298828125,19.15479609375,4.66664298828125,14.00019609375ZM10.46051298828125,5.62132609375Q12.14978298828125,4.90682609375,14.00001298828125,4.90682609375Q15.85021298828125,4.90682609375,17.53941298828125,5.62132609375Q19.17131298828125,6.31152609375,20.42991298828125,7.57020609375Q21.68861298828125,8.828866093750001,22.37881298828125,10.46069609375Q23.09331298828125,12.14996609375,23.09331298828125,14.00019609375Q23.09331298828125,15.85039609375,22.37881298828125,17.53959609375Q21.68861298828125,19.17149609375,20.42991298828125,20.43009609375Q19.17131298828125,21.68879609375,17.53941298828125,22.37899609375Q15.85021298828125,23.09349609375,14.00001298828125,23.09349609375Q12.14977298828125,23.09349609375,10.46051298828125,22.37899609375Q8.828682988281251,21.68879609375,7.57002298828125,20.43009609375Q6.31134298828125,19.17149609375,5.62114298828125,17.53959609375Q4.90664298828125,15.85039609375,4.90664298828125,14.00019609375Q4.90664298828125,12.14996609375,5.62114298828125,10.46069609375Q6.31135298828125,8.828866093750001,7.57002298828125,7.57020609375Q8.82869298828125,6.31152609375,10.46051298828125,5.62132609375ZM8.12680298828125,14.00019609375Q8.12680298828125,15.06609609375,8.88051298828125,15.81979609375L12.18034298828125,19.11959609375Q12.93401298828125,19.87329609375,14.00001298828125,19.87329609375Q15.06591298828125,19.87329609375,15.81961298828125,19.11959609375L19.11941298828125,15.81979609375Q19.87311298828125,15.06609609375,19.87311298828125,14.00019609375Q19.87311298828125,12.93419609375,19.11941298828125,12.18054609375L15.81961298828125,8.88071609375Q15.06591298828125,8.12699609375,14.00001298828125,8.12699609375Q12.93401298828125,8.12699609375,12.18035298828125,8.88070609375L8.88051298828125,12.18054609375Q8.12680298828125,12.93419609375,8.12680298828125,14.00019609375ZM12.35001298828125,9.05041609375L9.05022298828125,12.35029609375C8.138992988281249,13.26149609375,8.138992988281249,14.73889609375,9.05022298828125,15.65009609375L12.35001298828125,18.94989609375C13.26131298828125,19.86109609375,14.73871298828125,19.86109609375,15.64991298828125,18.94989609375L18.94971298828125,15.65009609375C19.86091298828125,14.73889609375,19.86091298828125,13.26149609375,18.94971298828125,12.35029609375L15.64991298828125,9.05041609375C14.73871298828125,8.13918609375,13.26131298828125,8.13918609375,12.35001298828125,9.05041609375ZM14.16971298828125,10.87003609375L17.130112988281248,13.83049609375L17.29981298828125,14.00019609375L17.130112988281248,14.16989609375L14.16971298828125,17.130296093749998L14.00001298828125,17.29999609375L13.83021298828125,17.130296093749998L10.86985298828125,14.16989609375L10.70014298828125,14.00019609375L10.86985298828125,13.83049609375L13.83021298828125,10.87003609375L14.00001298828125,10.70032609375L14.16971298828125,10.87003609375ZM14.00001298828125,11.03973609375L16.96041298828125,14.00019609375L14.00001298828125,16.96059609375L11.03955298828125,14.00019609375L14.00001298828125,11.03973609375Z" fill-rule="evenodd" fill="#000000" fill-opacity="0.6000000238418579"/></g></g></g></svg>