<svg xmlns="http://www.w3.org/2000/svg" xmlns:xlink="http://www.w3.org/1999/xlink" fill="none" version="1.1" width="28" height="28" viewBox="0 0 28 28"><g><g><g transform="matrix(-1,0,0,-1,44.60009765625,47.2001953125)"><path d="M31.887148828125,24.11266165625C31.203738828124997,23.42924265625,30.095688828125,23.42924265625,29.412268828125,24.11266165625C29.412268828125,24.11266165625,22.812612828125,30.71229765625,22.812612828125,30.71229765625C22.129193828125,31.39572765625,22.129193828125,32.50377765625,22.812612828125,33.18718765625C23.496038828125002,33.87059765625,24.604058828124998,33.87059765625,25.287478828125,33.18718765625C25.287478828125,33.18718765625,28.899698828125,29.57496765625,28.899698828125,29.57496765625C28.899698828125,29.57496765625,28.899698828125,41.03289765625,28.899698828125,41.03289765625C28.899698828125,41.99949765625,29.683208828125,42.78289765625,30.649698828125,42.78289765625C31.616198828125,42.78289765625,32.399748828125,41.99949765625,32.399748828125,41.03289765625C32.399748828125,41.03289765625,32.399748828125,29.57496765625,32.399748828125,29.57496765625C32.399748828125,29.57496765625,36.011848828125,33.18718765625,36.011848828125,33.18718765625C36.695348828125,33.87059765625,37.803448828125,33.87059765625,38.486848828125005,33.18718765625C39.170248828125,32.50377765625,39.170248828125,31.39572765625,38.486848828125005,30.71229765625C38.486848828125005,30.71229765625,31.887148828125,24.11266165625,31.887148828125,24.11266165625C31.887148828125,24.11266165625,31.887148828125,24.11266165625,31.887148828125,24.11266165625Z" fill="#000000" fill-opacity="0.6000000238418579"/></g></g></g></svg>