<svg xmlns="http://www.w3.org/2000/svg" xmlns:xlink="http://www.w3.org/1999/xlink" fill="none" version="1.1" width="108" height="108" viewBox="0 0 108 108"><defs><filter id="master_svg0_42_7416" filterUnits="objectBoundingBox" color-interpolation-filters="sRGB" x="0" y="0" width="108" height="108"><feFlood flood-opacity="0" result="BackgroundImageFix"/><feBlend mode="normal" in="SourceGraphic" in2="BackgroundImageFix" result="shape"/><feColorMatrix in="SourceAlpha" type="matrix" result="hardAlpha" values="0 0 0 0 0 0 0 0 0 0 0 0 0 0 0 0 0 0 127 0"/><feOffset dy="0" dx="0"/><feGaussianBlur stdDeviation="5"/><feComposite in2="hardAlpha" operator="arithmetic" k2="-1" k3="1"/><feColorMatrix type="matrix" values="0 0 0 0 0 0 0 0 0 0 0 0 0 0 0 0 0 0 0.019999999552965164 0"/><feBlend mode="normal" in2="shape" result="effect1_innerShadow"/></filter></defs><g><g filter="url(#master_svg0_42_7416)"><rect x="0" y="0" width="108" height="108" rx="54" fill="#F2F2F2" fill-opacity="1"/></g><g><ellipse cx="54.000003814697266" cy="54" rx="48.000003814697266" ry="48" fill="#FFFFFF" fill-opacity="1"/></g><g><g><path d="M64.62956025390625,33.817775859375C62.87226025390625,32.060416859375,60.022860253906245,32.060416859375,58.26566025390625,33.817775859375C58.26566025390625,33.817775859375,35.05978025390625,57.023655859375,35.05978025390625,57.023655859375C34.21586725390625,57.867555859375,33.74176025390625,59.012155859375,33.74176025390625,60.205555859374996C33.74176025390625,60.205555859374996,33.74176025390625,71.97895585937499,33.74176025390625,71.97895585937499C33.74176025390625,73.234255859375,34.75927025390625,74.251455859375,36.01426025390625,74.251455859375C36.01426025390625,74.251455859375,47.78766025390625,74.251455859375,47.78766025390625,74.251455859375C48.98116025390625,74.251455859375,50.12576025390625,73.777355859375,50.969660253906255,72.93355585937499C50.969660253906255,72.93355585937499,74.17556025390624,49.727655859375005,74.17556025390624,49.727655859375005C75.93286025390626,47.970355859375,75.93286025390626,45.121055859375,74.17556025390624,43.363755859375004C74.17556025390624,43.363755859375004,64.62956025390625,33.817775859375,64.62956025390625,33.817775859375C64.62956025390625,33.817775859375,64.62956025390625,33.817775859375,64.62956025390625,33.817775859375ZM61.447560253906246,36.999755859375C61.447560253906246,36.999755859375,70.99346025390625,46.545655859375,70.99346025390625,46.545655859375C70.99346025390625,46.545655859375,67.11036025390625,50.428755859375,67.11036025390625,50.428755859375C67.11036025390625,50.428755859375,57.56456025390625,40.882805859375,57.56456025390625,40.882805859375C57.56456025390625,40.882805859375,61.447560253906246,36.999755859375,61.447560253906246,36.999755859375C61.447560253906246,36.999755859375,61.447560253906246,36.999755859375,61.447560253906246,36.999755859375ZM54.38256025390625,44.064755859375C54.38256025390625,44.064755859375,38.24176025390625,60.205555859374996,38.24176025390625,60.205555859374996C38.24176025390625,60.205555859374996,38.24176025390625,69.751455859375,38.24176025390625,69.751455859375C38.24176025390625,69.751455859375,47.78766025390625,69.751455859375,47.78766025390625,69.751455859375C47.78766025390625,69.751455859375,63.92846025390625,53.610755859375004,63.92846025390625,53.610755859375004C63.92846025390625,53.610755859375004,54.38256025390625,44.064755859375,54.38256025390625,44.064755859375C54.38256025390625,44.064755859375,54.38256025390625,44.064755859375,54.38256025390625,44.064755859375Z" fill-rule="evenodd" fill="#000000" fill-opacity="0.8999999761581421"/><path d="M32.74176025390625,71.97895585937499Q32.74176025390625,73.334555859375,33.70031375390625,74.293055859375Q34.65878025390625,75.251455859375,36.01426025390625,75.251455859375L47.78766025390625,75.251455859375Q50.06576025390625,75.251455859375,51.67676025390625,73.64075585937499L74.88276025390624,50.434755859375Q76.49356025390625,48.823855859375,76.49356025390625,46.545655859375Q76.49356025390625,44.267555859375,74.88276025390624,42.656655859375L65.33666025390625,33.110689859375L65.33666025390625,33.110662859375Q63.72576025390625,31.499755859375,61.447560253906246,31.499755859375Q59.16936025390625,31.499755859375,57.55846025390625,33.110688859375L34.35267225390625,56.316555859375Q32.74176025390625,57.927555859375005,32.74176025390625,60.205555859374996L32.74176025390625,71.97895585937499ZM35.05978025390625,57.023655859375L58.26566025390625,33.817775859375C60.022860253906245,32.060416859375,62.87226025390625,32.060416859375,64.62956025390625,33.817775859375L74.17556025390624,43.363755859375004C75.93286025390626,45.121055859375,75.93286025390626,47.970355859375,74.17556025390624,49.727655859375005L50.969660253906255,72.93355585937499C50.12576025390625,73.777355859375,48.98116025390625,74.251455859375,47.78766025390625,74.251455859375L36.01426025390625,74.251455859375C34.75927025390625,74.251455859375,33.74176025390625,73.234255859375,33.74176025390625,71.97895585937499L33.74176025390625,60.205555859374996C33.74176025390625,59.012155859375,34.21586725390625,57.867555859375,35.05978025390625,57.023655859375ZM60.74046025390625,37.706865859375L58.27166025390625,40.175695859375L57.56456025390625,40.882805859375L58.27166025390625,41.589915859375L66.40326025390624,49.721655859375005L67.11036025390625,50.428755859375L67.81746025390625,49.721655859375005L70.28636025390625,47.252755859375L70.99346025390625,46.545655859375L70.28636025390625,45.838555859375L62.15466025390625,37.706865859375L61.447560253906246,36.999755859375L60.74046025390625,37.706865859375ZM67.11036025390625,49.014555859375L58.978760253906245,40.882805859375L61.447560253906246,38.413975859375L69.57926025390626,46.545655859375L67.11036025390625,49.014555859375ZM55.089660253906246,44.771855859375L63.221360253906255,52.903655859375L63.92846025390625,53.610755859375004L63.221360253906255,54.317855859375L47.78766025390625,69.751455859375L38.24176025390625,69.751455859375L38.24176025390625,60.205555859374996L53.67546025390625,44.771855859375L54.38256025390625,44.064755859375L55.089660253906246,44.771855859375ZM54.38256025390625,45.478955859375L62.51426025390625,53.610755859375004L47.37346025390625,68.751455859375L39.24176025390625,68.751455859375L39.24176025390625,60.619755859375005L54.38256025390625,45.478955859375Z" fill-rule="evenodd" fill="#000000" fill-opacity="0.8999999761581421"/></g></g></g></svg>