<svg xmlns="http://www.w3.org/2000/svg" xmlns:xlink="http://www.w3.org/1999/xlink" fill="none" version="1.1" width="52" height="52" viewBox="0 0 52 52"><g><g><g><path d="M12.999986494140625,4.33349609375C10.606756494140624,4.33349609375,8.666656494140625,6.27359609375,8.666656494140625,8.66682609375C8.666656494140625,8.66682609375,8.666656494140625,43.33349609375,8.666656494140625,43.33349609375C8.666656494140625,45.72679609375,10.606756494140624,47.66679609375,12.999986494140625,47.66679609375C12.999986494140625,47.66679609375,38.999956494140626,47.66679609375,38.999956494140626,47.66679609375C41.39325649414062,47.66679609375,43.333356494140624,45.72679609375,43.333356494140624,43.33349609375C43.333356494140624,43.33349609375,43.333356494140624,18.23099609375,43.333356494140624,18.23099609375C43.333356494140624,17.08169609375,42.87675649414062,15.97949609375,42.06405649414062,15.16679609375C42.06405649414062,15.16679609375,32.499956494140626,5.60269609375,32.499956494140626,5.60269609375C31.687256494140627,4.79004309375,30.585056494140623,4.33349609375,29.435856494140626,4.33349609375C29.435856494140626,4.33349609375,12.999986494140625,4.33349609375,12.999986494140625,4.33349609375C12.999986494140625,4.33349609375,12.999986494140625,4.33349609375,12.999986494140625,4.33349609375ZM25.999956494140626,8.66682609375C25.999956494140626,8.66682609375,12.999986494140625,8.66682609375,12.999986494140625,8.66682609375C12.999986494140625,8.66682609375,12.999986494140625,43.33349609375,12.999986494140625,43.33349609375C12.999986494140625,43.33349609375,38.999956494140626,43.33349609375,38.999956494140626,43.33349609375C38.999956494140626,43.33349609375,38.999956494140626,21.66679609375,38.999956494140626,21.66679609375C38.999956494140626,21.66679609375,29.249956494140626,21.66679609375,29.249956494140626,21.66679609375C27.455056494140624,21.66679609375,25.999956494140626,20.21179609375,25.999956494140626,18.41679609375C25.999956494140626,18.41679609375,25.999956494140626,8.66682609375,25.999956494140626,8.66682609375C25.999956494140626,8.66682609375,25.999956494140626,8.66682609375,25.999956494140626,8.66682609375ZM38.10255649414063,17.33349609375C38.10255649414063,17.33349609375,30.333356494140624,9.564286093749999,30.333356494140624,9.564286093749999C30.333356494140624,9.564286093749999,30.333356494140624,17.33349609375,30.333356494140624,17.33349609375C30.333356494140624,17.33349609375,38.10255649414063,17.33349609375,38.10255649414063,17.33349609375C38.10255649414063,17.33349609375,38.10255649414063,17.33349609375,38.10255649414063,17.33349609375Z" fill-rule="evenodd" fill="#000000" fill-opacity="0.8999999761581421"/><path d="M8.026656494140624,8.66682609375L8.026656494140624,43.33349609375Q8.026656494140624,45.39359609375,9.483314494140625,46.85019609375Q10.939966494140625,48.30679609375,12.999986494140625,48.30679609375L38.999956494140626,48.30679609375Q41.060056494140625,48.30679609375,42.516656494140626,46.85019609375Q43.973356494140624,45.39359609375,43.973356494140624,43.33349609375L43.973356494140624,18.23099609375Q43.973356494140624,16.17079609375,42.516656494140626,14.71429609375L32.95255649414062,5.15015109375Q31.495756494140625,3.69349609375,29.435856494140626,3.69349609375L12.999986494140625,3.69349609375Q10.939966494140625,3.69349609375,9.483311494140626,5.15015309375Q8.026656494140624,6.60680609375,8.026656494140624,8.66682609375ZM8.666656494140625,8.66682609375C8.666656494140625,6.27359609375,10.606756494140624,4.33349609375,12.999986494140625,4.33349609375L29.435856494140626,4.33349609375C30.585056494140623,4.33349609375,31.687256494140627,4.79004309375,32.499956494140626,5.60269609375L42.06405649414062,15.16679609375C42.87675649414062,15.97949609375,43.333356494140624,17.08169609375,43.333356494140624,18.23099609375L43.333356494140624,43.33349609375C43.333356494140624,45.72679609375,41.39325649414062,47.66679609375,38.999956494140626,47.66679609375L12.999986494140625,47.66679609375C10.606756494140624,47.66679609375,8.666656494140625,45.72679609375,8.666656494140625,43.33349609375L8.666656494140625,8.66682609375ZM25.999956494140626,8.66682609375L12.999986494140625,8.66682609375L12.999986494140625,43.33349609375L38.999956494140626,43.33349609375L38.999956494140626,21.66679609375L29.249956494140626,21.66679609375C27.455056494140624,21.66679609375,25.999956494140626,20.21179609375,25.999956494140626,18.41679609375L25.999956494140626,8.66682609375ZM13.639986494140626,42.69349609375L13.639986494140626,9.30682609375L25.359956494140626,9.30682609375L25.359956494140626,18.41679609375Q25.359956494140626,20.02809609375,26.499356494140624,21.16749609375Q27.638656494140626,22.30679609375,29.249956494140626,22.30679609375L38.359956494140626,22.30679609375L38.359956494140626,42.69349609375L13.639986494140626,42.69349609375ZM30.333356494140624,17.33349609375L38.10255649414063,17.33349609375L37.46255649414063,16.69349609375L30.333356494140624,9.564286093749999L30.333356494140624,17.33349609375ZM30.973356494140624,16.69349609375L30.973356494140624,11.10937609375L36.557456494140624,16.69349609375L30.973356494140624,16.69349609375Z" fill-rule="evenodd" fill="#000000" fill-opacity="0.8999999761581421"/></g></g></g></svg>