<svg xmlns="http://www.w3.org/2000/svg" xmlns:xlink="http://www.w3.org/1999/xlink" fill="none" version="1.1" width="52" height="52" viewBox="0 0 52 52"><g><g><g><path d="M8.33333,7C5.9401,7,4,8.9401,4,11.33333L4,41.6667C4,44.06,5.9401,46,8.33333,46L43,46C45.3933,46,47.3333,44.06,47.3333,41.6667L47.3333,11.33333C47.3333,8.9401,45.3933,7,43,7L8.33333,7ZM8.33333,11.33333L43,11.33333L43,33.218199999999996L38.3059,28.524C37.2481,27.4663,35.533500000000004,27.4663,34.4757,28.524L31.7947,31.2051L22.9852,22.395699999999998C21.9275,21.338,20.2127,21.338,19.155,22.395699999999998L8.33333,33.2173L8.33333,11.33333ZM33.25,22.1667C35.0449,22.1667,36.5,20.7116,36.5,18.9167C36.5,17.1217,35.0449,15.66667,33.25,15.66667C31.4551,15.66667,30,17.1217,30,18.9167C30,20.7116,31.4551,22.1667,33.25,22.1667ZM42.519,38.8654C42.6655,39.0119,42.8275,39.133,43,39.2285L43,41.6667L8.33333,41.6667L8.33333,39.2283C8.5055,39.1325,8.667390000000001,39.0116,8.813600000000001,38.8654L21.0701,26.6089L29.8795,35.4182C30.9371,36.476,32.652,36.476,33.709599999999995,35.4182L36.3908,32.7372L42.519,38.8654Z" fill-rule="evenodd" fill="#000000" fill-opacity="0.8999999761581421"/><path d="M3.36,41.6667Q3.36,43.7267,4.81666,45.1834Q6.2733,46.64,8.33333,46.64L43,46.64Q45.0601,46.64,46.5167,45.1834Q47.9733,43.7267,47.9733,41.6667L47.9733,11.33333Q47.9733,9.27331,46.5167,7.816658Q45.0601,6.36,43,6.36L8.33333,6.36Q6.27331,6.36,4.816656,7.816656Q3.36,9.27331,3.36,11.33333L3.36,41.6667ZM4,11.33333C4,8.9401,5.9401,7,8.33333,7L43,7C45.3933,7,47.3333,8.9401,47.3333,11.33333L47.3333,41.6667C47.3333,44.06,45.3933,46,43,46L8.33333,46C5.9401,46,4,44.06,4,41.6667L4,11.33333ZM8.33333,11.33333L43,11.33333L43,33.218199999999996L42.36,32.578199999999995L38.3059,28.524C37.2481,27.4663,35.533500000000004,27.4663,34.4757,28.524L32.2472,30.7526L31.7947,31.2051L31.3421,30.7526L22.9852,22.395699999999998C21.9275,21.338,20.2127,21.338,19.155,22.395699999999998L8.97333,32.5773L8.33333,33.2173L8.33333,11.33333ZM8.97333,31.6722L8.97333,11.97333L42.36,11.97333L42.36,31.6731L38.7585,28.0714Q37.7777,27.0907,36.3908,27.0907Q35.0039,27.0907,34.0232,28.0714L31.7946,30.3L23.4377,21.943199999999997Q22.457,20.962400000000002,21.0701,20.962400000000002Q19.6832,20.962400000000002,18.7025,21.943199999999997L8.97333,31.6722ZM30.4994,21.667299999999997Q31.6387,22.8067,33.25,22.8067Q34.8613,22.8067,36.0006,21.667299999999997Q37.14,20.528,37.14,18.9167Q37.14,17.3054,36.0006,16.16602Q34.8613,15.02667,33.25,15.02667Q31.6387,15.02667,30.4994,16.16602Q29.36,17.3054,29.36,18.9167Q29.36,20.528,30.4994,21.667299999999997ZM36.5,18.9167C36.5,20.7116,35.0449,22.1667,33.25,22.1667C31.4551,22.1667,30,20.7116,30,18.9167C30,17.1217,31.4551,15.66667,33.25,15.66667C35.0449,15.66667,36.5,17.1217,36.5,18.9167ZM36.3908,32.7372L42.519,38.8654C42.6655,39.0119,42.8275,39.133,43,39.2285L43,41.6667L8.33333,41.6667L8.33333,39.2283C8.5055,39.1325,8.667390000000001,39.0116,8.813600000000001,38.8654L20.6176,27.0614L21.0701,26.6089L21.5227,27.0614L29.8795,35.4182C30.9371,36.476,32.652,36.476,33.709599999999995,35.4182L35.938199999999995,33.1897L36.3908,32.7372ZM42.0665,39.3179Q42.2055,39.457,42.36,39.5738L42.36,41.0267L8.97333,41.0267L8.97333,39.5733Q8.982099999999999,39.5666,8.99067,39.56Q9.135449999999999,39.4487,9.26622,39.3179L21.0701,27.514L29.427,35.8708Q30.4076,36.8515,31.7945,36.8515Q33.1815,36.8515,34.162099999999995,35.8707L36.3908,33.6423L42.0665,39.3179Z" fill-rule="evenodd" fill="#000000" fill-opacity="0.8999999761581421"/></g></g></g></svg>