<svg xmlns="http://www.w3.org/2000/svg" xmlns:xlink="http://www.w3.org/1999/xlink" fill="none" version="1.1" width="19.2001953125" height="19.199951171875" viewBox="0 0 19.2001953125 19.199951171875"><g><g><g><path d="M10.165854687500001,2.908874546875C9.8534346875,2.596455846875,9.3468946875,2.596455746875,9.0344846875,2.908874546875C9.0344846875,2.908874546875,2.9091796875,9.034330546875001,2.9091796875,9.034330546875001C2.5967603875,9.346740546875,2.5967604875,9.853350546875,2.9091796875,10.165770546874999C3.2215996875,10.478190546875,3.7280046875,10.478190546875,4.0404346874999995,10.165770546874999C4.0404346874999995,10.165770546874999,8.8001646875,5.405930546875,8.8001646875,5.405930546875C8.8001646875,5.405930546875,8.8001646875,15.999960546875,8.8001646875,15.999960546875C8.8001646875,16.441860546875,9.1583446875,16.799960546875,9.600164687500001,16.799960546875C10.0419946875,16.799960546875,10.4001646875,16.441860546875,10.4001646875,15.999960546875C10.4001646875,15.999960546875,10.4001646875,5.405930546875,10.4001646875,5.405930546875C10.4001646875,5.405930546875,15.1600046875,10.165770546874999,15.1600046875,10.165770546874999C15.4724046875,10.478190546875,15.9790046875,10.478190546875,16.2914046875,10.165770546874999C16.603804687500002,9.853350546875,16.603804687500002,9.346740546875,16.2914046875,9.034330546875001C16.2914046875,9.034330546875001,10.165854687500001,2.908874546875,10.165854687500001,2.908874546875C10.165854687500001,2.908874546875,10.165854687500001,2.908874546875,10.165854687500001,2.908874546875Z" fill="#000000" fill-opacity="0.8999999761581421"/><path d="M2.2748656875,9.600050546875Q2.2748656875,10.097150546875,2.6263383875,10.448620546875Q2.9778106875,10.800080546875,3.4748016875,10.800090546875Q3.9717946875,10.800090546875,4.3232746875,10.448610546874999L8.4001646875,6.371630546875L8.4001646875,15.999960546875Q8.4001646875,16.497060546874998,8.751634687500001,16.848560546875Q9.1031046875,17.199960546874998,9.600164687500001,17.199960546874998Q10.097224687499999,17.199960546874998,10.4486946875,16.848560546875Q10.8001646875,16.497060546874998,10.8001646875,15.999960546875L10.8001646875,6.3716205468750005L14.8771046875,10.448610546874999Q15.2286046875,10.800090546875,15.7257046875,10.800090546875Q16.222804687500002,10.800090546875,16.5743046875,10.448600546875Q16.9257046875,10.097140546875,16.9257046875,9.600050546875Q16.9257046875,9.102960546875,16.5743046875,8.751490546875L10.4486946875,2.626033246875L10.4486946875,2.626029946875Q10.097224687499999,2.274560546875,9.600164687500001,2.274560546875Q9.1031046875,2.274560546875,8.751634687500001,2.626033646875L2.6263335875,8.751490546875Q2.2748646875,9.102950546875,2.2748656875,9.600050546875ZM8.8001646875,5.405930546875L8.4001646875,5.805940546875L4.0404346874999995,10.165770546874999C3.7280046875,10.478190546875,3.2215996875,10.478190546875,2.9091796875,10.165770546874999C2.5967604875,9.853350546875,2.5967603875,9.346740546875,2.9091796875,9.034330546875001L9.0344846875,2.908874546875C9.3468946875,2.596455746875,9.8534346875,2.596455846875,10.165854687500001,2.908874546875L16.2914046875,9.034330546875001C16.603804687500002,9.346740546875,16.603804687500002,9.853350546875,16.2914046875,10.165770546874999C15.9790046875,10.478190546875,15.4724046875,10.478190546875,15.1600046875,10.165770546874999L10.8001646875,5.805930546875L10.4001646875,5.405930546875L10.4001646875,15.999960546875C10.4001646875,16.441860546875,10.0419946875,16.799960546875,9.600164687500001,16.799960546875C9.1583446875,16.799960546875,8.8001646875,16.441860546875,8.8001646875,15.999960546875L8.8001646875,5.405930546875Z" fill-rule="evenodd" fill="#000000" fill-opacity="0.8999999761581421"/></g></g></g></svg>