<svg xmlns="http://www.w3.org/2000/svg" xmlns:xlink="http://www.w3.org/1999/xlink" fill="none" version="1.1" width="108.00000762939453" height="108" viewBox="0 0 108.00000762939453 108"><defs><clipPath id="master_svg0_199_4727"><rect x="0" y="0" width="108.00000762939453" height="108" rx="0"/></clipPath><filter id="master_svg1_199_4730" filterUnits="objectBoundingBox" color-interpolation-filters="sRGB" x="0" y="0" width="108.00000762939453" height="108"><feFlood flood-opacity="0" result="BackgroundImageFix"/><feBlend mode="normal" in="SourceGraphic" in2="BackgroundImageFix" result="shape"/><feColorMatrix in="SourceAlpha" type="matrix" result="hardAlpha" values="0 0 0 0 0 0 0 0 0 0 0 0 0 0 0 0 0 0 127 0"/><feOffset dy="0" dx="0"/><feGaussianBlur stdDeviation="5"/><feComposite in2="hardAlpha" operator="arithmetic" k2="-1" k3="1"/><feColorMatrix type="matrix" values="0 0 0 0 0 0 0 0 0 0 0 0 0 0 0 0 0 0 0.019999999552965164 0"/><feBlend mode="normal" in2="shape" result="effect1_innerShadow"/></filter><filter id="master_svg2_199_4729" filterUnits="objectBoundingBox" color-interpolation-filters="sRGB" x="-48" y="-48" width="192.00000762939453" height="192"><feFlood flood-opacity="0" result="BackgroundImageFix"/><feColorMatrix in="SourceAlpha" type="matrix" values="0 0 0 0 0 0 0 0 0 0 0 0 0 0 0 0 0 0 127 0"/><feOffset dy="0" dx="0"/><feGaussianBlur stdDeviation="12"/><feColorMatrix type="matrix" values="0 0 0 0 0 0 0 0 0 0 0 0 0 0 0 0 0 0 0.009999999776482582 0"/><feBlend mode="normal" in2="BackgroundImageFix" result="effect1_dropShadow"/><feBlend mode="normal" in="SourceGraphic" in2="effect1_dropShadow" result="shape"/></filter></defs><g clip-path="url(#master_svg0_199_4727)"><g filter="url(#master_svg1_199_4730)"><ellipse cx="54.000003814697266" cy="54" rx="54.000003814697266" ry="54" fill="#F2F2F2" fill-opacity="1"/></g><g filter="url(#master_svg2_199_4729)"><ellipse cx="54.000003814697266" cy="54" rx="48.000003814697266" ry="48" fill="#FFFFFF" fill-opacity="1"/></g><g><g transform="matrix(0,-1,1,0,-46.333251953125,103.666748046875)"><path d="M52.000048046875,77.33333C52.000048046875,76.04467,50.955448046875,75,49.666748046875,75C48.378048046875,75,47.333448046875,76.04467,47.333448046875,77.33333L47.333448046875,102.5996L43.067048046875,98.3332C42.155848046875,97.422,40.678448046875,97.422,39.767248046875,98.3332C38.856048046875,99.2445,38.856048046875,100.72200000000001,39.767248046875,101.6331L47.604348046875,109.4701C48.743348046875,110.6092,50.590148046875,110.6092,51.729148046875,109.4701L59.566148046875,101.6331C60.477548046875,100.72200000000001,60.477548046875,99.2445,59.566148046875,98.3332C58.654948046875,97.422,57.177748046874996,97.422,56.266348046874995,98.3332L52.000048046875,102.5996L52.000048046875,77.33333ZM33.333418046874996,82C30.756088046875,82,28.666748046875,84.08933999999999,28.666748046875,86.6667L28.666748046875,117C28.666748046875,119.5774,30.756088046875,121.66669999999999,33.333418046874996,121.66669999999999L66.00004804687501,121.66669999999999C68.57744804687499,121.66669999999999,70.666748046875,119.5774,70.666748046875,117L70.666748046875,86.6667C70.666748046875,84.08933999999999,68.57744804687499,82,66.00004804687501,82L59.000048046875,82L59.000048046875,86.6667L66.00004804687501,86.6667L66.00004804687501,117L33.333418046874996,117L33.333418046874996,86.6667L40.333448046875,86.6667L40.333448046875,82L33.333418046874996,82Z" fill-rule="evenodd" fill="#000000" fill-opacity="0.8999999761581421"/><path d="M46.693448046875005,77.33333L46.693448046875005,101.0545L43.519648046875,97.8807Q42.648748046875,97.0098,41.417148046875,97.0098Q40.185548046875,97.0098,39.314748046874996,97.8807Q38.443848046875004,98.7516,38.443848046875004,99.9832Q38.443838046875,101.2149,39.314748046874996,102.0857L47.151848046875,109.9226Q48.193548046875,110.9645,49.666748046875,110.9644Q51.139948046875,110.9644,52.181748046875,109.9226L60.018648046875,102.0857Q60.889648046875,101.2149,60.889648046875,99.9832Q60.889648046875,98.7516,60.018648046875,97.8807Q59.147848046875,97.0098,57.916348046875,97.0098Q56.684848046875004,97.0098,55.813848046874995,97.8806L52.640048046874995,101.0545L52.640048046874995,77.33333Q52.640048046874995,76.10174,51.769248046875,75.23087Q50.898348046875,74.36,49.666748046875,74.36Q48.435148046875,74.36,47.564248046875,75.23087Q46.693448046875005,76.10174,46.693448046875005,77.33333ZM47.333448046875,102.5996L47.333448046875,77.33333C47.333448046875,76.04467,48.378048046875,75,49.666748046875,75C50.955448046875,75,52.000048046875,76.04467,52.000048046875,77.33333L52.000048046875,102.5996L52.640048046874995,101.9596L56.266348046874995,98.3332C57.177748046874996,97.422,58.654948046875,97.422,59.566148046875,98.3332C60.477548046875,99.2445,60.477548046875,100.72200000000001,59.566148046875,101.6331L51.729148046875,109.4701C50.590148046875,110.6092,48.743348046875,110.6092,47.604348046875,109.4701L39.767248046875,101.6331C38.856048046875,100.72200000000001,38.856048046875,99.2445,39.767248046875,98.3332C40.678448046875,97.422,42.155848046875,97.422,43.067048046875,98.3332L46.693448046875005,101.9596L47.333448046875,102.5996ZM28.026748046875,86.6667L28.026748046875,117Q28.026748046875,119.1981,29.581037046875,120.7524Q31.135308046875,122.3067,33.333418046874996,122.3067L66.00004804687501,122.3067Q68.198248046875,122.3067,69.752448046875,120.7524Q71.306748046875,119.1982,71.306748046875,117L71.306748046875,86.6667Q71.306748046875,84.46856,69.752448046875,82.91429Q68.198248046875,81.36,66.00004804687501,81.36L58.360048046875,81.36L58.360048046875,87.3067L65.360048046875,87.3067L65.360048046875,116.36L33.973418046875,116.36L33.973418046875,87.3067L40.973448046875,87.3067L40.973448046875,81.36L33.333418046874996,81.36Q31.135318046875,81.36,29.581035046875,82.91429Q28.026748046875,84.46857,28.026748046875,86.6667ZM66.00004804687501,117L66.00004804687501,86.6667L59.000048046875,86.6667L59.000048046875,82L66.00004804687501,82C68.57744804687499,82,70.666748046875,84.08933999999999,70.666748046875,86.6667L70.666748046875,117C70.666748046875,119.5774,68.57744804687499,121.66669999999999,66.00004804687501,121.66669999999999L33.333418046874996,121.66669999999999C30.756088046875,121.66669999999999,28.666748046875,119.5774,28.666748046875,117L28.666748046875,86.6667C28.666748046875,84.08933999999999,30.756088046875,82,33.333418046874996,82L40.333448046875,82L40.333448046875,86.6667L33.333418046874996,86.6667L33.333418046874996,117L66.00004804687501,117Z" fill-rule="evenodd" fill="#000000" fill-opacity="1"/></g></g></g></svg>