<svg xmlns="http://www.w3.org/2000/svg" xmlns:xlink="http://www.w3.org/1999/xlink" fill="none" version="1.1" width="112" height="54" viewBox="0 0 112 54"><defs><mask id="master_svg0_196_956" style="mask-type:alpha" maskUnits="userSpaceOnUse"><g><rect x="0" y="0" width="112" height="54" rx="27" fill="#FFFFFF" fill-opacity="1"/></g></mask><filter id="master_svg1_196_962" filterUnits="objectBoundingBox" color-interpolation-filters="sRGB" x="0" y="0" width="112" height="54"><feFlood flood-opacity="0" result="BackgroundImageFix"/><feBlend mode="normal" in="SourceGraphic" in2="BackgroundImageFix" result="shape"/><feColorMatrix in="SourceAlpha" type="matrix" result="hardAlpha" values="0 0 0 0 0 0 0 0 0 0 0 0 0 0 0 0 0 0 127 0"/><feOffset dy="0" dx="0"/><feGaussianBlur stdDeviation="5"/><feComposite in2="hardAlpha" operator="arithmetic" k2="-1" k3="1"/><feColorMatrix type="matrix" values="0 0 0 0 0 0 0 0 0 0 0 0 0 0 0 0 0 0 0.019999999552965164 0"/><feBlend mode="normal" in2="shape" result="effect1_innerShadow"/></filter><filter id="master_svg2_196_963" filterUnits="objectBoundingBox" color-interpolation-filters="sRGB" x="-48" y="-48" width="202" height="144"><feFlood flood-opacity="0" result="BackgroundImageFix"/><feColorMatrix in="SourceAlpha" type="matrix" values="0 0 0 0 0 0 0 0 0 0 0 0 0 0 0 0 0 0 127 0"/><feOffset dy="0" dx="0"/><feGaussianBlur stdDeviation="12"/><feColorMatrix type="matrix" values="0 0 0 0 0 0 0 0 0 0 0 0 0 0 0 0 0 0 0.009999999776482582 0"/><feBlend mode="normal" in2="BackgroundImageFix" result="effect1_dropShadow"/><feBlend mode="normal" in="SourceGraphic" in2="effect1_dropShadow" result="shape"/></filter><filter id="master_svg3_196_957" filterUnits="objectBoundingBox" color-interpolation-filters="sRGB" x="0" y="0" width="44" height="29"><feFlood flood-opacity="0" result="BackgroundImageFix"/><feBlend mode="normal" in="SourceGraphic" in2="BackgroundImageFix" result="shape"/><feColorMatrix in="SourceAlpha" type="matrix" result="hardAlpha" values="0 0 0 0 0 0 0 0 0 0 0 0 0 0 0 0 0 0 127 0"/><feOffset dy="0" dx="0"/><feGaussianBlur stdDeviation="5"/><feComposite in2="hardAlpha" operator="arithmetic" k2="-1" k3="1"/><feColorMatrix type="matrix" values="0 0 0 0 0 0 0 0 0 0 0 0 0 0 0 0 0 0 0.019999999552965164 0"/><feBlend mode="normal" in2="shape" result="effect1_innerShadow"/></filter></defs><g mask="url(#master_svg0_196_956)"><g filter="url(#master_svg1_196_962)"><rect x="0" y="0" width="112" height="54" rx="27" fill="#F2F2F2" fill-opacity="1"/></g><g filter="url(#master_svg2_196_963)"><rect x="3" y="3" width="106" height="48" rx="24" fill="#FFFFFF" fill-opacity="1"/></g><g><g transform="matrix(0,-1,1,0,-20.1666259765625,54.8333740234375)"><path d="M29.0000740234375,38.66667C29.0000740234375,38.022334,28.4776740234375,37.5,27.8333740234375,37.5C27.1890340234375,37.5,26.6667040234375,38.022334,26.6667040234375,38.66667L26.6667040234375,51.2998L24.5335340234375,49.1666C24.0779340234375,48.711,23.3392340234375,48.711,22.8836240234375,49.1666C22.4280240234375,49.6222,22.4280240234375,50.361000000000004,22.8836240234375,50.8166L26.802184023437498,54.735C27.3716740234375,55.3046,28.2950740234375,55.3046,28.8645740234375,54.735L32.7830740234375,50.8166C33.2387740234375,50.361000000000004,33.2387740234375,49.6222,32.7830740234375,49.1666C32.3274740234375,48.711,31.588874023437498,48.711,31.133174023437498,49.1666L29.0000740234375,51.2998L29.0000740234375,38.66667ZM19.6667040234375,41C18.3780440234375,41,17.3333740234375,42.044669999999996,17.3333740234375,43.333330000000004L17.3333740234375,58.5C17.3333740234375,59.7887,18.3780440234375,60.8333,19.6667040234375,60.8333L36.0000740234375,60.8333C37.2887740234375,60.8333,38.3333740234375,59.7887,38.3333740234375,58.5L38.3333740234375,43.333330000000004C38.3333740234375,42.044669999999996,37.2887740234375,41,36.0000740234375,41L32.5000740234375,41L32.5000740234375,43.333330000000004L36.0000740234375,43.333330000000004L36.0000740234375,58.5L19.6667040234375,58.5L19.6667040234375,43.333330000000004L23.1667040234375,43.333330000000004L23.1667040234375,41L19.6667040234375,41Z" fill-rule="evenodd" fill="#000000" fill-opacity="0.8999999761581421"/><path d="M26.3067040234375,38.66667L26.3067040234375,50.4307L24.788094023437502,48.9121Q24.3409540234375,48.4649,23.7085840234375,48.4649Q23.0762140234375,48.4649,22.6290640234375,48.9121Q22.1819240234375,49.3592,22.1819240234375,49.9916Q22.1819240234375,50.624,22.6290740234375,51.0711L26.5476240234375,54.989599999999996Q27.0801840234375,55.5222,27.8333740234375,55.5222Q28.5865740234375,55.5222,29.119174023437502,54.989599999999996L33.0376740234375,51.0711Q33.4848740234375,50.624,33.4848740234375,49.9916Q33.4848740234375,49.3592,33.0375740234375,48.912Q32.5904740234375,48.4649,31.9581740234375,48.4649Q31.3258740234375,48.4649,30.878674023437497,48.912L29.360074023437498,50.4307L29.360074023437498,38.66667Q29.360074023437498,38.0343,28.9128740234375,37.5871506Q28.4657740234375,37.14,27.8333740234375,37.14Q27.2010040234375,37.14,26.753854023437498,37.5871506Q26.3067040234375,38.0343,26.3067040234375,38.66667ZM26.6667040234375,51.2998L26.6667040234375,38.66667C26.6667040234375,38.022334,27.1890340234375,37.5,27.8333740234375,37.5C28.4776740234375,37.5,29.0000740234375,38.022334,29.0000740234375,38.66667L29.0000740234375,51.2998L29.360074023437498,50.9398L31.133174023437498,49.1666C31.588874023437498,48.711,32.3274740234375,48.711,32.7830740234375,49.1666C33.2387740234375,49.6222,33.2387740234375,50.361000000000004,32.7830740234375,50.8166L28.8645740234375,54.735C28.2950740234375,55.3046,27.3716740234375,55.3046,26.802184023437498,54.735L22.8836240234375,50.8166C22.4280240234375,50.361000000000004,22.4280240234375,49.6222,22.8836240234375,49.1666C23.3392340234375,48.711,24.0779340234375,48.711,24.5335340234375,49.1666L26.3067040234375,50.9398L26.6667040234375,51.2998ZM16.9733740234375,43.333330000000004L16.9733740234375,58.5Q16.9733740234375,59.6156,17.7622340234375,60.4045Q18.5510840234375,61.1933,19.6667040234375,61.1933L36.0000740234375,61.1933Q37.1156740234375,61.1933,37.904574023437505,60.4045Q38.6933740234375,59.6156,38.6933740234375,58.5L38.6933740234375,43.333330000000004Q38.6933740234375,42.21772,37.904574023437505,41.42886Q37.1156740234375,40.64,36.0000740234375,40.64L32.1400740234375,40.64L32.1400740234375,43.69333L35.6400740234375,43.69333L35.6400740234375,58.14L20.0267040234375,58.14L20.0267040234375,43.69333L23.5267040234375,43.69333L23.5267040234375,40.64L19.6667040234375,40.64Q18.5510940234375,40.64,17.7622330234375,41.42886Q16.9733740234375,42.21772,16.9733740234375,43.333330000000004ZM36.0000740234375,58.5L36.0000740234375,43.333330000000004L32.5000740234375,43.333330000000004L32.5000740234375,41L36.0000740234375,41C37.2887740234375,41,38.3333740234375,42.044669999999996,38.3333740234375,43.333330000000004L38.3333740234375,58.5C38.3333740234375,59.7887,37.2887740234375,60.8333,36.0000740234375,60.8333L19.6667040234375,60.8333C18.3780440234375,60.8333,17.3333740234375,59.7887,17.3333740234375,58.5L17.3333740234375,43.333330000000004C17.3333740234375,42.044669999999996,18.3780440234375,41,19.6667040234375,41L23.1667040234375,41L23.1667040234375,43.333330000000004L19.6667040234375,43.333330000000004L19.6667040234375,58.5L36.0000740234375,58.5Z" fill-rule="evenodd" fill="#000000" fill-opacity="1"/></g></g><g filter="url(#master_svg3_196_957)"><path d="M65.5,32.14Q65.434,32.228,64.686,33.196L64.246,33.745999999999995L69.438,33.745999999999995L69.438,36.078L50.496,36.078L50.496,33.745999999999995L55.644,33.745999999999995Q54.852000000000004,32.69,54.478,32.25L55.996,31.48L52.85,31.48L52.85,26.53Q51.86,27.168,50.848,27.718L49.99,25.32Q51.882,24.352,53.334,23.252000000000002L52.916,22.856Q51.42,21.492,51.046,21.183999999999997L52.564,19.6Q53.51,20.326,55.028,21.689999999999998Q56.04,20.612000000000002,56.876,19.292L51.024,19.292L51.024,17.07L59.45,17.07L59.45,19.6Q58.635999999999996,21.008,57.8,22.086L62.2,22.086Q60.814,19.996000000000002,59.802,16.652L62.244,16.498Q62.53,17.488,62.903999999999996,18.368000000000002Q65.038,17.114,66.05,16.344L67.458,18.192Q65.544,19.402,63.894,20.348Q64.202,20.832,64.664,21.404Q65.588,20.898,66.655,20.238Q67.72200000000001,19.578,68.294,19.16L69.724,21.03Q68.822,21.624000000000002,66.336,23.009999999999998Q67.788,24.131999999999998,70.076,25.1L68.998,27.476Q67.81,26.904,67.128,26.508L67.128,31.48L63.762,31.48L65.5,32.14ZM56.7,23.384Q55.556,24.594,54.258,25.561999999999998L65.654,25.561999999999998Q64.268,24.594,63.212,23.406L63.212,24.22L56.7,24.22L56.7,23.384ZM64.422,27.674L55.556,27.674L55.556,29.346L64.422,29.346L64.422,27.674ZM56.897999999999996,31.48L58.284,33.218L57.316,33.745999999999995L61.122,33.745999999999995Q62.288,32.316,62.882,31.48L56.897999999999996,31.48ZM87.148,31.084Q89.03999999999999,32.316,91.922,33.129999999999995L90.69,35.946Q88.05,34.802,86.378,33.702Q84.706,32.602000000000004,83.518,31.15L83.518,33.878Q83.518,35.373999999999995,82.836,35.968Q82.154,36.562,80.416,36.562L78.062,36.562L77.53399999999999,34.076L79.27199999999999,34.076Q79.932,34.076,80.251,33.977000000000004Q80.57,33.878,80.68,33.625Q80.78999999999999,33.372,80.78999999999999,32.888000000000005L80.78999999999999,31.546L73.31,35.484L72.078,32.976L76.72,30.688Q74.96000000000001,29.28,73.44200000000001,28.202L74.586,26.772L72.21000000000001,26.772L72.21000000000001,24.418L86.50999999999999,24.418L86.50999999999999,22.944000000000003L74.45400000000001,22.944000000000003L74.45400000000001,20.722L86.50999999999999,20.722L86.50999999999999,19.27L73.86,19.27L73.86,16.982L89.194,16.982L89.194,24.418L91.856,24.418L91.856,26.772L89.282,26.772L90.73400000000001,28.576L90.05199999999999,29.06Q87.632,30.754,87.148,31.084ZM77.292,30.402L80.78999999999999,28.686L80.78999999999999,26.772L75.46600000000001,26.772Q76.83,27.740000000000002,78.48,28.972L77.292,30.402ZM83.518,26.772L83.518,27.278Q84.156,28.444,85.146,29.456Q87.544,27.872,88.886,26.772L83.518,26.772Z" fill="#000000" fill-opacity="0.8999999761581421"/></g></g></svg>