<svg xmlns="http://www.w3.org/2000/svg" xmlns:xlink="http://www.w3.org/1999/xlink" fill="none" version="1.1" width="108.00000762939453" height="108" viewBox="0 0 108.00000762939453 108"><defs><clipPath id="master_svg0_492_1101"><rect x="0" y="0" width="108.00000762939453" height="108" rx="0"/></clipPath></defs><g clip-path="url(#master_svg0_492_1101)"><g><g><path d="M36.85714,34L71.1429,34C72.7208,34,74,35.27919,74,36.85714C74,38.4351,72.7208,39.71429,71.1429,39.71429L36.85714,39.71429C35.27919,39.71429,34,38.4351,34,36.85714C34,35.27919,35.27919,34,36.85714,34M36.85714,68.28569999999999L71.1429,68.28569999999999C72.7208,68.28569999999999,74,69.5649,74,71.1429C74,72.7208,72.7208,74,71.1429,74L36.85714,74C35.27919,74,34,72.7208,34,71.1429C34,69.5649,35.27919,68.28569999999999,36.85714,68.28569999999999M36.85714,51.1429L71.1429,51.1429C72.7208,51.1429,74,52.422,74,54C74,55.578,72.7208,56.8571,71.1429,56.8571L36.85714,56.8571C35.27919,56.8571,34,55.578,34,54C34,52.422,35.27919,51.1429,36.85714,51.1429" fill="#000000" fill-opacity="0.8999999761581421"/><path d="M33,36.85714Q33,38.45482,34.129731,39.584559999999996Q35.25946,40.71429,36.85714,40.71429L71.1429,40.71429Q72.7405,40.71429,73.8703,39.58455Q75,38.45483,75,36.85714Q75,35.25946,73.8703,34.129731Q72.7405,33,71.1429,33L36.85714,33Q35.25946,33,34.129731,34.129731Q33,35.25946,33,36.85714ZM71.1429,34L36.85714,34C35.27919,34,34,35.27919,34,36.85714C34,38.4351,35.27919,39.71429,36.85714,39.71429L71.1429,39.71429C72.7208,39.71429,74,38.4351,74,36.85714C74,35.27919,72.7208,34,71.1429,34ZM33,54Q33,55.5977,34.12973,56.7274Q35.25946,57.8571,36.85714,57.8571L71.1429,57.8571Q72.7405,57.8571,73.8703,56.7274Q75,55.5977,75,54Q75,52.4023,73.8703,51.2726Q72.7405,50.1429,71.1429,50.1429L36.85714,50.1429Q35.25946,50.1429,34.129731,51.2726Q33,52.4023,33,54ZM71.1429,51.1429L36.85714,51.1429C35.27919,51.1429,34,52.422,34,54C34,55.578,35.27919,56.8571,36.85714,56.8571L71.1429,56.8571C72.7208,56.8571,74,55.578,74,54C74,52.422,72.7208,51.1429,71.1429,51.1429ZM33,71.1429Q33,72.7405,34.129731,73.8703Q35.25946,75,36.85714,75L71.1429,75Q72.7405,75,73.8703,73.8703Q75,72.7405,75,71.1429Q75,69.5452,73.8703,68.4154Q72.7405,67.28569999999999,71.1429,67.28569999999999L36.85714,67.28569999999999Q35.25946,67.28569999999999,34.12973,68.4154Q33,69.5452,33,71.1429ZM71.1429,68.28569999999999L36.85714,68.28569999999999C35.27919,68.28569999999999,34,69.5649,34,71.1429C34,72.7208,35.27919,74,36.85714,74L71.1429,74C72.7208,74,74,72.7208,74,71.1429C74,69.5649,72.7208,68.28569999999999,71.1429,68.28569999999999Z" fill-rule="evenodd" fill="#000000" fill-opacity="0.8999999761581421"/></g></g></g></svg>