<svg xmlns="http://www.w3.org/2000/svg" xmlns:xlink="http://www.w3.org/1999/xlink" fill="none" version="1.1" width="54.000003814697266" height="54" viewBox="0 0 54.000003814697266 54"><defs><clipPath id="master_svg0_199_0231"><rect x="0" y="0" width="54.000003814697266" height="54" rx="0"/></clipPath><filter id="master_svg1_199_0233" filterUnits="objectBoundingBox" color-interpolation-filters="sRGB" x="0" y="0" width="54.000003814697266" height="54"><feFlood flood-opacity="0" result="BackgroundImageFix"/><feBlend mode="normal" in="SourceGraphic" in2="BackgroundImageFix" result="shape"/><feColorMatrix in="SourceAlpha" type="matrix" result="hardAlpha" values="0 0 0 0 0 0 0 0 0 0 0 0 0 0 0 0 0 0 127 0"/><feOffset dy="0" dx="0"/><feGaussianBlur stdDeviation="5"/><feComposite in2="hardAlpha" operator="arithmetic" k2="-1" k3="1"/><feColorMatrix type="matrix" values="0 0 0 0 0 0 0 0 0 0 0 0 0 0 0 0 0 0 0.019999999552965164 0"/><feBlend mode="normal" in2="shape" result="effect1_innerShadow"/></filter><filter id="master_svg2_199_0234" filterUnits="objectBoundingBox" color-interpolation-filters="sRGB" x="-48" y="-48" width="144.00000381469727" height="144"><feFlood flood-opacity="0" result="BackgroundImageFix"/><feColorMatrix in="SourceAlpha" type="matrix" values="0 0 0 0 0 0 0 0 0 0 0 0 0 0 0 0 0 0 127 0"/><feOffset dy="0" dx="0"/><feGaussianBlur stdDeviation="12"/><feColorMatrix type="matrix" values="0 0 0 0 0 0 0 0 0 0 0 0 0 0 0 0 0 0 0.009999999776482582 0"/><feBlend mode="normal" in2="BackgroundImageFix" result="effect1_dropShadow"/><feBlend mode="normal" in="SourceGraphic" in2="effect1_dropShadow" result="shape"/></filter><linearGradient x1="0.5" y1="0" x2="0.5" y2="1" id="master_svg3_1_3709"><stop offset="0%" stop-color="#FF9292" stop-opacity="1"/><stop offset="100%" stop-color="#FF1F1F" stop-opacity="1"/></linearGradient><filter id="master_svg4_196_0276" filterUnits="objectBoundingBox" color-interpolation-filters="sRGB" x="-4" y="-4" width="20" height="20"><feFlood flood-opacity="0" result="BackgroundImageFix"/><feColorMatrix in="SourceAlpha" type="matrix" values="0 0 0 0 0 0 0 0 0 0 0 0 0 0 0 0 0 0 127 0"/><feOffset dy="0" dx="0"/><feGaussianBlur stdDeviation="1"/><feColorMatrix type="matrix" values="0 0 0 0 0 0 0 0 0 0 0 0 0 0 0 0 0 0 0.11999999731779099 0"/><feBlend mode="normal" in2="BackgroundImageFix" result="effect1_dropShadow"/><feBlend mode="normal" in="SourceGraphic" in2="effect1_dropShadow" result="shape"/></filter></defs><g clip-path="url(#master_svg0_199_0231)"><g filter="url(#master_svg1_199_0233)"><ellipse cx="27.000001907348633" cy="27" rx="27.000001907348633" ry="27" fill="#F2F2F2" fill-opacity="1"/></g><g filter="url(#master_svg2_199_0234)"><ellipse cx="27.000001907348633" cy="27" rx="24.000001907348633" ry="24" fill="#FFFFFF" fill-opacity="1"/></g><g><g><path d="M36.3333740234375,17.416671752929688L17.6667040234375,17.416671752929688Q16.5966540234375,17.416671752929688,15.8400140234375,18.173312752929686Q15.0833740234375,18.92995175292969,15.0833740234375,20.000001752929688L15.0833740234375,33.99997175292969Q15.0833740234375,35.07007175292969,15.8400140234375,35.826671752929684Q16.5966540234375,36.583371752929686,17.6667040234375,36.583371752929686L36.3333740234375,36.583371752929686Q37.4034740234375,36.583371752929686,38.1600740234375,35.826671752929684Q38.9166740234375,35.07007175292969,38.9166740234375,33.99997175292969L38.9166740234375,20.000001752929688Q38.9166740234375,18.92995175292969,38.1600740234375,18.173312752929686Q37.4034740234375,17.416671752929688,36.3333740234375,17.416671752929688ZM34.0794740234375,20.250001752929688L19.9210340234375,20.250001752929688L27.0002740234375,27.329221752929687L34.0794740234375,20.250001752929688ZM17.9167040234375,33.74997175292969L36.0833740234375,33.74997175292969L36.0833740234375,22.253041752929686L28.0018740234375,30.334571752929687Q27.5871740234375,30.749671752929686,27.0002740234375,30.74957175292969Q26.413274023437502,30.749671752929686,25.9982740234375,30.334671752929687L17.9167040234375,22.252671752929686L17.9167040234375,33.74997175292969Z" fill-rule="evenodd" fill="#000000" fill-opacity="0.8999999761581421"/></g></g><g><g><path d="M43,19Q43,19.12274,42.99398,19.24534Q42.98795,19.36793,42.97592,19.490090000000002Q42.96389,19.61224,42.94588,19.73365Q42.92787,19.85507,42.90392,19.975450000000002Q42.87998,20.09584,42.85015,20.2149Q42.82033,20.33396,42.7847,20.45142Q42.74907,20.56888,42.70772,20.68445Q42.66637,20.80002,42.6194,20.913420000000002Q42.57242,21.02682,42.51995,21.13777Q42.46747,21.248730000000002,42.40961,21.35698Q42.35174,21.46523,42.28864,21.57051Q42.22554,21.67579,42.15735,21.77785Q42.089150000000004,21.87991,42.016040000000004,21.9785Q41.94292,22.077080000000002,41.86505,22.17197Q41.78718,22.266849999999998,41.704750000000004,22.35779Q41.62232,22.44874,41.53553,22.53553Q41.44874,22.622320000000002,41.35779,22.70475Q41.26685,22.78718,41.17197,22.86505Q41.07708,22.94292,40.9785,23.01604Q40.87991,23.08915,40.77785,23.15735Q40.67579,23.225540000000002,40.57051,23.28864Q40.46523,23.35174,40.35698,23.40961Q40.24873,23.46747,40.13777,23.51995Q40.02682,23.57242,39.91342,23.6194Q39.80002,23.66637,39.68445,23.707720000000002Q39.56888,23.74907,39.45142,23.7847Q39.33396,23.82033,39.2149,23.85015Q39.09584,23.87998,38.97545,23.90392Q38.85507,23.92787,38.73365,23.945880000000002Q38.61224,23.96389,38.49009,23.975920000000002Q38.36793,23.987949999999998,38.24534,23.99398Q38.12274,24,38,24Q37.87726,24,37.75466,23.99398Q37.63207,23.987949999999998,37.50991,23.975920000000002Q37.38776,23.96389,37.26635,23.945880000000002Q37.14493,23.92787,37.02455,23.90392Q36.90416,23.87998,36.7851,23.85015Q36.66603,23.82033,36.54858,23.7847Q36.43112,23.74907,36.31555,23.707720000000002Q36.19998,23.66637,36.08658,23.6194Q35.97318,23.57242,35.86222,23.51995Q35.75127,23.46747,35.64302,23.40961Q35.53477,23.35174,35.42949,23.28864Q35.32421,23.225540000000002,35.22215,23.15735Q35.12009,23.08915,35.0215,23.01604Q34.92291,22.94292,34.82803,22.86505Q34.73315,22.78718,34.6422,22.70475Q34.55126,22.622320000000002,34.46447,22.53553Q34.37767,22.44874,34.29524,22.35779Q34.21282,22.266849999999998,34.13495,22.17197Q34.05708,22.077080000000002,33.983962,21.9785Q33.910844,21.87991,33.842652,21.77785Q33.774459,21.67579,33.711357,21.57051Q33.648254,21.46523,33.590394,21.35698Q33.532533,21.248730000000002,33.480053,21.13777Q33.427574,21.02682,33.380602,20.913420000000002Q33.333631,20.80002,33.29228,20.68445Q33.250929,20.56888,33.215298,20.45142Q33.179668,20.33396,33.149844,20.2149Q33.12002,20.09584,33.0960736,19.975450000000002Q33.0721276,19.85507,33.0541174,19.73365Q33.0361073,19.61224,33.0240764,19.490090000000002Q33.0120454,19.36793,33.00602272,19.24534Q33,19.12274,33,19Q33,18.87726,33.00602272,18.75466Q33.0120454,18.63207,33.0240764,18.509909999999998Q33.0361073,18.38776,33.0541174,18.26635Q33.0721276,18.14493,33.0960736,18.024549999999998Q33.12002,17.90416,33.149844,17.7851Q33.179668,17.66603,33.215298,17.54858Q33.250929,17.43112,33.29228,17.31555Q33.333631,17.19998,33.380602,17.08658Q33.427574,16.97318,33.480053,16.86222Q33.532533,16.751269999999998,33.590394,16.64302Q33.648254,16.53477,33.711357,16.42949Q33.774459,16.32421,33.842652,16.22215Q33.910844,16.12009,33.983962,16.0215Q34.05708,15.92291,34.13495,15.82803Q34.21282,15.73315,34.29524,15.6422Q34.37767,15.55126,34.46447,15.46447Q34.55126,15.37767,34.6422,15.29524Q34.73315,15.21282,34.82803,15.13495Q34.92291,15.05708,35.0215,14.983962Q35.12009,14.910844,35.22215,14.842652Q35.32421,14.774459,35.42949,14.711357Q35.53477,14.648254,35.64302,14.590394Q35.75127,14.532533,35.86222,14.480053Q35.97318,14.427574,36.08658,14.380602Q36.19998,14.333631,36.31555,14.29228Q36.43112,14.250929,36.54858,14.215298Q36.66603,14.179668,36.7851,14.149844Q36.90416,14.12002,37.02455,14.0960736Q37.14493,14.0721276,37.26635,14.0541174Q37.38776,14.0361073,37.50991,14.0240764Q37.63207,14.0120454,37.75466,14.00602272Q37.87726,14,38,14Q38.12274,14,38.24534,14.00602272Q38.36793,14.0120454,38.49009,14.0240764Q38.61224,14.0361073,38.73365,14.0541174Q38.85507,14.0721276,38.97545,14.0960736Q39.09584,14.12002,39.2149,14.149844Q39.33396,14.179668,39.45142,14.215298Q39.56888,14.250929,39.68445,14.29228Q39.80002,14.333631,39.91342,14.380602Q40.02682,14.427574,40.13777,14.480053Q40.24873,14.532533,40.35698,14.590394Q40.46523,14.648254,40.57051,14.711357Q40.67579,14.774459,40.77785,14.842652Q40.87991,14.910844,40.9785,14.983962Q41.07708,15.05708,41.17197,15.13495Q41.26685,15.21282,41.35779,15.29524Q41.44874,15.37767,41.53553,15.46447Q41.62232,15.55126,41.704750000000004,15.6422Q41.78718,15.73315,41.86505,15.82803Q41.94292,15.92291,42.016040000000004,16.0215Q42.089150000000004,16.12009,42.15735,16.22215Q42.22554,16.32421,42.28864,16.42949Q42.35174,16.53477,42.40961,16.64302Q42.46747,16.751269999999998,42.51995,16.86222Q42.57242,16.97318,42.6194,17.08658Q42.66637,17.19998,42.70772,17.31555Q42.74907,17.43112,42.7847,17.54858Q42.82033,17.66603,42.85015,17.7851Q42.87998,17.90416,42.90392,18.024549999999998Q42.92787,18.14493,42.94588,18.26635Q42.96389,18.38776,42.97592,18.509909999999998Q42.98795,18.63207,42.99398,18.75466Q43,18.87726,43,19Z" fill="url(#master_svg3_1_3709)" fill-opacity="1"/></g><g filter="url(#master_svg4_196_0276)"><path d="M44,19Q44,20.14446,43.5787,21.20857Q43.1213,22.36396,42.242599999999996,23.2426Q41.36396,24.121299999999998,40.20857,24.578699999999998Q39.14446,25,38,25Q36.85554,25,35.79143,24.578699999999998Q34.63604,24.121299999999998,33.75736,23.2426Q32.87868,22.36396,32.42127,21.20857Q32,20.14446,32,19Q32,17.85554,32.42127,16.79143Q32.87868,15.63604,33.75736,14.75736Q34.63604,13.87868,35.79143,13.42127Q36.85554,13,38,13Q39.14446,13,40.20857,13.42127Q41.36396,13.87868,42.242599999999996,14.75736Q43.1213,15.63604,43.5787,16.79143Q44,17.85554,44,19ZM42.9091,19C42.9091,21.71122,40.71122,23.909100000000002,38,23.909100000000002C35.28878,23.909100000000002,33.09091,21.71122,33.09091,19C33.09091,16.28878,35.28878,14.090910000000001,38,14.090910000000001C40.71122,14.090910000000001,42.9091,16.28878,42.9091,19Z" fill-rule="evenodd" fill="#FFFFFF" fill-opacity="1"/></g></g></g></svg>