<svg xmlns="http://www.w3.org/2000/svg" xmlns:xlink="http://www.w3.org/1999/xlink" fill="none" version="1.1" width="492" height="160" viewBox="0 0 492 160"><g><g><rect x="0" y="0" width="492" height="160" rx="48" fill="#FFFFFF" fill-opacity="1"/></g><g><g><path d="M156.597934375,56.0802884765625C154.515334375,53.9974894765625,151.138234375,53.9974894765625,149.055534375,56.0802884765625C149.055534375,56.0802884765625,121.552334375,83.58348847656251,121.552334375,83.58348847656251C120.552138375,84.5837884765625,119.990234375,85.9402884765625,119.990234375,87.3546884765625C119.990234375,87.3546884765625,119.990234375,101.3082884765625,119.990234375,101.3082884765625C119.990234375,102.7960884765625,121.196174375,104.00168847656249,122.683564375,104.00168847656249C122.683564375,104.00168847656249,136.637234375,104.00168847656249,136.637234375,104.00168847656249C138.051734375,104.00168847656249,139.408334375,103.4397884765625,140.408534375,102.4397884765625C140.408534375,102.4397884765625,167.911834375,74.9364884765625,167.911834375,74.9364884765625C169.994534375,72.8536884765625,169.994534375,69.4767884765625,167.911834375,67.3939884765625C167.911834375,67.3939884765625,156.597934375,56.0802884765625,156.597934375,56.0802884765625C156.597934375,56.0802884765625,156.597934375,56.0802884765625,156.597934375,56.0802884765625ZM152.826734375,59.851518476562504C152.826734375,59.851518476562504,164.140334375,71.16518847656249,164.140334375,71.16518847656249C164.140334375,71.16518847656249,159.538234375,75.7673884765625,159.538234375,75.7673884765625C159.538234375,75.7673884765625,148.224634375,64.4536584765625,148.224634375,64.4536584765625C148.224634375,64.4536584765625,152.826734375,59.851518476562504,152.826734375,59.851518476562504C152.826734375,59.851518476562504,152.826734375,59.851518476562504,152.826734375,59.851518476562504ZM144.453434375,68.2248884765625C144.453434375,68.2248884765625,125.323564375,87.3546884765625,125.323564375,87.3546884765625C125.323564375,87.3546884765625,125.323564375,98.66828847656251,125.323564375,98.66828847656251C125.323564375,98.66828847656251,136.637234375,98.66828847656251,136.637234375,98.66828847656251C136.637234375,98.66828847656251,155.767034375,79.5385884765625,155.767034375,79.5385884765625C155.767034375,79.5385884765625,144.453434375,68.2248884765625,144.453434375,68.2248884765625C144.453434375,68.2248884765625,144.453434375,68.2248884765625,144.453434375,68.2248884765625Z" fill-rule="evenodd" fill="#000000" fill-opacity="0.8999999761581421"/><path d="M118.990234375,87.3546884765625L118.990234375,101.3082884765625Q118.990234375,102.8382884765625,120.072052875,103.91998847656251Q121.153774375,105.00168847656249,122.683564375,105.00168847656249L136.637234375,105.00168847656249Q139.260534375,105.00168847656249,141.115534375,103.1469884765625L168.618934375,75.6435884765625Q170.473834375,73.7885884765625,170.473834375,71.1652884765625Q170.473834375,68.5418884765625,168.618934375,66.6868884765625L157.305134375,55.3731994765625L157.305034375,55.3731724765625Q155.450234375,53.5181884765625,152.826734375,53.5181884765625Q150.203334375,53.5181884765625,148.348434375,55.3731994765625L120.845223375,82.8763884765625Q118.990234375,84.73158847656251,118.990234375,87.3546884765625ZM121.552334375,83.58348847656251L149.055534375,56.0802884765625C151.138234375,53.9974894765625,154.515334375,53.9974894765625,156.597934375,56.0802884765625L167.911834375,67.3939884765625C169.994534375,69.4767884765625,169.994534375,72.8536884765625,167.911834375,74.9364884765625L140.408534375,102.4397884765625C139.408334375,103.4397884765625,138.051734375,104.00168847656249,136.637234375,104.00168847656249L122.683564375,104.00168847656249C121.196174375,104.00168847656249,119.990234375,102.7960884765625,119.990234375,101.3082884765625L119.990234375,87.3546884765625C119.990234375,85.9402884765625,120.552138375,84.5837884765625,121.552334375,83.58348847656251ZM152.119634375,60.558628476562504L148.931734375,63.7465484765625L148.224634375,64.4536584765625L148.931734375,65.1607884765625L158.831134375,75.0602884765625L159.538234375,75.7673884765625L160.245334375,75.0602884765625L164.140334375,71.16518847656249L163.43323437499998,70.4580884765625L153.533834375,60.558628476562504L152.826734375,59.851518476562504L152.119634375,60.558628476562504ZM159.538234375,74.35318847656251L149.638834375,64.4536584765625L152.826734375,61.265738476562504L162.72613437500002,71.16518847656249L159.538234375,74.35318847656251ZM145.160534375,68.9319884765625L155.059934375,78.8314884765625L155.767034375,79.5385884765625L155.059934375,80.24568847656249L136.637234375,98.66828847656251L125.323564375,98.66828847656251L125.323564375,87.3546884765625L143.746334375,68.9319884765625L144.453434375,68.2248884765625L145.160534375,68.9319884765625ZM144.453434375,69.6390884765625L154.352834375,79.5385884765625L136.223034375,97.66828847656251L126.323564375,97.66828847656251L126.323564375,87.7689884765625L144.453434375,69.6390884765625Z" fill-rule="evenodd" fill="#000000" fill-opacity="0.8999999761581421"/></g></g><g><path d="M233.40800000000002,71.504L209.648,71.504Q209.312,72.848,208.544,75.344L228.89600000000002,75.344L228.89600000000002,80.768Q225.392,87.00800000000001,221.024,90.99199999999999Q226.016,93.584,233.216,95.408L230.864,101.696Q221.6,98.912,215.648,94.928Q212.672,96.75200000000001,208.784,98.408Q204.89600000000002,100.064,199.472,101.936L196.976,96.416Q205.088,93.968,210.752,90.99199999999999Q207.392,87.632,205.088,83.648Q203.024,87.68,200.168,91.49600000000001Q197.312,95.312,193.28,99.536L190.256,93.44Q199.52,84.70400000000001,203.504,71.504L192.224,71.504L192.224,66.512L194.528,58.304L200.528,59.312L198.656,66.128L204.848,66.128Q205.712,62.288,206.24,57.056L212.144,57.488Q211.568,62.288,210.8,66.128L225.728,66.128Q222.272,64.01599999999999,217.76,61.328L220.688,56.624Q222.512,57.632,225.07999999999998,59.12Q227.648,60.608000000000004,228.89600000000002,61.424L226.16,66.128L233.40800000000002,66.128L233.40800000000002,71.504ZM215.984,87.68Q219.872,84.656,222.176,80.816L209.984,80.816Q212.48,84.848,215.984,87.68ZM256.544,68.24Q254.52800000000002,72.32,252.464,75.248L259.08799999999997,75.248L259.08799999999997,70.208L264.992,70.208L264.992,75.248L278.336,75.248L278.336,91.184Q278.336,93.584,277.736,94.88Q277.13599999999997,96.176,275.79200000000003,96.70400000000001Q274.448,97.232,272.096,97.232L267.872,97.232L266.72,91.664L270.368,91.664Q271.856,91.664,272.264,91.208Q272.672,90.75200000000001,272.672,89.55199999999999L272.672,80.816L264.992,80.816L264.992,101.6L259.08799999999997,101.6L259.08799999999997,80.816L251.552,80.816L251.552,97.80799999999999L245.888,97.80799999999999L245.888,83.36Q243.632,85.712,240.07999999999998,88.976L238.352,82.4Q242.096,79.424,244.928,75.968Q247.76,72.512,250.016,68.24L239.888,68.24L239.888,62.576L252.704,62.576Q253.712,60.224000000000004,254.912,56.816L260.86400000000003,57.824Q260.384,59.263999999999996,259.08799999999997,62.576L281.024,62.576L281.024,68.24L256.544,68.24ZM326.76800000000003,63.872L326.76800000000003,94.64Q326.76800000000003,97.328,326.168,98.672Q325.568,100.01599999999999,324.10400000000004,100.52000000000001Q322.64,101.024,319.76,101.024L313.616,101.024L312.512,95.312L317.84000000000003,95.312Q319.18399999999997,95.312,319.832,95.072Q320.48,94.832,320.696,94.232Q320.91200000000003,93.632,320.91200000000003,92.47999999999999L320.91200000000003,85.47200000000001L317.312,89.936Q314.48,87.00800000000001,308.096,80.864Q305.168,85.952,298.832,90.848L295.18399999999997,86.096L295.18399999999997,101.21600000000001L289.23199999999997,101.21600000000001L289.23199999999997,63.872L305.12,63.872L305.12,57.248L311.264,57.248L311.264,63.872L326.76800000000003,63.872ZM295.18399999999997,85.80799999999999Q298.832,83.072,300.92,80.624Q303.008,78.176,303.944,75.584Q304.88,72.992,305.072,69.584L295.18399999999997,69.584L295.18399999999997,85.80799999999999ZM317.072,81.344L320.91200000000003,84.944L320.91200000000003,69.584L311.216,69.584Q311.072,72.608,310.448,75.152L317.072,81.344ZM341.648,66.56L341.648,70.352L336.08000000000004,70.352L336.08000000000004,61.376L353.264,61.376Q352.784,59.84,351.872,57.248L358.592,56.384Q359.024,57.536,360.224,61.376L375.824,61.376L375.824,70.44800000000001L370.15999999999997,70.44800000000001L370.15999999999997,66.56L341.648,66.56ZM336.224,74.288Q339.536,73.03999999999999,343.568,70.928Q347.6,68.816,350.432,66.848L353.168,71.21600000000001Q347.6,75.104,338.672,79.232L336.224,74.288ZM361.328,67.03999999999999L376.352,74.624L373.808,79.328Q371.168,77.792,366.464,75.29599999999999Q361.76,72.8,358.784,71.312L361.328,67.03999999999999ZM375.584,90.416Q373.23199999999997,89.456,370.976,88.4L370.976,101.50399999999999L365.312,101.50399999999999L365.312,99.488L346.64,99.488L346.64,101.50399999999999L340.976,101.50399999999999L340.976,88.304Q339.152,89.26400000000001,336.224,90.416L334.01599999999996,85.232Q341.072,82.64,345.872,79.712Q350.672,76.78399999999999,353.88800000000003,73.088L358.11199999999997,73.088Q361.568,76.928,366.32,79.832Q371.072,82.73599999999999,377.88800000000003,85.136L375.584,90.416ZM364.11199999999997,84.56Q359.072,81.29599999999999,356,78.224Q352.352,81.632,347.79200000000003,84.56L364.11199999999997,84.56ZM346.64,89.50399999999999L346.64,94.49600000000001L365.312,94.49600000000001L365.312,89.50399999999999L346.64,89.50399999999999Z" fill="#000000" fill-opacity="0.8999999761581421"/></g></g></svg>