<svg xmlns="http://www.w3.org/2000/svg" xmlns:xlink="http://www.w3.org/1999/xlink" fill="none" version="1.1" width="156" height="54" viewBox="0 0 156 54"><defs><mask id="master_svg0_42_2792" style="mask-type:alpha" maskUnits="userSpaceOnUse"><g><rect x="0" y="0" width="156" height="54" rx="27" fill="#FFFFFF" fill-opacity="1"/></g></mask><filter id="master_svg1_42_2661" filterUnits="objectBoundingBox" color-interpolation-filters="sRGB" x="0" y="0" width="156" height="54"><feFlood flood-opacity="0" result="BackgroundImageFix"/><feBlend mode="normal" in="SourceGraphic" in2="BackgroundImageFix" result="shape"/><feColorMatrix in="SourceAlpha" type="matrix" result="hardAlpha" values="0 0 0 0 0 0 0 0 0 0 0 0 0 0 0 0 0 0 127 0"/><feOffset dy="0" dx="0"/><feGaussianBlur stdDeviation="5"/><feComposite in2="hardAlpha" operator="arithmetic" k2="-1" k3="1"/><feColorMatrix type="matrix" values="0 0 0 0 0 0 0 0 0 0 0 0 0 0 0 0 0 0 0.019999999552965164 0"/><feBlend mode="normal" in2="shape" result="effect1_innerShadow"/></filter><filter id="master_svg2_42_2706" filterUnits="objectBoundingBox" color-interpolation-filters="sRGB" x="-48" y="-48" width="246" height="144"><feFlood flood-opacity="0" result="BackgroundImageFix"/><feColorMatrix in="SourceAlpha" type="matrix" values="0 0 0 0 0 0 0 0 0 0 0 0 0 0 0 0 0 0 127 0"/><feOffset dy="0" dx="0"/><feGaussianBlur stdDeviation="12"/><feColorMatrix type="matrix" values="0 0 0 0 0 0 0 0 0 0 0 0 0 0 0 0 0 0 0.009999999776482582 0"/><feBlend mode="normal" in2="BackgroundImageFix" result="effect1_dropShadow"/><feBlend mode="normal" in="SourceGraphic" in2="effect1_dropShadow" result="shape"/></filter><filter id="master_svg3_42_2705" filterUnits="objectBoundingBox" color-interpolation-filters="sRGB" x="0" y="0" width="21.649078369140625" height="21.64907455444336"><feFlood flood-opacity="0" result="BackgroundImageFix"/><feBlend mode="normal" in="SourceGraphic" in2="BackgroundImageFix" result="shape"/><feColorMatrix in="SourceAlpha" type="matrix" result="hardAlpha" values="0 0 0 0 0 0 0 0 0 0 0 0 0 0 0 0 0 0 127 0"/><feOffset dy="0" dx="0"/><feGaussianBlur stdDeviation="5"/><feComposite in2="hardAlpha" operator="arithmetic" k2="-1" k3="1"/><feColorMatrix type="matrix" values="0 0 0 0 0 0 0 0 0 0 0 0 0 0 0 0 0 0 0.019999999552965164 0"/><feBlend mode="normal" in2="shape" result="effect1_innerShadow"/></filter><filter id="master_svg4_42_2670" filterUnits="objectBoundingBox" color-interpolation-filters="sRGB" x="0" y="0" width="88" height="29"><feFlood flood-opacity="0" result="BackgroundImageFix"/><feBlend mode="normal" in="SourceGraphic" in2="BackgroundImageFix" result="shape"/><feColorMatrix in="SourceAlpha" type="matrix" result="hardAlpha" values="0 0 0 0 0 0 0 0 0 0 0 0 0 0 0 0 0 0 127 0"/><feOffset dy="0" dx="0"/><feGaussianBlur stdDeviation="5"/><feComposite in2="hardAlpha" operator="arithmetic" k2="-1" k3="1"/><feColorMatrix type="matrix" values="0 0 0 0 0 0 0 0 0 0 0 0 0 0 0 0 0 0 0.019999999552965164 0"/><feBlend mode="normal" in2="shape" result="effect1_innerShadow"/></filter></defs><g mask="url(#master_svg0_42_2792)"><g filter="url(#master_svg1_42_2661)"><rect x="0" y="0" width="156" height="54" rx="27" fill="#F2F2F2" fill-opacity="1"/></g><g filter="url(#master_svg2_42_2706)"><rect x="3" y="3" width="150" height="48" rx="24" fill="#FFFFFF" fill-opacity="1"/></g><g><g filter="url(#master_svg3_42_2705)"><path d="M34.5116275390625,16.535071052734374C33.6004275390625,15.623848052734376,32.1229275390625,15.623848052734376,31.2118275390625,16.535071052734374C31.2118275390625,16.535071052734374,19.1791445390625,28.567754052734376,19.1791445390625,28.567754052734376C18.7415605390625,29.005354052734376,18.4957275390625,29.598854052734374,18.4957275390625,30.217654052734375C18.4957275390625,30.217654052734375,18.4957275390625,36.322354052734376,18.4957275390625,36.322354052734376C18.4957275390625,36.973254052734376,19.0233265390625,37.500654052734376,19.6740575390625,37.500654052734376C19.6740575390625,37.500654052734376,25.778807539062498,37.500654052734376,25.778807539062498,37.500654052734376C26.3976475390625,37.500654052734376,26.9911375390625,37.25485405273437,27.4287175390625,36.81735405273437C27.4287175390625,36.81735405273437,39.4614275390625,24.784644052734375,39.4614275390625,24.784644052734375C40.3726275390625,23.873434052734375,40.3726275390625,22.396044052734375,39.4614275390625,21.484824052734375C39.4614275390625,21.484824052734375,34.5116275390625,16.535071052734374,34.5116275390625,16.535071052734374C34.5116275390625,16.535071052734374,34.5116275390625,16.535071052734374,34.5116275390625,16.535071052734374ZM32.8617275390625,18.184984052734375C32.8617275390625,18.184984052734375,37.8114275390625,23.134734052734373,37.8114275390625,23.134734052734373C37.8114275390625,23.134734052734373,35.7980275390625,25.148164052734373,35.7980275390625,25.148164052734373C35.7980275390625,25.148164052734373,30.848327539062502,20.198424052734374,30.848327539062502,20.198424052734374C30.848327539062502,20.198424052734374,32.8617275390625,18.184984052734375,32.8617275390625,18.184984052734375C32.8617275390625,18.184984052734375,32.8617275390625,18.184984052734375,32.8617275390625,18.184984052734375ZM29.1983275390625,21.848334052734373C29.1983275390625,21.848334052734373,20.8290575390625,30.217654052734375,20.8290575390625,30.217654052734375C20.8290575390625,30.217654052734375,20.8290575390625,35.167354052734375,20.8290575390625,35.167354052734375C20.8290575390625,35.167354052734375,25.778807539062498,35.167354052734375,25.778807539062498,35.167354052734375C25.778807539062498,35.167354052734375,34.1481275390625,26.798054052734376,34.1481275390625,26.798054052734376C34.1481275390625,26.798054052734376,29.1983275390625,21.848334052734373,29.1983275390625,21.848334052734373C29.1983275390625,21.848334052734373,29.1983275390625,21.848334052734373,29.1983275390625,21.848334052734373Z" fill-rule="evenodd" fill="#000000" fill-opacity="0.8999999761581421"/><path d="M17.9957275390625,30.217654052734375L17.9957275390625,36.322354052734376Q17.9957275390625,37.017554052734376,18.4873305890625,37.509154052734374Q18.9788905390625,38.000654052734376,19.6740575390625,38.000654052734376L25.778807539062498,38.000654052734376Q26.9523475390625,38.000654052734376,27.7822375390625,37.17095405273437L39.8150275390625,25.138204052734373Q40.644827539062504,24.308334052734374,40.644827539062504,23.134734052734373Q40.644827539062504,21.961144052734376,39.8150275390625,21.131284052734376L34.8651275390625,16.181529052734376L34.8651275390625,16.181515052734376Q34.0353275390625,15.351654052734375,32.8617275390625,15.351654052734375Q31.6880275390625,15.351654052734375,30.8582275390625,16.181529052734376L18.8255915390625,28.214154052734376Q17.9957275390625,29.044154052734378,17.9957275390625,30.217654052734375ZM31.2118275390625,16.535071052734374C32.1229275390625,15.623848052734376,33.6004275390625,15.623848052734376,34.5116275390625,16.535071052734374L39.4614275390625,21.484824052734375C40.3726275390625,22.396044052734375,40.3726275390625,23.873434052734375,39.4614275390625,24.784644052734375L27.4287175390625,36.81735405273437C26.9911375390625,37.25485405273437,26.3976475390625,37.500654052734376,25.778807539062498,37.500654052734376L19.6740575390625,37.500654052734376C19.0233265390625,37.500654052734376,18.4957275390625,36.973254052734376,18.4957275390625,36.322354052734376L18.4957275390625,30.217654052734375C18.4957275390625,29.598854052734374,18.7415605390625,29.005354052734376,19.1791445390625,28.567754052734376L31.2118275390625,16.535071052734374ZM32.5081275390625,18.538544052734373L31.2018275390625,19.844864052734376L30.848327539062502,20.198424052734374L31.2018275390625,20.551974052734373L35.4444275390625,24.794614052734374L35.7980275390625,25.148164052734373L36.1515275390625,24.794614052734374L37.4578275390625,23.488284052734375L37.8114275390625,23.134734052734373L37.4578275390625,22.781184052734375L33.2152275390625,18.538544052734373L32.8617275390625,18.184984052734375L32.5081275390625,18.538544052734373ZM35.7980275390625,24.441054052734373L31.5554275390625,20.198424052734374L32.8617275390625,18.892094052734375L37.104327539062496,23.134734052734373L35.7980275390625,24.441054052734373ZM29.5519275390625,22.201884052734375L33.7945275390625,26.444554052734375L34.1481275390625,26.798054052734376L25.778807539062498,35.167354052734375L20.8290575390625,35.167354052734375L20.8290575390625,30.217654052734375L28.8448275390625,22.201884052734375L29.1983275390625,21.848334052734373L29.5519275390625,22.201884052734375ZM29.1983275390625,22.555444052734373L33.4409275390625,26.798054052734376L25.571697539062498,34.667354052734375L21.3290575390625,34.667354052734375L21.3290575390625,30.424754052734375L29.1983275390625,22.555444052734373Z" fill-rule="evenodd" fill="#000000" fill-opacity="0.8999999761581421"/></g></g><g filter="url(#master_svg4_42_2670)"><path d="M69.812,22.856L58.922,22.856Q58.768,23.472,58.416,24.616L67.744,24.616L67.744,27.102Q66.138,29.962,64.136,31.788Q66.424,32.976,69.724,33.812L68.646,36.694Q64.4,35.418,61.672,33.592Q60.308,34.428,58.525999999999996,35.187Q56.744,35.946,54.258,36.804L53.114,34.274Q56.832,33.152,59.428,31.788Q57.888,30.248,56.832,28.422Q55.886,30.27,54.577,32.019Q53.268,33.768,51.42,35.704L50.034,32.91Q54.28,28.906,56.106,22.856L50.936,22.856L50.936,20.567999999999998L51.992,16.806L54.742,17.268L53.884,20.392L56.722,20.392Q57.118,18.631999999999998,57.36,16.234L60.066,16.432000000000002Q59.802,18.631999999999998,59.45,20.392L66.292,20.392Q64.708,19.424,62.64,18.192L63.982,16.036Q64.818,16.498,65.995,17.18Q67.172,17.862000000000002,67.744,18.236L66.49,20.392L69.812,20.392L69.812,22.856ZM61.826,30.27Q63.608000000000004,28.884,64.664,27.124000000000002L59.076,27.124000000000002Q60.22,28.972,61.826,30.27ZM80.416,21.36Q79.492,23.23,78.54599999999999,24.572L81.582,24.572L81.582,22.262L84.288,22.262L84.288,24.572L90.404,24.572L90.404,31.876Q90.404,32.976,90.12899999999999,33.57Q89.854,34.164,89.238,34.406Q88.622,34.647999999999996,87.544,34.647999999999996L85.608,34.647999999999996L85.08,32.096000000000004L86.75200000000001,32.096000000000004Q87.434,32.096000000000004,87.62100000000001,31.887Q87.80799999999999,31.678,87.80799999999999,31.128L87.80799999999999,27.124000000000002L84.288,27.124000000000002L84.288,36.65L81.582,36.65L81.582,27.124000000000002L78.128,27.124000000000002L78.128,34.912L75.532,34.912L75.532,28.29Q74.498,29.368,72.87,30.864L72.078,27.85Q73.794,26.486,75.092,24.902Q76.39,23.317999999999998,77.424,21.36L72.782,21.36L72.782,18.764L78.656,18.764Q79.118,17.686,79.668,16.124L82.396,16.586Q82.176,17.246000000000002,81.582,18.764L91.636,18.764L91.636,21.36L80.416,21.36ZM112.602,19.358L112.602,33.46Q112.602,34.692,112.327,35.308Q112.05199999999999,35.924,111.381,36.155Q110.71000000000001,36.385999999999996,109.39,36.385999999999996L106.574,36.385999999999996L106.068,33.768L108.50999999999999,33.768Q109.126,33.768,109.423,33.658Q109.72,33.548,109.819,33.272999999999996Q109.918,32.998000000000005,109.918,32.47L109.918,29.258L108.268,31.304Q106.97,29.962,104.044,27.146Q102.702,29.478,99.798,31.722L98.126,29.544L98.126,36.474000000000004L95.398,36.474000000000004L95.398,19.358L102.68,19.358L102.68,16.322L105.49600000000001,16.322L105.49600000000001,19.358L112.602,19.358ZM98.126,29.412Q99.798,28.158,100.755,27.036Q101.712,25.914,102.14099999999999,24.726Q102.57,23.538,102.658,21.976L98.126,21.976L98.126,29.412ZM108.158,27.366L109.918,29.016L109.918,21.976L105.47399999999999,21.976Q105.408,23.362000000000002,105.122,24.528L108.158,27.366ZM119.422,20.59L119.422,22.328L116.87,22.328L116.87,18.214L124.746,18.214Q124.526,17.509999999999998,124.108,16.322L127.188,15.926Q127.386,16.454,127.936,18.214L135.086,18.214L135.086,22.372L132.49,22.372L132.49,20.59L119.422,20.59ZM116.936,24.131999999999998Q118.454,23.560000000000002,120.302,22.592Q122.15,21.624000000000002,123.448,20.722L124.702,22.724Q122.15,24.506,118.058,26.398L116.936,24.131999999999998ZM128.442,20.810000000000002L135.328,24.286L134.162,26.442Q132.952,25.738,130.796,24.594Q128.64,23.45,127.276,22.768L128.442,20.810000000000002ZM134.976,31.524Q133.898,31.084,132.864,30.6L132.864,36.606L130.268,36.606L130.268,35.682L121.71,35.682L121.71,36.606L119.114,36.606L119.114,30.556Q118.278,30.996,116.936,31.524L115.924,29.148Q119.158,27.96,121.358,26.618000000000002Q123.558,25.276,125.032,23.582L126.968,23.582Q128.55200000000002,25.342,130.73000000000002,26.673000000000002Q132.90800000000002,28.004,136.03199999999998,29.104L134.976,31.524ZM129.71800000000002,28.84Q127.408,27.344,126,25.936Q124.328,27.497999999999998,122.238,28.84L129.71800000000002,28.84ZM121.71,31.106L121.71,33.394L130.268,33.394L130.268,31.106L121.71,31.106Z" fill="#000000" fill-opacity="0.8999999761581421"/></g></g></svg>