<svg xmlns="http://www.w3.org/2000/svg" xmlns:xlink="http://www.w3.org/1999/xlink" fill="none" version="1.1" width="56" height="56" viewBox="0 0 56 56"><g><g><g><path d="M8.000030517578125,16C8.000030517578125,12.6863,10.686330517578124,10,14.000030517578125,10C14.000030517578125,10,42.000030517578125,10,42.000030517578125,10C45.313830517578126,10,48.000030517578125,12.6863,48.000030517578125,16C48.000030517578125,16,48.000030517578125,36,48.000030517578125,36C48.000030517578125,39.3138,45.313830517578126,42,42.000030517578125,42C42.000030517578125,42,26.666730517578124,42,26.666730517578124,42C26.666730517578124,42,20.000030517578125,47,20.000030517578125,47C18.351930517578126,48.236,16.000030517578125,47.0602,16.000030517578125,45C16.000030517578125,45,16.000030517578125,42,16.000030517578125,42C16.000030517578125,42,14.000030517578125,42,14.000030517578125,42C10.686330517578124,42,8.000030517578125,39.3138,8.000030517578125,36C8.000030517578125,36,8.000030517578125,16,8.000030517578125,16C8.000030517578125,16,8.000030517578125,16,8.000030517578125,16ZM14.000030517578125,14C12.895470517578126,14,12.000030517578125,14.89544,12.000030517578125,16C12.000030517578125,16,12.000030517578125,36,12.000030517578125,36C12.000030517578125,37.104600000000005,12.895470517578126,38,14.000030517578125,38C14.000030517578125,38,17.000030517578125,38,17.000030517578125,38C18.656930517578125,38,20.000030517578125,39.343199999999996,20.000030517578125,41C20.000030517578125,41,20.000030517578125,42,20.000030517578125,42C20.000030517578125,42,24.266730517578125,38.8,24.266730517578125,38.8C24.959130517578124,38.2808,25.801230517578126,38,26.666730517578124,38C26.666730517578124,38,42.000030517578125,38,42.000030517578125,38C43.10463051757812,38,44.000030517578125,37.104600000000005,44.000030517578125,36C44.000030517578125,36,44.000030517578125,16,44.000030517578125,16C44.000030517578125,14.89544,43.10463051757812,14,42.000030517578125,14C42.000030517578125,14,14.000030517578125,14,14.000030517578125,14C14.000030517578125,14,14.000030517578125,14,14.000030517578125,14Z" fill-rule="evenodd" fill="#000000" fill-opacity="0.6000000238418579"/><path d="M6.800030517578125,16L6.800030517578125,36Q6.800030517578125,38.9824,8.908869517578125,41.0912Q11.017690517578124,43.2,14.000030517578125,43.2L14.800030517578126,43.2L14.800030517578126,45Q14.800030517578126,46.1019,15.385730517578125,47.0073Q15.933010517578126,47.8532,16.845370517578125,48.3094Q17.757700517578122,48.7655,18.762830517578124,48.6958Q19.838530517578125,48.6211,20.720030517578124,47.96L27.066730517578126,43.2L42.000030517578125,43.2Q44.98243051757812,43.2,47.091230517578126,41.0912Q49.20003051757813,38.9824,49.20003051757813,36L49.20003051757813,16Q49.20003051757813,13.01766,47.091230517578126,10.908839Q44.98243051757812,8.8,42.000030517578125,8.8L14.000030517578125,8.8Q11.017700517578124,8.8,8.908864517578126,10.908834Q6.800030517578125,13.017669999999999,6.800030517578125,16ZM16.000030517578125,45L16.000030517578125,42L14.000030517578125,42C10.686330517578124,42,8.000030517578125,39.3138,8.000030517578125,36L8.000030517578125,16C8.000030517578125,12.6863,10.686330517578124,10,14.000030517578125,10L42.000030517578125,10C45.313830517578126,10,48.000030517578125,12.6863,48.000030517578125,16L48.000030517578125,36C48.000030517578125,39.3138,45.313830517578126,42,42.000030517578125,42L26.666730517578124,42L20.000030517578125,47C18.351930517578126,48.236,16.000030517578125,47.0602,16.000030517578125,45ZM12.000030517578125,16C12.000030517578125,14.89544,12.895470517578126,14,14.000030517578125,14L42.000030517578125,14C43.10463051757812,14,44.000030517578125,14.89544,44.000030517578125,16L44.000030517578125,36C44.000030517578125,37.104600000000005,43.10463051757812,38,42.000030517578125,38L26.666730517578124,38C25.801230517578126,38,24.959130517578124,38.2808,24.266730517578125,38.8L20.000030517578125,42L20.000030517578125,41C20.000030517578125,40.8393,19.987430517578126,40.6816,19.963030517578126,40.527699999999996C19.736530517578124,39.0953,18.496230517578127,38,17.000030517578125,38L14.000030517578125,38C12.895470517578126,38,12.000030517578125,37.104600000000005,12.000030517578125,36L12.000030517578125,16ZM23.546730517578126,37.84L21.017930517578122,39.736599999999996Q20.726630517578123,38.787,19.969930517578128,38.0302Q18.739730517578124,36.8,17.000030517578125,36.8L14.000030517578125,36.8Q13.668650517578126,36.8,13.434340517578125,36.5657Q13.200030517578124,36.3314,13.200030517578124,36L13.200030517578124,16Q13.200030517578124,15.66864,13.434350517578125,15.43432Q13.668670517578125,15.2,14.000030517578125,15.2L42.000030517578125,15.2Q42.33143051757813,15.2,42.565730517578125,15.43431Q42.80003051757812,15.66863,42.80003051757812,16L42.80003051757812,36Q42.80003051757812,36.3314,42.565730517578125,36.5657Q42.33143051757813,36.8,42.000030517578125,36.8L26.666730517578124,36.8Q24.933630517578123,36.8,23.546730517578126,37.84Z" fill-rule="evenodd" fill="#000000" fill-opacity="0.6000000238418579"/></g></g></g></svg>