<svg xmlns="http://www.w3.org/2000/svg" xmlns:xlink="http://www.w3.org/1999/xlink" fill="none" version="1.1" width="144" height="144" viewBox="0 0 144 144"><defs><filter id="master_svg0_9_2162" filterUnits="objectBoundingBox" color-interpolation-filters="sRGB" x="0" y="0" width="144" height="144"><feFlood flood-opacity="0" result="BackgroundImageFix"/><feBlend mode="normal" in="SourceGraphic" in2="BackgroundImageFix" result="shape"/><feColorMatrix in="SourceAlpha" type="matrix" result="hardAlpha" values="0 0 0 0 0 0 0 0 0 0 0 0 0 0 0 0 0 0 127 0"/><feOffset dy="0" dx="0"/><feGaussianBlur stdDeviation="5"/><feComposite in2="hardAlpha" operator="arithmetic" k2="-1" k3="1"/><feColorMatrix type="matrix" values="0 0 0 0 0 0 0 0 0 0 0 0 0 0 0 0 0 0 0.019999999552965164 0"/><feBlend mode="normal" in2="shape" result="effect1_innerShadow"/></filter></defs><g><g filter="url(#master_svg0_9_2162)"><ellipse cx="72" cy="72" rx="72" ry="72" fill="#000000" fill-opacity="0.05000000074505806"/></g><g><g><path d="M96.3488841796875,56.02222561035156C99.5450841796875,57.71162561035156,99.5450841796875,62.289625610351564,96.3488841796875,63.97902561035156C96.3488841796875,63.97902561035156,92.5244841796875,66.00062561035156,92.5244841796875,66.00062561035156C92.5244841796875,66.00062561035156,96.3488841796875,68.02222561035157,96.3488841796875,68.02222561035157C99.5450841796875,69.71162561035156,99.5450841796875,74.28972561035157,96.3488841796875,75.97902561035156C96.3488841796875,75.97902561035156,92.5244841796875,78.00072561035157,92.5244841796875,78.00072561035157C92.5244841796875,78.00072561035157,96.3488841796875,80.02212561035157,96.3488841796875,80.02212561035157C99.5450841796875,81.71172561035156,99.5450841796875,86.28972561035155,96.3488841796875,87.97902561035156C96.3488841796875,87.97902561035156,74.8037841796875,99.36762561035155,74.8037841796875,99.36762561035155C73.0494841796875,100.29492561035156,70.9501841796875,100.29492561035156,69.1958841796875,99.36762561035155C69.1958841796875,99.36762561035155,47.6508241796875,87.97902561035156,47.6508241796875,87.97902561035156C44.4547581796875,86.28972561035155,44.4547821796875,81.71172561035156,47.6508341796875,80.02212561035157C47.6508341796875,80.02212561035157,51.4753341796875,78.00072561035157,51.4753341796875,78.00072561035157C51.4753341796875,78.00072561035157,47.6508241796875,75.97902561035156,47.6508241796875,75.97902561035156C44.4547581796875,74.28972561035157,44.4547821796875,69.71162561035156,47.6508341796875,68.02222561035157C47.6508341796875,68.02222561035157,51.4753341796875,66.00062561035156,51.4753341796875,66.00062561035156C51.4753341796875,66.00062561035156,47.6508241796875,63.97902561035156,47.6508241796875,63.97902561035156C44.4547581796875,62.289625610351564,44.4547821796875,57.71162561035156,47.6508341796875,56.02222561035156C47.6508341796875,56.02222561035156,69.1958841796875,44.63360961035156,69.1958841796875,44.63360961035156C70.9501841796875,43.70629761035156,73.0494841796875,43.70629761035156,74.8037841796875,44.63360961035156C74.8037841796875,44.63360961035156,96.3488841796875,56.02222561035156,96.3488841796875,56.02222561035156C96.3488841796875,56.02222561035156,96.3488841796875,56.02222561035156,96.3488841796875,56.02222561035156ZM91.0361841796875,60.00062561035156C91.0361841796875,60.00062561035156,71.9998841796875,49.93812561035156,71.9998841796875,49.93812561035156C71.9998841796875,49.93812561035156,52.9635441796875,60.00062561035156,52.9635441796875,60.00062561035156C52.9635441796875,60.00062561035156,71.9998841796875,70.06312561035156,71.9998841796875,70.06312561035156C71.9998841796875,70.06312561035156,91.0361841796875,60.00062561035156,91.0361841796875,60.00062561035156C91.0361841796875,60.00062561035156,91.0361841796875,60.00062561035156,91.0361841796875,60.00062561035156ZM57.8948841796875,81.39402561035156C57.8948841796875,81.39402561035156,52.9635441796875,84.00072561035157,52.9635441796875,84.00072561035157C52.9635441796875,84.00072561035157,71.9998841796875,94.06302561035156,71.9998841796875,94.06302561035156C71.9998841796875,94.06302561035156,91.0361841796875,84.00072561035157,91.0361841796875,84.00072561035157C91.0361841796875,84.00072561035157,86.1047841796875,81.39402561035156,86.1047841796875,81.39402561035156C86.1047841796875,81.39402561035156,74.8037841796875,87.36762561035155,74.8037841796875,87.36762561035155C73.0494841796875,88.29492561035156,70.9501841796875,88.29492561035156,69.1958841796875,87.36762561035155C69.1958841796875,87.36762561035155,57.8948841796875,81.39402561035156,57.8948841796875,81.39402561035156C57.8948841796875,81.39402561035156,57.8948841796875,81.39402561035156,57.8948841796875,81.39402561035156ZM74.8037841796875,75.36762561035157C74.8037841796875,75.36762561035157,86.1047841796875,69.39392561035156,86.1047841796875,69.39392561035156C86.1047841796875,69.39392561035156,91.0361841796875,72.00062561035156,91.0361841796875,72.00062561035156C91.0361841796875,72.00062561035156,71.9998841796875,82.06302561035156,71.9998841796875,82.06302561035156C71.9998841796875,82.06302561035156,52.9635441796875,72.00062561035156,52.9635441796875,72.00062561035156C52.9635441796875,72.00062561035156,57.8948841796875,69.39392561035156,57.8948841796875,69.39392561035156C57.8948841796875,69.39392561035156,69.1958841796875,75.36762561035157,69.1958841796875,75.36762561035157C70.9501841796875,76.29492561035156,73.0494841796875,76.29492561035156,74.8037841796875,75.36762561035157C74.8037841796875,75.36762561035157,74.8037841796875,75.36762561035157,74.8037841796875,75.36762561035157Z" fill-rule="evenodd" fill="#000000" fill-opacity="0.6000000238418579"/><path d="M44.2537841796875,60.00062561035156Q44.2537841796875,61.48842561035156,44.9866431796875,62.76002561035156Q45.7673591796875,64.11452561035156,47.1835041796875,64.86312561035156L49.3354841796875,66.00062561035156L47.1835041796875,67.13812561035157Q45.7673711796875,67.88672561035156,44.9866511796875,69.24132561035157Q44.2537881796875,70.51282561035157,44.2537841796875,72.00072561035157Q44.2537841796875,73.48852561035156,44.9866451796875,74.76002561035156Q45.7673741796875,76.11462561035157,47.1834841796875,76.86312561035156L49.335434179687496,78.00062561035156L47.1834641796875,79.13802561035156Q45.7673491796875,79.88672561035156,44.9866451796875,81.24132561035157Q44.2537881796875,82.51282561035157,44.2537841796875,84.00072561035157Q44.2537841796875,85.48852561035156,44.9866461796875,86.76002561035156Q45.7673721796875,88.11462561035157,47.1835041796875,88.86312561035156L68.7285841796875,100.25172561035157Q70.2635841796875,101.06312561035156,71.9998841796875,101.06312561035156Q73.7360841796875,101.06312561035156,75.2711841796875,100.25172561035157L96.8161841796875,88.86312561035156Q98.2323841796875,88.11462561035157,99.0130841796875,86.76002561035156Q99.7460841796875,85.48852561035156,99.7460841796875,84.00072561035157Q99.7459841796875,82.51282561035157,99.0131841796875,81.24132561035157Q98.2323841796875,79.88672561035156,96.8161841796875,79.13802561035156L94.6643841796875,78.00062561035156L96.8161841796875,76.86312561035156Q98.2323841796875,76.11462561035157,99.0131841796875,74.76002561035156Q99.7460841796875,73.48852561035156,99.7460841796875,72.00072561035157Q99.7460841796875,70.51282561035157,99.0131841796875,69.24132561035157Q98.2323841796875,67.88672561035156,96.8161841796875,67.13812561035157L94.6642841796875,66.00062561035156L96.8161841796875,64.86312561035156Q98.2323841796875,64.11452561035156,99.0131841796875,62.76002561035156Q99.7460841796875,61.48842561035156,99.7460841796875,60.00062561035156Q99.7460841796875,58.51282561035156,99.0131841796875,57.24122561035156Q98.2323841796875,55.88672561035156,96.8161841796875,55.138125610351565L75.2710841796875,43.749521610351565Q73.7360841796875,42.93812561035156,71.9998841796875,42.93812561035156Q70.2635841796875,42.93812561035156,68.7285841796875,43.74952361035156L47.1835041796875,55.138125610351565Q45.7673711796875,55.88672561035156,44.9866541796875,57.241325610351566Q44.2537881796875,58.51282561035156,44.2537841796875,60.00062561035156ZM51.4753341796875,66.00062561035156L50.4054141796875,65.43512561035156L47.6508241796875,63.97902561035156C44.4547581796875,62.289625610351564,44.4547821796875,57.71162561035156,47.6508341796875,56.02222561035156L69.1958841796875,44.63360961035156C70.9501841796875,43.70629761035156,73.0494841796875,43.70629761035156,74.8037841796875,44.63360961035156L96.3488841796875,56.02222561035156C99.5450841796875,57.71162561035156,99.5450841796875,62.289625610351564,96.3488841796875,63.97902561035156L93.5943841796875,65.43512561035156L92.5244841796875,66.00062561035156L93.5943841796875,66.56622561035157L96.3488841796875,68.02222561035157C99.5450841796875,69.71162561035156,99.5450841796875,74.28972561035157,96.3488841796875,75.97902561035156L93.5943841796875,77.43512561035156L92.5244841796875,78.00072561035157L93.5943841796875,78.56622561035157L96.3488841796875,80.02212561035157C99.5450841796875,81.71172561035156,99.5450841796875,86.28972561035155,96.3488841796875,87.97902561035156L74.8037841796875,99.36762561035155C73.0494841796875,100.29492561035156,70.9501841796875,100.29492561035156,69.1958841796875,99.36762561035155L47.6508241796875,87.97902561035156C44.4547581796875,86.28972561035155,44.4547821796875,81.71172561035156,47.6508341796875,80.02212561035157L50.4053641796875,78.56622561035157L51.4753341796875,78.00072561035157L50.4054041796875,77.43512561035156L47.6508241796875,75.97902561035156C44.4547581796875,74.28972561035157,44.4547821796875,69.71162561035156,47.6508341796875,68.02222561035157L50.4054141796875,66.56622561035157L51.4753341796875,66.00062561035156ZM91.0361841796875,60.00062561035156L89.9662841796875,59.43512561035156L71.9998841796875,49.93812561035156L54.0334641796875,59.43512561035156L52.9635441796875,60.00062561035156L54.0334641796875,60.566225610351566L71.9998841796875,70.06312561035156L89.9662841796875,60.566225610351566L91.0361841796875,60.00062561035156ZM71.9998841796875,51.06923561035156L88.8963841796875,60.00062561035156L71.9998841796875,68.93202561035156L55.1033841796875,60.00062561035156L71.9998841796875,51.06923561035156ZM57.8948841796875,69.39392561035156L69.1958841796875,75.36762561035157C70.9501841796875,76.29492561035156,73.0494841796875,76.29492561035156,74.8037841796875,75.36762561035157L86.1047841796875,69.39392561035156L89.9662841796875,71.43512561035156L91.0361841796875,72.00062561035156L89.9662841796875,72.56622561035157L71.9998841796875,82.06302561035156L54.0334741796875,72.56622561035157L52.9635441796875,72.00062561035156L54.0334741796875,71.43512561035156L57.8948841796875,69.39392561035156ZM75.2710841796875,76.25172561035157L86.1047841796875,70.52512561035157L88.8962841796875,72.00062561035156L71.9998841796875,80.93192561035156L55.1033941796875,72.00062561035156L57.8948841796875,70.52512561035157L68.7285841796875,76.25172561035157Q70.2635841796875,77.06312561035156,71.9998841796875,77.06312561035156Q73.7360841796875,77.06312561035156,75.2710841796875,76.25172561035157ZM57.8948841796875,81.39402561035156L69.1958841796875,87.36762561035155C70.9501841796875,88.29492561035156,73.0494841796875,88.29492561035156,74.8037841796875,87.36762561035155L86.1047841796875,81.39402561035156L89.9662841796875,83.43512561035156L91.0361841796875,84.00072561035157L89.9662841796875,84.56632561035156L71.9998841796875,94.06302561035156L54.0334741796875,84.56632561035156L52.9635441796875,84.00072561035157L54.0334641796875,83.43512561035156L57.8948841796875,81.39402561035156ZM75.2711841796875,88.25172561035157L86.1047841796875,82.52512561035157L88.8962841796875,84.00072561035157L71.9998841796875,92.93192561035156L55.1033941796875,84.00072561035157L57.8948841796875,82.52512561035157L68.7285841796875,88.25172561035157Q70.2635841796875,89.06312561035156,71.9998841796875,89.06312561035156Q73.7360841796875,89.06312561035156,75.2711841796875,88.25172561035157Z" fill-rule="evenodd" fill="#000000" fill-opacity="0.6000000238418579"/></g></g></g></svg>