<svg xmlns="http://www.w3.org/2000/svg" xmlns:xlink="http://www.w3.org/1999/xlink" fill="none" version="1.1" width="24" height="24" viewBox="0 0 24 24"><g><g><g><path d="M2,12C2,6.47715,6.47715,2,12,2C17.5228,2,22,6.47715,22,12C22,17.5228,17.5228,22,12,22C6.47715,22,2,17.5228,2,12ZM12,4C7.58172,4,4,7.58172,4,12C4,16.418300000000002,7.58172,20,12,20C16.418300000000002,20,20,16.418300000000002,20,12C20,7.58172,16.418300000000002,4,12,4ZM7.75735,10.58579L10.58578,7.75736C11.36683,6.97631,12.6332,6.97631,13.4142,7.75736L16.2426,10.58579C17.023699999999998,11.36683,17.023699999999998,12.6332,16.2426,13.4142L13.4142,16.2426C12.6332,17.023699999999998,11.36683,17.023699999999998,10.58578,16.2426L7.75735,13.4142C6.9763,12.6332,6.9763,11.36683,7.75735,10.58579ZM11.99999,9.17157L9.17157,12L11.99999,14.8284L14.8284,12L11.99999,9.17157Z" fill-rule="evenodd" fill="#000000" fill-opacity="0.8999999761581421"/><path d="M1.76,12Q1.76,14.0831,2.564809,15.9859Q3.34208,17.8236,4.7592300000000005,19.2408Q6.17637,20.6579,8.014050000000001,21.4352Q9.91685,22.24,12,22.24Q14.0831,22.24,15.9859,21.4352Q17.8236,20.6579,19.2408,19.2408Q20.6579,17.8236,21.4352,15.9859Q22.24,14.0831,22.24,12Q22.24,9.91685,21.4352,8.014050000000001Q20.6579,6.17637,19.2408,4.7592300000000005Q17.8236,3.34208,15.9859,2.564808Q14.0831,1.76,12,1.76Q9.91684,1.76,8.014050000000001,2.564808Q6.17637,3.34208,4.7592300000000005,4.7592300000000005Q3.34208,6.17637,2.564808,8.01406Q1.76,9.91684,1.76,12ZM12,2C6.47715,2,2,6.47715,2,12C2,17.5228,6.47715,22,12,22C17.5228,22,22,17.5228,22,12C22,6.47715,17.5228,2,12,2ZM4,12C4,7.58172,7.58172,4,12,4C16.418300000000002,4,20,7.58172,20,12C20,16.418300000000002,16.418300000000002,20,12,20C7.58172,20,4,16.418300000000002,4,12ZM6.51285,6.51285Q8.785689999999999,4.24,12,4.24Q15.2143,4.24,17.4872,6.51285Q19.76,8.7857,19.76,12Q19.76,15.2143,17.4872,17.4872Q15.2143,19.76,12,19.76Q8.7857,19.76,6.51285,17.4872Q4.24,15.2143,4.24,12Q4.24,8.7857,6.51285,6.51285ZM6.93156,12Q6.93156,12.9279,7.58765,13.5839L10.41607,16.412300000000002Q11.07215,17.0684,12,17.0684Q12.9279,17.0684,13.5839,16.412300000000002L16.412300000000002,13.5839Q17.0684,12.9279,17.0684,12Q17.0684,11.07215,16.412300000000002,10.41609L13.5839,7.58766Q12.9279,6.93157,12,6.93157Q11.07215,6.93157,10.41607,7.58765L7.58764,10.41608Q6.93156,11.07216,6.93156,12ZM10.58578,7.75736L7.75735,10.58579C6.9763,11.36683,6.9763,12.6332,7.75735,13.4142L10.58578,16.2426C11.36683,17.023699999999998,12.6332,17.023699999999998,13.4142,16.2426L16.2426,13.4142C17.023699999999998,12.6332,17.023699999999998,11.36683,16.2426,10.58579L13.4142,7.75736C12.6332,6.97631,11.36683,6.97631,10.58578,7.75736ZM12.1697,9.341280000000001L14.6587,11.83029L14.8284,12L14.6587,12.1697L12.1697,14.6587L11.99999,14.8284L11.83028,14.6587L9.341280000000001,12.1697L9.17157,12L9.34127,11.83029L11.83028,9.34127L11.99999,9.17157L12.1697,9.341280000000001ZM11.99999,9.51098L14.489,12L11.99999,14.489L9.51098,12L11.99999,9.51098Z" fill-rule="evenodd" fill="#000000" fill-opacity="1"/></g></g></g></svg>