<svg xmlns="http://www.w3.org/2000/svg" xmlns:xlink="http://www.w3.org/1999/xlink" fill="none" version="1.1" width="54.000003814697266" height="54" viewBox="0 0 54.000003814697266 54"><defs><clipPath id="master_svg0_42_1103"><rect x="0" y="0" width="54.000003814697266" height="54" rx="0"/></clipPath><filter id="master_svg1_42_1104" filterUnits="objectBoundingBox" color-interpolation-filters="sRGB" x="0" y="0" width="54.000003814697266" height="54"><feFlood flood-opacity="0" result="BackgroundImageFix"/><feBlend mode="normal" in="SourceGraphic" in2="BackgroundImageFix" result="shape"/><feColorMatrix in="SourceAlpha" type="matrix" result="hardAlpha" values="0 0 0 0 0 0 0 0 0 0 0 0 0 0 0 0 0 0 127 0"/><feOffset dy="0" dx="0"/><feGaussianBlur stdDeviation="5"/><feComposite in2="hardAlpha" operator="arithmetic" k2="-1" k3="1"/><feColorMatrix type="matrix" values="0 0 0 0 0 0 0 0 0 0 0 0 0 0 0 0 0 0 0.019999999552965164 0"/><feBlend mode="normal" in2="shape" result="effect1_innerShadow"/></filter><filter id="master_svg2_42_1107" filterUnits="objectBoundingBox" color-interpolation-filters="sRGB" x="-48" y="-48" width="144.00000381469727" height="144"><feFlood flood-opacity="0" result="BackgroundImageFix"/><feColorMatrix in="SourceAlpha" type="matrix" values="0 0 0 0 0 0 0 0 0 0 0 0 0 0 0 0 0 0 127 0"/><feOffset dy="0" dx="0"/><feGaussianBlur stdDeviation="12"/><feColorMatrix type="matrix" values="0 0 0 0 0 0 0 0 0 0 0 0 0 0 0 0 0 0 0.009999999776482582 0"/><feBlend mode="normal" in2="BackgroundImageFix" result="effect1_dropShadow"/><feBlend mode="normal" in="SourceGraphic" in2="effect1_dropShadow" result="shape"/></filter><filter id="master_svg3_42_1106" filterUnits="objectBoundingBox" color-interpolation-filters="sRGB" x="0" y="0" width="22.308183670043945" height="22.308076858520508"><feFlood flood-opacity="0" result="BackgroundImageFix"/><feBlend mode="normal" in="SourceGraphic" in2="BackgroundImageFix" result="shape"/><feColorMatrix in="SourceAlpha" type="matrix" result="hardAlpha" values="0 0 0 0 0 0 0 0 0 0 0 0 0 0 0 0 0 0 127 0"/><feOffset dy="0" dx="0"/><feGaussianBlur stdDeviation="5"/><feComposite in2="hardAlpha" operator="arithmetic" k2="-1" k3="1"/><feColorMatrix type="matrix" values="0 0 0 0 0 0 0 0 0 0 0 0 0 0 0 0 0 0 0.019999999552965164 0"/><feBlend mode="normal" in2="shape" result="effect1_innerShadow"/></filter></defs><g clip-path="url(#master_svg0_42_1103)"><g filter="url(#master_svg1_42_1104)"><ellipse cx="27.000001907348633" cy="27" rx="27.000001907348633" ry="27" fill="#F2F2F2" fill-opacity="1"/></g><g filter="url(#master_svg2_42_1107)"><ellipse cx="27.000001907348633" cy="27" rx="24.000001907348633" ry="24" fill="#FFFFFF" fill-opacity="1"/></g><g><g filter="url(#master_svg3_42_1106)"><path d="M25.25009505859375,15.333251953125C19.77327505859375,15.333251953125,15.33343505859375,19.773091953125,15.33343505859375,25.249911953125C15.33343505859375,30.726751953125,19.77327505859375,35.166551953125,25.25009505859375,35.166551953125C27.56813505859375,35.166551953125,29.70043505859375,34.371251953125,31.38893505859375,33.038551953125C31.38893505859375,33.038551953125,35.65003505859375,37.299551953125004,35.65003505859375,37.299551953125004C36.105535058593745,37.755151953125,36.84433505859375,37.755151953125,37.299935058593746,37.299551953125004C37.75543505859375,36.844051953125,37.75543505859375,36.105251953125,37.299935058593746,35.649651953125C37.299935058593746,35.649651953125,33.03883505859375,31.388651953125,33.03883505859375,31.388651953125C34.37143505859375,29.700151953125,35.16673505859375,27.567851953125,35.16673505859375,25.249911953125C35.16673505859375,19.773091953125,30.72693505859375,15.333251953125,25.25009505859375,15.333251953125C25.25009505859375,15.333251953125,25.25009505859375,15.333251953125,25.25009505859375,15.333251953125ZM17.66676505859375,25.249911953125C17.66676505859375,21.061761953125,21.06194505859375,17.666581953125,25.25009505859375,17.666581953125C29.43833505859375,17.666581953125,32.83343505859375,21.061761953125,32.83343505859375,25.249911953125C32.83343505859375,29.438151953125,29.43833505859375,32.833251953125,25.25009505859375,32.833251953125C21.06194505859375,32.833251953125,17.66676505859375,29.438151953125,17.66676505859375,25.249911953125C17.66676505859375,25.249911953125,17.66676505859375,25.249911953125,17.66676505859375,25.249911953125Z" fill-rule="evenodd" fill="#000000" fill-opacity="0.8999999761581421"/><path d="M14.73343605859375,25.249911953125Q14.73343505859375,27.389151953125,15.56013305859375,29.343651953125Q16.35843505859375,31.231051953125,17.81369505859375,32.686351953125Q19.26894505859375,34.141551953125,21.15635505859375,34.939851953125Q23.11088505859375,35.766551953125,25.25009505859375,35.766551953125Q28.63083505859375,35.766551953125,31.33313505859375,33.831251953125005L35.22573505859375,37.723851953125Q35.74313505859375,38.241251953125,36.47493505859375,38.241251953125Q37.20673505859375,38.241251953125,37.724135058593745,37.723851953125Q38.24163505859375,37.206451953125,38.24163505859375,36.474651953125004Q38.24163505859375,35.742851953125,37.724135058593745,35.225451953125L33.83153505859375,31.332851953125Q35.76673505859375,28.630451953125,35.76673505859375,25.249921953125Q35.76673505859375,23.110701953125,34.94003505859375,21.156171953125Q34.14173505859375,19.268771953125,32.68653505859375,17.813511953125Q31.23123505859375,16.358251953125,29.34383505859375,15.559950953125Q27.38933505859375,14.733252953125,25.25009505859375,14.733252953125Q23.11088505859375,14.733251953125,21.15635505859375,15.559949953125Q19.26895505859375,16.358251953125,17.81369505859375,17.813511953125Q16.35843505859375,19.268771953125,15.56013405859375,21.156171953125Q14.73343605859375,23.110701953125,14.73343605859375,25.249911953125ZM35.65003505859375,37.299551953125004L31.38893505859375,33.038551953125C29.70043505859375,34.371251953125,27.56813505859375,35.166551953125,25.25009505859375,35.166551953125C19.77327505859375,35.166551953125,15.33343505859375,30.726751953125,15.33343505859375,25.249911953125C15.33343505859375,19.773091953125,19.77327505859375,15.333251953125,25.25009505859375,15.333251953125C30.72693505859375,15.333251953125,35.16673505859375,19.773091953125,35.16673505859375,25.249911953125C35.16673505859375,27.567851953125,34.37143505859375,29.700151953125,33.03883505859375,31.388651953125L37.299935058593746,35.649651953125C37.75543505859375,36.105251953125,37.75543505859375,36.844051953125,37.299935058593746,37.299551953125004C36.84433505859375,37.755151953125,36.105535058593745,37.755151953125,35.65003505859375,37.299551953125004ZM25.25009505859375,17.666581953125C21.06194505859375,17.666581953125,17.66676505859375,21.061761953125,17.66676505859375,25.249911953125C17.66676505859375,29.438151953125,21.06194505859375,32.833251953125,25.25009505859375,32.833251953125C29.43833505859375,32.833251953125,32.83343505859375,29.438151953125,32.83343505859375,25.249911953125C32.83343505859375,21.061761953125,29.43833505859375,17.666581953125,25.25009505859375,17.666581953125ZM18.26676505859375,25.249911953125Q18.26676505859375,22.357321953125002,20.31213505859375,20.311951953125Q22.357505058593752,18.266581953125,25.25009505859375,18.266581953125Q28.14273505859375,18.266581953125,30.188035058593748,20.311951953125Q32.23343505859375,22.357311953125,32.23343505859375,25.249911953125Q32.23343505859375,28.142551953125,30.188035058593748,30.187851953124998Q28.14273505859375,32.233251953125,25.25009505859375,32.233251953125Q22.35749505859375,32.233251953125,20.31213505859375,30.187851953124998Q18.26676505859375,28.142551953125,18.26676505859375,25.249911953125Z" fill-rule="evenodd" fill="#000000" fill-opacity="0.8999999761581421"/></g></g></g></svg>