<svg xmlns="http://www.w3.org/2000/svg" xmlns:xlink="http://www.w3.org/1999/xlink" fill="none" version="1.1" width="72" height="72" viewBox="0 0 72 72"><defs><filter id="master_svg0_42_8228" filterUnits="objectBoundingBox" color-interpolation-filters="sRGB" x="0" y="0" width="72" height="72"><feFlood flood-opacity="0" result="BackgroundImageFix"/><feBlend mode="normal" in="SourceGraphic" in2="BackgroundImageFix" result="shape"/><feColorMatrix in="SourceAlpha" type="matrix" result="hardAlpha" values="0 0 0 0 0 0 0 0 0 0 0 0 0 0 0 0 0 0 127 0"/><feOffset dy="0" dx="0"/><feGaussianBlur stdDeviation="5"/><feComposite in2="hardAlpha" operator="arithmetic" k2="-1" k3="1"/><feColorMatrix type="matrix" values="0 0 0 0 0 0 0 0 0 0 0 0 0 0 0 0 0 0 0.019999999552965164 0"/><feBlend mode="normal" in2="shape" result="effect1_innerShadow"/></filter><clipPath id="master_svg1_42_7842"><rect x="17" y="17" width="38" height="38" rx="0"/></clipPath></defs><g><g filter="url(#master_svg0_42_8228)"><ellipse cx="36" cy="36" rx="36" ry="36" fill="#000000" fill-opacity="0.05000000074505806"/></g><g clip-path="url(#master_svg1_42_7842)"><g><path d="M36.00633076171875,50.142775C36.34983076171875,50.142775,36.67913076171875,50.114374999999995,37.03693076171875,50.085674999999995C37.03693076171875,50.085674999999995,37.838430761718755,51.602875,37.838430761718755,51.602875C38.01033076171875,51.989275,38.39673076171875,52.175475,38.84033076171875,52.118075C39.255530761718745,52.046575,39.54183076171875,51.731674999999996,39.59893076171875,51.302375C39.59893076171875,51.302375,39.842430761718745,49.599075,39.842430761718745,49.599075C40.51503076171875,49.427275,41.17343076171875,49.169574999999995,41.80343076171875,48.897575C41.80343076171875,48.897575,43.06293076171875,50.028375,43.06293076171875,50.028375C43.36353076171875,50.328975,43.77853076171875,50.371975,44.19363076171875,50.157174999999995C44.551630761718755,49.942475,44.69463076171875,49.556075,44.62313076171875,49.126575C44.62313076171875,49.126575,44.26533076171875,47.466274999999996,44.26533076171875,47.466274999999996C44.82353076171875,47.065475,45.36733076171875,46.621674999999996,45.88263076171875,46.135075C45.88263076171875,46.135075,47.42863076171875,46.779174999999995,47.42863076171875,46.779174999999995C47.84363076171875,46.950975,48.23003076171875,46.850875,48.54503076171875,46.492875C48.802630761718746,46.192375,48.84563076171875,45.762975,48.61673076171875,45.390775000000005C48.61673076171875,45.390775000000005,47.71483076171875,43.945175,47.71483076171875,43.945175C48.10123076171875,43.386875,48.43053076171875,42.771375,48.731130761718745,42.127275C48.731130761718745,42.127275,50.44883076171875,42.213175,50.44883076171875,42.213175C50.863830761718745,42.241775000000004,51.23593076171875,41.998475,51.37903076171875,41.597674999999995C51.522230761718745,41.196875,51.37903076171875,40.781774999999996,51.04993076171875,40.524175C51.04993076171875,40.524175,49.718730761718746,39.464974999999995,49.718730761718746,39.464974999999995C49.89053076171875,38.806475,50.01933076171875,38.119375000000005,50.07653076171875,37.403774999999996C50.07653076171875,37.403774999999996,51.69403076171875,36.888575,51.69403076171875,36.888575C52.10913076171875,36.745374999999996,52.36683076171875,36.416075,52.36683076171875,35.986775C52.36683076171875,35.557275000000004,52.10913076171875,35.228075000000004,51.69403076171875,35.084975C51.69403076171875,35.084975,50.07653076171875,34.569675000000004,50.07653076171875,34.569675000000004C50.01933076171875,33.853975,49.87623076171875,33.181275,49.718730761718746,32.508475000000004C49.718730761718746,32.508475000000004,51.04993076171875,31.449275,51.04993076171875,31.449275C51.37903076171875,31.205975000000002,51.507930761718754,30.805175,51.37903076171875,30.404375C51.23593076171875,29.989275,50.863830761718745,29.745995,50.44883076171875,29.774625C50.44883076171875,29.774625,48.731130761718745,29.831885,48.731130761718745,29.831885C48.43053076171875,29.202085,48.10123076171875,28.600915,47.71483076171875,28.028354999999998C47.71483076171875,28.028354999999998,48.61673076171875,26.568375,48.61673076171875,26.568375C48.831330761718746,26.224845000000002,48.802630761718746,25.795435,48.54503076171875,25.494855C48.23003076171875,25.137005000000002,47.84363076171875,25.036815,47.42863076171875,25.208585C47.42863076171875,25.208585,45.86843076171875,25.838385,45.86843076171875,25.838385C45.36733076171875,25.366035,44.82353076171875,24.907995,44.26533076171875,24.521515C44.26533076171875,24.521515,44.62313076171875,22.861145,44.62313076171875,22.861145C44.69463076171875,22.417425,44.551630761718755,22.030965000000002,44.179330761718745,21.830565C43.77853076171875,21.615855,43.36353076171875,21.644485,43.06293076171875,21.959385C43.06293076171875,21.959385,41.80343076171875,23.075855,41.80343076171875,23.075855C41.17343076171875,22.789585,40.51503076171875,22.560555,39.842430761718745,22.374475C39.842430761718745,22.374475,39.59893076171875,20.699788,39.59893076171875,20.699788C39.54183076171875,20.270379,39.255530761718745,19.9554801,38.84033076171875,19.8695984C38.39673076171875,19.812344,38.02443076171875,19.998421,37.838430761718755,20.356262C37.838430761718755,20.356262,37.03693076171875,21.887825,37.03693076171875,21.887825C36.67913076171875,21.859195,36.34983076171875,21.844885,36.00633076171875,21.844885C35.63413076171875,21.844885,35.30493076171875,21.859195,34.94713076171875,21.887825C34.94713076171875,21.887825,34.145530761718746,20.356262,34.145530761718746,20.356262C33.97373076171875,19.998421,33.587330761718746,19.812344,33.143630761718754,19.883912C32.72853076171875,19.9554801,32.44223076171875,20.270379,32.38493076171875,20.699788C32.38493076171875,20.699788,32.14163076171875,22.374475,32.14163076171875,22.374475C31.48323076171875,22.560555,30.82483076171875,22.789585,30.18063076171875,23.075855C30.18063076171875,23.075855,28.93538076171875,21.959385,28.93538076171875,21.959385C28.620480761718753,21.658795,28.20539076171875,21.615855,27.80460076171875,21.830565C27.44677076171875,22.030965000000002,27.28932076171875,22.417425,27.36088076171875,22.861145C27.36088076171875,22.861145,27.71872076171875,24.521515,27.71872076171875,24.521515C27.16050076171875,24.907995,26.616570761718748,25.366035,26.11561076171875,25.838385C26.11561076171875,25.838385,24.55542076171875,25.208585,24.55542076171875,25.208585C24.15463076171875,25.036815,23.753850761718752,25.137005000000002,23.45327076171875,25.494855C23.18131076171875,25.795435,23.15268076171875,26.224845000000002,23.36739076171875,26.568375C23.36739076171875,26.568375,24.28346076171875,28.028354999999998,24.28346076171875,28.028354999999998C23.89699076171875,28.600915,23.56777076171875,29.202085,23.25287076171875,29.831885C23.25287076171875,29.831885,21.54955076171875,29.774625,21.54955076171875,29.774625C21.12015076171875,29.745995,20.74799076171875,29.989275,20.61916976171875,30.404375C20.47603476171875,30.805175,20.59054276171875,31.205975000000002,20.93407076171875,31.449275C20.93407076171875,31.449275,22.27955076171875,32.508475000000004,22.27955076171875,32.508475000000004C22.10779076171875,33.181275,21.96465076171875,33.853975,21.92171076171875,34.569675000000004C21.92171076171875,34.569675000000004,20.30427076171875,35.084975,20.30427076171875,35.084975C19.87486176171875,35.228075000000004,19.63153076171875,35.542975,19.63153076171875,35.986775C19.63153076171875,36.416075,19.87486176171875,36.745374999999996,20.30427076171875,36.888575C20.30427076171875,36.888575,21.92171076171875,37.403774999999996,21.92171076171875,37.403774999999996C21.96465076171875,38.119375000000005,22.10779076171875,38.806475,22.27955076171875,39.464974999999995C22.27955076171875,39.464974999999995,20.94838076171875,40.524175,20.94838076171875,40.524175C20.60485576171875,40.767475000000005,20.49034776171875,41.182575,20.61916976171875,41.583375000000004C20.74799076171875,41.998475,21.12015076171875,42.241775000000004,21.54955076171875,42.213175C21.54955076171875,42.213175,23.25287076171875,42.127275,23.25287076171875,42.127275C23.55346076171875,42.771375,23.89699076171875,43.386875,24.28346076171875,43.945175C24.28346076171875,43.945175,23.36739076171875,45.405175,23.36739076171875,45.405175C23.13837076171875,45.762975,23.18131076171875,46.192375,23.45327076171875,46.492875C23.753850761718752,46.850875,24.15463076171875,46.950975,24.55542076171875,46.779174999999995C24.55542076171875,46.779174999999995,26.11561076171875,46.135075,26.11561076171875,46.135075C26.616570761718748,46.621674999999996,27.16050076171875,47.065475,27.71872076171875,47.466274999999996C27.71872076171875,47.466274999999996,27.36088076171875,49.126575,27.36088076171875,49.126575C27.28932076171875,49.556075,27.432450761718748,49.942475,27.80460076171875,50.157174999999995C28.20539076171875,50.371975,28.620480761718753,50.328975,28.93538076171875,50.028375C28.93538076171875,50.028375,30.18063076171875,48.897575,30.18063076171875,48.897575C30.82483076171875,49.169574999999995,31.468930761718752,49.427275,32.14163076171875,49.613175C32.14163076171875,49.613175,32.38493076171875,51.302375,32.38493076171875,51.302375C32.44223076171875,51.731674999999996,32.72853076171875,52.046575,33.15793076171875,52.118075C33.587330761718746,52.175475,33.97373076171875,51.989275,34.145530761718746,51.617175C34.145530761718746,51.617175,34.94713076171875,50.085674999999995,34.94713076171875,50.085674999999995C35.30493076171875,50.114374999999995,35.63413076171875,50.142775,36.00633076171875,50.142775C36.00633076171875,50.142775,36.00633076171875,50.142775,36.00633076171875,50.142775ZM39.742130761718755,34.855975C39.04083076171875,33.009475,37.60953076171875,32.007575,35.92053076171875,32.007575C35.67713076171875,32.007575,35.41943076171875,32.036175,34.97573076171875,32.136375C34.97573076171875,32.136375,31.11103076171875,25.494855,31.11103076171875,25.494855C32.58533076171875,24.807785,34.23143076171875,24.421325,35.99203076171875,24.421325C42.04673076171875,24.421325,46.79873076171875,28.973055000000002,47.34263076171875,34.855975C47.34263076171875,34.855975,39.742130761718755,34.855975,39.742130761718755,34.855975C39.742130761718755,34.855975,39.742130761718755,34.855975,39.742130761718755,34.855975ZM24.59835076171875,36.001075C24.59835076171875,32.164975,26.35893076171875,28.801295,29.15009076171875,26.697195C29.15009076171875,26.697195,33.04343076171875,33.352975,33.04343076171875,33.352975C32.28473076171875,34.183175,31.92693076171875,35.099275,31.92693076171875,36.043975C31.92693076171875,36.945675,32.25613076171875,37.804575,33.04343076171875,38.677675C33.04343076171875,38.677675,29.035570761718752,45.218975,29.035570761718752,45.218975C26.31598076171875,43.114875,24.59835076171875,39.779875000000004,24.59835076171875,36.001075C24.59835076171875,36.001075,24.59835076171875,36.001075,24.59835076171875,36.001075ZM34.20283076171875,36.029675C34.20283076171875,35.056375,35.018630761718754,34.312075,35.93463076171875,34.312075C36.89373076171875,34.312075,37.681030761718745,35.056375,37.681030761718745,36.029675C37.681030761718745,36.974374999999995,36.89373076171875,37.761575,35.93463076171875,37.761575C35.018630761718754,37.761575,34.20283076171875,36.974374999999995,34.20283076171875,36.029675C34.20283076171875,36.029675,34.20283076171875,36.029675,34.20283076171875,36.029675ZM35.99203076171875,47.566375C34.18853076171875,47.566375,32.49943076171875,47.165675,30.996530761718752,46.435675C30.996530761718752,46.435675,34.96143076171875,39.937174999999996,34.96143076171875,39.937174999999996C35.390830761718746,40.023174999999995,35.67713076171875,40.051874999999995,35.92053076171875,40.051874999999995C37.62383076171875,40.051874999999995,39.04083076171875,39.021175,39.742130761718755,37.131875C39.742130761718755,37.131875,47.34263076171875,37.131875,47.34263076171875,37.131875C46.79873076171875,43.014775,42.04673076171875,47.566375,35.99203076171875,47.566375C35.99203076171875,47.566375,35.99203076171875,47.566375,35.99203076171875,47.566375Z" fill="#000000" fill-opacity="0.6000000238418579"/><path d="M35.23733076171875,50.609375Q35.71423076171875,50.642775,36.00633076171875,50.642775Q36.27683076171875,50.642775,36.74813076171875,50.609375L37.38923076171875,51.822874999999996Q37.58963076171875,52.259775,38.01203076171875,52.473175Q38.41573076171875,52.677175,38.90443076171875,52.613975L38.91483076171875,52.612675L38.92523076171875,52.610875Q39.40233076171875,52.528675,39.721130761718754,52.183775Q40.030630761718754,51.848875,40.09463076171875,51.368375L40.29113076171875,49.993575Q40.92443076171875,49.805775,41.705730761718755,49.481875L42.71963076171875,50.392075Q43.44533076171875,51.107375000000005,44.42343076171875,50.601275L44.437330761718755,50.594075000000004L44.450730761718745,50.585975000000005Q45.28923076171875,50.083175,45.11633076171875,49.044475L45.11433076171875,49.032775L44.82243076171875,47.677875Q45.43313076171875,47.221075,45.986530761718754,46.719975000000005L47.23633076171875,47.240674999999996Q48.201430761718754,47.640275,48.92043076171875,46.823175Q49.22763076171875,46.464974999999995,49.26193076171875,46.006074999999996Q49.29673076171875,45.541875000000005,49.04253076171875,45.128775000000005L48.30953076171875,43.953875Q48.67903076171875,43.377475000000004,49.03863076171875,42.643275L50.42383076171875,42.712475Q50.894930761718754,42.745175,51.29113076171875,42.483875Q51.68663076171875,42.223075,51.84993076171875,41.765875Q52.01243076171875,41.310775,51.86823076171875,40.856075000000004Q51.73043076171875,40.421875,51.358130761718755,40.130475000000004L50.28153076171875,39.273775Q50.462130761718754,38.509675,50.54283076171875,37.779975L51.85143076171875,37.363175L51.85703076171875,37.361175Q52.86683076171875,37.012975,52.86683076171875,35.986775Q52.86683076171875,34.960475,51.85703076171875,34.612275L51.85143076171875,34.610375L50.54083076171875,34.192875Q50.463830761718754,33.553174999999996,50.27603076171875,32.704075L51.35493076171875,31.845575Q51.72643076171875,31.567574999999998,51.86293076171875,31.136875Q52.00033076171875,30.703175,51.85503076171875,30.251375Q51.69033076171875,29.773315,51.294330761718754,29.507815Q50.90243076171875,29.245075,50.42413076171875,29.275165L49.03823076171875,29.321365Q48.684930761718746,28.614805,48.307330761718745,28.020585L49.04203076171875,26.831155Q49.28733076171875,26.438645,49.256830761718746,25.982205Q49.22603076171875,25.521124999999998,48.924630761718745,25.169455Q48.20133076171875,24.347595,47.23743076171875,24.746595L45.975430761718755,25.255995Q45.38803076171875,24.721655,44.82323076171875,24.305745L45.11463076171875,22.953635L45.11673076171875,22.940675Q45.29073076171875,21.860965,44.416330761718754,21.390295000000002Q43.433630761718746,20.863865,42.716830761718754,21.598055L41.711030761718746,22.489595Q41.043630761718745,22.208065,40.29083076171875,21.983175L40.093730761718746,20.627853Q39.95563076171875,19.589732,38.94163076171875,19.379967L38.92313076171875,19.376133L38.904330761718754,19.373711Q37.85593076171875,19.238404,37.39483076171875,20.125677L36.74533076171875,21.366625Q36.36543076171875,21.344885,36.00633076171875,21.344885Q35.62603076171875,21.344885,35.23873076171875,21.366775L34.59213076171875,20.131297Q34.386130761718746,19.708993,33.96083076171875,19.507285Q33.54913076171875,19.312046,33.06393076171875,19.390292Q32.58153076171875,19.473435,32.262830761718746,19.8183241Q31.95343076171875,20.153199,31.88933076171875,20.6337L31.693030761718752,21.984905Q30.94983076171875,22.210395,30.27663076171875,22.490365L29.27457076171875,21.591965000000002Q28.52182076171875,20.879105,27.56848076171875,21.389825000000002Q26.69593076171875,21.878385,26.86725076171875,22.940745L26.86934076171875,22.953675L27.16074076171875,24.305755Q26.59558076171875,24.721975,26.00858076171875,25.255975L24.74258076171875,24.744934999999998Q23.781550761718748,24.332945,23.076120761718748,25.166485Q22.76450076171875,25.515185,22.72927076171875,25.977525Q22.69442076171875,26.435025,22.94339076171875,26.833375L23.68971076171875,28.022804999999998Q23.32854076171875,28.591995,22.95144076171875,29.321465L21.57388076171875,29.275154999999998Q21.08502076171875,29.245175,20.69324076171875,29.507804999999998Q20.29429476171875,29.775225,20.14481176171875,30.246074999999998Q19.98676676171875,30.697175,20.11481776171875,31.128275000000002Q20.24589276171875,31.569575,20.633830761718748,31.849275L21.71708076171875,32.702075Q21.52216076171875,33.527475,21.451490761718752,34.194675000000004L20.15249376171875,34.608575Q19.13153076171875,34.948875,19.13153076171875,35.986775Q19.13153076171875,37.024675,20.14614076171875,37.362875L21.45103076171875,37.778575000000004Q21.52198076171875,38.462475,21.71637076171875,39.274074999999996L20.64695076171875,40.125074999999995Q20.26262976171875,40.402775,20.12785976171875,40.850575Q19.99758376171875,41.283474999999996,20.14315376171875,41.736374999999995Q20.29001876171875,42.209775,20.69325076171875,42.479974999999996Q21.08863076171875,42.745075,21.58285076171875,42.712075L22.94608076171875,42.643375Q23.29428076171875,43.347975000000005,23.68760076171875,43.954075L22.94386076171875,45.139375Q22.684500761718752,45.544574999999995,22.72425076171875,46.012775000000005Q22.76318076171875,46.471275,23.07616076171875,46.821275Q23.78159076171875,47.654875000000004,24.75242076171875,47.238675L26.00710076171875,46.720775Q26.53991076171875,47.212475,27.16164076171875,47.677875L26.86961076171875,49.032775L26.867680761718752,49.044375Q26.69293076171875,50.093175,27.55478076171875,50.590275L27.56153076171875,50.594175L27.56840076171875,50.597875Q28.52251076171875,51.109175,29.275820761718748,50.394575L30.281730761718748,49.481275Q31.08603076171875,49.810874999999996,31.69243076171875,50.001475L31.890030761718748,51.373675Q31.95383076171875,51.851974999999996,32.266930761718754,52.186275Q32.58933076171875,52.530375,33.07573076171875,52.611375L33.08373076171875,52.612675L33.09173076171875,52.613675Q33.56893076171875,52.677375,33.97193076171875,52.475875Q34.39223076171875,52.265775,34.593730761718746,51.839075L35.23733076171875,50.609375ZM36.00633076171875,50.142775C36.34983076171875,50.142775,36.67913076171875,50.114374999999995,37.03693076171875,50.085674999999995L37.838430761718755,51.602875C38.01033076171875,51.989275,38.39673076171875,52.175475,38.84033076171875,52.118075C39.255530761718745,52.046575,39.54183076171875,51.731674999999996,39.59893076171875,51.302375L39.842430761718745,49.599075C40.51503076171875,49.427275,41.17343076171875,49.169574999999995,41.80343076171875,48.897575L43.06293076171875,50.028375C43.36353076171875,50.328975,43.77853076171875,50.371975,44.19363076171875,50.157174999999995C44.551630761718755,49.942475,44.69463076171875,49.556075,44.62313076171875,49.126575L44.26533076171875,47.466274999999996C44.82353076171875,47.065475,45.36733076171875,46.621674999999996,45.88263076171875,46.135075L47.42863076171875,46.779174999999995C47.84363076171875,46.950975,48.23003076171875,46.850875,48.54503076171875,46.492875C48.802630761718746,46.192375,48.84563076171875,45.762975,48.61673076171875,45.390775000000005L47.71483076171875,43.945175C48.10123076171875,43.386875,48.43053076171875,42.771375,48.731130761718745,42.127275L50.44883076171875,42.213175C50.863830761718745,42.241775000000004,51.23593076171875,41.998475,51.37903076171875,41.597674999999995C51.522230761718745,41.196875,51.37903076171875,40.781774999999996,51.04993076171875,40.524175L49.718730761718746,39.464974999999995C49.89053076171875,38.806475,50.01933076171875,38.119375000000005,50.07653076171875,37.403774999999996L51.69403076171875,36.888575C52.10913076171875,36.745374999999996,52.36683076171875,36.416075,52.36683076171875,35.986775C52.36683076171875,35.557275000000004,52.10913076171875,35.228075000000004,51.69403076171875,35.084975L50.07653076171875,34.569675000000004C50.01933076171875,33.853975,49.87623076171875,33.181275,49.718730761718746,32.508475000000004L51.04993076171875,31.449275C51.37903076171875,31.205975000000002,51.507930761718754,30.805175,51.37903076171875,30.404375C51.23593076171875,29.989275,50.863830761718745,29.745995,50.44883076171875,29.774625L48.731130761718745,29.831885C48.43053076171875,29.202085,48.10123076171875,28.600915,47.71483076171875,28.028354999999998L48.61673076171875,26.568375C48.831330761718746,26.224845000000002,48.802630761718746,25.795435,48.54503076171875,25.494855C48.23003076171875,25.137005000000002,47.84363076171875,25.036815,47.42863076171875,25.208585L45.86843076171875,25.838385C45.36733076171875,25.366035,44.82353076171875,24.907995,44.26533076171875,24.521515L44.62313076171875,22.861145C44.69463076171875,22.417425,44.551630761718755,22.030965000000002,44.179330761718745,21.830565C43.77853076171875,21.615855,43.36353076171875,21.644485,43.06293076171875,21.959385L41.80343076171875,23.075855C41.17343076171875,22.789585,40.51503076171875,22.560555,39.842430761718745,22.374475L39.59893076171875,20.699788C39.54183076171875,20.270379,39.255530761718745,19.9554801,38.84033076171875,19.8695984C38.39673076171875,19.812344,38.02443076171875,19.998421,37.838430761718755,20.356262L37.03693076171875,21.887825C36.67913076171875,21.859195,36.34983076171875,21.844885,36.00633076171875,21.844885C35.63413076171875,21.844885,35.30493076171875,21.859195,34.94713076171875,21.887825L34.145530761718746,20.356262C33.97373076171875,19.998421,33.587330761718746,19.812344,33.143630761718754,19.883912C32.72853076171875,19.9554801,32.44223076171875,20.270379,32.38493076171875,20.699788L32.14163076171875,22.374475C31.48323076171875,22.560555,30.82483076171875,22.789585,30.18063076171875,23.075855L28.93538076171875,21.959385C28.620480761718753,21.658795,28.20539076171875,21.615855,27.80460076171875,21.830565C27.44677076171875,22.030965000000002,27.28932076171875,22.417425,27.36088076171875,22.861145L27.71872076171875,24.521515C27.16050076171875,24.907995,26.616570761718748,25.366035,26.11561076171875,25.838385L24.55542076171875,25.208585C24.15463076171875,25.036815,23.753850761718752,25.137005000000002,23.45327076171875,25.494855C23.18131076171875,25.795435,23.15268076171875,26.224845000000002,23.36739076171875,26.568375L24.28346076171875,28.028354999999998C23.89699076171875,28.600915,23.56777076171875,29.202085,23.25287076171875,29.831885L21.54955076171875,29.774625C21.12015076171875,29.745995,20.74799076171875,29.989275,20.61916976171875,30.404375C20.47603476171875,30.805175,20.59054276171875,31.205975000000002,20.93407076171875,31.449275L22.27955076171875,32.508475000000004C22.10779076171875,33.181275,21.96465076171875,33.853975,21.92171076171875,34.569675000000004L20.30427076171875,35.084975C19.87486176171875,35.228075000000004,19.63153076171875,35.542975,19.63153076171875,35.986775C19.63153076171875,36.416075,19.87486176171875,36.745374999999996,20.30427076171875,36.888575L21.92171076171875,37.403774999999996C21.96465076171875,38.119375000000005,22.10779076171875,38.806475,22.27955076171875,39.464974999999995L20.94838076171875,40.524175C20.60485576171875,40.767475000000005,20.49034776171875,41.182575,20.61916976171875,41.583375000000004C20.74799076171875,41.998475,21.12015076171875,42.241775000000004,21.54955076171875,42.213175L23.25287076171875,42.127275C23.55346076171875,42.771375,23.89699076171875,43.386875,24.28346076171875,43.945175L23.36739076171875,45.405175C23.13837076171875,45.762975,23.18131076171875,46.192375,23.45327076171875,46.492875C23.753850761718752,46.850875,24.15463076171875,46.950975,24.55542076171875,46.779174999999995L26.11561076171875,46.135075C26.616570761718748,46.621674999999996,27.16050076171875,47.065475,27.71872076171875,47.466274999999996L27.36088076171875,49.126575C27.28932076171875,49.556075,27.432450761718748,49.942475,27.80460076171875,50.157174999999995C28.20539076171875,50.371975,28.620480761718753,50.328975,28.93538076171875,50.028375L30.18063076171875,48.897575C30.82483076171875,49.169574999999995,31.468930761718752,49.427275,32.14163076171875,49.613175L32.38493076171875,51.302375C32.44223076171875,51.731674999999996,32.72853076171875,52.046575,33.15793076171875,52.118075C33.587330761718746,52.175475,33.97373076171875,51.989275,34.145530761718746,51.617175L34.94713076171875,50.085674999999995C35.30493076171875,50.114374999999995,35.63413076171875,50.142775,36.00633076171875,50.142775ZM35.92053076171875,32.007575C37.60953076171875,32.007575,39.04083076171875,33.009475,39.742130761718755,34.855975L47.34263076171875,34.855975C47.32713076171875,34.688175,47.30823076171875,34.521475,47.285930761718745,34.355975C46.52663076171875,28.717135,41.87403076171875,24.421325,35.99203076171875,24.421325C34.41263076171875,24.421325,32.92543076171875,24.732325,31.57173076171875,25.292335C31.41633076171875,25.356595,31.26283076171875,25.424135,31.11103076171875,25.494855L31.363630761718753,25.928885L34.97573076171875,32.136375C35.41943076171875,32.036175,35.67713076171875,32.007575,35.92053076171875,32.007575ZM46.782530761718746,34.355975L40.07713076171875,34.355975Q40.067430761718754,34.333875,40.057630761718755,34.312275Q39.49473076171875,33.067175,38.49733076171875,32.336075Q37.36693076171875,31.507575,35.92053076171875,31.507575Q35.62143076171875,31.507575,35.22803076171875,31.575775L31.82543076171875,25.728355Q31.85123076171875,25.717825,31.87713076171875,25.707415Q33.83373076171875,24.921325,35.99203076171875,24.921325Q40.301630761718755,24.921325,43.393230761718755,27.798565Q46.25293076171875,30.459975,46.782530761718746,34.355975ZM28.75384076171875,27.010065C26.19334076171875,29.126575000000003,24.59835076171875,32.349875,24.59835076171875,36.001075C24.59835076171875,39.595075,26.15205076171875,42.787575000000004,28.64373076171875,44.901475000000005C28.77189076171875,45.010175000000004,28.90253076171875,45.116074999999995,29.035570761718752,45.218975L29.29841076171875,44.789975L33.04343076171875,38.677675C32.25613076171875,37.804575,31.92693076171875,36.945675,31.92693076171875,36.043975C31.92693076171875,35.099275,32.28473076171875,34.183175,33.04343076171875,33.352975L29.40435076171875,27.131865L29.15009076171875,26.697195C29.015590761718748,26.798585,28.88348076171875,26.902905,28.75384076171875,27.010065ZM32.42803076171875,38.724975L28.90791076171875,44.470275Q28.88376076171875,44.449574999999996,28.859810761718748,44.428775Q27.22118076171875,43.006675,26.24605076171875,41.017975Q25.09835076171875,38.677175,25.09835076171875,36.001075Q25.09835076171875,33.284075,26.27505076171875,30.922674999999998Q27.29071076171875,28.884425,29.00948076171875,27.447085L32.43203076171875,33.298175Q32.40663076171875,33.329875,32.38193076171875,33.361675Q31.42693076171875,34.588675,31.42693076171875,36.043975Q31.42693076171875,37.467575,32.42803076171875,38.724975ZM35.93463076171875,34.312075C35.018630761718754,34.312075,34.20283076171875,35.056375,34.20283076171875,36.029675C34.20283076171875,36.974374999999995,35.018630761718754,37.761575,35.93463076171875,37.761575C36.89373076171875,37.761575,37.681030761718745,36.974374999999995,37.681030761718745,36.029675C37.681030761718745,35.056375,36.89373076171875,34.312075,35.93463076171875,34.312075ZM34.70283076171875,36.029675Q34.70283076171875,35.522875,35.07273076171875,35.165375Q35.43833076171875,34.812075,35.93463076171875,34.812075Q36.456330761718746,34.812075,36.81903076171875,35.164474999999996Q37.181030761718745,35.516175000000004,37.181030761718745,36.029675Q37.181030761718745,36.531375,36.81493076171875,36.895375Q36.44653076171875,37.261575,35.93463076171875,37.261575Q35.44823076171875,37.261575,35.07683076171875,36.894375Q34.70283076171875,36.524575,34.70283076171875,36.029675ZM47.34263076171875,37.131875L39.742130761718755,37.131875C39.04083076171875,39.021175,37.62383076171875,40.051874999999995,35.92053076171875,40.051874999999995C35.67713076171875,40.051874999999995,35.390830761718746,40.023174999999995,34.96143076171875,39.937174999999996L31.25823076171875,46.006775000000005L30.996530761718752,46.435675C31.14733076171875,46.508875,31.29993076171875,46.578875,31.45433076171875,46.645375C32.83943076171875,47.241975,34.369430761718746,47.566375,35.99203076171875,47.566375C41.87403076171875,47.566375,46.52663076171875,43.270675,47.285930761718745,37.631875C47.30823076171875,37.466274999999996,47.32713076171875,37.299575000000004,47.34263076171875,37.131875ZM35.99203076171875,47.066375Q40.301630761718755,47.066375,43.393230761718755,44.189175Q46.24803076171875,41.532275,46.78073076171875,37.645075Q46.781630761718745,37.638475,46.782530761718746,37.631875L40.08033076171875,37.631875Q39.51633076171875,38.939175,38.508130761718746,39.699574999999996Q37.37793076171875,40.551874999999995,35.92053076171875,40.551874999999995Q35.62063076171875,40.551874999999995,35.23343076171875,40.493075000000005Q35.221730761718746,40.491275,35.21013076171875,40.489475L31.71733076171875,46.214375000000004Q33.72553076171875,47.066475,35.99203076171875,47.066375Z" fill-rule="evenodd" fill="#000000" fill-opacity="0.6000000238418579"/></g></g></g></svg>