<svg xmlns="http://www.w3.org/2000/svg" xmlns:xlink="http://www.w3.org/1999/xlink" fill="none" version="1.1" width="28" height="28" viewBox="0 0 28 28"><g><g><g><path d="M14.00001298828125,2.33349609375C7.55665298828125,2.33349609375,2.33331298828125,7.55683609375,2.33331298828125,14.00019609375C2.33331298828125,20.44339609375,7.55665298828125,25.66679609375,14.00001298828125,25.66679609375C20.44321298828125,25.66679609375,25.66661298828125,20.44339609375,25.66661298828125,14.00019609375C25.66661298828125,7.55683609375,20.44321298828125,2.33349609375,14.00001298828125,2.33349609375C14.00001298828125,2.33349609375,14.00001298828125,2.33349609375,14.00001298828125,2.33349609375ZM4.66664298828125,14.00019609375C4.66664298828125,8.84550609375,8.84532298828125,4.66682609375,14.00001298828125,4.66682609375C19.15461298828125,4.66682609375,23.33331298828125,8.84550609375,23.33331298828125,14.00019609375C23.33331298828125,19.15479609375,19.15461298828125,23.33349609375,14.00001298828125,23.33349609375C8.84532298828125,23.33349609375,4.66664298828125,19.15479609375,4.66664298828125,14.00019609375C4.66664298828125,14.00019609375,4.66664298828125,14.00019609375,4.66664298828125,14.00019609375Z" fill-rule="evenodd" fill="#000000" fill-opacity="0.6000000238418579"/><path d="M2.09331398828125,14.00019609375Q2.09331298828125,16.422396093750002,3.02909598828125,18.63479609375Q3.93288298828125,20.77159609375,5.58069298828125,22.41939609375Q7.22851298828125,24.06719609375,9.36529298828125,24.97099609375Q11.57774298828125,25.90679609375,14.00001298828125,25.90679609375Q16.422212988281252,25.90679609375,18.63461298828125,24.97099609375Q20.77141298828125,24.06729609375,22.41921298828125,22.41939609375Q24.06701298828125,20.77159609375,24.97081298828125,18.63479609375Q25.90661298828125,16.422396093750002,25.90661298828125,14.00019609375Q25.90661298828125,11.57793609375,24.97081298828125,9.36547609375Q24.06711298828125,7.22869609375,22.41921298828125,5.58087609375Q20.77141298828125,3.93306609375,18.63461298828125,3.02927909375Q16.422212988281252,2.09349709375,14.00001298828125,2.09349709375Q11.57773298828125,2.09349609375,9.36529298828125,3.02927909375Q7.22851298828125,3.93306609375,5.58069298828125,5.58087609375Q3.93288298828125,7.22869609375,3.02909598828125,9.36547609375Q2.09331398828125,11.57791609375,2.09331398828125,14.00019609375ZM2.33331298828125,14.00019609375C2.33331298828125,7.55683609375,7.55665298828125,2.33349609375,14.00001298828125,2.33349609375C20.44321298828125,2.33349609375,25.66661298828125,7.55683609375,25.66661298828125,14.00019609375C25.66661298828125,20.44339609375,20.44321298828125,25.66679609375,14.00001298828125,25.66679609375C7.55665298828125,25.66679609375,2.33331298828125,20.44339609375,2.33331298828125,14.00019609375ZM14.00001298828125,4.66682609375C8.84532298828125,4.66682609375,4.66664298828125,8.84550609375,4.66664298828125,14.00019609375C4.66664298828125,19.15479609375,8.84532298828125,23.33349609375,14.00001298828125,23.33349609375C19.15461298828125,23.33349609375,23.33331298828125,19.15479609375,23.33331298828125,14.00019609375C23.33331298828125,8.84550609375,19.15461298828125,4.66682609375,14.00001298828125,4.66682609375ZM4.90664298828125,14.00019609375Q4.90664298828125,12.14996609375,5.62114298828125,10.46069609375Q6.31134298828125,8.82887609375,7.57002298828125,7.57020609375Q8.828682988281251,6.31153609375,10.46051298828125,5.62132609375Q12.14978298828125,4.90682609375,14.00001298828125,4.90682609375Q15.85021298828125,4.90682609375,17.53941298828125,5.62132609375Q19.17131298828125,6.31152609375,20.42991298828125,7.57020609375Q21.68861298828125,8.828866093750001,22.37881298828125,10.46069609375Q23.09331298828125,12.14995609375,23.09331298828125,14.00019609375Q23.09331298828125,15.85039609375,22.37881298828125,17.53959609375Q21.68861298828125,19.17149609375,20.42991298828125,20.43009609375Q19.17131298828125,21.68879609375,17.53941298828125,22.37899609375Q15.85021298828125,23.09349609375,14.00001298828125,23.09349609375Q12.14978298828125,23.09349609375,10.46051298828125,22.37899609375Q8.828682988281251,21.68879609375,7.57002298828125,20.43009609375Q6.31134298828125,19.17149609375,5.62114298828125,17.53959609375Q4.90664298828125,15.85039609375,4.90664298828125,14.00019609375Z" fill-rule="evenodd" fill="#000000" fill-opacity="0.6000000238418579"/></g><g><path d="M15.009129999999999,8.358538C14.7635,8.129625,14.440940000000001,8.0165474,14.109490000000001,8.00551582C14.073979999999999,8,14.03847,8.00275791,14.00296,8C13.96745,8.00275791,13.93194,8,13.896419999999999,8.00551582C13.56498,8.0165474,13.24242,8.129625,12.99679,8.358538L8.395068,12.644449999999999C7.86831,13.13537,7.86831,13.92967,8.395068,14.41784C8.921825,14.908760000000001,9.77115,14.908760000000001,10.2979,14.41784L12.597290000000001,12.27488L12.597290000000001,18.7451C12.597290000000001,19.4374,13.200990000000001,20,13.94377,20C13.96449,20,13.98225,19.994500000000002,14,19.994500000000002C14.017759999999999,19.994500000000002,14.03551,20,14.05623,20C14.799009999999999,20,15.402709999999999,19.4374,15.402709999999999,18.7451L15.402709999999999,12.272120000000001L17.7021,14.41508C18.2289,14.905999999999999,19.078200000000002,14.905999999999999,19.6049,14.41508C20.131700000000002,13.92691,20.131700000000002,13.13261,19.6049,12.64169L15.009129999999999,8.358538Z" fill="#000000" fill-opacity="0.6000000238418579"/></g></g></g></svg>