<svg xmlns="http://www.w3.org/2000/svg" xmlns:xlink="http://www.w3.org/1999/xlink" fill="none" version="1.1" width="56" height="56" viewBox="0 0 56 56"><g><g><g><path d="M28.0002,46Q13.56599,46,5.0767299999999995,30.1271C4.355912,28.7794,4.382125,27.1841,5.11276,25.8416Q13.73449,10,28.0002,10Q42.2655,10,50.8872,25.8416C51.6179,27.1841,51.6441,28.7794,50.9233,30.1271Q42.4343,46,28.0002,46ZM28,15.33331Q17.9908,15.33331,11.82245,25.8228C11.028310000000001,27.1733,11.01734,28.8222,11.80297,30.1776Q17.8825,40.6667,28,40.6667Q38.1175,40.6667,44.1969,30.1776C44.9825,28.8222,44.9715,27.1733,44.1774,25.8228Q41.3984,21.0968,37.8396,18.50005Q33.4996,15.33331,28,15.33331Z" fill="#000000" fill-opacity="0.6000000238418579"/></g><g><ellipse cx="28" cy="28" rx="7" ry="7" fill="#000000" fill-opacity="0.6000000238418579"/></g></g></g></svg>