<svg xmlns="http://www.w3.org/2000/svg" xmlns:xlink="http://www.w3.org/1999/xlink" fill="none" version="1.1" width="144" height="144" viewBox="0 0 144 144"><defs><filter id="master_svg0_42_7493" filterUnits="objectBoundingBox" color-interpolation-filters="sRGB" x="0" y="0" width="144" height="144"><feFlood flood-opacity="0" result="BackgroundImageFix"/><feBlend mode="normal" in="SourceGraphic" in2="BackgroundImageFix" result="shape"/><feColorMatrix in="SourceAlpha" type="matrix" result="hardAlpha" values="0 0 0 0 0 0 0 0 0 0 0 0 0 0 0 0 0 0 127 0"/><feOffset dy="0" dx="0"/><feGaussianBlur stdDeviation="5"/><feComposite in2="hardAlpha" operator="arithmetic" k2="-1" k3="1"/><feColorMatrix type="matrix" values="0 0 0 0 0 0 0 0 0 0 0 0 0 0 0 0 0 0 0.019999999552965164 0"/><feBlend mode="normal" in2="shape" result="effect1_innerShadow"/></filter><clipPath id="master_svg1_42_7494"><rect x="36" y="36" width="72" height="72" rx="0"/></clipPath></defs><g><g filter="url(#master_svg0_42_7493)"><ellipse cx="72" cy="72" rx="72" ry="72" fill="#000000" fill-opacity="0.05000000074505806"/></g><g clip-path="url(#master_svg1_42_7494)"><g transform="matrix(-1,0,0,1,203.4000244140625,0)"><path d="M159.66001220703126,55.5748828125C159.30001220703124,54.8548828125,158.58001220703125,54.8548828125,157.86001220703125,55.2148828125L146.70001220703125,66.3748828125C145.98001220703125,67.0948828125,144.54001220703125,67.0948828125,143.82001220703125,66.3748828125L136.26001220703125,58.8148828125C135.54001220703125,58.0948828125,135.54001220703125,56.6548828125,136.26001220703125,55.9348828125L147.42001220703125,44.7748828125C147.78001220703123,44.4148828125,147.42001220703125,43.3348828125,146.70001220703125,42.9748828125C144.90001220703124,42.2548828125,142.74001220703124,42.2548828125,140.94001220703126,42.2548828125C129.42001220703125,42.2548828125,120.06001220703125,52.3348828125,121.50001220703125,64.21488281250001C121.86001220703125,66.3748828125,122.22001220703125,67.8148828125,122.94001220703124,69.6148828125L104.13001220703126,88.06508281250001C100.89001620703125,91.30508281249999,100.89001620703125,95.9850828125,104.13001220703126,99.2250828125C105.57001220703125,100.6650828125,107.73002220703125,101.7447828125,109.53002220703125,101.7447828125C111.33002220703125,101.7447828125,113.49001220703124,101.0250828125,115.29001220703125,99.2250828125L133.74001220703124,80.4148828125C135.54001220703125,81.1348828125,137.34001220703124,81.49488281250001,139.14001220703125,81.8548828125C151.02001220703124,82.9348828125,161.10001220703126,73.9348828125,161.10001220703126,62.4148828125C160.74001220703124,59.5348828125,160.38001220703126,57.3748828125,159.66001220703126,55.5748828125Z" fill="#000000" fill-opacity="0.6000000238418579"/></g></g></g></svg>