<svg xmlns="http://www.w3.org/2000/svg" xmlns:xlink="http://www.w3.org/1999/xlink" fill="none" version="1.1" width="54.000003814697266" height="54" viewBox="0 0 54.000003814697266 54"><defs><clipPath id="master_svg0_42_3863"><rect x="0" y="0" width="54.000003814697266" height="54" rx="0"/></clipPath><filter id="master_svg1_42_3868" filterUnits="objectBoundingBox" color-interpolation-filters="sRGB" x="0" y="0" width="54.000003814697266" height="54"><feFlood flood-opacity="0" result="BackgroundImageFix"/><feBlend mode="normal" in="SourceGraphic" in2="BackgroundImageFix" result="shape"/><feColorMatrix in="SourceAlpha" type="matrix" result="hardAlpha" values="0 0 0 0 0 0 0 0 0 0 0 0 0 0 0 0 0 0 127 0"/><feOffset dy="0" dx="0"/><feGaussianBlur stdDeviation="5"/><feComposite in2="hardAlpha" operator="arithmetic" k2="-1" k3="1"/><feColorMatrix type="matrix" values="0 0 0 0 0 0 0 0 0 0 0 0 0 0 0 0 0 0 0.019999999552965164 0"/><feBlend mode="normal" in2="shape" result="effect1_innerShadow"/></filter><filter id="master_svg2_42_3864" filterUnits="objectBoundingBox" color-interpolation-filters="sRGB" x="-48" y="-48" width="144.00000381469727" height="144"><feFlood flood-opacity="0" result="BackgroundImageFix"/><feColorMatrix in="SourceAlpha" type="matrix" values="0 0 0 0 0 0 0 0 0 0 0 0 0 0 0 0 0 0 127 0"/><feOffset dy="0" dx="0"/><feGaussianBlur stdDeviation="12"/><feColorMatrix type="matrix" values="0 0 0 0 0 0 0 0 0 0 0 0 0 0 0 0 0 0 0.009999999776482582 0"/><feBlend mode="normal" in2="BackgroundImageFix" result="effect1_dropShadow"/><feBlend mode="normal" in="SourceGraphic" in2="effect1_dropShadow" result="shape"/></filter><filter id="master_svg3_42_3869" filterUnits="objectBoundingBox" color-interpolation-filters="sRGB" x="0" y="0" width="22.250595092773438" height="24"><feFlood flood-opacity="0" result="BackgroundImageFix"/><feBlend mode="normal" in="SourceGraphic" in2="BackgroundImageFix" result="shape"/><feColorMatrix in="SourceAlpha" type="matrix" result="hardAlpha" values="0 0 0 0 0 0 0 0 0 0 0 0 0 0 0 0 0 0 127 0"/><feOffset dy="0" dx="0"/><feGaussianBlur stdDeviation="5"/><feComposite in2="hardAlpha" operator="arithmetic" k2="-1" k3="1"/><feColorMatrix type="matrix" values="0 0 0 0 0 0 0 0 0 0 0 0 0 0 0 0 0 0 0.019999999552965164 0"/><feBlend mode="normal" in2="shape" result="effect1_innerShadow"/></filter><linearGradient x1="0.5" y1="0" x2="0.5" y2="1" id="master_svg4_42_1101"><stop offset="0%" stop-color="#FF9292" stop-opacity="1"/><stop offset="100%" stop-color="#FF1F1F" stop-opacity="1"/></linearGradient><filter id="master_svg5_42_3867" filterUnits="objectBoundingBox" color-interpolation-filters="sRGB" x="-4" y="-4" width="20" height="20"><feFlood flood-opacity="0" result="BackgroundImageFix"/><feColorMatrix in="SourceAlpha" type="matrix" values="0 0 0 0 0 0 0 0 0 0 0 0 0 0 0 0 0 0 127 0"/><feOffset dy="0" dx="0"/><feGaussianBlur stdDeviation="1"/><feColorMatrix type="matrix" values="0 0 0 0 0 0 0 0 0 0 0 0 0 0 0 0 0 0 0.11999999731779099 0"/><feBlend mode="normal" in2="BackgroundImageFix" result="effect1_dropShadow"/><feBlend mode="normal" in="SourceGraphic" in2="effect1_dropShadow" result="shape"/></filter></defs><g clip-path="url(#master_svg0_42_3863)"><g filter="url(#master_svg1_42_3868)"><ellipse cx="27.000001907348633" cy="27" rx="27.000001907348633" ry="27" fill="#F2F2F2" fill-opacity="1"/></g><g filter="url(#master_svg2_42_3864)"><ellipse cx="27.000001907348633" cy="27" rx="24.000001907348633" ry="24" fill="#FFFFFF" fill-opacity="1"/></g><g filter="url(#master_svg3_42_3869)"><path d="M17.79591,34.8151C17.79591,34.8151,22.50673,34.8151,22.50673,34.8151C22.58677,36.987700000000004,24.370469999999997,38.9999,27.0003,38.9999C29.6187,38.9999,31.413800000000002,37.010400000000004,31.505200000000002,34.8151C31.505200000000002,34.8151,36.2047,34.8151,36.2047,34.8151C37.3938,34.8151,38.1256,34.1635,38.1256,33.180099999999996C38.1256,31.9567,37.0165,30.9162,35.976,29.9214C35.164100000000005,29.1325,34.9698,27.5545,34.821200000000005,25.9424C34.661100000000005,21.63173,33.3919,18.75035,30.4191,17.67556C29.973100000000002,16.15484,28.704,15,27.0003,15C25.29663,15,24.02745,16.15484,23.59297,17.67556C20.60868,18.75035,19.35095,21.63173,19.17943,25.9424C19.03079,27.5545,18.83641,29.1325,18.02459,29.9214C16.9841,30.9162,15.875,31.9567,15.875,33.180099999999996C15.875,34.1635,16.606777,34.8151,17.79591,34.8151C17.79591,34.8151,17.79591,34.8151,17.79591,34.8151ZM18.6649,32.6884C18.6649,32.6884,18.6649,32.5512,18.6649,32.5512C18.96219,32.2196,19.62535,31.6136,20.18563,30.973300000000002C20.97457,30.0701,21.34046,28.4007,21.4548,26.2282C21.592010000000002,21.643169999999998,23.00983,20.09957,24.83926,19.60791C25.125120000000003,19.52787,25.27376,19.39066,25.29663,19.08195C25.3538,17.92711,26.005499999999998,17.14959,27.0003,17.14959C28.006500000000003,17.14959,28.6468,17.92711,28.704,19.08195C28.7268,19.39066,28.887,19.52787,29.1613,19.60791C31.002200000000002,20.09957,32.4086,21.643169999999998,32.5459,26.2282C32.6715,28.4007,33.0375,30.0701,33.8149,30.973300000000002C34.3752,31.6136,35.0156,32.2196,35.312799999999996,32.5512C35.312799999999996,32.5512,35.312799999999996,32.6884,35.312799999999996,32.6884C35.312799999999996,32.6884,18.6649,32.6884,18.6649,32.6884C18.6649,32.6884,18.6649,32.6884,18.6649,32.6884ZM27.0003,37.159099999999995C25.70825,37.159099999999995,24.7821,36.233000000000004,24.70207,34.8151C24.70207,34.8151,29.3099,34.8151,29.3099,34.8151C29.241300000000003,36.2215,28.303800000000003,37.159099999999995,27.0003,37.159099999999995C27.0003,37.159099999999995,27.0003,37.159099999999995,27.0003,37.159099999999995Z" fill="#000000" fill-opacity="0.8999999761581421"/><path d="M16.063073,34.7451Q16.724346,35.3151,17.79591,35.3151L22.046979999999998,35.3151Q22.25429,36.9015,23.44607,38.078Q24.88635,39.4999,27.0003,39.4999Q29.1096,39.4999,30.5504,38.087900000000005Q31.749200000000002,36.913,31.9632,35.3151L36.2047,35.3151Q37.2763,35.3151,37.9375,34.7451Q38.6256,34.1519,38.6256,33.180099999999996Q38.6256,32.2123,37.860299999999995,31.1906Q37.4387,30.6277,36.3707,29.6069L36.321600000000004,29.560000000000002Q35.880700000000004,29.1316,35.6357,28.1226Q35.4568,27.3858,35.3203,25.91Q35.0597,19.0063,30.8218,17.29436Q30.4162,16.13083,29.497700000000002,15.38032Q28.420299999999997,14.5,27.0003,14.5Q25.57911,14.5,24.50387,15.380698Q23.58615,16.13237,23.18849,17.29478Q18.95924,18.99979,18.68036,25.9093Q18.54376,27.3856,18.36482,28.1226Q18.11984,29.1316,17.67614,29.5628Q17.66222,29.5761,17.62984,29.607Q16.561891,30.6278,16.140248,31.1907Q15.375,32.2124,15.375,33.180099999999996Q15.375,34.1519,16.063073,34.7451ZM17.79591,34.8151L22.50673,34.8151C22.58677,36.987700000000004,24.370469999999997,38.9999,27.0003,38.9999C29.6187,38.9999,31.413800000000002,37.010400000000004,31.505200000000002,34.8151L36.2047,34.8151C37.3938,34.8151,38.1256,34.1635,38.1256,33.180099999999996C38.1256,31.9567,37.0165,30.9162,35.976,29.9214C35.164100000000005,29.1325,34.9698,27.5545,34.821200000000005,25.9424C34.661100000000005,21.63173,33.3919,18.75035,30.4191,17.67556C29.973100000000002,16.15484,28.704,15,27.0003,15C25.29663,15,24.02745,16.15484,23.59297,17.67556C20.60868,18.75035,19.35095,21.63173,19.17943,25.9424C19.03079,27.5545,18.83641,29.1325,18.02459,29.9214C16.9841,30.9162,15.875,31.9567,15.875,33.180099999999996C15.875,34.1635,16.606777,34.8151,17.79591,34.8151ZM20.18563,30.973300000000002C20.97457,30.0701,21.34046,28.4007,21.4548,26.2282C21.592010000000002,21.643169999999998,23.00983,20.09957,24.83926,19.60791C25.125120000000003,19.52787,25.27376,19.39066,25.29663,19.08195C25.3538,17.92711,26.005499999999998,17.14959,27.0003,17.14959C28.006500000000003,17.14959,28.6468,17.92711,28.704,19.08195C28.7268,19.39066,28.887,19.52787,29.1613,19.60791C31.002200000000002,20.09957,32.4086,21.643169999999998,32.5459,26.2282C32.6715,28.4007,33.0375,30.0701,33.8149,30.973300000000002C34.2084,31.423,34.641400000000004,31.8558,34.9673,32.1884C35.1054,32.329499999999996,35.2243,32.4525,35.312799999999996,32.5512L35.312799999999996,32.6884L18.6649,32.6884L18.6649,32.5512C18.7534,32.4525,18.87432,32.329499999999996,19.01529,32.1884C19.3479,31.8558,19.79214,31.423,20.18563,30.973300000000002ZM33.436,31.2995Q33.733599999999996,31.6396,34.267399999999995,32.1884L19.72252,32.1884Q19.74375,32.167100000000005,19.76411,32.1465Q20.27799,31.627,20.56192,31.3025Q21.76065,29.9301,21.95411,26.2545L21.9544,26.2488L21.95457,26.2432Q22.04682,23.16077,22.94341,21.63655Q23.64308,20.44713,24.96903,20.09077Q25.739240000000002,19.87516,25.795270000000002,19.11889L25.79572,19.11278L25.79602,19.10667Q25.83071,18.40595,26.1742,18.01071Q26.4881,17.64959,27.0003,17.64959Q27.5183,17.64959,27.829900000000002,18.0098Q28.1697,18.40273,28.2046,19.10668L28.204900000000002,19.11279L28.2053,19.11889Q28.2607,19.86602,29.0213,20.0879L29.0268,20.0895L29.0323,20.09097Q30.363,20.44639,31.0612,21.636110000000002Q31.9537,23.15691,32.046099999999996,26.2432L32.0463,26.2501L32.0467,26.2571Q32.259299999999996,29.9324,33.436,31.2995ZM24.70207,34.8151L29.3099,34.8151C29.3014,34.9892,29.279600000000002,35.1562,29.2454,35.3151C29.003500000000003,36.4394,28.142400000000002,37.159099999999995,27.0003,37.159099999999995C25.867150000000002,37.159099999999995,25.015430000000002,36.446799999999996,24.76909,35.3151C24.73455,35.156400000000005,24.71191,34.9895,24.70207,34.8151ZM27.0003,36.659099999999995Q27.7717,36.659099999999995,28.2628,36.162800000000004Q28.598599999999998,35.8234,28.73,35.3297Q28.7319,35.322500000000005,28.733800000000002,35.3151L25.28109,35.3151Q25.41368,35.823899999999995,25.75271,36.1678Q26.2372,36.659099999999995,27.0003,36.659099999999995Z" fill-rule="evenodd" fill="#000000" fill-opacity="0.8999999761581421"/></g><g><g><path d="M38,21Q38,21.12274,37.99398,21.24534Q37.98795,21.36793,37.97592,21.490090000000002Q37.96389,21.61224,37.94588,21.73365Q37.92787,21.85507,37.90392,21.975450000000002Q37.87998,22.09584,37.85015,22.2149Q37.82033,22.33396,37.7847,22.45142Q37.74907,22.56888,37.70772,22.68445Q37.66637,22.80002,37.6194,22.913420000000002Q37.57242,23.02682,37.51995,23.13777Q37.46747,23.248730000000002,37.40961,23.35698Q37.35174,23.46523,37.28864,23.57051Q37.22554,23.67579,37.15735,23.77785Q37.089150000000004,23.87991,37.016040000000004,23.9785Q36.94292,24.077080000000002,36.86505,24.17197Q36.78718,24.266849999999998,36.704750000000004,24.35779Q36.62232,24.44874,36.53553,24.53553Q36.44874,24.622320000000002,36.35779,24.70475Q36.26685,24.78718,36.17197,24.86505Q36.07708,24.94292,35.9785,25.01604Q35.87991,25.08915,35.77785,25.15735Q35.67579,25.225540000000002,35.57051,25.28864Q35.46523,25.35174,35.35698,25.40961Q35.24873,25.46747,35.13777,25.51995Q35.02682,25.57242,34.91342,25.6194Q34.80002,25.66637,34.68445,25.707720000000002Q34.56888,25.74907,34.45142,25.7847Q34.33396,25.82033,34.2149,25.85015Q34.09584,25.87998,33.97545,25.90392Q33.85507,25.92787,33.73365,25.945880000000002Q33.61224,25.96389,33.49009,25.975920000000002Q33.36793,25.987949999999998,33.24534,25.99398Q33.12274,26,33,26Q32.87726,26,32.75466,25.99398Q32.63207,25.987949999999998,32.50991,25.975920000000002Q32.38776,25.96389,32.26635,25.945880000000002Q32.14493,25.92787,32.02455,25.90392Q31.90416,25.87998,31.7851,25.85015Q31.66603,25.82033,31.54858,25.7847Q31.43112,25.74907,31.31555,25.707720000000002Q31.19998,25.66637,31.08658,25.6194Q30.97318,25.57242,30.86222,25.51995Q30.751269999999998,25.46747,30.64302,25.40961Q30.53477,25.35174,30.42949,25.28864Q30.32421,25.225540000000002,30.22215,25.15735Q30.12009,25.08915,30.0215,25.01604Q29.92291,24.94292,29.82803,24.86505Q29.73315,24.78718,29.6422,24.70475Q29.55126,24.622320000000002,29.46447,24.53553Q29.37767,24.44874,29.29524,24.35779Q29.21282,24.266849999999998,29.13495,24.17197Q29.05708,24.077080000000002,28.983962,23.9785Q28.910844,23.87991,28.842652,23.77785Q28.774459,23.67579,28.711357,23.57051Q28.648254,23.46523,28.590394,23.35698Q28.532533,23.248730000000002,28.480053,23.13777Q28.427574,23.02682,28.380602,22.913420000000002Q28.333631,22.80002,28.29228,22.68445Q28.250929,22.56888,28.215298,22.45142Q28.179668,22.33396,28.149844,22.2149Q28.12002,22.09584,28.0960736,21.975450000000002Q28.0721276,21.85507,28.0541174,21.73365Q28.0361073,21.61224,28.0240764,21.490090000000002Q28.0120454,21.36793,28.00602272,21.24534Q28,21.12274,28,21Q28,20.87726,28.00602272,20.75466Q28.0120454,20.63207,28.0240764,20.509909999999998Q28.0361073,20.38776,28.0541174,20.26635Q28.0721276,20.14493,28.0960736,20.024549999999998Q28.12002,19.90416,28.149844,19.7851Q28.179668,19.66603,28.215298,19.54858Q28.250929,19.43112,28.29228,19.31555Q28.333631,19.19998,28.380602,19.08658Q28.427574,18.97318,28.480053,18.86222Q28.532533,18.751269999999998,28.590394,18.64302Q28.648254,18.53477,28.711357,18.42949Q28.774459,18.32421,28.842652,18.22215Q28.910844,18.12009,28.983962,18.0215Q29.05708,17.92291,29.13495,17.82803Q29.21282,17.73315,29.29524,17.6422Q29.37767,17.55126,29.46447,17.46447Q29.55126,17.37767,29.6422,17.29524Q29.73315,17.21282,29.82803,17.13495Q29.92291,17.05708,30.0215,16.983962Q30.12009,16.910844,30.22215,16.842652Q30.32421,16.774459,30.42949,16.711357Q30.53477,16.648254,30.64302,16.590394Q30.751269999999998,16.532533,30.86222,16.480053Q30.97318,16.427574,31.08658,16.380602Q31.19998,16.333631,31.31555,16.29228Q31.43112,16.250929,31.54858,16.215298Q31.66603,16.179668,31.7851,16.149844Q31.90416,16.12002,32.02455,16.0960736Q32.14493,16.0721276,32.26635,16.0541174Q32.38776,16.0361073,32.50991,16.0240764Q32.63207,16.0120454,32.75466,16.00602272Q32.87726,16,33,16Q33.12274,16,33.24534,16.00602272Q33.36793,16.0120454,33.49009,16.0240764Q33.61224,16.0361073,33.73365,16.0541174Q33.85507,16.0721276,33.97545,16.0960736Q34.09584,16.12002,34.2149,16.149844Q34.33396,16.179668,34.45142,16.215298Q34.56888,16.250929,34.68445,16.29228Q34.80002,16.333631,34.91342,16.380602Q35.02682,16.427574,35.13777,16.480053Q35.24873,16.532533,35.35698,16.590394Q35.46523,16.648254,35.57051,16.711357Q35.67579,16.774459,35.77785,16.842652Q35.87991,16.910844,35.9785,16.983962Q36.07708,17.05708,36.17197,17.13495Q36.26685,17.21282,36.35779,17.29524Q36.44874,17.37767,36.53553,17.46447Q36.62232,17.55126,36.704750000000004,17.6422Q36.78718,17.73315,36.86505,17.82803Q36.94292,17.92291,37.016040000000004,18.0215Q37.089150000000004,18.12009,37.15735,18.22215Q37.22554,18.32421,37.28864,18.42949Q37.35174,18.53477,37.40961,18.64302Q37.46747,18.751269999999998,37.51995,18.86222Q37.57242,18.97318,37.6194,19.08658Q37.66637,19.19998,37.70772,19.31555Q37.74907,19.43112,37.7847,19.54858Q37.82033,19.66603,37.85015,19.7851Q37.87998,19.90416,37.90392,20.024549999999998Q37.92787,20.14493,37.94588,20.26635Q37.96389,20.38776,37.97592,20.509909999999998Q37.98795,20.63207,37.99398,20.75466Q38,20.87726,38,21Z" fill="url(#master_svg4_42_1101)" fill-opacity="1"/></g><g filter="url(#master_svg5_42_3867)"><path d="M39,21Q39,22.14446,38.5787,23.20857Q38.1213,24.36396,37.242599999999996,25.2426Q36.36396,26.121299999999998,35.20857,26.578699999999998Q34.14446,27,33,27Q31.85554,27,30.79143,26.578699999999998Q29.63604,26.121299999999998,28.75736,25.2426Q27.87868,24.36396,27.42127,23.20857Q27,22.14446,27,21Q27,19.85554,27.42127,18.79143Q27.87868,17.63604,28.75736,16.75736Q29.63604,15.87868,30.79143,15.42127Q31.85554,15,33,15Q34.14446,15,35.20857,15.42127Q36.36396,15.87868,37.242599999999996,16.75736Q38.1213,17.63604,38.5787,18.79143Q39,19.85554,39,21ZM37.9091,21C37.9091,23.71122,35.71122,25.909100000000002,33,25.909100000000002C30.28878,25.909100000000002,28.09091,23.71122,28.09091,21C28.09091,18.28878,30.28878,16.09091,33,16.09091C35.71122,16.09091,37.9091,18.28878,37.9091,21Z" fill-rule="evenodd" fill="#FFFFFF" fill-opacity="1"/></g></g></g></svg>