<svg xmlns="http://www.w3.org/2000/svg" xmlns:xlink="http://www.w3.org/1999/xlink" fill="none" version="1.1" width="144" height="144" viewBox="0 0 144 144"><defs><filter id="master_svg0_9_9769" filterUnits="objectBoundingBox" color-interpolation-filters="sRGB" x="0" y="0" width="144" height="144"><feFlood flood-opacity="0" result="BackgroundImageFix"/><feBlend mode="normal" in="SourceGraphic" in2="BackgroundImageFix" result="shape"/><feColorMatrix in="SourceAlpha" type="matrix" result="hardAlpha" values="0 0 0 0 0 0 0 0 0 0 0 0 0 0 0 0 0 0 127 0"/><feOffset dy="0" dx="0"/><feGaussianBlur stdDeviation="5"/><feComposite in2="hardAlpha" operator="arithmetic" k2="-1" k3="1"/><feColorMatrix type="matrix" values="0 0 0 0 0 0 0 0 0 0 0 0 0 0 0 0 0 0 0.019999999552965164 0"/><feBlend mode="normal" in2="shape" result="effect1_innerShadow"/></filter><filter id="master_svg1_9_9829" filterUnits="objectBoundingBox" color-interpolation-filters="sRGB" x="0" y="0" width="51.918174743652344" height="56"><feFlood flood-opacity="0" result="BackgroundImageFix"/><feBlend mode="normal" in="SourceGraphic" in2="BackgroundImageFix" result="shape"/><feColorMatrix in="SourceAlpha" type="matrix" result="hardAlpha" values="0 0 0 0 0 0 0 0 0 0 0 0 0 0 0 0 0 0 127 0"/><feOffset dy="0" dx="0"/><feGaussianBlur stdDeviation="5"/><feComposite in2="hardAlpha" operator="arithmetic" k2="-1" k3="1"/><feColorMatrix type="matrix" values="0 0 0 0 0 0 0 0 0 0 0 0 0 0 0 0 0 0 0.019999999552965164 0"/><feBlend mode="normal" in2="shape" result="effect1_innerShadow"/></filter></defs><g><g filter="url(#master_svg0_9_9769)"><ellipse cx="72" cy="72" rx="72" ry="72" fill="#000000" fill-opacity="0.05000000074505806"/></g><g filter="url(#master_svg1_9_9829)"><path d="M50.522140915527345,90.2353C50.522140915527345,90.2353,61.514100915527344,90.2353,61.514100915527344,90.2353C61.700800915527346,95.3046,65.86280091552734,100,71.99910091552735,100C78.10880091552735,100,82.29720091552734,95.3578,82.51060091552733,90.2353C82.51060091552733,90.2353,93.47620091552734,90.2353,93.47620091552734,90.2353C96.25060091552734,90.2353,97.95810091552735,88.7148,97.95810091552735,86.4203C97.95810091552735,83.56569999999999,95.37030091552734,81.1378,92.94250091552735,78.8166C91.04810091552734,76.97579999999999,90.59460091552734,73.294,90.24790091552734,69.5322C89.87420091552735,59.4741,86.91280091552734,52.75085,79.97630091552735,50.24299C78.93570091552735,46.69462,75.97430091552735,44,71.99910091552735,44C68.02390091552735,44,65.06240091552735,46.69462,64.04860091552735,50.24299C57.08530091552734,52.75085,54.15056091552734,59.4741,53.750360915527345,69.5322C53.403520915527345,73.294,52.94998091552734,76.97579999999999,51.055720915527345,78.8166C48.62790091552734,81.1378,46.040000915527344,83.56569999999999,46.040000915527344,86.4203C46.040000915527344,88.7148,47.74748091552734,90.2353,50.522140915527345,90.2353C50.522140915527345,90.2353,50.522140915527345,90.2353,50.522140915527345,90.2353ZM52.54978091552734,85.2731C52.54978091552734,85.2731,52.54978091552734,84.9529,52.54978091552734,84.9529C53.24346091552734,84.1791,54.79085091552734,82.7652,56.09820091552734,81.27109999999999C57.939000915527345,79.1635,58.792800915527344,75.2684,59.05960091552734,70.1992C59.379700915527344,59.5008,62.68800091552734,55.899,66.95670091552734,54.7518C67.62370091552734,54.5651,67.97050091552734,54.2449,68.02390091552735,53.52457C68.15720091552734,50.82994,69.67800091552735,49.01572,71.99910091552735,49.01572C74.34690091552734,49.01572,75.84090091552734,50.82994,75.97430091552735,53.52457C76.02770091552735,54.2449,76.40130091552734,54.5651,77.04150091552734,54.7518C81.33680091552733,55.899,84.61850091552733,59.5008,84.93880091552734,70.1992C85.23200091552735,75.2684,86.08590091552735,79.1635,87.89990091552735,81.27109999999999C89.20730091552734,82.7652,90.70140091552734,84.1791,91.39500091552733,84.9529C91.39500091552733,84.9529,91.39500091552733,85.2731,91.39500091552733,85.2731C91.39500091552733,85.2731,52.54978091552734,85.2731,52.54978091552734,85.2731C52.54978091552734,85.2731,52.54978091552734,85.2731,52.54978091552734,85.2731ZM71.99910091552735,95.7047C68.98430091552734,95.7047,66.82330091552734,93.5438,66.63650091552734,90.2353C66.63650091552734,90.2353,77.38820091552734,90.2353,77.38820091552734,90.2353C77.22820091552734,93.517,75.04050091552735,95.7047,71.99910091552735,95.7047C71.99910091552735,95.7047,71.99910091552735,95.7047,71.99910091552735,95.7047Z" fill="#000000" fill-opacity="0.6000000238418579"/><path d="M46.45707591552734,90.0972Q48.009430915527346,91.4353,50.522140915527345,91.4353L60.41790091552734,91.4353Q60.634000915527345,92.95179999999999,61.271600915527344,94.3869Q62.14670091552735,96.3565,63.68250091552734,97.8726Q65.27050091552735,99.4404,67.33980091552735,100.2961Q69.52570091552735,101.2,71.99910091552735,101.2Q74.46380091552734,101.2,76.64480091552734,100.3047Q78.71490091552735,99.45490000000001,80.30590091552735,97.8956Q81.84880091552733,96.3835,82.73230091552735,94.4131Q83.37990091552734,92.9688,83.60270091552735,91.4353L93.47620091552734,91.4353Q95.98880091552735,91.4353,97.54110091552735,90.0972Q99.15810091552734,88.70320000000001,99.15810091552734,86.4203Q99.15810091552734,84.1511,97.36580091552734,81.75829999999999Q96.38030091552734,80.4425,93.88640091552735,78.0587Q93.82120091552734,77.9964,93.77180091552734,77.94919999999999Q92.75020091552734,76.95660000000001,92.18090091552735,74.6117Q91.76410091552734,72.8949,91.44580091552734,69.4545Q91.14280091552735,61.4266,88.64270091552734,56.512100000000004Q86.03360091552734,51.383359999999996,80.94230091552734,49.32786Q79.99230091552735,46.61407,77.84750091552735,44.861604Q75.32430091552735,42.8,71.99910091552735,42.8Q68.67110091552735,42.8,66.15290091552734,44.862512Q64.01010091552735,46.61763,63.07840091552734,49.32876Q57.97850091552734,51.38218,55.368760915527346,56.512100000000004Q52.87709091552735,61.4101,52.552580915527344,69.4529Q52.23409091552735,72.8946,51.817200915527344,74.6117Q51.247850915527344,76.95660000000001,50.21944091552734,77.956Q50.18133091552734,77.9924,50.11162091552735,78.059Q47.61772091552734,80.4427,46.632238915527346,81.7584Q44.84000091552734,84.1512,44.84000091552734,86.4203Q44.84000091552734,88.70320000000001,46.45707591552734,90.0972ZM50.522140915527345,90.2353L61.514100915527344,90.2353C61.700800915527346,95.3046,65.86280091552734,100,71.99910091552735,100C78.10880091552735,100,82.29720091552734,95.3578,82.51060091552733,90.2353L93.47620091552734,90.2353C96.25060091552734,90.2353,97.95810091552735,88.7148,97.95810091552735,86.4203C97.95810091552735,83.56569999999999,95.37030091552734,81.1378,92.94250091552735,78.8166C91.04810091552734,76.97579999999999,90.59460091552734,73.294,90.24790091552734,69.5322C89.87420091552735,59.4741,86.91280091552734,52.75085,79.97630091552735,50.24299C78.93570091552735,46.69462,75.97430091552735,44,71.99910091552735,44C68.02390091552735,44,65.06240091552735,46.69462,64.04860091552735,50.24299C57.08530091552734,52.75085,54.15056091552734,59.4741,53.750360915527345,69.5322C53.403520915527345,73.294,52.94998091552734,76.97579999999999,51.055720915527345,78.8166C48.62790091552734,81.1378,46.040000915527344,83.56569999999999,46.040000915527344,86.4203C46.040000915527344,88.7148,47.74748091552734,90.2353,50.522140915527345,90.2353ZM56.09820091552734,81.27109999999999C57.939000915527345,79.1635,58.792800915527344,75.2684,59.05960091552734,70.1992C59.379700915527344,59.5008,62.68800091552734,55.899,66.95670091552734,54.7518C67.62370091552734,54.5651,67.97050091552734,54.2449,68.02390091552735,53.52457C68.15720091552734,50.82994,69.67800091552735,49.01572,71.99910091552735,49.01572C74.34690091552734,49.01572,75.84090091552734,50.82994,75.97430091552735,53.52457C76.02770091552735,54.2449,76.40130091552734,54.5651,77.04150091552734,54.7518C81.33680091552733,55.899,84.61850091552733,59.5008,84.93880091552734,70.1992C85.23200091552735,75.2684,86.08590091552735,79.1635,87.89990091552735,81.27109999999999C88.80500091552734,82.3055,89.79960091552735,83.3014,90.55620091552734,84.0731C90.89240091552735,84.4161,91.18160091552734,84.7148,91.39500091552733,84.9529L91.39500091552733,85.2731L52.54978091552734,85.2731L52.54978091552734,84.9529C52.76322091552734,84.7148,53.05748091552734,84.4161,53.40071091552734,84.0731C54.172970915527344,83.3014,55.193100915527346,82.3055,56.09820091552734,81.27109999999999ZM86.99040091552735,82.0539Q87.67010091552734,82.83070000000001,88.87680091552734,84.0731L55.09755091552734,84.0731Q55.11919091552734,84.0513,55.13845091552734,84.0318Q56.338200915527345,82.81909999999999,57.001300915527345,82.0613Q59.805900915527346,78.8503,60.257900915527344,70.2623L60.258600915527346,70.2487L60.259000915527345,70.2351Q60.47400091552734,63.0514,62.56170091552734,59.5022Q64.18740091552735,56.7386,67.26810091552734,55.9107Q69.08810091552735,55.4012,69.22060091552734,53.61323L69.22170091552735,53.59858L69.22240091552734,53.5839Q69.30280091552734,51.960390000000004,70.09680091552734,51.04688Q70.81920091552735,50.21572,71.99910091552735,50.21572Q73.19250091552735,50.21572,73.90950091552735,51.0447Q74.69500091552734,51.95285,74.77580091552734,53.58391L74.77650091552735,53.59858L74.77760091552734,53.61323Q74.90850091552734,55.379599999999996,76.70550091552735,55.903800000000004L76.71860091552735,55.9076L76.73190091552735,55.9112Q79.82370091552735,56.7369,81.44580091552734,59.5012Q83.52400091552735,63.0424,83.73930091552734,70.2351L83.73980091552735,70.2518L83.74080091552734,70.2685Q84.23750091552733,78.8555,86.99040091552735,82.0539ZM66.63650091552734,90.2353L77.38820091552734,90.2353C77.36780091552734,90.6539,77.31440091552734,91.0546,77.23050091552734,91.4353C76.65630091552734,94.0395,74.65260091552734,95.7047,71.99910091552735,95.7047C69.36620091552734,95.7047,67.38450091552734,94.0566,66.80030091552734,91.4353C66.71550091552734,91.05510000000001,66.66020091552734,90.65440000000001,66.63650091552734,90.2353ZM71.99910091552735,94.5047Q73.78510091552735,94.5047,74.92120091552735,93.3566Q75.65310091552735,92.6169,75.96560091552735,91.5598Q75.98390091552734,91.4981,76.00070091552735,91.4353L68.03090091552734,91.4353Q68.34100091552735,92.5865,69.11180091552734,93.3682Q70.23240091552734,94.5047,71.99910091552735,94.5047Z" fill-rule="evenodd" fill="#000000" fill-opacity="0.6000000238418579"/></g></g></svg>