<svg xmlns="http://www.w3.org/2000/svg" xmlns:xlink="http://www.w3.org/1999/xlink" fill="none" version="1.1" width="154.9757080078125" height="155.0399932861328" viewBox="0 0 154.9757080078125 155.0399932861328"><defs><clipPath id="master_svg0_1000_6258"><rect x="0" y="0" width="154.9757080078125" height="155.0399932861328" rx="0"/></clipPath></defs><g clip-path="url(#master_svg0_1000_6258)"><g><path d="M29.0794265625,36.3831383125C32.1765265625,34.6102053125,36.1239265625,35.6864313125,37.8936265625,38.7862603125L48.7226265625,57.7463203125C57.7797265625,53.7334203125,67.57782656250001,51.6669203125,77.4835265625,51.680420312500004C86.7239265625,51.680420312500004,95.5510265625,53.4440203125,103.6485265625,56.6546203125L113.8512265625,38.7862603125C115.6202265625,35.6876643125,119.5652265625,34.6103043125,122.6622265625,36.3799133125C125.7592265625,38.1495203125,126.8362265625,42.0959903125,125.0672265625,45.1945803125L115.1812265625,62.5009203125C133.7972265625,74.1602203125,145.9742265625,93.7787203125,148.1652265625,115.6409203125C148.5432265625,119.4428203125,145.5592265625,122.7404203125,141.7402265625,122.7404203125L13.2396065625,122.7404203125C9.4208465625,122.7401203125,6.4365165625,119.4424203125,6.8145720625,115.6409203125C8.9033165625,94.7570203125,20.1175265625,75.8665203125,37.4481265625,64.0384203125L26.6773265625,45.1945803125C24.9095265625,42.0976303125,25.9847265625,38.1534103125,29.0794265625,36.3831383125ZM48.4320265625,100.1304203125C51.9983265625,100.1304203125,54.8893265625,97.2382203125,54.8893265625,93.6704203125C54.8893265625,90.1026203125,51.9983265625,87.21042031249999,48.4320265625,87.21042031249999C44.8657265625,87.21042031249999,41.9747265625,90.1026203125,41.9747265625,93.6704203125C41.9747265625,97.2382203125,44.8657265625,100.1304203125,48.4320265625,100.1304203125ZM113.0052265625,93.6704203125C113.0052265625,90.1026203125,110.1142265625,87.21042031249999,106.5479265625,87.21042031249999C102.9816265625,87.21042031249999,100.0906265625,90.1026203125,100.0905265625,93.6704203125C100.0906265625,97.2382203125,102.9816265625,100.1304203125,106.5479265625,100.1304203125C110.1142265625,100.1304203125,113.0052265625,97.2382203125,113.0052265625,93.6704203125Z" fill="#000000" fill-opacity="1" style="mix-blend-mode:passthrough"/></g></g></svg>