<svg xmlns="http://www.w3.org/2000/svg" xmlns:xlink="http://www.w3.org/1999/xlink" fill="none" version="1.1" width="32" height="32" viewBox="0 0 32 32"><defs><filter id="master_svg0_42_2200" filterUnits="objectBoundingBox" color-interpolation-filters="sRGB" x="0" y="0" width="24.209007263183594" height="19.08500099182129"><feFlood flood-opacity="0" result="BackgroundImageFix"/><feBlend mode="normal" in="SourceGraphic" in2="BackgroundImageFix" result="shape"/><feColorMatrix in="SourceAlpha" type="matrix" result="hardAlpha" values="0 0 0 0 0 0 0 0 0 0 0 0 0 0 0 0 0 0 127 0"/><feOffset dy="0" dx="0"/><feGaussianBlur stdDeviation="5"/><feComposite in2="hardAlpha" operator="arithmetic" k2="-1" k3="1"/><feColorMatrix type="matrix" values="0 0 0 0 0 0 0 0 0 0 0 0 0 0 0 0 0 0 0.019999999552965164 0"/><feBlend mode="normal" in2="shape" result="effect1_innerShadow"/></filter></defs><g><g><g filter="url(#master_svg0_42_2200)"><path d="M20.0808,7.04330653125C20.0808,7.04330653125,27.6232,14.58576953125,27.6232,14.58576953125C28.4043,15.36682953125,28.4043,16.63311953125,27.6232,17.414219531249998C27.6232,17.414219531249998,20.0808,24.95671953125,20.0808,24.95671953125C19.2997,25.73781953125,18.0333,25.73781953125,17.252299999999998,24.95671953125C16.4713,24.17561953125,16.4713,22.90921953125,17.252299999999998,22.12821953125C17.252299999999998,22.12821953125,21.3805,18.00001953125,21.3805,18.00001953125C21.3805,18.00001953125,6,18.00001953125,6,18.00001953125C4.895431,18.00001953125,4,17.10451953125,4,15.99998953125C4,14.89542953125,4.895431,13.99998953125,6,13.99998953125C6,13.99998953125,21.3805,13.99998953125,21.3805,13.99998953125C21.3805,13.99998953125,17.252299999999998,9.87172953125,17.252299999999998,9.87172953125C16.4713,9.09067953125,16.4713,7.82435953125,17.252299999999998,7.04330653125C18.0333,6.26225753125,19.2997,6.26225753125,20.0808,7.04330653125C20.0808,7.04330653125,20.0808,7.04330653125,20.0808,7.04330653125Z" fill="#000000" fill-opacity="0.8999999761581421"/></g></g></g></svg>