<svg xmlns="http://www.w3.org/2000/svg" xmlns:xlink="http://www.w3.org/1999/xlink" fill="none" version="1.1" width="64" height="64" viewBox="0 0 64 64"><defs><filter id="master_svg0_844_3292" filterUnits="objectBoundingBox" color-interpolation-filters="sRGB" x="0" y="0" width="29.333332061767578" height="29.333332061767578"><feFlood flood-opacity="0" result="BackgroundImageFix"/><feBlend mode="normal" in="SourceGraphic" in2="BackgroundImageFix" result="shape"/><feColorMatrix in="SourceAlpha" type="matrix" result="hardAlpha" values="0 0 0 0 0 0 0 0 0 0 0 0 0 0 0 0 0 0 127 0"/><feOffset dy="0" dx="0"/><feGaussianBlur stdDeviation="5"/><feComposite in2="hardAlpha" operator="arithmetic" k2="-1" k3="1"/><feColorMatrix type="matrix" values="0 0 0 0 0 0 0 0 0 0 0 0 0 0 0 0 0 0 0.019999999552965164 0"/><feBlend mode="normal" in2="shape" result="effect1_innerShadow"/></filter></defs><g><g><g transform="matrix(-0.7071067690849304,0.7071067690849304,-0.7071067690849304,-0.7071067690849304,100.5685519720355,22.343141600962554)" filter="url(#master_svg0_844_3292)"><path d="M45.6568603515625,36C45.6568603515625,33.79086,47.4477203515625,32,49.6568603515625,32C49.6568603515625,32,70.99016035156251,32,70.99016035156251,32C73.1992603515625,32,74.99016035156251,33.79086,74.99016035156251,36C74.99016035156251,38.20915,73.1992603515625,40,70.99016035156251,40C70.99016035156251,40,53.6568603515625,40,53.6568603515625,40C53.6568603515625,40,53.6568603515625,57.3333,53.6568603515625,57.3333C53.6568603515625,59.5424,51.8660103515625,61.3333,49.6568603515625,61.3333C47.4477203515625,61.3333,45.6568603515625,59.5424,45.6568603515625,57.3333C45.6568603515625,57.3333,45.6568603515625,36,45.6568603515625,36C45.6568603515625,36,45.6568603515625,36,45.6568603515625,36Z" fill-rule="evenodd" fill="#000000" fill-opacity="0.4000000059604645"/></g></g></g></svg>