<svg xmlns="http://www.w3.org/2000/svg" xmlns:xlink="http://www.w3.org/1999/xlink" fill="none" version="1.1" width="72" height="72" viewBox="0 0 72 72"><defs><filter id="master_svg0_805_9540" filterUnits="objectBoundingBox" color-interpolation-filters="sRGB" x="0" y="0" width="72" height="72"><feFlood flood-opacity="0" result="BackgroundImageFix"/><feBlend mode="normal" in="SourceGraphic" in2="BackgroundImageFix" result="shape"/><feColorMatrix in="SourceAlpha" type="matrix" result="hardAlpha" values="0 0 0 0 0 0 0 0 0 0 0 0 0 0 0 0 0 0 127 0"/><feOffset dy="0" dx="0"/><feGaussianBlur stdDeviation="5"/><feComposite in2="hardAlpha" operator="arithmetic" k2="-1" k3="1"/><feColorMatrix type="matrix" values="0 0 0 0 0 0 0 0 0 0 0 0 0 0 0 0 0 0 0.019999999552965164 0"/><feBlend mode="normal" in2="shape" result="effect1_innerShadow"/></filter><filter id="master_svg1_805_9539" filterUnits="objectBoundingBox" color-interpolation-filters="sRGB" x="0" y="0" width="72" height="72"><feFlood flood-opacity="0" result="BackgroundImageFix"/><feBlend mode="normal" in="SourceGraphic" in2="BackgroundImageFix" result="shape"/><feColorMatrix in="SourceAlpha" type="matrix" result="hardAlpha" values="0 0 0 0 0 0 0 0 0 0 0 0 0 0 0 0 0 0 127 0"/><feOffset dy="0" dx="0"/><feGaussianBlur stdDeviation="5"/><feComposite in2="hardAlpha" operator="arithmetic" k2="-1" k3="1"/><feColorMatrix type="matrix" values="0 0 0 0 0 0 0 0 0 0 0 0 0 0 0 0 0 0 0.019999999552965164 0"/><feBlend mode="normal" in2="shape" result="effect1_innerShadow"/></filter><mask id="master_svg2_805_9539" style="mask-type:alpha" maskUnits="userSpaceOnUse"><g filter="url(#master_svg1_805_9539)"><ellipse cx="36" cy="36" rx="36" ry="36" fill="#FFFFFF" fill-opacity="1"/></g></mask></defs><g><g filter="url(#master_svg0_805_9540)"><ellipse cx="36" cy="36" rx="36" ry="36" fill="#F2F2F2" fill-opacity="1"/></g><g><g><ellipse cx="36.00000047683716" cy="36.00000047683716" rx="30.85714340209961" ry="30.85714340209961" fill="#FFFFFF" fill-opacity="1"/></g><g><g transform="matrix(0.7071067690849304,0.7071067690849304,-0.7071067690849304,0.7071067690849304,22.142004783061566,-25.169951861647235)"><path d="M56.13662261276245,14.142787456512451C57.73422261276245,14.142787456512451,59.02942261276245,15.437967456512451,59.02942261276245,17.03564745651245C59.02942261276245,17.03564745651245,60.85002261276245,45.88118745651245,60.85002261276245,45.88118745651245C60.85002261276245,47.58548745651245,59.46862261276245,48.96688745651245,57.764322612762456,48.96688745651245C57.764322612762456,48.96688745651245,44.34668261276245,47.14818745651245,44.34668261276245,47.14818745651245C42.74900261276245,47.14818745651245,41.45382261276245,45.85298745651245,41.45382261276245,44.25538745651245C41.45382261276245,42.65778745651245,42.74649261276245,41.363787456512455,44.34417261276245,41.363787456512455C44.34417261276245,41.363787456512455,55.06432261276245,43.18118745651245,55.06432261276245,43.18118745651245C55.06432261276245,43.18118745651245,53.24622261276245,17.03438745651245,53.24622261276245,17.03438745651245C53.24622261276245,15.436707456512451,54.53892261276245,14.142787456512451,56.13662261276245,14.142787456512451C56.13662261276245,14.142787456512451,56.13662261276245,14.142787456512451,56.13662261276245,14.142787456512451Z" fill-rule="evenodd" fill="#000000" fill-opacity="0.8999999761581421"/><path d="M52.88622261276245,17.03438745651245L52.88622261276245,17.04688745651245L54.67342261276245,42.74978745651245L44.37447261276245,41.003787456512455L44.34417261276245,41.003787456512455Q42.99685261276245,41.003787456512455,42.04522861276245,41.955987456512446Q41.09382261276245,42.90798745651245,41.09382261276245,44.25538745651245Q41.09382261276245,45.602687456512456,42.04656061276245,46.55548745651245Q42.99050261276245,47.49938745651245,44.32178261276245,47.50818745651245L57.74002261276245,49.32688745651245L57.764322612762456,49.32688745651245Q59.19162261276245,49.32698745651245,60.20082261276245,48.31778745651245Q61.21002261276245,47.30858745651245,61.21002261276245,45.88118745651245L61.21002261276245,45.86988745651245L59.38942261276245,17.02401745651245Q59.38532261276245,15.684167456512451,58.43672261276245,14.735525456512452Q57.483922612762456,13.782787456512452,56.13662261276245,13.782787456512452Q54.78922261276245,13.782787456512452,53.83762261276245,14.73497645651245Q52.88622261276245,15.686947456512451,52.88622261276245,17.03438745651245ZM55.06432261276245,43.18118745651245L55.03862261276245,42.81168745651245L53.24622261276245,17.03438745651245C53.24622261276245,15.436707456512451,54.53892261276245,14.142787456512451,56.13662261276245,14.142787456512451C57.73422261276245,14.142787456512451,59.02942261276245,15.437967456512451,59.02942261276245,17.03564745651245L60.85002261276245,45.88118745651245C60.85002261276245,47.58548745651245,59.46862261276245,48.96688745651245,57.764322612762456,48.96688745651245L44.34668261276245,47.14818745651245C42.74900261276245,47.14818745651245,41.45382261276245,45.85298745651245,41.45382261276245,44.25538745651245C41.45382261276245,42.65778745651245,42.74649261276245,41.363787456512455,44.34417261276245,41.363787456512455L54.69912261276245,43.11928745651245L55.06432261276245,43.18118745651245Z" fill-rule="evenodd" fill="#000000" fill-opacity="0.8999999761581421"/></g></g></g><g mask="url(#master_svg2_805_9539)"></g></g></svg>