<svg xmlns="http://www.w3.org/2000/svg" xmlns:xlink="http://www.w3.org/1999/xlink" fill="none" version="1.1" width="80" height="81" viewBox="0 0 80 81"><defs><filter id="master_svg0_872_4124" filterUnits="objectBoundingBox" color-interpolation-filters="sRGB" x="0" y="0" width="80" height="81"><feFlood flood-opacity="0" result="BackgroundImageFix"/><feBlend mode="normal" in="SourceGraphic" in2="BackgroundImageFix" result="shape"/><feColorMatrix in="SourceAlpha" type="matrix" result="hardAlpha" values="0 0 0 0 0 0 0 0 0 0 0 0 0 0 0 0 0 0 127 0"/><feOffset dy="0" dx="0"/><feGaussianBlur stdDeviation="5"/><feComposite in2="hardAlpha" operator="arithmetic" k2="-1" k3="1"/><feColorMatrix type="matrix" values="0 0 0 0 0 0 0 0 0 0 0 0 0 0 0 0 0 0 0.019999999552965164 0"/><feBlend mode="normal" in2="shape" result="effect1_innerShadow"/></filter></defs><g><g><g filter="url(#master_svg0_872_4124)"><ellipse cx="40" cy="40.5" rx="40" ry="40.5" fill="#000000" fill-opacity="0.05000000074505806"/></g><g><ellipse cx="40" cy="40.50000333786011" rx="34" ry="34.42500305175781" fill="#FFFFFF" fill-opacity="1"/></g><g><path d="M40,44.596801907348635C40,44.596801907348635,50.115700000000004,54.83900190734863,50.115700000000004,54.83900190734863C51.2329,55.970301907348635,53.0446,55.970301907348635,54.162,54.83900190734863C55.2793,53.707701907348635,55.2793,51.87330190734863,54.162,50.74220190734863C54.162,50.74220190734863,44.0463,40.50000190734863,44.0463,40.50000190734863C44.0463,40.50000190734863,54.162,30.257861907348634,54.162,30.257861907348634C55.2793,29.126561907348634,55.2793,27.292331907348633,54.162,26.161011907348634C53.0446,25.029695907348632,51.2329,25.029697907348634,50.115700000000004,26.161011907348634C50.115700000000004,26.161011907348634,40,36.403101907348635,40,36.403101907348635C40,36.403101907348635,29.88429,26.16098890734863,29.88429,26.16098890734863C28.76693,25.029672907348633,26.95537,25.029672907348633,25.838012,26.16098890734863C24.720663,27.292311907348633,24.720663,29.126521907348632,25.838012,30.257841907348634C25.838012,30.257841907348634,35.9537,40.50000190734863,35.9537,40.50000190734863C35.9537,40.50000190734863,25.838012,50.74220190734863,25.838012,50.74220190734863C24.720665,51.87350190734863,24.720665,53.707701907348635,25.838012,54.83900190734863C26.95537,55.970301907348635,28.76693,55.970301907348635,29.88429,54.83900190734863C29.88429,54.83900190734863,40,44.596801907348635,40,44.596801907348635C40,44.596801907348635,40,44.596801907348635,40,44.596801907348635Z" fill-rule="evenodd" fill="#000000" fill-opacity="0.8999999761581421"/><path d="M30.24003,55.19030190734863L40,45.30840190734863L49.760000000000005,55.19030190734863Q49.8831,55.31500190734863,50.0126,55.42410190734863Q50.9189,56.18750190734863,52.1388,56.18750190734863Q53.5329,56.18750190734863,54.517700000000005,55.19030190734863Q55.5,54.19580190734863,55.5,52.790501907348634Q55.5,51.38520190734863,54.517700000000005,50.39080190734863L44.748999999999995,40.50000190734863L54.517700000000005,30.609211907348634Q55.5,29.614671907348633,55.5,28.209441907348634Q55.5,26.806951907348633,54.5215,25.813542907348634L54.517700000000005,25.80965590734863Q53.5329,24.812525907348633,52.1388,24.812525907348633Q50.7447,24.812525907348633,49.760000000000005,25.809687907348632L40,35.691601907348634L30.24003,25.809637907348634Q29.255200000000002,24.812501907348633,27.86115,24.812501907348633Q26.77208,24.812501907348633,25.932765,25.421068907348634Q25.697725,25.591490907348632,25.482271,25.809637907348634Q24.5,26.80419190734863,24.5,28.20941190734863Q24.5,29.614641907348634,25.482268,30.60919190734863L35.251,40.50000190734863L25.482269,50.39080190734863Q24.500001,51.38540190734864,24.500001,52.79060190734863Q24.500001,54.19300190734863,25.478431,55.18650190734863L25.482265,55.19030190734863Q25.605369,55.31500190734863,25.734868,55.42400190734863Q26.64135,56.18750190734863,27.86115,56.18750190734863Q29.255200000000002,56.18750190734863,30.24003,55.19030190734863ZM29.88429,54.83900190734863L39.6486,44.95260190734864L40,44.596801907348635L40.3514,44.95260190734864L50.115700000000004,54.83900190734863C51.2329,55.970301907348635,53.0446,55.970301907348635,54.162,54.83900190734863C55.2793,53.707701907348635,55.2793,51.87330190734863,54.162,50.74220190734863L44.0463,40.50000190734863L54.162,30.257861907348634C55.2793,29.126561907348634,55.2793,27.292331907348633,54.162,26.161011907348634C53.0446,25.029695907348632,51.2329,25.029697907348634,50.115700000000004,26.161011907348634L40.3514,36.04740190734863L40,36.403101907348635L39.6486,36.04740190734863L29.88429,26.16098890734863C28.76693,25.029672907348633,26.95537,25.029672907348633,25.838012,26.16098890734863C24.720663,27.292311907348633,24.720663,29.126521907348632,25.838012,30.257841907348634L35.9537,40.50000190734863L25.838012,50.74220190734863C24.720665,51.87350190734863,24.720665,53.707701907348635,25.838012,54.83900190734863C26.95537,55.970301907348635,28.76693,55.970301907348635,29.88429,54.83900190734863Z" fill-rule="evenodd" fill="#000000" fill-opacity="0.8999999761581421"/></g></g></g></svg>