<svg xmlns="http://www.w3.org/2000/svg" xmlns:xlink="http://www.w3.org/1999/xlink" fill="none" version="1.1" width="28" height="28" viewBox="0 0 28 28"><defs><clipPath id="master_svg0_1045_5017"><rect x="0" y="0" width="28" height="28" rx="0"/></clipPath></defs><g clip-path="url(#master_svg0_1045_5017)"><g><g><g><g><path d="M2.33331298828125,14.00019609375C2.33331298828125,7.55683609375,7.55665298828125,2.33349609375,14.00001298828125,2.33349609375C20.44321298828125,2.33349609375,25.66661298828125,7.55683609375,25.66661298828125,14.00019609375C25.66661298828125,20.44339609375,20.44321298828125,25.66679609375,14.00001298828125,25.66679609375C7.55665298828125,25.66679609375,2.33331298828125,20.44339609375,2.33331298828125,14.00019609375ZM14.00001298828125,4.66682609375C8.84532298828125,4.66682609375,4.66664298828125,8.84550609375,4.66664298828125,14.00019609375C4.66664298828125,19.15479609375,8.84532298828125,23.33349609375,14.00001298828125,23.33349609375C19.15461298828125,23.33349609375,23.33331298828125,19.15479609375,23.33331298828125,14.00019609375C23.33331298828125,8.84550609375,19.15461298828125,4.66682609375,14.00001298828125,4.66682609375ZM9.05022298828125,12.35029609375L12.35001298828125,9.05041609375C13.26131298828125,8.13918609375,14.73871298828125,8.13918609375,15.64991298828125,9.05041609375L18.94971298828125,12.35029609375C19.86091298828125,13.26149609375,19.86091298828125,14.73889609375,18.94971298828125,15.65009609375L15.64991298828125,18.94989609375C14.73871298828125,19.86109609375,13.26131298828125,19.86109609375,12.35001298828125,18.94989609375L9.05022298828125,15.65009609375C8.138992988281249,14.73889609375,8.138992988281249,13.26149609375,9.05022298828125,12.35029609375ZM14.00001298828125,10.70032609375L10.70014298828125,14.00019609375L14.00001298828125,17.29999609375L17.29981298828125,14.00019609375L14.00001298828125,10.70032609375Z" fill-rule="evenodd" fill="#000000" fill-opacity="1" style="mix-blend-mode:passthrough"/></g><g><path d="M2.093312978744507,14.000197037887574Q2.093313932418507,16.422397037887574,3.0290959787445066,18.634797037887573Q3.932882978744507,20.771597037887574,5.580692978744507,22.419397037887574Q7.228512978744507,24.067297037887574,9.365292978744506,24.970997037887575Q11.577752978744506,25.906797037887575,14.000012978744508,25.906797037887575Q16.422212978744508,25.906797037887575,18.634612978744507,24.970997037887575Q20.771412978744507,24.067197037887574,22.419212978744508,22.419397037887574Q24.067112978744508,20.771597037887574,24.970812978744508,18.634797037887573Q25.90661297874451,16.422397037887574,25.90661297874451,14.000197037887574Q25.90661297874451,11.577927037887573,24.970812978744508,9.365477037887572Q24.067012978744508,7.2286970378875735,22.419212978744508,5.580877037887573Q20.771412978744507,3.9330670378875734,18.634612978744507,3.0292790378875734Q16.422212978744508,2.093496084213573,14.000012978744508,2.0934970378875732Q11.577732978744507,2.0934970378875732,9.365292978744506,3.0292790378875734Q7.228512978744507,3.9330670378875734,5.580692978744507,5.580877037887573Q3.932882978744507,7.2286970378875735,3.0290959787445066,9.365477037887572Q2.093312978744507,11.577917037887573,2.093312978744507,14.000197037887574ZM14.000012978744508,2.3334960378875733C7.5566529787445065,2.3334960378875733,2.333312978744507,7.556837037887573,2.333312978744507,14.000197037887574C2.333312978744507,20.443397037887575,7.5566529787445065,25.666797037887573,14.000012978744508,25.666797037887573C20.44321297874451,25.666797037887573,25.666612978744507,20.443397037887575,25.666612978744507,14.000197037887574C25.666612978744507,7.556837037887573,20.44321297874451,2.3334960378875733,14.000012978744508,2.3334960378875733ZM4.666642978744507,14.000197037887574C4.666642978744507,8.845507037887574,8.845322978744507,4.666827037887574,14.000012978744508,4.666827037887574C19.154612978744506,4.666827037887574,23.333312978744505,8.845507037887574,23.333312978744505,14.000197037887574C23.333312978744505,19.154797037887572,19.154612978744506,23.33349703788757,14.000012978744508,23.33349703788757C8.845322978744507,23.33349703788757,4.666642978744507,19.154797037887572,4.666642978744507,14.000197037887574ZM10.460512978744507,5.621327037887573Q12.149812978744507,4.906827037887574,14.000012978744508,4.906827037887574Q15.850212978744507,4.906827037887574,17.539412978744508,5.621327037887573Q19.171312978744506,6.311527037887573,20.429912978744508,7.570207037887573Q21.68861297874451,8.828867037887573,22.378812978744506,10.460697037887574Q23.093312978744507,12.149997037887573,23.093312978744507,14.000197037887574Q23.093312978744507,15.850397037887573,22.378812978744506,17.539597037887575Q21.68861297874451,19.171497037887573,20.429912978744508,20.430097037887574Q19.171312978744506,21.688797037887575,17.539412978744508,22.378997037887572Q15.850212978744507,23.093497037887573,14.000012978744508,23.093497037887573Q12.149812978744507,23.093497037887573,10.460512978744507,22.378997037887572Q8.828682978744506,21.688797037887575,7.570022978744507,20.430097037887574Q6.311342978744507,19.171497037887573,5.621142978744507,17.539597037887575Q4.906642978744507,15.850397037887573,4.906642978744507,14.000197037887574Q4.906642978744507,12.149997037887573,5.621142978744507,10.460697037887574Q6.311352978744507,8.828867037887573,7.570022978744507,7.570207037887573Q8.828692978744506,6.311527037887573,10.460512978744507,5.621327037887573ZM8.126802978744507,14.000197037887574Q8.126802978744507,15.066097037887573,8.880512978744507,15.819797037887573L12.180312978744507,19.119597037887573Q12.934012978744507,19.873297037887575,14.000012978744508,19.873297037887575Q15.065912978744507,19.873297037887575,15.819612978744507,19.119597037887573L19.119412978744506,15.819797037887573Q19.87311297874451,15.066097037887573,19.87311297874451,14.000197037887574Q19.87311297874451,12.934197037887573,19.119412978744506,12.180497037887573L15.819612978744507,8.880717037887573Q15.065912978744507,8.126997037887573,14.000012978744508,8.126997037887573Q12.934012978744507,8.126997037887573,12.180312978744507,8.880707037887573L8.880512978744507,12.180497037887573Q8.126802978744507,12.934197037887573,8.126802978744507,14.000197037887574ZM12.350012978744507,9.050417037887573L9.050222978744507,12.350297037887573C8.138992978744508,13.261497037887573,8.138992978744508,14.738897037887574,9.050222978744507,15.650097037887573L12.350012978744507,18.949897037887574C13.261312978744506,19.861097037887575,14.738712978744507,19.861097037887575,15.649912978744506,18.949897037887574L18.949712978744508,15.650097037887573C19.86091297874451,14.738897037887574,19.86091297874451,13.261497037887573,18.949712978744508,12.350297037887573L15.649912978744506,9.050417037887573C14.738712978744507,8.139187037887574,13.261312978744506,8.139187037887574,12.350012978744507,9.050417037887573ZM14.169712978744506,10.870037037887574L17.130112978744506,13.830497037887573L17.299812978744505,14.000197037887574L17.130112978744506,14.169897037887573L14.169712978744506,17.130297037887573L14.000012978744508,17.29999703788757L13.830212978744507,17.130297037887573L10.869852978744508,14.169897037887573L10.700142978744507,14.000197037887574L10.869852978744508,13.830497037887573L13.830212978744507,10.870037037887574L14.000012978744508,10.700327037887574L14.169712978744506,10.870037037887574ZM14.000012978744508,11.039737037887573L16.960412978744507,14.000197037887574L14.000012978744508,16.960597037887574L11.039552978744506,14.000197037887574L14.000012978744508,11.039737037887573Z" fill-rule="evenodd" fill="#000000" fill-opacity="1" style="mix-blend-mode:passthrough"/></g></g></g></g></g></svg>