<svg xmlns="http://www.w3.org/2000/svg" xmlns:xlink="http://www.w3.org/1999/xlink" fill="none" version="1.1" width="24" height="24" viewBox="0 0 24 24"><defs><clipPath id="master_svg0_145_0991"><rect x="0" y="0" width="24" height="24" rx="0"/></clipPath></defs><g style="opacity:0.8999999761581421;" clip-path="url(#master_svg0_145_0991)"><g><path d="M8.58594,4.632815L8.40625,4.632815C8.50508,4.632815,8.58594,4.5519549999999995,8.58594,4.453125L8.58594,4.632815L15.4141,4.632815L15.4141,4.453125C15.4141,4.5519549999999995,15.4949,4.632815,15.5938,4.632815L15.4141,4.632815L15.4141,6.250005L17.0312,6.250005L17.0312,4.453125C17.0312,3.660254,16.3866,3.015625,15.5938,3.015625L8.40625,3.015625C7.61338,3.015625,6.96875,3.660254,6.96875,4.453125L6.96875,6.250005L8.58594,6.250005L8.58594,4.632815ZM19.9062,6.250005L4.09375,6.250005C3.696191,6.250005,3.375,6.5711949999999995,3.375,6.968745L3.375,7.687505C3.375,7.786325,3.4558595,7.867185,3.554688,7.867185L4.9113299999999995,7.867185L5.4661100000000005,19.614225C5.5020500000000006,20.380125,6.1354500000000005,20.984425,6.90137,20.984425L17.098599999999998,20.984425C17.866799999999998,20.984425,18.4979,20.382425,18.5339,19.614225L19.0887,7.867185L20.4453,7.867185C20.5441,7.867185,20.625,7.786325,20.625,7.687505L20.625,6.968745C20.625,6.5711949999999995,20.3038,6.250005,19.9062,6.250005ZM16.9257,19.367225L7.07432,19.367225L6.53076,7.867185L17.4692,7.867185L16.9257,19.367225Z" fill="#000000" fill-opacity="1"/><path d="M15.8541,5.809995L15.8541,4.453125Q15.8541,4.344995,15.778,4.268905Q15.7019,4.1928149999999995,15.5938,4.1928149999999995L8.40625,4.1928149999999995Q8.14594,4.1928149999999995,8.14594,4.453125L8.14594,5.809995L7.40875,5.809995L7.40875,4.453125Q7.40875,4.040725,7.7013,3.748175Q7.99385,3.455625,8.40625,3.455625L15.5938,3.455625Q16.0061,3.455625,16.2987,3.748175Q16.5913,4.040725,16.5913,4.453125L16.5913,5.809995L15.8541,5.810005L15.8541,5.809995ZM14.9741,5.810005L14.9741,5.072815L9.02594,5.072815L9.02594,5.809995L14.9741,5.810005ZM14.9741,6.690005L9.02594,6.690005L4.09375,6.690005Q3.815,6.690005,3.815,6.968745L3.815,7.427185L5.33104,7.427185L5.90562,19.593525Q5.92432,19.991925,6.21378,20.268225Q6.50312,20.544325,6.90137,20.544325L17.098599999999998,20.544325Q17.4986,20.544325,17.787100000000002,20.269025Q18.075699999999998,19.993625,18.0944,19.593725L18.669,7.427185L20.185,7.427185L20.185,6.968745Q20.185,6.852835,20.1036,6.771415Q20.0222,6.690005,19.9062,6.690005L17.4712,6.690005L14.9741,6.690005L14.9741,6.690005ZM17.4712,5.810005L17.4712,4.453125Q17.4712,3.676218,16.921,3.125921Q16.3707,2.575625,15.5938,2.575625L8.40625,2.575625Q7.62934,2.575625,7.0790500000000005,3.125921Q6.5287500000000005,3.676218,6.5287500000000005,4.453125L6.5287500000000005,5.809995L4.09375,5.809995Q3.613327,5.809995,3.274164,6.149165Q2.935,6.488325,2.935,6.968745L2.935,7.687505Q2.935,7.943875,3.116656,8.125535Q3.2983129,8.307185,3.554688,8.307185L4.49162,8.307185L5.0266,19.635025Q5.0618,20.385225,5.60621,20.904825Q6.15058,21.424425,6.90137,21.424425L17.098599999999998,21.424425Q17.851100000000002,21.424425,18.3946,20.905725Q18.938200000000002,20.386925,18.973399999999998,19.634825L19.5084,8.307185L20.4453,8.307185Q20.7017,8.307185,20.8833,8.125535Q21.065,7.943875,21.065,7.687505L21.065,6.968745Q21.065,6.488325,20.7258,6.149165Q20.3867,5.809995,19.9062,5.810005L17.4712,5.810005ZM17.345399999999998,19.807225L17.9087,7.887965L17.930500000000002,7.427185L6.06947,7.427185L6.6546199999999995,19.807225L17.345399999999998,19.807225ZM17.0079,8.307185L16.506,18.927225L7.49401,18.927225L6.99205,8.307185L17.0079,8.307185Z" fill-rule="evenodd" fill="#000000" fill-opacity="1"/></g></g></svg>