<svg xmlns="http://www.w3.org/2000/svg" xmlns:xlink="http://www.w3.org/1999/xlink" fill="none" version="1.1" width="144" height="144" viewBox="0 0 144 144"><defs><filter id="master_svg0_950_4231" filterUnits="objectBoundingBox" color-interpolation-filters="sRGB" x="0" y="0" width="144" height="144"><feFlood flood-opacity="0" result="BackgroundImageFix"/><feBlend mode="normal" in="SourceGraphic" in2="BackgroundImageFix" result="shape"/><feColorMatrix in="SourceAlpha" type="matrix" result="hardAlpha" values="0 0 0 0 0 0 0 0 0 0 0 0 0 0 0 0 0 0 127 0"/><feOffset dy="0" dx="0"/><feGaussianBlur stdDeviation="1"/><feComposite in2="hardAlpha" operator="arithmetic" k2="-1" k3="1"/><feColorMatrix type="matrix" values="0 0 0 0 0 0 0 0 0 0 0 0 0 0 0 0 0 0 0.05000000074505806 0"/><feBlend mode="normal" in2="shape" result="effect1_innerShadow"/></filter></defs><g><g filter="url(#master_svg0_950_4231)"><ellipse cx="72" cy="72" rx="72" ry="72" fill="#000000" fill-opacity="0.05000000074505806"/></g><g><g><path d="M66.39999844665527,51.350097274780275Q66.39999844665527,49.03050727478028,68.04019844665527,47.39029727478027Q69.68039844665527,45.75009727478027,71.99999844665527,45.75009727478027Q74.31959844665528,45.75009727478027,75.95979844665527,47.39029727478027Q77.59999844665528,49.030497274780274,77.59999844665528,51.350097274780275L77.59999844665528,81.13069727478027L86.89619844665528,71.83439727478027Q88.53639844665528,70.19419727478027,90.85609844665527,70.19419727478027Q93.17579844665528,70.19419727478027,94.81609844665527,71.83439727478027Q96.45629844665527,73.47449727478028,96.45629844665527,75.79419727478027Q96.45629844665527,78.11389727478027,94.81609844665527,79.75379727478028L75.95979844665527,98.61009727478027Q74.31959844665528,100.25039727478028,71.99999844665527,100.25039727478028Q69.68039844665527,100.25039727478028,68.04019844665527,98.61009727478027L49.184028446655276,79.75379727478028Q47.54379844665527,78.11379727478027,47.54379844665527,75.79419727478027Q47.54379844665527,73.47449727478028,49.18399844665527,71.83439727478027Q50.82420844665528,70.19419727478027,53.143798446655275,70.19419727478027Q55.46338844665527,70.19419727478027,57.10359844665527,71.83439727478027L66.39999844665527,81.13069727478027L66.39999844665527,51.350097274780275ZM49.60826844665527,72.25859727478027C51.560908446655276,70.30609727478027,54.72670844665527,70.30609727478027,56.679328446655276,72.25859727478027C54.72669844665528,70.30599727478028,51.56089844665527,70.30599727478028,49.60826844665527,72.25859727478027ZM66.99999844665527,51.350097274780275C66.99999844665527,48.588677274780274,69.23859844665527,46.35009827478027,71.99999844665527,46.35009827478027C69.23859844665527,46.350195274780276,66.99999844665527,48.588767274780274,66.99999844665527,51.350097274780275Z" fill-rule="evenodd" fill="#000000" fill-opacity="0.6000000238418579"/></g></g></g></svg>