<svg xmlns="http://www.w3.org/2000/svg" xmlns:xlink="http://www.w3.org/1999/xlink" fill="none" version="1.1" width="28" height="28" viewBox="0 0 28 28"><defs><filter id="master_svg0_693_1750" filterUnits="objectBoundingBox" color-interpolation-filters="sRGB" x="0" y="0" width="21.649078369140625" height="21.64907455444336"><feFlood flood-opacity="0" result="BackgroundImageFix"/><feBlend mode="normal" in="SourceGraphic" in2="BackgroundImageFix" result="shape"/><feColorMatrix in="SourceAlpha" type="matrix" result="hardAlpha" values="0 0 0 0 0 0 0 0 0 0 0 0 0 0 0 0 0 0 127 0"/><feOffset dy="0" dx="0"/><feGaussianBlur stdDeviation="5"/><feComposite in2="hardAlpha" operator="arithmetic" k2="-1" k3="1"/><feColorMatrix type="matrix" values="0 0 0 0 0 0 0 0 0 0 0 0 0 0 0 0 0 0 0.019999999552965164 0"/><feBlend mode="normal" in2="shape" result="effect1_innerShadow"/></filter></defs><g><g><g filter="url(#master_svg0_693_1750)"><path d="M19.5116275390625,3.535071052734375C18.6004275390625,2.623848052734375,17.122927539062502,2.623848052734375,16.2118275390625,3.535071052734375C16.2118275390625,3.535071052734375,4.1791445390625,15.567754052734376,4.1791445390625,15.567754052734376C3.7415605390625,16.005354052734376,3.4957275390625,16.598854052734374,3.4957275390625,17.217654052734375C3.4957275390625,17.217654052734375,3.4957275390625,23.322354052734376,3.4957275390625,23.322354052734376C3.4957275390625,23.973254052734376,4.0233265390625,24.500654052734376,4.6740575390625,24.500654052734376C4.6740575390625,24.500654052734376,10.7788075390625,24.500654052734376,10.7788075390625,24.500654052734376C11.3976475390625,24.500654052734376,11.9911375390625,24.254854052734373,12.4287175390625,23.817354052734373C12.4287175390625,23.817354052734373,24.4614275390625,11.784644052734375,24.4614275390625,11.784644052734375C25.3726275390625,10.873434052734375,25.3726275390625,9.396044052734375,24.4614275390625,8.484824052734375C24.4614275390625,8.484824052734375,19.5116275390625,3.535071052734375,19.5116275390625,3.535071052734375C19.5116275390625,3.535071052734375,19.5116275390625,3.535071052734375,19.5116275390625,3.535071052734375ZM17.8617275390625,5.184984052734375C17.8617275390625,5.184984052734375,22.8114275390625,10.134734052734375,22.8114275390625,10.134734052734375C22.8114275390625,10.134734052734375,20.7980275390625,12.148164052734375,20.7980275390625,12.148164052734375C20.7980275390625,12.148164052734375,15.8483275390625,7.198424052734375,15.8483275390625,7.198424052734375C15.8483275390625,7.198424052734375,17.8617275390625,5.184984052734375,17.8617275390625,5.184984052734375C17.8617275390625,5.184984052734375,17.8617275390625,5.184984052734375,17.8617275390625,5.184984052734375ZM14.1983275390625,8.848334052734375C14.1983275390625,8.848334052734375,5.8290575390625,17.217654052734375,5.8290575390625,17.217654052734375C5.8290575390625,17.217654052734375,5.8290575390625,22.167354052734375,5.8290575390625,22.167354052734375C5.8290575390625,22.167354052734375,10.7788075390625,22.167354052734375,10.7788075390625,22.167354052734375C10.7788075390625,22.167354052734375,19.1481275390625,13.798054052734376,19.1481275390625,13.798054052734376C19.1481275390625,13.798054052734376,14.1983275390625,8.848334052734375,14.1983275390625,8.848334052734375C14.1983275390625,8.848334052734375,14.1983275390625,8.848334052734375,14.1983275390625,8.848334052734375Z" fill-rule="evenodd" fill="#FFFFFF" fill-opacity="1"/><path d="M3.2457275390625,17.217654052734375L3.2457275390625,23.322354052734376Q3.2457275390625,23.914054052734375,3.6640995390625,24.332354052734374Q4.0824375390625,24.750654052734376,4.6740575390625,24.750654052734376L10.7788075390625,24.750654052734376Q11.8488175390625,24.750654052734376,12.6054775390625,23.994154052734373L24.6382275390625,11.961424052734374Q25.3948275390625,11.204784052734375,25.3948275390625,10.134734052734375Q25.3948275390625,9.064694052734374,24.6382275390625,8.308054052734375L19.6884275390625,3.358293052734375Q18.9318275390625,2.601654052734375,17.8617275390625,2.601654052734375Q16.7916275390625,2.601654052734375,16.0350275390625,3.358300052734375L4.0023675390625,15.390954052734376Q3.2457275390625,16.147654052734374,3.2457275390625,17.217654052734375ZM16.2118275390625,3.535071052734375C17.122927539062502,2.623848052734375,18.6004275390625,2.623848052734375,19.5116275390625,3.535071052734375L24.4614275390625,8.484824052734375C25.3726275390625,9.396044052734375,25.3726275390625,10.873434052734375,24.4614275390625,11.784644052734375L12.4287175390625,23.817354052734373C11.9911375390625,24.254854052734373,11.3976475390625,24.500654052734376,10.7788075390625,24.500654052734376L4.6740575390625,24.500654052734376C4.0233265390625,24.500654052734376,3.4957275390625,23.973254052734376,3.4957275390625,23.322354052734376L3.4957275390625,17.217654052734375C3.4957275390625,16.598854052734374,3.7415605390625,16.005354052734376,4.1791445390625,15.567754052734376L16.2118275390625,3.535071052734375ZM17.6849275390625,5.361764052734375L16.0250275390625,7.021644052734375L15.8483275390625,7.198424052734375L16.0250275390625,7.375194052734375L20.6212275390625,11.971394052734375L20.7980275390625,12.148164052734375L20.9747275390625,11.971394052734375L22.6346275390625,10.311514052734374L22.8114275390625,10.134734052734375L22.6346275390625,9.957954052734376L18.0385275390625,5.361764052734375L17.8617275390625,5.184984052734375L17.6849275390625,5.361764052734375ZM20.7980275390625,11.794614052734374L16.2018275390625,7.198424052734375L17.8617275390625,5.538544052734375L22.4578275390625,10.134734052734375L20.7980275390625,11.794614052734374ZM14.3751275390625,9.025114052734375L18.9713275390625,13.621354052734375L19.1481275390625,13.798054052734376L18.9713275390625,13.974854052734376L10.7788075390625,22.167354052734375L5.8290575390625,22.167354052734375L5.8290575390625,17.217654052734375L14.0216275390625,9.025104052734374L14.1983275390625,8.848334052734375L14.3751275390625,9.025114052734375ZM14.1983275390625,9.201884052734375L18.7945275390625,13.798054052734376L10.6752575390625,21.917354052734375L6.0790575390625,21.917354052734375L6.0790575390625,17.321154052734375L14.1983275390625,9.201884052734375Z" fill-rule="evenodd" fill="#FFFFFF" fill-opacity="1"/></g></g></g></svg>