<svg xmlns="http://www.w3.org/2000/svg" xmlns:xlink="http://www.w3.org/1999/xlink" fill="none" version="1.1" width="24" height="24" viewBox="0 0 24 24"><defs><filter id="master_svg0_145_2982" filterUnits="objectBoundingBox" color-interpolation-filters="sRGB" x="0" y="0" width="18.556352615356445" height="18.556350708007812"><feFlood flood-opacity="0" result="BackgroundImageFix"/><feBlend mode="normal" in="SourceGraphic" in2="BackgroundImageFix" result="shape"/><feColorMatrix in="SourceAlpha" type="matrix" result="hardAlpha" values="0 0 0 0 0 0 0 0 0 0 0 0 0 0 0 0 0 0 127 0"/><feOffset dy="0" dx="0"/><feGaussianBlur stdDeviation="5"/><feComposite in2="hardAlpha" operator="arithmetic" k2="-1" k3="1"/><feColorMatrix type="matrix" values="0 0 0 0 0 0 0 0 0 0 0 0 0 0 0 0 0 0 0.019999999552965164 0"/><feBlend mode="normal" in2="shape" result="effect1_innerShadow"/></filter></defs><g><g filter="url(#master_svg0_145_2982)"><path d="M16.724237890624998,3.029877796875C15.943237890625,2.248829796875,14.676837890625,2.248829796875,13.895837890625,3.029877796875C13.895837890625,3.029877796875,3.582123890625,13.343591796875,3.582123890625,13.343591796875C3.207051890625,13.718691796875,2.996337890625,14.227391796875,2.996337890625,14.757791796875C2.996337890625,14.757791796875,2.996337890625,19.990391796875,2.996337890625,19.990391796875C2.996337890625,20.548291796875,3.448565890625,21.000391796875,4.006337890625,21.000391796875C4.006337890625,21.000391796875,9.238977890625,21.000391796875,9.238977890625,21.000391796875C9.769407890625,21.000391796875,10.278117890625001,20.789691796875,10.653187890625,20.414691796875C10.653187890625,20.414691796875,20.966937890625,10.100941796875,20.966937890625,10.100941796875C21.747937890625,9.319901796875001,21.747937890625,8.053571796875,20.966937890625,7.272521796875C20.966937890625,7.272521796875,16.724237890624998,3.029877796875,16.724237890624998,3.029877796875C16.724237890624998,3.029877796875,16.724237890624998,3.029877796875,16.724237890624998,3.029877796875ZM15.310037890625,4.444091796875C15.310037890625,4.444091796875,19.552637890625,8.686731796875,19.552637890625,8.686731796875C19.552637890625,8.686731796875,17.826837890625,10.412531796875001,17.826837890625,10.412531796875001C17.826837890625,10.412531796875001,13.584237890625,6.169891796875,13.584237890625,6.169891796875C13.584237890625,6.169891796875,15.310037890625,4.444091796875,15.310037890625,4.444091796875C15.310037890625,4.444091796875,15.310037890625,4.444091796875,15.310037890625,4.444091796875ZM12.170027890625,7.584101796875C12.170027890625,7.584101796875,4.996337890625,14.757791796875,4.996337890625,14.757791796875C4.996337890625,14.757791796875,4.996337890625,19.000391796875,4.996337890625,19.000391796875C4.996337890625,19.000391796875,9.238977890625,19.000391796875,9.238977890625,19.000391796875C9.238977890625,19.000391796875,16.412637890625,11.826751796875,16.412637890625,11.826751796875C16.412637890625,11.826751796875,12.170027890625,7.584101796875,12.170027890625,7.584101796875C12.170027890625,7.584101796875,12.170027890625,7.584101796875,12.170027890625,7.584101796875Z" fill-rule="evenodd" fill="#000000" fill-opacity="0.8999999761581421"/><path d="M2.636337890625,14.757791796875L2.636337890625,19.990391796875Q2.636337890625,20.557891796875,3.037625990625,20.959191796875Q3.438879890625,21.360391796875,4.006337890625,21.360391796875L9.238977890625,21.360391796875Q10.216477890625,21.360391796875,10.907727890625,20.669291796875L21.221537890625,10.355501796875Q21.912737890625,9.664271796875,21.912637890625,8.686731796875Q21.912637890625,7.709201796875,21.221537890625,7.017971796875L16.978837890625,2.775326796875L16.978837890625,2.775317796875Q16.287637890625,2.084091796875,15.310037890625,2.084091796875Q14.332437890625,2.084091796875,13.641237890625,2.775326796875L3.327565890625,13.088991796875Q2.636337890625,13.780291796875,2.636337890625,14.757791796875ZM3.582123890625,13.343591796875L13.895837890625,3.029877796875C14.676837890625,2.248829796875,15.943237890625,2.248829796875,16.724237890624998,3.029877796875L20.966937890625,7.272521796875C21.747937890625,8.053571796875,21.747937890625,9.319901796875001,20.966937890625,10.100941796875L10.653187890625,20.414691796875C10.278117890625001,20.789691796875,9.769407890625,21.000391796875,9.238977890625,21.000391796875L4.006337890625,21.000391796875C3.448565890625,21.000391796875,2.996337890625,20.548291796875,2.996337890625,19.990391796875L2.996337890625,14.757791796875C2.996337890625,14.227391796875,3.207051890625,13.718691796875,3.582123890625,13.343591796875ZM15.055437890625,4.698651796875L13.838837890625,5.915331796875L13.584237890625,6.169891796875L13.838837890625,6.424451796875L17.572237890625,10.157971796875L17.826837890625,10.412531796875001L18.081437890625,10.157971796875L19.298037890625,8.941291796875L19.552637890625,8.686731796875L19.298037890625,8.432171796875L15.564637890625,4.698651796875L15.310037890625,4.444091796875L15.055437890625,4.698651796875ZM17.826837890625,9.903411796875L14.093337890625,6.169891796875L15.310037890625,4.953211796874999L19.043537890625,8.686731796875L17.826837890625,9.903411796875ZM12.424587890625,7.838661796875L16.158037890625,11.572191796875L16.412637890625,11.826751796875L16.158037890625,12.081311796875L9.238977890625,19.000391796875L4.996337890625,19.000391796875L4.996337890625,14.757791796875L11.915467890625,7.838661796875L12.170027890625,7.584101796875L12.424587890625,7.838661796875ZM12.170027890625,8.093221796875L15.903537890625,11.826751796875L9.089867890625001,18.640391796875L5.356337890624999,18.640391796875L5.356337890624999,14.906891796875L12.170027890625,8.093221796875Z" fill-rule="evenodd" fill="#000000" fill-opacity="0.8999999761581421"/></g></g></svg>