<svg xmlns="http://www.w3.org/2000/svg" xmlns:xlink="http://www.w3.org/1999/xlink" fill="none" version="1.1" width="80" height="80" viewBox="0 0 80 80"><defs><filter id="master_svg0_914_3568" filterUnits="objectBoundingBox" color-interpolation-filters="sRGB" x="0" y="0" width="80" height="80"><feFlood flood-opacity="0" result="BackgroundImageFix"/><feBlend mode="normal" in="SourceGraphic" in2="BackgroundImageFix" result="shape"/><feColorMatrix in="SourceAlpha" type="matrix" result="hardAlpha" values="0 0 0 0 0 0 0 0 0 0 0 0 0 0 0 0 0 0 127 0"/><feOffset dy="0" dx="0"/><feGaussianBlur stdDeviation="5"/><feComposite in2="hardAlpha" operator="arithmetic" k2="-1" k3="1"/><feColorMatrix type="matrix" values="0 0 0 0 1 0 0 0 0 1 0 0 0 0 1 0 0 0 0.019999999552965164 0"/><feBlend mode="normal" in2="shape" result="effect1_innerShadow"/></filter><filter id="master_svg1_914_3769" filterUnits="objectBoundingBox" color-interpolation-filters="sRGB" x="0" y="0" width="80" height="80"><feFlood flood-opacity="0" result="BackgroundImageFix"/><feBlend mode="normal" in="SourceGraphic" in2="BackgroundImageFix" result="shape"/><feColorMatrix in="SourceAlpha" type="matrix" result="hardAlpha" values="0 0 0 0 0 0 0 0 0 0 0 0 0 0 0 0 0 0 127 0"/><feOffset dy="0" dx="0"/><feGaussianBlur stdDeviation="5"/><feComposite in2="hardAlpha" operator="arithmetic" k2="-1" k3="1"/><feColorMatrix type="matrix" values="0 0 0 0 0 0 0 0 0 0 0 0 0 0 0 0 0 0 0.019999999552965164 0"/><feBlend mode="normal" in2="shape" result="effect1_innerShadow"/></filter></defs><g><g filter="url(#master_svg0_914_3568)"><ellipse cx="40" cy="40" rx="40" ry="40" fill="#FFFFFF" fill-opacity="0.23999999463558197"/></g><g><g filter="url(#master_svg1_914_3769)"></g><g><path d="M53.20989923706055,57.199999237060545Q54.86259923706055,57.199999237060545,56.031299237060544,56.031299237060544Q57.199999237060545,54.86259923706055,57.199999237060545,53.20989923706055Q57.199999237060545,51.55709923706055,56.031299237060544,50.38839923706055L45.64289923706055,39.99999923706055L56.031299237060544,29.611569237060547Q57.199999237060545,28.442859237060546,57.199999237060545,26.790139237060547Q57.199999237060545,25.137429237060548,56.031299237060544,23.968709237060548Q54.86259923706055,22.799999237060547,53.20989923706055,22.799999237060547Q51.55709923706055,22.799999237060547,50.38839923706055,23.968709237060548L39.99999923706055,34.357099237060545L29.611569237060547,23.968709237060548Q28.442859237060546,22.799999237060547,26.790139237060547,22.799999237060547Q25.13741923706055,22.799999237060547,23.968709237060548,23.968709237060548Q22.799999237060547,25.13741923706055,22.799999237060547,26.790139237060547Q22.799999237060547,28.442859237060546,23.968709237060548,29.611569237060547L34.357099237060545,39.99999923706055L23.968709237060548,50.38839923706055Q22.799999237060547,51.55709923706055,22.799999237060547,53.20989923706055Q22.799999237060547,54.86259923706055,23.968709237060548,56.031299237060544Q25.13741923706055,57.199999237060545,26.790139237060547,57.199999237060545Q28.442859237060546,57.199999237060545,29.611569237060547,56.031299237060544L39.99999923706055,45.64289923706055L50.38839923706055,56.031299237060544Q51.55709923706055,57.199999237060545,53.20989923706055,57.199999237060545ZM24.817239237060548,24.817239237060548C25.35043923706055,24.284139237060547,26.045599237060546,24.011849237060545,26.744189237060546,24.000379237060546C26.04554923706055,24.011809237060547,25.350379237060547,24.28409923706055,24.817239237060548,24.817239237060548ZM24.817239237060548,28.763039237060546C23.727781237060547,27.673389237060547,23.727781237060547,25.906889237060547,24.817239237060548,24.817239237060548C23.727586237060546,25.906889237060547,23.727586237060546,27.673389237060547,24.817239237060548,28.763039237060546ZM24.817239237060548,51.236999237060544C23.727586237060546,52.32659923706055,23.727586237060546,54.09309923706054,24.817239237060548,55.18279923706055C23.727781237060547,54.09309923706054,23.727781237060547,52.32659923706055,24.817239237060548,51.236999237060544Z" fill-rule="evenodd" fill="#FFFFFF" fill-opacity="1"/></g></g></g></svg>