<svg xmlns="http://www.w3.org/2000/svg" xmlns:xlink="http://www.w3.org/1999/xlink" fill="none" version="1.1" width="80" height="80" viewBox="0 0 80 80"><defs><filter id="master_svg0_914_3568" filterUnits="objectBoundingBox" color-interpolation-filters="sRGB" x="0" y="0" width="80" height="80"><feFlood flood-opacity="0" result="BackgroundImageFix"/><feBlend mode="normal" in="SourceGraphic" in2="BackgroundImageFix" result="shape"/><feColorMatrix in="SourceAlpha" type="matrix" result="hardAlpha" values="0 0 0 0 0 0 0 0 0 0 0 0 0 0 0 0 0 0 127 0"/><feOffset dy="0" dx="0"/><feGaussianBlur stdDeviation="5"/><feComposite in2="hardAlpha" operator="arithmetic" k2="-1" k3="1"/><feColorMatrix type="matrix" values="0 0 0 0 1 0 0 0 0 1 0 0 0 0 1 0 0 0 0.019999999552965164 0"/><feBlend mode="normal" in2="shape" result="effect1_innerShadow"/></filter><filter id="master_svg1_914_3769" filterUnits="objectBoundingBox" color-interpolation-filters="sRGB" x="0" y="0" width="80" height="80"><feFlood flood-opacity="0" result="BackgroundImageFix"/><feBlend mode="normal" in="SourceGraphic" in2="BackgroundImageFix" result="shape"/><feColorMatrix in="SourceAlpha" type="matrix" result="hardAlpha" values="0 0 0 0 0 0 0 0 0 0 0 0 0 0 0 0 0 0 127 0"/><feOffset dy="0" dx="0"/><feGaussianBlur stdDeviation="5"/><feComposite in2="hardAlpha" operator="arithmetic" k2="-1" k3="1"/><feColorMatrix type="matrix" values="0 0 0 0 0 0 0 0 0 0 0 0 0 0 0 0 0 0 0.019999999552965164 0"/><feBlend mode="normal" in2="shape" result="effect1_innerShadow"/></filter></defs><g><g filter="url(#master_svg0_914_3568)"><ellipse cx="40" cy="40" rx="40" ry="40" fill="#FFFFFF" fill-opacity="0.23999999463558197"/></g><g><g filter="url(#master_svg1_914_3769)"></g><g><path d="M55.1828,55.1828C56.2724,54.0931,56.2724,52.3266,55.1828,51.236999999999995L43.9458,40L55.1828,28.76304C56.2724,27.67339,56.2724,25.90689,55.1828,24.817239999999998C54.0931,23.727587,52.3266,23.727587,51.236999999999995,24.817239999999998L40,36.0542L28.76304,24.817239999999998C27.67339,23.727587,25.90689,23.727587,24.817239999999998,24.817239999999998C23.727587,25.90689,23.727587,27.67339,24.817239999999998,28.76304L36.0542,40L24.817239999999998,51.236999999999995C23.727587,52.3266,23.727587,54.0931,24.817239999999998,55.1828C25.90689,56.2724,27.67339,56.2724,28.76304,55.1828L40,43.9458L51.236999999999995,55.1828C52.3266,56.2724,54.0931,56.2724,55.1828,55.1828Z" fill="#FFFFFF" fill-opacity="1"/><path d="M53.209900000000005,57.2Q54.8626,57.2,56.0313,56.0313Q57.2,54.8626,57.2,53.209900000000005Q57.2,51.5571,56.0313,50.388400000000004L45.6429,40L56.0313,29.61157Q57.2,28.44286,57.2,26.79014Q57.2,25.13743,56.0313,23.9687142Q54.8626,22.8,53.209900000000005,22.8Q51.5571,22.8,50.388400000000004,23.9687114L40,34.3571L29.61157,23.9687118Q28.44286,22.8,26.79014,22.8Q25.13742,22.8,23.9687121,23.968712Q22.8,25.13742,22.8,26.79014Q22.8,28.44286,23.9687121,29.61157L34.3571,40L23.9687117,50.388400000000004Q22.8,51.5571,22.8,53.209900000000005Q22.8,54.8626,23.9687101,56.0313Q25.13742,57.2,26.79014,57.2Q28.44286,57.2,29.61157,56.0313L40,45.6429L50.388400000000004,56.0313Q51.5571,57.2,53.209900000000005,57.2ZM43.9458,40L44.7943,40.8485L55.1828,51.236999999999995C56.2724,52.3266,56.2724,54.0931,55.1828,55.1828C54.0931,56.2724,52.3266,56.2724,51.236999999999995,55.1828L40,43.9458L39.1515,44.7943L28.76304,55.1828C27.67339,56.2724,25.90689,56.2724,24.817239999999998,55.1828C23.727587,54.0931,23.727587,52.3266,24.817239999999998,51.236999999999995L35.2057,40.8485L36.0542,40L35.2057,39.1515L24.817239999999998,28.76304C23.727587,27.67339,23.727587,25.90689,24.817239999999998,24.817239999999998C25.90689,23.727587,27.67339,23.727587,28.76304,24.817239999999998L39.1515,35.2057L40,36.0542L40.8485,35.2057L51.236999999999995,24.817239999999998C52.3266,23.727587,54.0931,23.727587,55.1828,24.817239999999998C56.2724,25.90689,56.2724,27.67339,55.1828,28.76304L44.7943,39.1515L43.9458,40Z" fill-rule="evenodd" fill="#FFFFFF" fill-opacity="1"/></g></g></g></svg>