<svg xmlns="http://www.w3.org/2000/svg" xmlns:xlink="http://www.w3.org/1999/xlink" fill="none" version="1.1" width="172" height="107" viewBox="0 0 172 107"><defs><filter id="master_svg0_364_0434" filterUnits="objectBoundingBox" color-interpolation-filters="sRGB" x="0" y="0" width="172" height="107"><feFlood flood-opacity="0" result="BackgroundImageFix"/><feBlend mode="normal" in="SourceGraphic" in2="BackgroundImageFix" result="shape"/><feColorMatrix in="SourceAlpha" type="matrix" result="hardAlpha" values="0 0 0 0 0 0 0 0 0 0 0 0 0 0 0 0 0 0 127 0"/><feOffset dy="0" dx="0"/><feGaussianBlur stdDeviation="5"/><feComposite in2="hardAlpha" operator="arithmetic" k2="-1" k3="1"/><feColorMatrix type="matrix" values="0 0 0 0 0 0 0 0 0 0 0 0 0 0 0 0 0 0 0.019999999552965164 0"/><feBlend mode="normal" in2="shape" result="effect1_innerShadow"/></filter></defs><g><g filter="url(#master_svg0_364_0434)"><rect x="0" y="0" width="172" height="107" rx="53.5" fill="#F2F2F2" fill-opacity="1"/><g><rect x="6" y="6" width="160" height="95" rx="47.5" fill="#FFFFFF" fill-opacity="1"/><g><path d="M47.59212,41.5416L81.1916,41.5416L81.1916,46.7742L47.59212,46.7742L47.59212,41.5416ZM44.63313,52.7919L83.4844,52.7919L83.4844,58.0148L44.63313,58.0148L44.63313,52.7919ZM66.66890000000001,54.4082Q68.1745,57.950900000000004,70.7162,60.7634Q73.2586,63.5753,76.8494,65.52709999999999Q80.4402,67.47890000000001,85.0609,68.47030000000001Q84.4483,69.0829,83.723,70.00139999999999Q82.9984,70.92060000000001,82.3638,71.90780000000001Q81.72919999999999,72.8951,81.3229,73.6987Q76.3929,72.3004,72.69409999999999,69.82679999999999Q68.9954,67.3531,66.3409,63.7912Q63.686499999999995,60.2292,61.8186,55.6622L66.66890000000001,54.4082ZM72.3889,32.64537L78.1707,34.54631Q77.16290000000001,36.31181,76.04769999999999,38.120599999999996Q74.9333,39.9294,73.8601,41.521Q72.7869,43.1119,71.80930000000001,44.3535L67.2622,42.5997Q68.19579999999999,41.2453,69.1487,39.5369Q70.1016,37.827799999999996,70.9664,36.01413Q71.832,34.2005,72.3889,32.64537ZM50.96087,34.98631L55.414500000000004,32.73269Q56.856899999999996,34.37994,58.150099999999995,36.42387Q59.4433,38.4671,60.084,40.0415L55.3609,42.6574Q55.0089,41.6014,54.3049,40.2642Q53.600899999999996,38.927099999999996,52.7381,37.5287Q51.87525,36.13031,50.96087,34.98631ZM61.2713,43.3491L67.465,43.3491L67.465,52.4715Q67.465,54.7451,66.9947,57.0942Q66.5245,59.4434,65.30420000000001,61.7486Q64.0839,64.0531,61.8193,66.238Q59.5553,68.4222,55.9886,70.3768Q52.4218,72.3313,47.22569,73.92840000000001Q46.87231,73.28139999999999,46.22056,72.41380000000001Q45.5695,71.5469,44.79744,70.66210000000001Q44.02606,69.7779,43.30075,69.1654Q48.04106,67.7938,51.262,66.21940000000001Q54.483599999999996,64.64439999999999,56.4636,62.9256Q58.4436,61.2062,59.4824,59.4235Q60.5219,57.640100000000004,60.8966,55.852599999999995Q61.2713,54.0644,61.2713,52.3684L61.2713,43.3491ZM103.1057,53.632000000000005L125.9637,53.632000000000005L125.9637,58.648700000000005L103.1057,58.648700000000005L103.1057,53.632000000000005ZM99.9913,67.6405L128.72129999999999,67.6405L128.72129999999999,72.6579L99.9913,72.6579L99.9913,67.6405ZM101.3649,40.824600000000004L127.5477,40.824600000000004L127.5477,45.8412L101.3649,45.8412L101.3649,40.824600000000004ZM112.0171,43.7155L117.5246,43.7155L117.5246,69.7656L112.0171,69.7656L112.0171,43.7155ZM90.0033,36.98144L92.9479,33.14038Q94.27199999999999,33.73162,95.83879999999999,34.51606Q97.40559999999999,35.3005,98.87,36.10694Q100.3344,36.913380000000004,101.2928,37.5837L98.2107,41.9191Q97.3211,41.2054,95.9082,40.3206Q94.49539999999999,39.4358,92.9286,38.5386Q91.3618,37.641400000000004,90.0033,36.98144ZM87.53790000000001,49.3124L90.3553,45.3579Q91.69460000000001,45.9059,93.2593,46.673100000000005Q94.8241,47.4404,96.3029,48.2248Q97.7824,49.009299999999996,98.7311,49.6789L95.78659999999999,54.0741Q94.9066,53.3701,93.4786,52.5292Q92.0507,51.6884,90.4811,50.8304Q88.91159999999999,49.9724,87.53790000000001,49.3124ZM88.706,70.0296Q89.894,68.3823,91.33840000000001,66.1122Q92.7829,63.8414,94.2789,61.2557Q95.7749,58.67,97.07560000000001,56.1372L100.9511,59.6504Q99.80709999999999,61.948,98.4974,64.3652Q97.1877,66.7818,95.8505,69.1138Q94.51400000000001,71.4451,93.16929999999999,73.5963L88.706,70.0296ZM110.0281,34.07194L114.8791,32.41162Q115.8808,33.99975,116.8846,35.93575Q117.889,37.8711,118.3235,39.2887L113.1789,41.1601Q112.8125,39.7569,111.9036,37.7432Q110.9954,35.7295,110.0281,34.07194Z" fill="#000000" fill-opacity="0.8999999761581421"/></g></g></g></g></svg>