<svg xmlns="http://www.w3.org/2000/svg" xmlns:xlink="http://www.w3.org/1999/xlink" fill="none" version="1.1" width="40" height="40" viewBox="0 0 40 40"><defs><filter id="master_svg0_42_3851" filterUnits="objectBoundingBox" color-interpolation-filters="sRGB" x="0" y="0" width="30.000001907348633" height="30.000001907348633"><feFlood flood-opacity="0" result="BackgroundImageFix"/><feBlend mode="normal" in="SourceGraphic" in2="BackgroundImageFix" result="shape"/><feColorMatrix in="SourceAlpha" type="matrix" result="hardAlpha" values="0 0 0 0 0 0 0 0 0 0 0 0 0 0 0 0 0 0 127 0"/><feOffset dy="0" dx="0"/><feGaussianBlur stdDeviation="5"/><feComposite in2="hardAlpha" operator="arithmetic" k2="-1" k3="1"/><feColorMatrix type="matrix" values="0 0 0 0 0 0 0 0 0 0 0 0 0 0 0 0 0 0 0.019999999552965164 0"/><feBlend mode="normal" in2="shape" result="effect1_innerShadow"/></filter></defs><g><g filter="url(#master_svg0_42_3851)"><path d="M15,5C16.841,5,18.3333,6.49238,18.3333,8.33333C18.3333,8.33333,18.3333,18.3333,18.3333,18.3333C18.3333,20.174300000000002,16.841,21.6667,15,21.6667C15,21.6667,8.33333,21.6667,8.33333,21.6667C6.49239,21.6667,5,20.174300000000002,5,18.3333C5,18.3333,5,8.33333,5,8.33333C5,6.49238,6.49239,5,8.33333,5C8.33333,5,15,5,15,5C15,5,15,5,15,5ZM15,8.33333C15,8.33333,8.33333,8.33333,8.33333,8.33333C8.33333,8.33333,8.33333,18.3333,8.33333,18.3333C8.33333,18.3333,15,18.3333,15,18.3333C15,18.3333,15,8.33333,15,8.33333C15,8.33333,15,8.33333,15,8.33333ZM15,25C16.841,25,18.3333,26.4923,18.3333,28.3333C18.3333,28.3333,18.3333,31.6667,18.3333,31.6667C18.3333,33.5077,16.841,35,15,35C15,35,8.33333,35,8.33333,35C6.49239,35,5,33.5077,5,31.6667C5,31.6667,5,28.3333,5,28.3333C5,26.4923,6.49239,25,8.33333,25C8.33333,25,15,25,15,25C15,25,15,25,15,25ZM15,28.3333C15,28.3333,8.33333,28.3333,8.33333,28.3333C8.33333,28.3333,8.33333,31.6667,8.33333,31.6667C8.33333,31.6667,15,31.6667,15,31.6667C15,31.6667,15,28.3333,15,28.3333C15,28.3333,15,28.3333,15,28.3333ZM31.6667,5C33.5077,5,35,6.49238,35,8.33333C35,8.33333,35,11.66667,35,11.66667C35,13.50762,33.5077,15,31.6667,15C31.6667,15,25,15,25,15C23.159,15,21.6667,13.50762,21.6667,11.66667C21.6667,11.66667,21.6667,8.33333,21.6667,8.33333C21.6667,6.49238,23.159,5,25,5C25,5,31.6667,5,31.6667,5C31.6667,5,31.6667,5,31.6667,5ZM31.6667,8.33333C31.6667,8.33333,25,8.33333,25,8.33333C25,8.33333,25,11.66667,25,11.66667C25,11.66667,31.6667,11.66667,31.6667,11.66667C31.6667,11.66667,31.6667,8.33333,31.6667,8.33333C31.6667,8.33333,31.6667,8.33333,31.6667,8.33333ZM35,21.6667C35,19.825699999999998,33.5077,18.3333,31.6667,18.3333C31.6667,18.3333,25,18.3333,25,18.3333C23.159,18.3333,21.6667,19.825699999999998,21.6667,21.6667C21.6667,21.6667,21.6667,31.6667,21.6667,31.6667C21.6667,33.5077,23.159,35,25,35C25,35,31.6667,35,31.6667,35C33.5077,35,35,33.5077,35,31.6667C35,31.6667,35,21.6667,35,21.6667C35,21.6667,35,21.6667,35,21.6667ZM25,21.6667C25,21.6667,31.6667,21.6667,31.6667,21.6667C31.6667,21.6667,31.6667,31.6667,31.6667,31.6667C31.6667,31.6667,25,31.6667,25,31.6667C25,31.6667,25,21.6667,25,21.6667C25,21.6667,25,21.6667,25,21.6667Z" fill-rule="evenodd" fill="#000000" fill-opacity="0.8999999761581421"/><path d="M4.6,8.33333L4.6,18.3333Q4.6,19.8797,5.693468,20.9732Q6.78693,22.0667,8.33333,22.0667L15,22.0667Q16.5464,22.0667,17.6399,20.9732Q18.7333,19.8797,18.7333,18.3333L18.7333,8.33333Q18.7333,6.78693,17.6399,5.693468Q16.5464,4.6,15,4.6L8.33333,4.6Q6.7869399999999995,4.6,5.693468,5.693468Q4.6,6.7869399999999995,4.6,8.33333ZM21.2667,8.33333L21.2667,11.66667Q21.2667,13.21307,22.3601,14.30653Q23.4536,15.4,25,15.4L31.6667,15.4Q33.2131,15.4,34.3066,14.30653Q35.4,13.21307,35.4,11.66667L35.4,8.33333Q35.4,6.78693,34.3066,5.693469Q33.2131,4.6,31.6667,4.6L25,4.6Q23.4536,4.6,22.3601,5.693469Q21.2667,6.78693,21.2667,8.33333ZM18.3333,8.33333C18.3333,6.49238,16.841,5,15,5L8.33333,5C6.49239,5,5,6.49238,5,8.33333L5,18.3333C5,20.174300000000002,6.49239,21.6667,8.33333,21.6667L15,21.6667C16.841,21.6667,18.3333,20.174300000000002,18.3333,18.3333L18.3333,8.33333ZM35,8.33333C35,6.49238,33.5077,5,31.6667,5L25,5C23.159,5,21.6667,6.49238,21.6667,8.33333L21.6667,11.66667C21.6667,13.50762,23.159,15,25,15L31.6667,15C33.5077,15,35,13.50762,35,11.66667L35,8.33333ZM15,8.33333L8.33333,8.33333L8.33333,18.3333L15,18.3333L15,8.33333ZM31.6667,8.33333L25,8.33333L25,11.66667L31.6667,11.66667L31.6667,8.33333ZM8.73333,17.9333L8.73333,8.73333L14.6,8.73333L14.6,17.9333L8.73333,17.9333ZM25.4,11.266670000000001L25.4,8.73333L31.2667,8.73333L31.2667,11.266670000000001L25.4,11.266670000000001ZM21.2667,21.6667L21.2667,31.6667Q21.2667,33.2131,22.3601,34.3066Q23.4536,35.4,25,35.4L31.6667,35.4Q33.2131,35.4,34.3066,34.3066Q35.4,33.2131,35.4,31.6667L35.4,21.6667Q35.4,20.1203,34.3066,19.0268Q33.2131,17.9333,31.6667,17.9333L25,17.9333Q23.4536,17.9333,22.3601,19.0268Q21.2667,20.1203,21.2667,21.6667ZM31.6667,18.3333C33.5077,18.3333,35,19.825699999999998,35,21.6667L35,31.6667C35,33.5077,33.5077,35,31.6667,35L25,35C23.159,35,21.6667,33.5077,21.6667,31.6667L21.6667,21.6667C21.6667,19.825699999999998,23.159,18.3333,25,18.3333L31.6667,18.3333ZM25,21.6667L25,31.6667L31.6667,31.6667L31.6667,21.6667L25,21.6667ZM31.2667,31.2667L25.4,31.2667L25.4,22.0667L31.2667,22.0667L31.2667,31.2667ZM4.6,28.3333L4.6,31.6667Q4.6,33.2131,5.69347,34.3066Q6.78693,35.4,8.33333,35.4L15,35.4Q16.5464,35.4,17.6399,34.3066Q18.7333,33.2131,18.7333,31.6667L18.7333,28.3333Q18.7333,26.7869,17.6399,25.6934Q16.5464,24.6,15,24.6L8.33333,24.6Q6.78693,24.6,5.69347,25.6934Q4.6,26.7869,4.6,28.3333ZM18.3333,28.3333C18.3333,26.4923,16.841,25,15,25L8.33333,25C6.49239,25,5,26.4923,5,28.3333L5,31.6667C5,33.5077,6.49239,35,8.33333,35L15,35C16.841,35,18.3333,33.5077,18.3333,31.6667L18.3333,28.3333ZM15,28.3333L8.33333,28.3333L8.33333,31.6667L15,31.6667L15,28.3333ZM8.73333,31.2667L8.73333,28.7333L14.6,28.7333L14.6,31.2667L8.73333,31.2667Z" fill-rule="evenodd" fill="#000000" fill-opacity="0.8999999761581421"/></g></g></svg>