<svg xmlns="http://www.w3.org/2000/svg" xmlns:xlink="http://www.w3.org/1999/xlink" fill="none" version="1.1" width="64" height="64" viewBox="0 0 64 64"><defs><clipPath id="master_svg0_939_4146"><rect x="3" y="2" width="58" height="58" rx="0"/></clipPath></defs><g><g><g style="opacity:0.8999999761581421;" clip-path="url(#master_svg0_939_4146)"><g><path d="M50.651724609375,19.0771484375L13.348194609375,19.0771484375C10.108354609375,19.0771484375,7.480224609375,21.7052684375,7.480224609375,24.9451184375L7.480224609375,50.518348437499995C7.480224609375,53.7581484375,10.108354609375,56.3863484375,13.348194609375,56.3863484375L50.657324609375,56.3863484375C53.897224609375,56.3863484375,56.525324609375,53.7581484375,56.525324609375,50.518348437499995L56.525324609375,24.9507784375C56.519724609375,21.7052784375,53.897224609375,19.0771484375,50.651724609375,19.0771484375ZM52.118724609375,49.051348437499996C52.118724609375,50.6712484375,50.804624609375,51.9853484375,49.184724609375,51.9853484375L14.815184609374999,51.9853484375C13.195264609375,51.9853484375,11.881204609375,50.6712484375,11.881204609375,49.051348437499996L11.881204609375,26.4121084375C11.881204609375,24.792188437500002,13.195264609375,23.4781284375,14.815184609374999,23.4781284375L49.190424609375,23.4781284375C50.810324609375,23.4781284375,52.124324609375,24.792188437500002,52.124324609375,26.4121084375L52.118724609375,49.051348437499996Z" fill="#000000" fill-opacity="1" style="mix-blend-mode:passthrough"/><path d="M57.525324609375,50.518348437499995L57.525324609375,24.9490384375Q57.520324609375,22.1009284375,55.510824609375,20.0900284375Q53.499324609375,18.0771484375,50.651724609375,18.0771484375L13.348194609375,18.0771484375Q10.504094609375,18.0771484375,8.492164609375,20.0890884375Q6.480224609375,22.1010184375,6.480224609375,24.9451184375L6.480224609375,50.518348437499995Q6.480224609375,53.3624484375,8.492164609375,55.3743484375Q10.504094609375,57.3863484375,13.348194609375,57.3863484375L50.657324609375,57.3863484375Q53.501424609375,57.3863484375,55.513424609375,55.3743484375Q57.525324609375,53.3624484375,57.525324609375,50.518348437499995ZM55.525324609375,24.9507784375L55.525324609375,24.9525284375L55.525324609375,50.518348437499995Q55.525324609375,52.5340484375,54.099224609375,53.9601484375Q52.673024609375,55.3863484375,50.657324609375,55.3863484375L13.348194609375,55.3863484375Q11.332524609375,55.3863484375,9.906374609375,53.9601484375Q8.480224609375,52.5340484375,8.480224609375,50.518348437499995L8.480223609375,24.9451184375Q8.480224609375,22.9294484375,9.906374609375,21.5032984375Q11.332524609375,20.0771484375,13.348194609375,20.0771484375L50.651724609375,20.0771484375Q52.670424609375,20.0771484375,54.096124609375,21.5037684375Q55.521224609375,22.9297884375,55.525324609375,24.9507784375ZM53.118724609375,49.0516484375L53.124324609375,26.4123584375L53.124324609375,26.4121084375Q53.124324609375,24.7829484375,51.971924609375,23.6305384375Q50.819524609375,22.4781284375,49.190424609375,22.4781284375L14.815184609374999,22.4781284375Q13.186034609375,22.4781284375,12.033614609375,23.6305384375Q10.881204609375,24.7829584375,10.881204609375,26.4121084375L10.881204609375,49.051348437499996Q10.881204609375,50.6805484375,12.033614609375,51.8329484375Q13.186034609375,52.9853484375,14.815184609374999,52.9853484375L49.184724609375,52.9853484375Q50.813824609375,52.9853484375,51.966324609375,51.8329484375Q53.118724609375,50.6805484375,53.118724609375,49.0516484375ZM51.124324609375,26.4118584375L51.124324609375,26.4121084375L51.118724609375,49.051148437500004Q51.118724609375,50.9853484375,49.184724609375,50.9853484375L14.815184609374999,50.9853484375Q12.881204609375,50.9853484375,12.881204609375,49.051348437499996L12.881204609375,26.4121084375Q12.881204609375,24.4781284375,14.815184609374999,24.4781284375L49.190424609375,24.4781284375Q49.991124609375,24.4781284375,50.557724609375,25.0447584375Q51.124324609375,25.6112984375,51.124324609375,26.4118584375Z" fill-rule="evenodd" fill="#000000" fill-opacity="1"/></g><g><path d="M33.325411328125,16.171367773437503C32.311611328125,13.7755077734375,30.351811328125002,11.8044177734375,28.788511328125,9.7710177734375C27.621711328125002,8.2587077734375,26.511611328125,7.0126177734374995,24.687751328125,6.2649587734375C21.323301328124998,4.8885917734375,17.012941328125,5.7042166734375,15.942437328125,9.6010877734375C14.769974328125,13.8774577734375,17.143221328125,17.3098677734375,23.050831328125,19.8983677734375C27.406511328125,21.184067773437498,32.668411328125,19.3602677734375,33.676611328125,17.3778677734375C33.631311328125,16.964367773437502,33.489711328125,16.562267773437497,33.325411328125,16.171367773437503ZM23.503961328125,16.2053677734375C20.184821328125,14.5288277734375,18.961381328125,12.7899577734375,19.833651328125,10.988787773437501C20.870171328125,8.8307777734375,23.872121328125,10.7452377734375,25.129551328125,11.6288277734375C25.633651328124998,11.9799977734375,30.068611328125,15.4294177734375,29.785411328125,16.0184677734375C28.913111328124998,17.8139677734375,26.817411328125,17.876267773437498,23.503961328125,16.2053677734375Z" fill="#000000" fill-opacity="1" style="mix-blend-mode:passthrough"/><path d="M34.703111328125004,17.5653677734375L34.670711328125,17.268967773437502Q34.599811328125,16.6226677734375,34.247311328125,15.7839677734375Q33.436011328125005,13.8666477734375,30.819611328125,10.6966977734375Q29.972211328125,9.6698977734375,29.581311328125,9.1615177734375Q27.356911328125,6.2783707734375,25.067061328125,5.3396867734375Q22.016321328125,4.0916577734375,19.151811328125,5.0025847734374995Q15.883091328125,6.0420527734375,14.978159328125,9.336197773437501Q12.991421328125,16.5824677734375,22.649511328125,20.8142677734375L22.707251328125,20.8395677734375L22.767721328125,20.8574677734375Q26.137811328125,21.8522677734375,29.882811328125,20.8282677734375Q33.554311328124996,19.824267773437498,34.568011328124996,17.8311677734375L34.703111328125004,17.5653677734375ZM32.623811328125,17.184267773437497Q32.552211328125,16.9125677734375,32.403511328125,16.5588677734375Q31.707811328125,14.9147377734375,29.277211328125,11.969797773437499Q28.407711328125,10.916307773437499,27.995711328124997,10.3805077734375Q26.101411328125,7.9252377734375,24.308451328125003,7.1902277734375Q21.930781328125,6.2175517734375,19.757911328125,6.9085377734375Q17.524001328125,7.6189277734375,16.906711328125,9.8659877734375Q15.382843328125,15.4240577734375,23.393571328125,18.956667773437502Q26.192511328125,19.7638677734375,29.355311328124998,18.8990677734375Q31.862811328125,18.2133677734375,32.623811328125,17.184267773437497ZM27.589911328124998,18.411367773437497Q29.766111328125,18.346667773437503,30.684911328125,16.455467773437498L30.686611328125,16.4517677734375Q31.468311328125,14.8258977734375,25.704511328125,10.810637773437499Q24.004941328125,9.6163577734375,22.692981328125,9.2124677734375Q19.978801328125,8.3769077734375,18.933631328125,10.5529277734375Q17.196621328125,14.1397577734375,23.053701328125,17.0982677734375Q25.765311328125,18.465667773437502,27.589911328124998,18.411367773437497ZM28.640011328125,15.9510677734375Q28.584611328125,15.8880677734375,28.516811328125,15.8153677734375Q28.033911328125,15.2973977734375,27.099711328125,14.4917677734375Q25.459351328125003,13.0773077734375,24.554601328125003,12.4470177734375Q23.114001328125,11.4347077734375,22.104531328125,11.1239477734375Q21.036091328125,10.7950177734375,20.733661328125,11.4246477734375Q19.853881328125,13.2413377734375,23.954221328125,15.3124977734375Q26.212911328125,16.4514677734375,27.530411328125,16.4122677734375Q28.241311328125,16.391167773437502,28.640011328125,15.9510677734375Z" fill-rule="evenodd" fill="#000000" fill-opacity="1"/></g><g><path d="M49.4056447265625,9.5672401171875C48.8052447265625,7.4488801171875,47.3439447265625,5.9365711171875,45.1009447265625,5.6930165171875C43.5093447265625,5.5174311171875,41.8158447265625,5.7496571171875,40.3261847265625,6.3217271171875C38.5420047265625,7.0070801171875,37.5791147265625,8.2645001171875,36.3840047265625,9.6748501171875C35.1605647265625,11.1135201171875,33.9257947265625,12.5522001171875,32.8496247265625,14.0984901171875C32.5211047265625,14.5742701171875,31.0088037265625,16.528320117187498,31.3543123265625,17.1910201171875C32.3795047265625,19.1395201171875,37.7377147265625,20.9237201171875,42.1726447265625,19.6662201171875C48.1822447265625,17.1287201171875,50.595144726562495,13.7586401171875,49.4056447265625,9.5672401171875ZM41.7082447265625,16.0356201171875C38.3324347265625,17.6782201171875,36.1970847265625,17.6158201171875,35.3134947265625,15.8487201171875C34.9906347265625,15.2029801171875,38.5816547265625,12.467230117187501,39.0914247265625,12.0990701171875C40.3148547265625,11.2154801171875,44.3646447265625,8.7516101171875,45.4465447265625,10.9209501171875C46.3300447265625,12.6881301171875,45.084044726562496,14.3930201171875,41.7082447265625,16.0356201171875Z" fill="#000000" fill-opacity="1" style="mix-blend-mode:passthrough"/><path d="M42.504844726562496,20.6115201171875L42.5616447265625,20.587520117187502Q52.3943447265625,16.4357201171875,50.3676447265625,9.2942301171875Q49.1877447265625,5.1308991171875,45.2089447265625,4.6988611171875Q42.5317447265625,4.4035101171874995,39.967684726562496,5.3881991171875Q38.686504726562504,5.8803351171875,37.6014647265625,6.8577201171875Q36.9714947265625,7.4251801171875,35.8794447265625,8.722170117187499Q35.7080147265625,8.925760117187501,35.6210747265625,9.0283601171875Q35.5698247265625,9.088630117187499,35.463254726562496,9.2139001171875Q33.0860847265625,12.008150117187501,32.0288417265625,13.5272501171875Q31.9945687265625,13.5768701171875,31.8828427265625,13.7321701171875Q29.8768847265625,16.5204201171875,30.4675907265625,17.653320117187498Q31.5001137265625,19.6157201171875,35.2302047265625,20.5979201171875Q39.0268847265625,21.5976201171875,42.4454447265625,20.6283201171875L42.504844726562496,20.6115201171875ZM41.8413447265625,18.7206201171875Q49.9822447265625,15.2618001171875,48.443644726562496,9.8402401171875Q47.6312447265625,6.9736401171875,44.9930447265625,6.6871701171875Q42.795344726562504,6.4447191171875,40.6846947265625,7.2552601171875Q39.2722947265625,7.7977901171875,37.4093547265625,10.0103401171875Q37.2359047265625,10.2163301171875,37.1469247265625,10.3213401171875Q37.0926947265625,10.3851101171875,36.9865747265625,10.5098501171875Q34.6722547265625,13.230240117187499,33.6704047265625,14.6697301171875Q33.6293747265625,14.7291701171875,33.5063447265625,14.9001801171875Q32.2199207265625,16.688220117187498,32.2410327265625,16.7287201171875Q32.8603147265625,17.9057201171875,35.7394547265625,18.6638201171875Q38.9743047265625,19.5155201171875,41.8413447265625,18.7206201171875ZM46.3414447265625,10.4746701171875L46.3409447265625,10.4737301171875Q45.2470447265625,8.2818501171875,41.9916447265625,9.4213101171875Q40.2441947265625,10.032980117187499,38.5059347265625,11.2883901171875Q33.6638447265625,14.7854601171875,34.4190647265625,16.2959201171875Q36.1879747265625,19.8337201171875,42.1457447265625,16.9348201171875Q44.9008447265625,15.5942201171875,45.9819447265625,14.1150801171875Q47.2758447265625,12.3447601171875,46.3414447265625,10.4746701171875ZM42.6524447265625,11.309010117187501Q44.2446447265625,10.7516901171875,44.5516447265625,11.3672301171875L44.5520447265625,11.3681601171875Q44.9421447265625,12.1483601171875,44.367244726562504,12.934920117187499Q43.5792447265625,14.0131001171875,41.2706847265625,15.1363901171875Q37.5250947265625,16.9589201171875,36.4265647265625,15.7271201171875Q36.4420047265625,15.7085201171875,36.4587547265625,15.6887201171875Q36.8160247265625,15.2672301171875,37.550894726562504,14.6204801171875Q38.6610947265625,13.6434001171875,39.6769147265625,12.9097501171875Q41.1794247265625,11.8246001171875,42.6524447265625,11.309010117187501Z" fill-rule="evenodd" fill="#000000" fill-opacity="1"/></g><g><path d="M34.23705390625,16.01286296875C35.37555390625,16.44333196875,35.97025390625,17.87067796875,35.165953906249996,19.07711796875C31.63729390625,24.66754796875,29.47928390625,30.95466796875,28.54471390625,37.61556796875C28.42010390625,38.34626796875,28.102913906250002,38.93536796875,27.58748390625,39.25246796875C27.33260390625,39.41676796875,27.03807390625,39.51306796875,26.73221390625,39.541367968749995C26.57928390625,39.558367968750005,26.42635390625,39.55266796875,26.27342390625,39.53576796875C26.19978390625,39.52436796875,26.12049390625,39.51306796875,26.04685390625,39.49036796875C26.00721390625,39.48476796875,25.97322390625,39.47336796875,25.93357390625,39.46206796875C25.89959390625,39.45076796875,25.85994390625,39.43946796875,25.82596390625,39.42246796875C25.77498390625,39.40546796875,25.72967390625,39.38846796875,25.67869390625,39.37146796875C25.63338390625,39.35446796875,25.58240390625,39.33176796875,25.53709390625,39.30916796875C25.44646390625,39.26386796875,25.35018390625,39.21856796875,25.26521390625,39.17316796875C25.08396390625,39.07696796875,24.91404390625,38.96366796875,24.75545390625,38.83906796875C24.43260390625,38.589767968749996,24.13240590625,38.283967968750005,23.87752290625,37.949767968749995C23.61697590625,37.61556796875,23.39607690625,37.24176796875,23.27713170625,36.873567968749995C23.15818600625,36.50546796875,23.15818600625,36.137267968749995,23.37908390625,35.820067968749996C23.56599790625,29.03456796875,25.87127390625,22.68512796875,30.02869390625,17.27028796875C29.99471390625,17.07203796875,30.02303390625,16.90778796875,30.10232390625,16.76051796875C30.14197390625,16.68688596875,30.187283906250002,16.61891696875,30.24959390625,16.55094696875C30.30623390625,16.48864196875,30.37420390625,16.43200196875,30.45349390625,16.37536096875C30.75935390625,16.16012596875,31.17849390625,16.01852496875,31.60896390625,15.91657196875C32.48689390625,15.72965736875,33.39885390625,15.72399376875,34.23705390625,16.01286296875Z" fill="#000000" fill-opacity="1" style="mix-blend-mode:passthrough"/><path d="M34.39995390625,15.54014296875Q33.09237390625,15.08954196875,31.50485390625,15.42753196875L31.49927390625,15.42871896875L31.49373390625,15.43003096875Q30.64106390625,15.63198096875,30.16287390625,15.96849696875Q29.99314390625,16.08973896875,29.88101390625,16.21308396875Q29.75548390625,16.35002896875,29.66209390625,16.52346796875Q29.51233390625,16.80158796875,29.51450390625,17.11978796875Q23.20529277625,25.427537968750002,22.88326390625,35.671067968749995Q22.55402990625,36.261867968749996,22.80134690625,37.02736796875Q22.99737690625,37.63406796875,23.47995990625,38.25296796875Q23.91223790625,38.81976796875,24.44653390625,39.232167968750005Q24.73055390625,39.45536796875,25.029913906250002,39.61436796875Q25.09413390625,39.648667968750004,25.22520390625,39.712867968750004Q25.28501390625,39.742167968749996,25.31350390625,39.75636796875Q25.41057390625,39.80486796875,25.50310390625,39.83956796875L25.51177390625,39.84286796875L25.52056390625,39.845767968749996Q25.54191390625,39.852867968750004,25.58595390625,39.86846796875Q25.61884390625,39.88006796875,25.64264390625,39.88826796875Q25.69265390625,39.90966796875,25.75951390625,39.93126796875Q25.77124390625,39.93496796875,25.77552390625,39.93646796875L25.78578390625,39.93986796875L25.79618390625,39.94286796875Q25.80185390625,39.944467968750004,25.81421390625,39.948067968749996Q25.88058390625,39.967567968750004,25.93396390625,39.97816796875Q26.031503906250002,40.00446796875,26.18285390625,40.027667968749995L26.19735390625,40.02986796875L26.207753906249998,40.03146796875L26.21822390625,40.032667968750005Q26.52834390625,40.067067968749996,26.77830390625,40.039267968749996Q27.37551390625,39.98396796875,27.84953390625,39.678367968749995Q28.79988390625,39.093467968750005,29.03759390625,37.69966796875L29.038833906249998,37.69236796875L29.039863906249998,37.685067968750005Q30.47650390625,27.445767968749998,35.58565390625,19.34904796875Q36.30245390625,18.269327968749998,35.903553906249996,17.09337796875Q35.52035390625,15.96351296875,34.41395390625,15.54517796875L34.406953906249996,15.54255696875L34.39995390625,15.54014296875ZM31.718653906249997,16.40442796875Q31.05768390625,16.56158496875,30.74412390625,16.78222596875Q30.66126390625,16.84140796875,30.61816390625,16.88880796875Q30.57685390625,16.93387796875,30.54256390625,16.99756796875Q30.50211390625,17.07268796875,30.52150390625,17.18579796875L30.55845390625,17.40132796875L30.42528390625,17.57477796875Q24.15696690625,25.73894796875,23.87889490625,35.83386796875L23.87477990625,35.98326796875L23.78938590625,36.105867968750005Q23.62895590625,36.336167968750004,23.75291690625,36.719867968749995Q23.89463390625,37.15856796875,24.27508390625,37.64656796875Q24.62751390625,38.10866796875,25.06437390625,38.44586796875Q25.27835390625,38.61406796875,25.50052390625,38.73206796875Q25.54955390625,38.75816796875,25.66508390625,38.814767968750004Q25.72873390625,38.84596796875,25.76067390625,38.86196796875Q25.80679390625,38.884967968750004,25.84721390625,38.900567968749996Q25.87504390625,38.91006796875,25.91876390625,38.92546796875Q25.96270390625,38.94096796875,25.98410390625,38.948067968749996L26.01777390625,38.95936796875L26.04951390625,38.97516796875L26.06666390625,38.979567968750004Q26.07469390625,38.982167968750005,26.08107390625,38.984267968750004Q26.08761390625,38.986167968749996,26.09586390625,38.988567968750004L26.11750390625,38.99546796875L26.15637390625,39.000967968750004L26.19391390625,39.01246796875Q26.22752390625,39.02286796875,26.33422390625,39.03916796875Q26.33645390625,39.03956796875,26.33848390625,39.03986796875Q26.53223390625,39.06056796875,26.68611390625,39.04346796875Q27.03957390625,39.01076796875,27.325433906249998,38.82666796875Q27.88813390625,38.48036796875,28.05062390625,37.53856796875Q29.51841390625,27.08766796875,34.74315390625,18.810237968750002L34.74655390625,18.80495796875L34.74995390625,18.79976796875Q35.19835390625,18.127247968749998,34.95655390625,17.41461796875Q34.72615390625,16.73535496875,34.06695390625,16.48310896875Q33.02674390625,16.12715696875,31.718653906249997,16.40442796875Z" fill-rule="evenodd" fill="#000000" fill-opacity="1"/></g><g><path d="M30.799386015625,16.4375323515625C29.779854815625,16.9189773515625,29.366379015625,18.3576453515625,30.238644015625,19.5074553515625C34.090206015625,24.8543253515625,35.426926015625,25.7096053515625,36.961886015625,32.240235351562504C37.148796015625,32.9539353515625,37.505636015625,33.5203353515625,38.021066015624996,33.8092353515625C38.275956015625,33.956435351562504,38.559156015625,34.0414353515625,38.848016015625,34.052735351562504C38.989616015625,34.0584353515625,39.136886015625,34.052735351562504,39.272826015625,34.0244353515625C39.340796015625,34.0131353515625,39.414426015625,33.9961353515625,39.476726015625,33.9734353515625L39.578686015624996,33.9395353515625C39.612666015625,33.9281353515625,39.646646015625,33.9111353515625,39.674966015625,33.8941353515625C39.720286015625,33.877235351562504,39.759926015625,33.854535351562504,39.805216015625,33.8375353515625C39.850516015625004,33.8148353515625,39.890216015625,33.792235351562496,39.929816015625,33.769535351562496C40.014816015625,33.7242353515625,40.094116015625,33.6732353515625,40.173416015625,33.6223353515625C40.332016015625,33.5203353515625,40.479316015625,33.3957353515625,40.615216015625,33.2654353515625C40.892716015625,32.999235351562504,41.136316015625,32.6877353515625,41.345916015625,32.3422353515625C41.549816015625,31.9967353515625,41.725316015625,31.6229353515625,41.799016015625,31.249035351562497C41.872616015625,30.8809353515625,41.838616015625,30.5240353515625,41.600716015625,30.218235351562498C40.745516015625,23.5346053515625,39.272826015625,22.6113653515625,34.849186015625,17.474055351562498C34.860516015625,17.2814853515625,34.815206015625,17.1115603515625,34.730246015625,16.9699593515625C34.690596015625,16.8963263515625,34.633956015625,16.8340213515625,34.571656015625,16.7717163515625C34.509346015625,16.7094113515625,34.441376015624996,16.6584353515625,34.367746015625,16.6074593515625C34.061886015625,16.4092173515625,33.659736015625,16.2902713515625,33.240596015625,16.2109748515625C32.407976015625,16.0807011515625,31.552706015625,16.1203494515625,30.799386015625,16.4375323515625Z" fill="#000000" fill-opacity="1" style="mix-blend-mode:passthrough"/><path d="M33.325736015625,15.7182123515625L33.317886015625,15.7169843515625Q31.789996015625,15.4779273515625,30.605360015625,15.9767133515625L30.595529015625,15.9808533515625L30.585883015625,15.9854073515625Q29.569561015625,16.4653373515625,29.320871015625,17.6162553515625Q29.067778015625,18.7875453515625,29.836433115625,19.8045453515625Q30.502627015625,20.729225351562498,31.620226015625,22.2243153515625Q33.781016015625,25.1149353515625,34.521306015625,26.5567353515625Q35.611416015625,28.679835351562502,36.475146015625,32.3546353515625L36.476596015625,32.3608353515625L36.478196015625,32.3669353515625Q36.831436015625,33.7156353515625,37.776626015625,34.2454353515625Q38.269966015625,34.5304353515625,38.828416015625,34.5524353515625Q39.125696015624996,34.5642353515625,39.364686015625,34.5160353515625Q39.517456015625,34.489835351562505,39.640366015625,34.4459353515625L39.736776015625,34.4138353515625Q39.816316015625,34.3873353515625,39.894416015625,34.3446353515625Q39.920416015625,34.3335353515625,39.951616015625,34.3189353515625Q39.976416015625,34.3073353515625,39.980816015625,34.305735351562504L40.005416015625,34.2964353515625L40.028916015625,34.2847353515625Q40.084816015625,34.2567353515625,40.172016015625,34.207035351562496Q40.273816015625,34.1521353515625,40.443716015625,34.042935351562505L40.443816015625,34.042935351562505Q40.695416015625,33.8811353515625,40.961116015625,33.6264353515625Q41.416816015625,33.1894353515625,41.773416015625,32.601535351562504Q42.176816015625,31.917935351562498,42.289616015625,31.3457353515625Q42.441016015624996,30.588635351562502,42.080716015625,30.0312353515625Q41.541116015625,25.9182953515625,40.347916015625,23.6418153515625Q39.500486015625,22.0249253515625,36.656026015625,18.7855653515625Q35.842356015625,17.8589453515625,35.345346015625,17.2837453515625Q35.318476015625,16.9829293515625,35.164336015625,16.7217033515625Q35.083326015625,16.5762953515625,34.925206015625,16.4181693515625Q34.818286015625,16.3112423515625,34.652356015625,16.1963645515625L34.646086015625,16.1920270515625L34.639696015625,16.1878823515625Q34.157986015625,15.8756633515625,33.333536015625,15.7196893515625L33.325736015625,15.7182123515625ZM33.155446015625,16.7037403515625Q31.920116015625,16.5121223515625,31.003596015625,16.8940853515625Q30.441599015625002,17.1643453515625,30.298312015625,17.8274653515625Q30.141678015625,18.5523453515625,30.636990015625,19.2052653515625L30.640730015625,19.2101953515625L30.644346015625,19.2152153515625Q31.305926015625,20.1336453515625,32.421186015625,21.6255853515625Q34.632246015625,24.583465351562502,35.410896015625,26.0999553515625Q36.555936015625,28.3300353515625,37.447136015625,32.119535351562504Q37.692946015625,33.0521353515625,38.265516015624996,33.3730353515625Q38.556196015625,33.540935351562496,38.867616015625,33.5531353515625Q39.048756015625,33.560435351562504,39.170846015625,33.534935351562495L39.180676015625,33.5329353515625L39.190586015625,33.5312353515625Q39.262886015625,33.5192353515625,39.305826015625,33.5036353515625L39.312196015625,33.5012353515625L39.420586015625,33.465135351562495L39.417686015625,33.465435351562505L39.456766015625,33.442035351562495L39.499446015625,33.426035351562504Q39.503856015625004,33.424335351562505,39.528696015625,33.4127353515625Q39.566996015625,33.3948353515625,39.597456015625,33.382135351562496Q39.629116015625,33.3655353515625,39.681786015625,33.335435351562495L39.688106015624996,33.3318353515625L39.694536015625,33.328435351562504Q39.761526015625,33.292635351562495,39.902916015624996,33.201735351562505L39.903016015625,33.201735351562505Q40.073316015625,33.0922353515625,40.269216015625,32.9044353515625Q40.629816015624996,32.5586353515625,40.918316015625,32.0829353515625Q41.228716015625,31.5569353515625,41.308416015625,31.152435351562502Q41.387316015625004,30.7581353515625,41.206116015625,30.5251353515625L41.122116015625,30.4172353515625L41.104816015625,30.2816353515625Q40.589816015625004,26.2574353515625,39.462216015625,24.1060353515625Q38.670236015625,22.5949753515625,35.904596015625,19.4453853515625Q34.987816015625,18.401325351562498,34.470296015625,17.8003153515625L34.338156015625,17.6468553515625L34.350046015625,17.4446953515625Q34.357366015625,17.3203253515625,34.301496015625,17.2272053515625L34.295516015625,17.2172453515625L34.290016015625,17.2070153515625Q34.278546015625,17.1857153515625,34.218096015625,17.1252643515625Q34.176476015625,17.0836453515625,34.089636015625,17.0230663515625Q33.774866015625,16.8218113515625,33.155446015625,16.7037403515625Z" fill-rule="evenodd" fill="#000000" fill-opacity="1"/></g></g></g></g></svg>