<svg xmlns="http://www.w3.org/2000/svg" xmlns:xlink="http://www.w3.org/1999/xlink" fill="none" version="1.1" width="80" height="80" viewBox="0 0 80 80"><defs><filter id="master_svg0_914_4019" filterUnits="objectBoundingBox" color-interpolation-filters="sRGB" x="0" y="0" width="80" height="80"><feFlood flood-opacity="0" result="BackgroundImageFix"/><feBlend mode="normal" in="SourceGraphic" in2="BackgroundImageFix" result="shape"/><feColorMatrix in="SourceAlpha" type="matrix" result="hardAlpha" values="0 0 0 0 0 0 0 0 0 0 0 0 0 0 0 0 0 0 127 0"/><feOffset dy="0" dx="0"/><feGaussianBlur stdDeviation="5"/><feComposite in2="hardAlpha" operator="arithmetic" k2="-1" k3="1"/><feColorMatrix type="matrix" values="0 0 0 0 1 0 0 0 0 1 0 0 0 0 1 0 0 0 0.019999999552965164 0"/><feBlend mode="normal" in2="shape" result="effect1_innerShadow"/></filter><filter id="master_svg1_914_4025" filterUnits="objectBoundingBox" color-interpolation-filters="sRGB" x="0" y="0" width="80" height="80"><feFlood flood-opacity="0" result="BackgroundImageFix"/><feBlend mode="normal" in="SourceGraphic" in2="BackgroundImageFix" result="shape"/><feColorMatrix in="SourceAlpha" type="matrix" result="hardAlpha" values="0 0 0 0 0 0 0 0 0 0 0 0 0 0 0 0 0 0 127 0"/><feOffset dy="0" dx="0"/><feGaussianBlur stdDeviation="5"/><feComposite in2="hardAlpha" operator="arithmetic" k2="-1" k3="1"/><feColorMatrix type="matrix" values="0 0 0 0 0 0 0 0 0 0 0 0 0 0 0 0 0 0 0.019999999552965164 0"/><feBlend mode="normal" in2="shape" result="effect1_innerShadow"/></filter><clipPath id="master_svg2_914_4054"><rect x="16" y="16" width="48" height="48" rx="0"/></clipPath></defs><g><g filter="url(#master_svg0_914_4019)"><ellipse cx="40" cy="40" rx="40" ry="40" fill="#FFFFFF" fill-opacity="0.23999999463558197"/></g><g><g filter="url(#master_svg1_914_4025)"></g><g clip-path="url(#master_svg2_914_4054)"><g><path d="M39.548459375,61.80993587646484C37.935159375,61.80993587646484,36.625649375,60.48243587646484,36.625649375,58.847035876464844C36.625649375,57.21163587646485,37.935159375,55.884135876464846,39.548459375,55.884135876464846C41.161859375,55.884135876464846,42.471359375,57.21163587646485,42.471359375,58.847035876464844C42.471359375,60.48243587646484,41.161859375,61.80993587646484,39.548459375,61.80993587646484ZM52.103459375,31.621835876464843C51.934759375,34.79153587646484,50.976759375,37.29023587646485,46.186159375,42.15093587646484C43.757159375,44.61543587646484,42.225459375,46.46383587646484,42.070359375,48.086335876464844C41.948859375,49.35963587646484,40.889559375,50.31123587646485,39.654859375,50.31123587646485C39.573859375,50.31123587646485,39.492859375,50.304435876464844,39.411959375,50.29753587646485C38.075959375,50.16743587646484,37.104339375,48.95573587646484,37.232559375,47.60023587646484C37.563149375,44.18413587646484,40.032659375,41.42523587646484,42.751759375,38.66633587646484C47.103759374999996,34.25063587646484,47.177959375,32.84723587646484,47.252259375,31.36173587646484C47.339959375,29.629635876464846,46.712459375,27.952435876464843,45.470959375,26.631175876464845C44.060759375,25.125065876464845,42.063559375,24.262455876464845,39.992159375,24.262455876464845L39.978659375,24.262455876464845C35.991039375,24.269295876464845,32.738879374999996,27.56904587646484,32.738879374999996,31.621835876464843C32.738879374999996,32.984235876464844,31.652579375000002,34.08643587646485,30.309869374999998,34.08643587646485C28.967159375,34.08643587646485,27.880859375,32.984235876464844,27.880859375,31.621835876464843C27.880859375,28.342625876464844,29.135829375,25.261985876464845,31.416419375,22.941195876464842C33.696999375,20.620415876464843,36.733249375,19.340249716464843,39.965259375,19.333360503164844C43.372559375,19.326519436464842,46.665159375,20.750485876464843,48.993059375,23.235565876464843C51.165659375000004,25.542665876464845,52.265459375,28.520585876464843,52.103459375,31.621835876464843Z" fill="#FFFFFF" fill-opacity="1"/><path d="M52.116159374999995,36.905735876464846Q53.348559375,34.570535876464845,53.501559375,31.696235876464844L53.501559375,31.694835876464843Q53.784259375000005,26.281295876464846,50.014759375,22.278465876464843Q45.933359374999995,17.921375876464843,39.962259375,17.933365876464844Q34.362949375,17.945295876464844,30.417859375,21.959935876464844Q26.480859375,25.966335876464843,26.480859375,31.621835876464843Q26.480859375,33.217535876464844,27.594736375,34.347735876464846Q28.716973375,35.48643587646484,30.309869374999998,35.48643587646484Q31.902759375,35.48643587646484,33.024999375,34.347735876464846Q34.138879375,33.217535876464844,34.138879375,31.621835876464843Q34.138879375,29.156725876464844,35.861159375,27.407015876464843Q37.574289375,25.666585876464843,39.978659375,25.662455876464843L39.992159375,25.662455876464843Q42.646059375,25.662455876464843,44.450659375,27.589845876464842Q45.960059375,29.196225876464844,45.853959375,31.291835876464845Q45.796259375000005,32.44653587646484,45.366759375,33.26413587646484Q44.517959375000004,34.879835876464846,41.754659375,37.683535876464845Q36.244669375,43.27413587646484,35.838779375,47.468435876464845Q35.688839375,49.053435876464846,36.683229374999996,50.28703587646484Q37.690459375,51.536535876464846,39.294059375,51.692535876464845Q39.514659375,51.71123587646484,39.654859375,51.71123587646484Q41.128959375,51.71123587646484,42.224659375,50.70953587646484Q43.322159375,49.706235876464845,43.463959375,48.21963587646484Q43.602959375,46.766135876464844,47.183259375,43.133635876464844Q50.726859375000004,39.53823587646484,52.116159374999995,36.905735876464846ZM46.186159375,42.15093587646484C50.976759375,37.29023587646485,51.934759375,34.79153587646484,52.103459375,31.621835876464843C52.265459375,28.520585876464843,51.165659375000004,25.542665876464845,48.993059375,23.235565876464843C46.665159375,20.750485876464843,43.372559375,19.326519436464842,39.965259375,19.333360503164844C36.733249375,19.340249716464843,33.696999375,20.620415876464843,31.416419375,22.941195876464842C29.135829375,25.261985876464845,27.880859375,28.342625876464844,27.880859375,31.621835876464843C27.880859375,32.984235876464844,28.967159375,34.08643587646485,30.309869374999998,34.08643587646485C31.652579375000002,34.08643587646485,32.738879374999996,32.984235876464844,32.738879374999996,31.621835876464843C32.738879374999996,27.56904587646484,35.991039375,24.269295876464845,39.978659375,24.262455876464845L39.992159375,24.262455876464845C42.063559375,24.262455876464845,44.060759375,25.125065876464845,45.470959375,26.631175876464845C46.712459375,27.952435876464843,47.339959375,29.629635876464846,47.252259375,31.36173587646484C47.177959375,32.84723587646484,47.103759374999996,34.25063587646484,42.751759375,38.66633587646484C40.032659375,41.42523587646484,37.563149375,44.18413587646484,37.232559375,47.60023587646484C37.104339375,48.95573587646484,38.075959375,50.16743587646484,39.411959375,50.29753587646485C39.492859375,50.304435876464844,39.573859375,50.31123587646485,39.654859375,50.31123587646485C40.889559375,50.31123587646485,41.948859375,49.35963587646484,42.070359375,48.086335876464844C42.225459375,46.46383587646484,43.757159375,44.61543587646484,46.186159375,42.15093587646484ZM36.485419375,61.92493587646484Q37.753029375,63.20993587646485,39.548459375,63.20993587646485Q41.343959375,63.20993587646485,42.611559375,61.92493587646484Q43.871359375,60.64793587646484,43.871359375,58.847035876464844Q43.871359375,57.046135876464845,42.611559375,55.76903587646484Q41.343959375,54.48413587646484,39.548459375,54.48413587646484Q37.753029375,54.48413587646484,36.485419375,55.76903587646484Q35.225649375,57.046135876464845,35.225649375,58.847035876464844Q35.225649375,60.64793587646484,36.485419375,61.92493587646484ZM36.625649375,58.847035876464844C36.625649375,60.48243587646484,37.935159375,61.80993587646484,39.548459375,61.80993587646484C41.161859375,61.80993587646484,42.471359375,60.48243587646484,42.471359375,58.847035876464844C42.471359375,57.21163587646485,41.161859375,55.884135876464846,39.548459375,55.884135876464846C37.935159375,55.884135876464846,36.625649375,57.21163587646485,36.625649375,58.847035876464844Z" fill-rule="evenodd" fill="#FFFFFF" fill-opacity="1"/></g></g></g></g></svg>