<svg xmlns="http://www.w3.org/2000/svg" xmlns:xlink="http://www.w3.org/1999/xlink" fill="none" version="1.1" width="144" height="144" viewBox="0 0 144 144"><defs><filter id="master_svg0_1068_5432" filterUnits="objectBoundingBox" color-interpolation-filters="sRGB" x="0" y="0" width="1" height="1"><feFlood flood-opacity="0" result="BackgroundImageFix"/><feBlend mode="normal" in="SourceGraphic" in2="BackgroundImageFix" result="shape"/><feColorMatrix in="SourceAlpha" type="matrix" result="hardAlpha" values="0 0 0 0 0 0 0 0 0 0 0 0 0 0 0 0 0 0 127 0"/><feOffset dy="0" dx="0"/><feGaussianBlur stdDeviation="5"/><feComposite in2="hardAlpha" operator="arithmetic" k2="-1" k3="1"/><feColorMatrix type="matrix" values="0 0 0 0 0 0 0 0 0 0 0 0 0 0 0 0 0 0 0.019999999552965164 0"/><feBlend mode="normal" in2="shape" result="effect1_innerShadow"/></filter></defs><g><g filter="url(#master_svg0_1068_5432)"><ellipse cx="72" cy="72" rx="72" ry="72" fill="#000000" fill-opacity="0.05000000074505806"/></g><g style="opacity:0.6000000238418579;"><g><path d="M47.728488273925784,96.1652Q47.75497827392578,96.1918,47.78153827392578,96.2183Q52.52181827392578,100.9587,58.66821827392578,103.5583Q65.03211827392579,106.25,71.99991827392577,106.25Q78.96771827392578,106.25,85.33161827392578,103.5583Q91.47801827392578,100.9587,96.21831827392577,96.2183Q100.95861827392578,91.47800000000001,103.55831827392578,85.33160000000001Q106.24991827392579,78.9678,106.24991827392579,72Q106.24991827392579,65.0321,103.55831827392578,58.6683Q100.95861827392578,52.5219,96.21831827392577,47.7816Q91.47801827392578,43.04136,85.33161827392578,40.44163Q78.96791827392579,37.75,71.99991827392577,37.75Q65.03191827392578,37.75,58.66821827392578,40.44164Q52.521718273925785,43.04137,47.78153827392578,47.7816Q43.04130827392578,52.5218,40.441578273925785,58.6683Q38.905254273925785,62.3006,38.24582984492578,66.1297L45.44007827392578,67.3809Q45.95890827392578,64.3678,47.16770827392578,61.5099Q49.21331827392578,56.6736,52.94341827392578,52.9435Q56.67351827392578,49.2134,61.50981827392578,47.16776Q66.51681827392578,45.05001,71.99991827392577,45.05Q77.48321827392579,45.05,82.49001827392578,47.16776Q87.32631827392578,49.2134,91.05651827392578,52.9435Q94.78651827392578,56.673500000000004,96.83221827392578,61.5099Q98.95001827392578,66.51689999999999,98.94991827392579,72Q98.94991827392579,77.4832,96.83221827392578,82.4901Q94.78661827392578,87.3264,91.05651827392578,91.0566Q87.32631827392578,94.7867,82.49001827392578,96.8323Q77.48311827392578,98.95,71.99991827392577,98.95Q66.51691827392578,98.95,61.50981827392578,96.8323Q56.67351827392578,94.78659999999999,52.94341827392578,91.0566Q52.93291827392578,91.0461,52.92251827392578,91.03569999999999C51.77991827392578,89.8906,49.96481827392578,89.7002,48.703618273925784,90.7133L48.14536827392578,91.1617C46.57137827392578,92.426,46.30389827392578,94.7346,47.728488273925784,96.1652" fill-rule="evenodd" fill="#000000" fill-opacity="1"/><path d="M47.55152827392578,96.3418L47.60457827392578,96.3949Q52.37941827392578,101.16980000000001,58.57081827392578,103.7886Q64.98141827392578,106.5,71.99991827392577,106.5Q79.01841827392579,106.5,85.42901827392578,103.7886Q91.62051827392578,101.1699,96.39511827392579,96.3951Q101.16971827392578,91.6203,103.78851827392577,85.429Q106.50001827392578,79.0185,106.49991827392579,72Q106.50001827392578,64.98140000000001,103.78851827392577,58.5709Q101.16991827392579,52.3795,96.39511827392579,47.60481Q91.62031827392579,42.83012,85.42901827392578,40.21138Q79.01861827392578,37.5,71.99991827392577,37.5Q64.98131827392578,37.5,58.57081827392578,40.21139Q52.37941827392578,42.8301,47.60475827392578,47.60481Q42.83004827392578,52.3795,40.21132827392578,58.5709Q38.663770273925785,62.2297,37.99945627392578,66.0873L37.95709827392578,66.33330000000001L45.64395827392578,67.6701L45.68645827392578,67.4233Q46.200398273925785,64.43860000000001,47.39795827392578,61.607299999999995Q49.42461827392578,56.815799999999996,53.12021827392578,53.1202Q56.815818273925785,49.4246,61.60721827392578,47.39801Q66.56751827392578,45.30001,71.99991827392577,45.3Q77.43251827392578,45.3,82.39271827392578,47.39801Q87.18401827392577,49.4246,90.87971827392579,53.1202Q94.57531827392577,56.8159,96.60191827392578,61.607299999999995Q98.69991827392579,66.5676,98.69991827392579,72Q98.69991827392579,77.4325,96.60191827392578,82.39269999999999Q94.57541827392578,87.1841,90.87971827392579,90.8798Q87.18411827392578,94.5754,82.39271827392578,96.602Q77.43231827392577,98.7,71.99991827392577,98.7Q66.56761827392577,98.7,61.60721827392578,96.602Q56.815818273925785,94.5754,53.12021827392578,90.8798L53.09941827392578,90.85900000000001Q52.16801827392578,89.9256,50.878718273925784,89.8161Q49.56081827392578,89.7041,48.54701827392578,90.5184L47.988808273925784,90.9668Q46.71192827392578,91.9924,46.56354827392578,93.5778Q46.41196827392578,95.1974,47.55133827392578,96.3416L47.728488273925784,96.1652L47.55152827392578,96.3418ZM47.78153827392578,96.2183Q47.75497827392578,96.1918,47.728488273925784,96.1652C46.30389827392578,94.7346,46.57137827392578,92.426,48.14536827392578,91.1617L48.703618273925784,90.7133C49.96481827392578,89.7002,51.77991827392578,89.8906,52.92251827392578,91.03569999999999Q52.93291827392578,91.0461,52.94341827392578,91.0566Q56.67351827392578,94.78659999999999,61.50981827392578,96.8323Q66.51691827392578,98.95,71.99991827392577,98.95Q77.48311827392578,98.95,82.49001827392578,96.8323Q87.32631827392578,94.7867,91.05651827392578,91.0566Q94.78661827392578,87.3264,96.83221827392578,82.4901Q98.94991827392579,77.4832,98.94991827392579,72Q98.95001827392578,66.51689999999999,96.83221827392578,61.5099Q94.78651827392578,56.673500000000004,91.05651827392578,52.9435Q87.32631827392578,49.2134,82.49001827392578,47.16776Q77.48321827392579,45.05,71.99991827392577,45.05Q66.51681827392578,45.05001,61.50981827392578,47.16776Q56.67351827392578,49.2134,52.94341827392578,52.9435Q49.21331827392578,56.6736,47.16770827392578,61.5099Q45.97645827392578,64.3263,45.45528827392578,67.29339999999999L45.455278273925785,67.2935Q45.447618273925784,67.33709999999999,45.44007827392578,67.3809L45.19377827392578,67.3381L38.24735428392578,66.13L38.246952433925784,66.12989999999999L38.24582984492578,66.1297L38.26491237392578,66.02L38.26491677392578,66.02Q38.27691177392578,65.9517,38.289173373925784,65.8835Q38.95468727392578,62.1837,40.441578273925785,58.6683Q43.04130827392578,52.5218,47.78153827392578,47.7816Q52.521718273925785,43.04137,58.66821827392578,40.44164Q65.03191827392578,37.75,71.99991827392577,37.75Q78.96791827392579,37.75,85.33161827392578,40.44163Q91.47801827392578,43.04136,96.21831827392577,47.7816Q100.95861827392578,52.5219,103.55831827392578,58.6683Q106.24991827392579,65.0321,106.24991827392579,72Q106.24991827392579,78.9678,103.55831827392578,85.33160000000001Q100.95861827392578,91.47800000000001,96.21831827392577,96.2183Q91.47801827392578,100.9587,85.33161827392578,103.5583Q78.96771827392578,106.25,71.99991827392577,106.25Q65.03211827392579,106.25,58.66821827392578,103.5583Q52.52181827392578,100.9587,47.78153827392578,96.2183Z" fill-rule="evenodd" fill="#000000" fill-opacity="1"/></g><g><path d="M68.60000610351562,71.9999984741211C68.60000610351562,72.90169847412109,68.95823110351563,73.7665984741211,69.59582910351563,74.4040984741211L79.79590610351562,84.60409847412109C81.12360610351563,85.9317984741211,83.27640610351563,85.9317984741211,84.60410610351562,84.60409847412109C85.93180610351563,83.2763984741211,85.93180610351563,81.1235984741211,84.60410610351562,79.79589847412109L75.40000610351562,70.5916984741211L75.40000610351562,54.99999847412109C75.40000610351562,53.12224847412109,73.87782610351563,51.599998474121094,72.00000610351563,51.599998474121094C70.12221610351563,51.599998474121094,68.60000610351562,53.12224847412109,68.60000610351562,54.99999847412109L68.60000610351562,71.9999984741211Z" fill="#000000" fill-opacity="1"/><path d="M68.35000610351562,54.99999847412109L68.35000610351562,71.9999984741211Q68.35000610351562,73.5119984741211,69.41906610351562,74.58089847412108L79.61910610351562,84.7808984741211Q80.68810610351562,85.84989847412109,82.20000610351562,85.84989847412109Q83.71190610351563,85.84989847412109,84.78090610351563,84.7808984741211Q85.84990610351562,83.71189847412109,85.84990610351562,82.19999847412109Q85.84990610351562,80.68809847412109,84.78090610351563,79.6190984741211L75.65000610351562,70.4880984741211L75.65000610351562,54.99999847412109Q75.65000610351562,53.488118474121094,74.58096610351562,52.419066474121095Q73.51191610351563,51.349998474121094,72.00000610351563,51.349998474121094Q70.48811610351562,51.349998474121094,69.41905810351562,52.41906547412109Q68.35000610351562,53.48812847412109,68.35000610351562,54.99999847412109ZM75.40000610351562,54.99999847412109L75.40000610351562,70.5916984741211L84.60410610351562,79.79589847412109C85.93180610351563,81.1235984741211,85.93180610351563,83.2763984741211,84.60410610351562,84.60409847412109C83.27640610351563,85.9317984741211,81.12360610351563,85.9317984741211,79.79590610351562,84.60409847412109L69.59582910351563,74.4040984741211C68.95823110351563,73.7665984741211,68.60000610351562,72.90169847412109,68.60000610351562,71.9999984741211L68.60000610351562,54.99999847412109C68.60000610351562,53.12224847412109,70.12221610351563,51.599998474121094,72.00000610351563,51.599998474121094C73.87782610351563,51.599998474121094,75.40000610351562,53.12224847412109,75.40000610351562,54.99999847412109Z" fill-rule="evenodd" fill="#000000" fill-opacity="1"/></g><g transform="matrix(-1,1.3207301208240096e-7,-1.3207301208240096e-7,-1,116.00001096206,165.9999923397653)"><path d="M84.4113,97.0217Q84.4541,97.0768,84.493,97.1347Q84.53190000000001,97.1927,84.5667,97.2531Q84.6015,97.3136,84.632,97.3764Q84.6625,97.4392,84.6885,97.5039Q84.7145,97.5687,84.736,97.6351Q84.7574,97.7015,84.77420000000001,97.7692Q84.791,97.8369,84.803,97.9057Q84.815,97.9744,84.8222,98.0438Q84.82939999999999,98.1132,84.8317,98.18299999999999Q84.8341,98.2527,84.8315,98.3225Q84.82900000000001,98.3922,84.8216,98.4616Q84.8143,98.531,84.80199999999999,98.5997Q84.7898,98.6684,84.77289999999999,98.7361Q84.7559,98.8038,84.7343,98.87010000000001Q84.7127,98.9365,84.6865,99.00110000000001Q84.6602,99.0658,84.6296,99.1285Q84.5989,99.1912,84.564,99.2516Q84.5291,99.312,84.49,99.3698Q84.4509,99.4276,84.4079,99.4826Q84.3649,99.5375,84.3182,99.58930000000001Q84.2714,99.6412,84.2212,99.6896Q84.17099999999999,99.738,84.1175,99.7829Q84.064,99.8277,84.0075,99.8687Q83.9511,99.9097,83.89189999999999,99.9466Q83.8327,99.9836,83.7711,100.0163Q83.7094,100.049,83.6457,100.0774Q83.5819,100.1057,83.5163,100.1296Q83.4507,100.1534,83.3837,100.17269999999999Q83.3166,100.1919,83.2483,100.2064Q83.1801,100.2209,83.111,100.2306Q83.0419,100.2403,82.9722,100.24510000000001Q82.9026,100.25,82.8329,100.25L64.16714,100.25Q64.09736,100.25,64.02775,100.24510000000001Q63.95814,100.2403,63.88904,100.2306Q63.81993,100.2209,63.75168,100.2064Q63.68342,100.1919,63.61633,100.17269999999999Q63.54925,100.1534,63.483670000000004,100.1296Q63.41809,100.1057,63.35434,100.0774Q63.29058,100.049,63.22895,100.0163Q63.167320000000004,99.9836,63.10813,99.9466Q63.04893,99.9097,62.99246,99.8687Q62.93598,99.8277,62.8825,99.7829Q62.82902,99.738,62.77879,99.6896Q62.72856,99.6412,62.68183,99.58930000000001Q62.6351,99.5375,62.59209,99.4826Q62.54909,99.4276,62.51002,99.3698Q62.47095,99.312,62.436,99.2516Q62.40106,99.1912,62.37041,99.1285Q62.33976,99.0658,62.31355,99.00110000000001Q62.28734,98.9365,62.26571,98.87010000000001Q62.24407,98.8038,62.227109999999996,98.7361Q62.21015,98.6684,62.19795,98.5997Q62.18575,98.531,62.17837,98.4616Q62.17099,98.3922,62.168459999999996,98.3225Q62.16593,98.2527,62.16827,98.18299999999999Q62.170609999999996,98.1132,62.1778,98.0438Q62.18499,97.9744,62.19701,97.9057Q62.20902,97.8369,62.22579,97.7692Q62.24257,97.7015,62.26402,97.6351Q62.28548,97.5687,62.31151,97.5039Q62.33754,97.4392,62.36802,97.3764Q62.3985,97.3136,62.433279999999996,97.25319999999999Q62.46806,97.1927,62.50697,97.1347Q62.54588,97.0768,62.58874,97.0217L71.9216,85.02836Q71.9915,84.93854,72.0711,84.85723Q72.1508,84.77592,72.23910000000001,84.70417Q72.3274,84.63241,72.4234,84.57115Q72.5193,84.50988,72.6215,84.45989Q72.7238,84.4099,72.831,84.37183Q72.9383,84.33376,73.0492,84.30811Q73.16,84.28245,73.2731,84.26954Q73.3862,84.25663,73.5,84.25663Q73.6138,84.25663,73.7269,84.26954Q73.84,84.28245,73.9508,84.30811Q74.0617,84.33376,74.169,84.37183Q74.2762,84.4099,74.3785,84.45989Q74.4807,84.50988,74.5766,84.57115Q74.6726,84.63241,74.76089999999999,84.70417Q74.8492,84.77592,74.9289,84.85723Q75.0085,84.93854,75.0784,85.02836L84.4113,97.0217Z" fill="#000000" fill-opacity="1"/></g></g></g></svg>