<svg xmlns="http://www.w3.org/2000/svg" xmlns:xlink="http://www.w3.org/1999/xlink" fill="none" version="1.1" width="24" height="24" viewBox="0 0 24 24"><g><g><g><path d="M2.416748046875,12.000078046875C2.416748046875,6.707348046875,6.707348046875,2.416748046875,12.000078046875,2.416748046875C17.292748046874998,2.416748046875,21.583448046875,6.707348046875,21.583448046875,12.000078046875C21.583448046875,17.292748046874998,17.292748046874998,21.583448046875,12.000078046875,21.583448046875C6.707348046875,21.583448046875,2.416748046875,17.292748046874998,2.416748046875,12.000078046875ZM12.000078046875,4.333418046875C7.765898046875,4.333418046875,4.333418046875,7.765898046875,4.333418046875,12.000078046875C4.333418046875,16.234248046875003,7.765898046875,19.666748046875,12.000078046875,19.666748046875C16.234248046875003,19.666748046875,19.666748046875,16.234248046875003,19.666748046875,12.000078046875C19.666748046875,7.765898046875,16.234248046875003,4.333418046875,12.000078046875,4.333418046875ZM12.000078046875,6.250078046875C12.529348046875,6.250078046875,12.958448046875,6.679148046875,12.958448046875,7.208418046875L12.958448046875,11.603128046875L15.552748046875,14.197448046875C15.926948046875,14.571648046875,15.926948046875,15.178448046875,15.552748046875,15.552748046875C15.178448046875,15.926948046875,14.571648046875,15.926948046875,14.197448046875,15.552748046875L11.322438046875,12.677748046875C11.142718046875,12.498048046875,11.041748046875,12.254228046875,11.041748046875,12.000078046875L11.041748046875,7.208418046875C11.041748046875,6.679148046875,11.470808046875,6.250078046875,12.000078046875,6.250078046875Z" fill-rule="evenodd" fill="#000000" fill-opacity="0.8999999761581421"/><path d="M2.166748046875,12.000078046875Q2.166748046875,14.000448046875,2.939602046875,15.827748046875Q3.686008046875,17.592448046875,5.046868046875,18.953248046875Q6.407708046874999,20.314148046875,8.172428046875,21.060548046875Q9.999648046875,21.833448046875,12.000078046875,21.833448046875Q14.000548046875,21.833448046875,15.827748046875,21.060548046875Q17.592448046875,20.314148046875,18.953248046875,18.953248046875Q20.314148046875,17.592448046875,21.060548046875,15.827748046875Q21.833448046875,14.000448046875,21.833448046875,12.000078046875Q21.833448046875,9.999648046875,21.060548046875,8.172428046875Q20.314148046875,6.407708046874999,18.953248046875,5.046868046875Q17.592448046875,3.686008046875,15.827748046875,2.939602046875Q14.000448046875,2.166748046875,12.000078046875,2.166748046875Q9.999658046875,2.166748046875,8.172428046875,2.939602046875Q6.407718046875,3.686008046875,5.046868046875,5.046868046875Q3.686008046875,6.407718046875,2.939602046875,8.172428046875Q2.166748046875,9.999668046875,2.166748046875,12.000078046875ZM12.000078046875,2.416748046875C6.707348046875,2.416748046875,2.416748046875,6.707348046875,2.416748046875,12.000078046875C2.416748046875,17.292748046874998,6.707348046875,21.583448046875,12.000078046875,21.583448046875C17.292748046874998,21.583448046875,21.583448046875,17.292748046874998,21.583448046875,12.000078046875C21.583448046875,6.707348046875,17.292748046874998,2.416748046875,12.000078046875,2.416748046875ZM4.333418046875,12.000078046875C4.333418046875,7.765898046875,7.765898046875,4.333418046875,12.000078046875,4.333418046875C16.234248046875003,4.333418046875,19.666748046875,7.765898046875,19.666748046875,12.000078046875C19.666748046875,16.234248046875003,16.234248046875003,19.666748046875,12.000078046875,19.666748046875C7.765898046875,19.666748046875,4.333418046875,16.234248046875003,4.333418046875,12.000078046875ZM6.755708046875,6.755708046875Q8.927998046875,4.583418046875,12.000078046875,4.583418046875Q15.072148046875,4.583418046875,17.244448046875,6.755708046875Q19.416748046875,8.927988046875,19.416748046875,12.000078046875Q19.416748046875,15.072148046875,17.244448046875,17.244448046875Q15.072148046875,19.416748046875,12.000078046875,19.416748046875Q8.927988046875,19.416748046875,6.755708046875,17.244448046875Q4.583418046875,15.072148046875,4.583418046875,12.000078046875Q4.583418046875,8.927998046875,6.755708046875,6.755708046875ZM10.791748046875,7.208418046875L10.791748046875,12.000078046875Q10.791748046875,12.500648046875,11.145658046875,12.854448046875L14.020648046875,15.729448046875Q14.374548046875,16.083348046875003,14.875048046875,16.083348046875003Q15.375648046875,16.083348046875003,15.729448046875,15.729448046875Q16.083348046875003,15.375648046875,16.083348046875003,14.875048046875Q16.083348046875003,14.374548046875,15.729448046875,14.020648046875L13.208448046875,11.499578046875L13.208448046875,7.208418046875Q13.208448046875,6.707908046875,12.854548046875,6.353998046875001Q12.500648046875,6.000078046875,12.000078046875,6.000078046875Q11.499568046875,6.000078046875,11.145658046875,6.353998046875001Q10.791748046875,6.707908046875,10.791748046875,7.208418046875ZM12.958448046875,7.208418046875L12.958448046875,11.603128046875L15.552748046875,14.197448046875C15.926948046875,14.571648046875,15.926948046875,15.178448046875,15.552748046875,15.552748046875C15.178448046875,15.926948046875,14.571648046875,15.926948046875,14.197448046875,15.552748046875L11.322438046875,12.677748046875C11.142718046875,12.498048046875,11.041748046875,12.254228046875,11.041748046875,12.000078046875L11.041748046875,7.208418046875C11.041748046875,6.679148046875,11.470808046875,6.250078046875,12.000078046875,6.250078046875C12.529348046875,6.250078046875,12.958448046875,6.679148046875,12.958448046875,7.208418046875Z" fill-rule="evenodd" fill="#000000" fill-opacity="0.8999999761581421"/></g></g></g></svg>