<svg xmlns="http://www.w3.org/2000/svg" xmlns:xlink="http://www.w3.org/1999/xlink" fill="none" version="1.1" width="40" height="40" viewBox="0 0 40 40"><defs><filter id="master_svg0_42_1309" filterUnits="objectBoundingBox" color-interpolation-filters="sRGB" x="0" y="0" width="30.000001907348633" height="31.250001907348633"><feFlood flood-opacity="0" result="BackgroundImageFix"/><feBlend mode="normal" in="SourceGraphic" in2="BackgroundImageFix" result="shape"/><feColorMatrix in="SourceAlpha" type="matrix" result="hardAlpha" values="0 0 0 0 0 0 0 0 0 0 0 0 0 0 0 0 0 0 127 0"/><feOffset dy="0" dx="0"/><feGaussianBlur stdDeviation="5"/><feComposite in2="hardAlpha" operator="arithmetic" k2="-1" k3="1"/><feColorMatrix type="matrix" values="0 0 0 0 0 0 0 0 0 0 0 0 0 0 0 0 0 0 0.019999999552965164 0"/><feBlend mode="normal" in2="shape" result="effect1_innerShadow"/></filter></defs><g><g filter="url(#master_svg0_42_1309)"><path d="M18,4.416666C19.185200000000002,3.527778,20.814799999999998,3.527778,22,4.416666C22,4.416666,33.6667,13.16667,33.6667,13.16667C34.506,13.7962,35,14.7841,35,15.8333C35,15.8333,35,31.6667,35,31.6667C35,33.5077,33.5077,35,31.6667,35C31.6667,35,8.33333,35,8.33333,35C6.49238,35,5,33.5077,5,31.6667C5,31.6667,5,15.8333,5,15.8333C5,14.7841,5.49398,13.7962,6.33333,13.16667C6.33333,13.16667,18,4.416666,18,4.416666C18,4.416666,18,4.416666,18,4.416666ZM20,7.08333C20,7.08333,8.33333,15.8333,8.33333,15.8333C8.33333,15.8333,8.33333,31.6667,8.33333,31.6667C8.33333,31.6667,31.6667,31.6667,31.6667,31.6667C31.6667,31.6667,31.6667,15.8333,31.6667,15.8333C31.6667,15.8333,20,7.08333,20,7.08333C20,7.08333,20,7.08333,20,7.08333Z" fill-rule="evenodd" fill="#000000" fill-opacity="0.8999999761581421"/><path d="M4.5,15.8333L4.5,31.6667Q4.5,33.2545,5.622759,34.377300000000005Q6.7455099999999995,35.5,8.33333,35.5L31.6667,35.5Q33.2545,35.5,34.377300000000005,34.377300000000005Q35.5,33.2545,35.5,31.6667L35.5,15.8333Q35.5,13.9167,33.9667,12.76667L22.3,4.016666Q21.2778,3.25,20,3.25Q18.7222,3.25,17.7,4.016666L6.03333,12.76667Q4.5,13.9167,4.5,15.8333ZM33.6667,13.16667L22,4.416666C20.814799999999998,3.527778,19.185200000000002,3.527778,18,4.416666L6.33333,13.16667C5.49398,13.7962,5,14.7841,5,15.8333L5,31.6667C5,33.5077,6.49238,35,8.33333,35L31.6667,35C33.5077,35,35,33.5077,35,31.6667L35,15.8333C35,14.7841,34.506,13.7962,33.6667,13.16667ZM20,7.08333L31.6667,15.8333L31.6667,31.6667L8.33333,31.6667L8.33333,15.8333L20,7.08333ZM20,7.70833L31.1667,16.0833L31.1667,31.1667L8.83333,31.1667L8.83333,16.0833L20,7.70833Z" fill-rule="evenodd" fill="#000000" fill-opacity="0.8999999761581421"/></g></g></svg>