<svg xmlns="http://www.w3.org/2000/svg" xmlns:xlink="http://www.w3.org/1999/xlink" fill="none" version="1.1" width="80" height="80" viewBox="0 0 80 80"><defs><filter id="master_svg0_1045_5128" filterUnits="objectBoundingBox" color-interpolation-filters="sRGB" x="0" y="0" width="1" height="1"><feFlood flood-opacity="0" result="BackgroundImageFix"/><feBlend mode="normal" in="SourceGraphic" in2="BackgroundImageFix" result="shape"/><feColorMatrix in="SourceAlpha" type="matrix" result="hardAlpha" values="0 0 0 0 0 0 0 0 0 0 0 0 0 0 0 0 0 0 127 0"/><feOffset dy="0" dx="0"/><feGaussianBlur stdDeviation="5"/><feComposite in2="hardAlpha" operator="arithmetic" k2="-1" k3="1"/><feColorMatrix type="matrix" values="0 0 0 0 1 0 0 0 0 1 0 0 0 0 1 0 0 0 0.019999999552965164 0"/><feBlend mode="normal" in2="shape" result="effect1_innerShadow"/></filter><filter id="master_svg1_1045_5133" filterUnits="objectBoundingBox" color-interpolation-filters="sRGB" x="0" y="0" width="1" height="1"><feFlood flood-opacity="0" result="BackgroundImageFix"/><feBlend mode="normal" in="SourceGraphic" in2="BackgroundImageFix" result="shape"/><feColorMatrix in="SourceAlpha" type="matrix" result="hardAlpha" values="0 0 0 0 0 0 0 0 0 0 0 0 0 0 0 0 0 0 127 0"/><feOffset dy="0" dx="0"/><feGaussianBlur stdDeviation="5"/><feComposite in2="hardAlpha" operator="arithmetic" k2="-1" k3="1"/><feColorMatrix type="matrix" values="0 0 0 0 0 0 0 0 0 0 0 0 0 0 0 0 0 0 0.019999999552965164 0"/><feBlend mode="normal" in2="shape" result="effect1_innerShadow"/></filter><clipPath id="master_svg2_1045_5131"><rect x="16" y="16" width="48" height="48" rx="0"/></clipPath></defs><g><g filter="url(#master_svg0_1045_5128)"><ellipse cx="40" cy="40" rx="40" ry="40" fill="#FFFFFF" fill-opacity="0.23999999463558197"/></g><g><g filter="url(#master_svg1_1045_5133)"></g><g clip-path="url(#master_svg2_1045_5131)"><g><path d="M42.6124925,61.92492560058594Q41.4043325,63.14964560058594,39.7166425,63.20707560058594Q39.6336025,63.20989560058594,39.5494125,63.20989560058594Q39.4567225,63.20989560058594,39.3654325,63.20647560058594Q37.6885025,63.14355560058594,36.4863325,61.92492560058594Q35.2659441,60.68782560058594,35.22779226,58.95909560058594Q35.226716042,58.91027560058594,35.2265815735,58.861075600585934L35.2265625,58.84700560058594Q35.2265625,57.046115600585935,36.4863325,55.76908560058594Q37.7143125,54.524286400585936,39.4376725,54.48537147058594Q39.4932825,54.48411560058594,39.5494125,54.48411560058594Q41.3448925,54.48411560058594,42.6124925,55.76908560058594Q43.8722625,57.046115600585935,43.8722625,58.84700560058594Q43.8722625,58.94288560058594,43.8686925,59.03726560058594Q43.8052025,60.715885600585935,42.6124925,61.92492560058594ZM39.5911225,61.80960560058594C41.1861425,61.786985600585936,42.4722625,60.469245600585936,42.4722625,58.84700560058594C42.4722625,57.210645600585934,41.1636625,55.884115600585936,39.5494125,55.884115600585936C39.5349625,55.884115600585936,39.5205425,55.884225600585935,39.5061425,55.88443560058594C39.520022499999996,55.88423560058594,39.5339225,55.884135600585935,39.5478525,55.884135600585935C41.1621025,55.884135600585935,42.4707025,57.21067560058594,42.4707025,58.84703560058594C42.4707025,60.46874560058594,41.1854225,61.78614560058594,39.5911225,61.80960560058594Z" fill-rule="evenodd" fill="#FFFFFF" fill-opacity="1"/></g><g><path d="M39.55566875,17.799999952316284C36.66996875,17.799999952316284,34.38264075,20.234739952316286,34.56264575,23.114829952316285L36.02304875,46.481299952316284C36.13963875,48.346699952316285,37.68657875,49.799999952316284,39.55566875,49.799999952316284C41.42474875,49.799999952316284,42.97168875,48.346699952316285,43.08827875,46.481299952316284L44.54866875,23.114829952316285C44.72866875,20.234739952316286,42.44136875,17.799999952316284,39.55566875,17.799999952316284Z" fill="#FFFFFF" fill-opacity="1"/></g></g></g></g></svg>