<svg xmlns="http://www.w3.org/2000/svg" xmlns:xlink="http://www.w3.org/1999/xlink" fill="none" version="1.1" width="24.311767578125" height="24.000244140625" viewBox="0 0 24.311767578125 24.000244140625"><defs><filter id="master_svg0_456_4745" filterUnits="objectBoundingBox" color-interpolation-filters="sRGB" x="0" y="0" width="9.278176307678223" height="9.278175354003906"><feFlood flood-opacity="0" result="BackgroundImageFix"/><feBlend mode="normal" in="SourceGraphic" in2="BackgroundImageFix" result="shape"/><feColorMatrix in="SourceAlpha" type="matrix" result="hardAlpha" values="0 0 0 0 0 0 0 0 0 0 0 0 0 0 0 0 0 0 127 0"/><feOffset dy="0" dx="0"/><feGaussianBlur stdDeviation="5"/><feComposite in2="hardAlpha" operator="arithmetic" k2="-1" k3="1"/><feColorMatrix type="matrix" values="0 0 0 0 0 0 0 0 0 0 0 0 0 0 0 0 0 0 0.019999999552965164 0"/><feBlend mode="normal" in2="shape" result="effect1_innerShadow"/></filter></defs><g><g><g><path d="M11,2.416748046875C8.35364,2.416748046875,6.20833,4.562058046875,6.20833,7.208418046875C6.20833,9.854778046875001,8.35364,12.000078046875,11,12.000078046875C13.6463,12.000078046875,15.7917,9.854778046875001,15.7917,7.208418046875C15.7917,4.562058046875,13.6463,2.416748046875,11,2.416748046875C11,2.416748046875,11,2.416748046875,11,2.416748046875ZM8.125,7.208418046875C8.125,5.620598046875,9.412189999999999,4.333418046875,11,4.333418046875C12.5879,4.333418046875,13.875,5.620598046875,13.875,7.208418046875C13.875,8.796228046875001,12.5879,10.083418046875,11,10.083418046875C9.412189999999999,10.083418046875,8.125,8.796228046875001,8.125,7.208418046875C8.125,7.208418046875,8.125,7.208418046875,8.125,7.208418046875ZM7.16667,13.916748046875C4.52031,13.916748046875,2.375,16.062048046875,2.375,18.708448046875C2.375,18.708448046875,2.375,19.666748046875,2.375,19.666748046875C2.375,20.725348046875,3.23312,21.583448046875,4.29167,21.583448046875C4.29167,21.583448046875,17.7083,21.583448046875,17.7083,21.583448046875C18.7669,21.583448046875,19.625,20.725348046875,19.625,19.666748046875C19.625,19.666748046875,19.625,18.708448046875,19.625,18.708448046875C19.625,16.062048046875,17.4797,13.916748046875,14.8333,13.916748046875C14.8333,13.916748046875,7.16667,13.916748046875,7.16667,13.916748046875C7.16667,13.916748046875,7.16667,13.916748046875,7.16667,13.916748046875ZM4.29167,18.708448046875C4.29167,17.120548046875,5.57885,15.833448046875,7.16667,15.833448046875C7.16667,15.833448046875,14.8333,15.833448046875,14.8333,15.833448046875C16.4212,15.833448046875,17.7083,17.120548046875,17.7083,18.708448046875C17.7083,18.708448046875,17.7083,19.666748046875,17.7083,19.666748046875C17.7083,19.666748046875,4.29167,19.666748046875,4.29167,19.666748046875C4.29167,19.666748046875,4.29167,18.708448046875,4.29167,18.708448046875C4.29167,18.708448046875,4.29167,18.708448046875,4.29167,18.708448046875Z" fill-rule="evenodd" fill="#000000" fill-opacity="0.8999999761581421"/><path d="M5.96833,7.208418046875Q5.96833,9.292598046875,7.44208,10.766338046875Q8.91582,12.240078046875,11,12.240078046875Q13.0842,12.240078046875,14.5579,10.766338046875Q16.0317,9.292588046875,16.0317,7.208418046875Q16.0317,5.124238046875,14.5579,3.650488046875Q13.0842,2.176748046875,11,2.176748046875Q8.91582,2.176748046875,7.44208,3.650488046875Q5.96833,5.124228046875,5.96833,7.208418046875ZM6.20833,7.208418046875C6.20833,4.562058046875,8.35364,2.416748046875,11,2.416748046875C13.6463,2.416748046875,15.7917,4.562058046875,15.7917,7.208418046875C15.7917,9.854778046875001,13.6463,12.000078046875,11,12.000078046875C8.35364,12.000078046875,6.20833,9.854778046875001,6.20833,7.208418046875ZM11,4.333418046875C9.412189999999999,4.333418046875,8.125,5.620598046875,8.125,7.208418046875C8.125,8.796228046875001,9.412189999999999,10.083418046875,11,10.083418046875C12.5879,10.083418046875,13.875,8.796228046875001,13.875,7.208418046875C13.875,5.620598046875,12.5879,4.333418046875,11,4.333418046875ZM8.365,7.208418046875Q8.365,6.116968046875,9.13678,5.345188046875Q9.90855,4.573418046875,11,4.573418046875Q12.09148,4.573418046875,12.8632,5.345188046875Q13.635,6.116958046875,13.635,7.208418046875Q13.635,8.299878046875001,12.8632,9.071638046875Q12.09148,9.843418046875,11,9.843418046875Q9.90855,9.843418046875,9.13678,9.071638046875Q8.365,8.299868046875,8.365,7.208418046875ZM2.135,18.708448046875L2.135,19.666748046875Q2.135,20.560048046875,2.766674,21.191748046875Q3.39834,21.823448046875,4.29167,21.823448046875L17.7083,21.823448046875Q18.6017,21.823448046875,19.2333,21.191748046875Q19.865,20.560048046875,19.865,19.666748046875L19.865,18.708448046875Q19.865,16.624248046875,18.3913,15.150448046875Q16.9175,13.676748046875,14.8333,13.676748046875L7.16667,13.676748046875Q5.08249,13.676748046875,3.60874,15.150448046875Q2.135,16.624248046875,2.135,18.708448046875ZM2.375,18.708448046875C2.375,16.062048046875,4.52031,13.916748046875,7.16667,13.916748046875L14.8333,13.916748046875C17.4797,13.916748046875,19.625,16.062048046875,19.625,18.708448046875L19.625,19.666748046875C19.625,20.725348046875,18.7669,21.583448046875,17.7083,21.583448046875L4.29167,21.583448046875C3.23312,21.583448046875,2.375,20.725348046875,2.375,19.666748046875L2.375,18.708448046875ZM7.16667,15.833448046875C5.57885,15.833448046875,4.29167,17.120548046875,4.29167,18.708448046875L4.29167,19.666748046875L17.7083,19.666748046875L17.7083,18.708448046875C17.7083,17.120548046875,16.4212,15.833448046875,14.8333,15.833448046875L7.16667,15.833448046875ZM17.4683,19.426748046875L4.53167,19.426748046875L4.53167,18.708448046875Q4.53167,17.616948046875002,5.30344,16.845148046875Q6.07521,16.073448046875,7.16667,16.073448046875L14.8333,16.073448046875Q15.9248,16.073448046875,16.6966,16.845148046875Q17.4683,17.616948046875002,17.4683,18.708448046875L17.4683,19.426748046875Z" fill-rule="evenodd" fill="#000000" fill-opacity="1"/></g><g><path d="M24.276046875,15.3790534375Q24.263546875,16.8057234375,23.251146875,17.818253437499997L18.094076875,22.975323437500002Q17.068966875,24.0002234375,15.619366875,24.0002234375L13.003046874999999,24.0002234375Q11.758396875,24.0002234375,10.878274875,23.1201234375Q9.998046875,22.2400234375,9.998046875,20.9952234375L9.998046875,18.3789134375Q9.998046875,16.9292534375,11.023176875,15.9040534375L16.179976875,10.7472434375Q17.192456875,9.7347059375,18.619206875,9.7222213375L18.654906875,9.6865234375L18.690606875,9.7222213375Q20.117346875000003,9.7347123375,21.129746875000002,10.7471834375L23.251146875,12.8685734375Q24.263546875,13.8810634375,24.276046875,15.3077334375L24.311746875,15.3433934375L24.276046875,15.3790534375Z" fill-rule="evenodd" fill="#FFFFFF" fill-opacity="1"/></g><g><g filter="url(#master_svg0_456_4745)"><path d="M19.361996875,12.51506096875C18.971496875,12.12453696875,18.338296875,12.12453696875,17.947796875,12.51506096875C17.947796875,12.51506096875,12.790939875,17.67191796875,12.790939875,17.67191796875C12.603403875,17.85946796875,12.498046875,18.11381796875,12.498046875,18.37901796875C12.498046875,18.37901796875,12.498046875,20.99531796875,12.498046875,20.99531796875C12.498046875,21.27426796875,12.724160875,21.50031796875,13.003046875,21.50031796875C13.003046875,21.50031796875,15.619366875,21.50031796875,15.619366875,21.50031796875C15.884586875,21.50031796875,16.138936875,21.394967968750002,16.326476875,21.207467968750002C16.326476875,21.207467968750002,21.483346875000002,16.05059796875,21.483346875000002,16.05059796875C21.873846874999998,15.66007796875,21.873846874999998,15.026907968749999,21.483346875000002,14.63638796875C21.483346875000002,14.63638796875,19.361996875,12.51506096875,19.361996875,12.51506096875C19.361996875,12.51506096875,19.361996875,12.51506096875,19.361996875,12.51506096875ZM18.654896875,13.22216796875C18.654896875,13.22216796875,20.776196875,15.34348796875,20.776196875,15.34348796875C20.776196875,15.34348796875,19.361816875,16.75780796875,19.361816875,16.75780796875C19.361816875,16.75780796875,17.240476875,14.63647796875,17.240476875,14.63647796875C17.240476875,14.63647796875,18.654896875,13.22216796875,18.654896875,13.22216796875C18.654896875,13.22216796875,18.654896875,13.22216796875,18.654896875,13.22216796875ZM16.533446875,15.34374796875C16.533446875,15.34374796875,13.498046875,18.37901796875,13.498046875,18.37901796875C13.498046875,18.37901796875,13.498046875,20.50031796875,13.498046875,20.50031796875C13.498046875,20.50031796875,15.619366875,20.50031796875,15.619366875,20.50031796875C15.619366875,20.50031796875,18.654786875,17.465087968749998,18.654786875,17.465087968749998C18.654786875,17.465087968749998,16.533446875,15.34374796875,16.533446875,15.34374796875C16.533446875,15.34374796875,16.533446875,15.34374796875,16.533446875,15.34374796875Z" fill-rule="evenodd" fill="#000000" fill-opacity="0.8999999761581421"/><path d="M12.018046875,18.37901796875L12.018046875,20.99531796875Q12.018046875,21.40335796875,12.306567875,21.69184796875Q12.595060675,21.98031796875,13.003046875,21.98031796875L15.619366875,21.98031796875Q16.232366875,21.98031796875,16.665846875,21.54691796875L21.822756875,16.390007968749998Q22.256216875,15.95651796875,22.256216875,15.34348796875Q22.256216875,14.73046796875,21.822766875,14.296987968749999L19.701416875,12.17566036875L19.701406875,12.17564746875Q19.267946875,11.74216796875,18.654896875,11.74216796875Q18.041836875,11.74216796875,17.608376875,12.17566016875L12.451528675,17.33250796875Q12.018046875,17.76601796875,12.018046875,18.37901796875ZM12.790939875,17.67191796875L17.947796875,12.51506096875C18.338296875,12.12453696875,18.971496875,12.12453696875,19.361996875,12.51506096875L21.483346875000002,14.63638796875C21.873846874999998,15.026907968749999,21.873846874999998,15.66007796875,21.483346875000002,16.05059796875L16.326476875,21.207467968750002C16.138936875,21.394967968750002,15.884586875,21.50031796875,15.619366875,21.50031796875L13.003046875,21.50031796875C12.724160875,21.50031796875,12.498046875,21.27426796875,12.498046875,20.99531796875L12.498046875,18.37901796875C12.498046875,18.11381796875,12.603403875,17.85946796875,12.790939875,17.67191796875ZM18.654896875,13.22216796875L20.436786875,15.00407796875L20.776196875,15.34348796875L20.436776875,15.68289796875L19.701236875,16.41840796875L19.361816875,16.75780796875L17.240476875,14.63647796875L17.579906875,14.29707796875L18.654896875,13.22216796875ZM18.654886875,13.90097796875L20.097366875,15.34347796875L19.361826875,16.07899796875L17.919316875,14.63648796875L18.654886875,13.90097796875ZM13.498046875,18.37901796875L16.533446875,15.34374796875L18.654786875,17.465087968749998L18.315366875,17.80448796875L15.619366875,20.50031796875L13.498046875,20.50031796875L13.498046875,18.37901796875ZM13.978046875,18.57784796875L16.533436875,16.02256796875L17.975956875,17.465077968750002L15.420556874999999,20.02031796875L13.978046875,20.02031796875L13.978046875,18.57784796875Z" fill-rule="evenodd" fill="#000000" fill-opacity="0.8999999761581421"/></g></g></g></g></svg>