<svg xmlns="http://www.w3.org/2000/svg" xmlns:xlink="http://www.w3.org/1999/xlink" fill="none" version="1.1" width="24" height="24" viewBox="0 0 24 24"><g><g><g style="opacity:0.8999999761581421;"><path d="M9.730319999999999,3.7632000000000003C10.18407,2.313943,10.97226,1.694931,12.5271,2.143788L12.5662,2.156501C13.021,2.296341,13.5441,2.56233,14.035,3.0082500000000003C14.8076,3.71234,15.2672,4.68829,15.2672,5.91458C15.2672,7.00983,15.2036,7.68654,15.0178,8.4542L15.012,8.47571L19.0341,8.47571C21.4925,8.47571,22.4695,10.13423,21.8514,12.8919L21.7986,13.1178L21.6735,13.5305L21.2011,15.0687L20.9801,15.7718L20.7699,16.429000000000002L20.3787,17.612299999999998L20.1117,18.3828L19.9465,18.8425L19.7176,19.4468L19.5778,19.7959C18.9011,21.429,17.5047,22.1791,15.6789,21.9639L6.8064,21.3038C6.75002,21.3009,6.69363,21.2983,6.63722,21.296L6.28517,21.2882L5.28673,21.2882L5.00021,21.2833L4.771380000000001,21.2735L4.580690000000001,21.2559L4.49561,21.2432L4.3323,21.2109L4.06826,21.1415C2.708002,20.7376,2,19.5847,2,17.9418L2,11.44364C2,9.36853,3.2595400000000003,8.18429,5.405060000000001,8.18429L7.14181,8.183309999999999L7.26112,8.092369999999999C7.94003,7.53236,8.502510000000001,6.84462,8.91671,6.06811L9.05655,5.7943C9.196390000000001,5.5067900000000005,9.3108,5.2056000000000004,9.41935,4.8545300000000005L9.43695,4.79488L9.730319999999999,3.7632000000000003ZM11.7624,3.94802C11.72035,3.93824,11.70177,3.95193,11.68124,4.01158L11.59225,4.3538499999999996L11.34777,5.23494L11.2891,5.43052C11.16382,5.84828,11.00622,6.25567,10.81775,6.64899C10.39421,7.51687,9.83204,8.30991,9.15336,8.996929999999999C8.80904,9.35393,8.430769999999999,9.67653,8.02388,9.96017L8.150030000000001,9.8702L8.150030000000001,19.437L15.8667,20.0179C16.826999999999998,20.1304,17.3707,19.8781,17.7051,19.1906L17.7706,19.0478L17.9027,18.7183L18.1207,18.1413L18.2791,17.6993L18.5363,16.9551L18.7212,16.4036L19.1192,15.1714L19.5592,13.7652L19.9132,12.5995C20.3484,10.85592,20.0922,10.43151,19.0341,10.43151L14.0448,10.43151C13.2001,10.43201,12.6066,9.599910000000001,12.8821,8.80135L12.932,8.65466L13.0083,8.40432C13.2439,7.58484,13.3114,7.04895,13.3114,5.91458C13.3114,4.80466,12.6953,4.24237,12.0039,4.02918L11.91887,4.00278L11.7624,3.94802ZM6.19422,10.13912L5.4060299999999994,10.13912C4.3147,10.13912,3.95678,10.4765,3.95678,11.44364L3.95678,17.9418C3.95678,18.8131,4.18463,19.1642,4.73128,19.2942L4.76551,19.3021L4.85156,19.3148L4.96891,19.3246L5.2339199999999995,19.3304L5.88912,19.3304L6.19423,19.3324L6.19423,10.1401L6.19422,10.13912Z" fill="#000000" fill-opacity="1" style="mix-blend-mode:passthrough"/><path d="M9.394929999999999,3.66302L9.100760000000001,4.69753L9.08497,4.7511399999999995Q8.92835,5.25767,8.74484,5.63511L8.607890000000001,5.90339Q8.01475,7.01538,7.04352,7.81815L7.02354,7.83338L5.405060000000001,7.83429Q3.65179,7.83429,2.656548,8.78238Q1.65,9.741240000000001,1.65,11.44364L1.65,17.9418Q1.65,20.7886,3.9686399999999997,21.477L3.9739199999999997,21.4786L4.25379,21.5522L4.43579,21.5882L4.53871,21.6035L4.7478,21.6228L4.98975,21.6332L5.28673,21.6382L6.28138,21.6382L6.62234,21.6457L6.69095,21.6486L6.7848,21.6532L15.6455,22.3124Q18.7631,22.6763,19.9027,19.9261L20.045,19.5707L20.2758,18.9609L20.4425,18.4974L20.711,17.722099999999998L21.1032,16.535600000000002L21.314,15.8768L21.5357,15.1715L22.0084,13.6321L22.1368,13.2085L22.193,12.9685Q22.6918,10.74268,21.8933,9.464269999999999Q21.0572,8.12571,19.0341,8.12571L15.4447,8.12571Q15.6172,7.17995,15.6172,5.91458Q15.6172,3.97667,14.2704,2.7491820000000002Q13.5468,2.0918581,12.6744,1.823638L12.6298,1.80913L12.6242,1.807519Q10.1954,1.106374,9.39631,3.65862L9.394929999999999,3.66302ZM14.6788,8.367049999999999Q14.9172,7.37861,14.9172,5.91458Q14.9172,4.2858,13.7997,3.2673300000000003Q13.1917,2.715023,12.4581,2.489364L12.4246,2.478486Q10.65999,1.9722647,10.06569,3.8634500000000003L9.77361,4.890610000000001L9.772639999999999,4.893940000000001L9.753730000000001,4.95792Q9.58129,5.51565,9.36825,5.95349L9.22552,6.23283Q8.565570000000001,7.47008,7.48383,8.36237L7.47865,8.36664L7.26009,8.533249999999999L5.405060000000001,8.53429Q2.35,8.53429,2.35,11.44364L2.35,17.9418Q2.35,20.263,4.1627600000000005,20.8045L4.41082,20.8697L4.55542,20.8983L4.6226400000000005,20.9083L4.7949,20.9242L5.01075,20.9334L5.28673,20.9382L6.28906,20.9382L6.6521,20.9463L6.72513,20.9494L6.82793,20.9545L15.7124,21.6154L15.7199,21.6163Q18.3178,21.9224,19.2529,19.6658L19.3903,19.3229L19.6171,18.724L19.781,18.2683L20.0464,17.5024L20.4365,16.3223L20.6462,15.6669L20.8665,14.966L21.3385,13.4289L21.4604,13.0271L21.5099,12.8154Q21.9459,10.86988,21.2996,9.835090000000001Q20.6691,8.82571,19.0341,8.82571L14.5537,8.82571L14.6788,8.367049999999999ZM12.0286,3.67036L11.86014,3.6114100000000002L11.84168,3.60711Q11.47933,3.52285,11.3503,3.89766L11.3459,3.91043L11.25351,4.2657799999999995L11.01051,5.141360000000001L10.95386,5.32995Q10.77347,5.9314599999999995,10.50212,6.49774Q9.888829999999999,7.7544,8.90437,8.75096Q8.46295,9.2086,7.95301,9.58082L7.82066,9.67521L7.95815,9.8702L7.80003,9.8702L7.80003,19.7617L15.8333,20.3664Q17.4326,20.5508,18.0198,19.3437L18.0216,19.3402L18.0923,19.186L18.2276,18.8484L18.4481,18.265L18.6086,17.8174L18.8671,17.0694L19.053,16.5148L19.4522,15.279L19.8932,13.8697L20.2507,12.6928L20.2528,12.6843Q20.6017,11.28634,20.3542,10.72126Q20.0741,10.08151,19.0341,10.08151L14.0448,10.08151Q13.5914,10.08178,13.3283,9.71284Q13.0651,9.3439,13.213,8.915510000000001L13.2651,8.76203L13.3431,8.50633Q13.6614,7.39955,13.6614,5.91458Q13.6614,4.17399,12.1071,3.6947200000000002L12.0286,3.67036ZM8.500029999999999,10.04608L8.500029999999999,19.1124L15.9002,19.6694L15.9074,19.6703Q17.0168,19.8002,17.3888,19.0408L17.448900000000002,18.9097L17.5778,18.5881L17.793300000000002,18.0176L17.9497,17.581200000000003L18.2055,16.8408L18.3893,16.2924L18.7861,15.0638L19.2252,13.6607L19.5757,12.5063Q19.8642,11.34721,19.713,11.00208Q19.6164,10.78151,19.0341,10.78151L14.0448,10.78151Q13.2311,10.782,12.7584,10.11932Q12.2857,9.45664,12.5512,8.687190000000001L12.5988,8.547329999999999L12.6734,8.30231Q12.9614,7.30089,12.9614,5.91458Q12.9614,4.71788,11.94744,4.378629999999999L11.93099,4.44192L11.68503,5.32852L11.62434,5.53109Q11.4283,6.18478,11.13338,6.80023Q10.46754,8.164629999999999,9.40235,9.242899999999999Q8.982050000000001,9.67872,8.500029999999999,10.04608ZM6.54423,19.6846L6.54423,10.13994L6.54407,9.78912L5.4060299999999994,9.78912Q4.45563,9.78912,4.0367999999999995,10.16965Q3.60678,10.56034,3.60678,11.44364L3.60678,17.9418Q3.60678,19.3865,4.65027,19.6347L4.70085,19.6463L4.81141,19.6626L4.95049,19.6742L5.23005,19.6804L5.88912,19.6804L6.54423,19.6846ZM5.84423,10.48912L5.4060299999999994,10.48912Q4.72614,10.48912,4.5075199999999995,10.68775Q4.30678,10.87013,4.30678,11.44364L4.30678,17.9418Q4.30678,18.8335,4.81229,18.9538L4.8301,18.9578L4.89168,18.9669L4.98734,18.9749L5.2378800000000005,18.9804L5.84423,18.9804L5.84423,10.48912Z" fill-rule="evenodd" fill="#000000" fill-opacity="1"/></g></g></g></svg>