<svg xmlns="http://www.w3.org/2000/svg" xmlns:xlink="http://www.w3.org/1999/xlink" fill="none" version="1.1" width="24" height="24" viewBox="0 0 24 24"><defs><clipPath id="master_svg0_917_3775"><rect x="0" y="0" width="24" height="24" rx="0"/></clipPath></defs><g><g clip-path="url(#master_svg0_917_3775)"><g><path d="M14.720999871253968,8.519999980926514L15.738699871253967,5.468939980926514Q16.10059987125397,4.3795899809265135,15.430699871253967,3.4506189809265138Q14.759499871253967,2.5199999809265137,13.611999871253968,2.5199999809265137L11.999999871253967,2.5199999809265137Q11.420539871253967,2.5199999809265137,11.047019871253967,2.9658799809265135L6.4185898712539675,8.519999980926514L3.9999998712539675,8.519999980926514Q3.0733398712539675,8.519999980926514,2.4166688712539672,9.176669980926514Q1.7599998712539673,9.833339980926514,1.7599998712539673,10.759999980926514L1.7599998712539673,19.759999980926512Q1.7599998712539673,20.686699980926512,2.4166688712539672,21.343299980926513Q3.0733398712539675,21.999999980926514,3.9999998712539675,21.999999980926514L17.306999871253968,21.999999980926514Q18.007099871253967,21.997699980926512,18.581899871253967,21.599299980926514Q19.156699871253966,21.200999980926515,19.40439987125397,20.546999980926515L22.16169987125397,13.195299980926514Q22.240399871253967,12.984299980926513,22.239999871253968,12.759599980926513L22.239999871253968,10.759999980926514Q22.239999871253968,9.833339980926514,21.583299871253967,9.176669980926514Q20.926699871253966,8.519999980926514,19.999999871253966,8.519999980926514L14.720999871253968,8.519999980926514ZM17.37389987125397,19.516499980926515C17.423199871253967,19.449899980926514,17.45589987125397,19.363599980926512,17.518999871253968,19.194699980926515C17.455599871253966,19.363599980926512,17.422999871253968,19.449899980926514,17.37389987125397,19.516499980926515ZM17.055499871253968,19.737099980926512C17.18319987125397,19.700799980926515,17.295399871253966,19.623099980926515,17.37389987125397,19.516499980926515C17.295099871253967,19.623099980926515,17.18299987125397,19.700799980926515,17.055499871253968,19.737099980926512ZM13.456499871253968,5.1128399809265135C13.440499871253968,4.976489980926514,13.353899871253967,4.856329980926514,13.229399871253968,4.797799980926514C13.353599871253968,4.8563399809265135,13.440199871253967,4.976499980926514,13.456499871253968,5.1128399809265135ZM13.358999871253967,5.524549980926514C13.430499871253968,5.310939980926514,13.466999871253968,5.199099980926514,13.456499871253968,5.1128399809265135C13.466699871253967,5.199109980926513,13.430199871253967,5.310949980926514,13.358999871253967,5.524549980926514ZM12.999999871253967,10.759999980926514C12.316499871253967,10.761599980926514,11.833699871253968,10.090819980926515,12.051999871253967,9.442999980926514C11.833499871253967,10.090829980926515,12.316299871253968,10.761609980926513,12.999999871253967,10.759999980926514ZM19.612699871253966,10.798779980926513C19.77299987125397,10.859549980926513,19.900399871253967,10.987039980926514,19.961199871253967,11.147339980926514C19.999399871253967,11.247969980926513,19.999999871253966,11.378639980926513,19.999999871253966,11.631169980926513C20.00019987125397,11.378629980926513,19.999599871253967,11.247959980926513,19.961199871253967,11.147339980926514C19.900699871253966,10.987029980926513,19.77319987125397,10.859539980926513,19.612699871253966,10.798779980926513ZM19.999999871253966,12.315699980926514C19.999999871253966,12.397379980926514,19.999999871253966,12.438309980926514,19.996699871253966,12.478739980926514C19.991399871253968,12.544099980926514,19.979699871253967,12.608699980926513,19.961699871253966,12.671699980926514C19.950599871253967,12.710699980926513,19.93619987125397,12.749099980926514,19.907499871253968,12.825499980926514C19.936499871253968,12.748999980926513,19.950799871253967,12.710699980926513,19.961699871253966,12.671699980926514C19.979899871253966,12.608699980926513,19.991599871253968,12.543999980926513,19.996699871253966,12.478739980926514C20.00019987125397,12.438299980926514,20.00019987125397,12.397369980926515,19.999999871253966,12.315699980926514ZM19.682799871253966,12.741299980926513Q19.722399871253966,12.635599980926514,19.730899871253968,12.605899980926514Q19.751399871253966,12.533899980926513,19.757499871253966,12.459289980926513Q19.759999871253967,12.428509980926513,19.759999871253967,12.315699980926514L19.759999871253967,11.631169980926513Q19.759999871253967,11.293589980926514,19.736799871253968,11.232419980926514Q19.679299871253967,11.080709980926514,19.52759987125397,11.023189980926514Q19.466399871253966,10.999999980926514,19.128799871253968,10.999999980926514L13.000599871253968,10.999999980926514Q12.364499871253967,11.001499980926514,11.992899871253968,10.485249980926515Q11.621269871253967,9.968999980926514,11.824299871253967,9.367059980926513L13.131299871253967,5.448609980926514Q13.222299871253968,5.175899980926514,13.218099871253967,5.141219980926514Q13.207599871253967,5.052839980926514,13.127099871253968,5.0148899809265135Q13.095499871253967,4.999999980926514,12.807999871253967,4.999999980926514Q12.676199871253967,4.999999980926514,12.650699871253968,5.005139980926513Q12.588699871253967,5.017669980926513,12.539399871253968,5.057309980926513Q12.519099871253967,5.073569980926514,12.434699871253967,5.174879980926514L8.239999871253968,10.208889980926514L8.239999871253968,19.519999980926514L16.703299871253968,19.519999980926514Q16.941599871253967,19.519999980926514,16.989799871253965,19.506299980926514Q17.107899871253966,19.472699980926514,17.180799871253967,19.373899980926513Q17.21059987125397,19.333599980926515,17.29429987125397,19.110499980926512L19.682799871253966,12.741299980926513ZM4.239999871253968,11.631169980926513L4.239999871253968,18.888799980926514Q4.239999871253968,19.226399980926512,4.263189871253967,19.287599980926515Q4.3207098712539675,19.439299980926513,4.472419871253967,19.496799980926514Q4.533589871253968,19.519999980926514,4.871169871253967,19.519999980926514L5.759999871253967,19.519999980926514L5.759999871253967,10.999999980926514L4.871169871253967,10.999999980926514Q4.533589871253968,10.999999980926514,4.472419871253967,11.023189980926514Q4.3207098712539675,11.080709980926514,4.263189871253967,11.232419980926514Q4.239999871253968,11.293589980926514,4.239999871253968,11.631169980926513Z" fill-rule="evenodd" fill="#000000" fill-opacity="0.8999999761581421"/></g></g></g></svg>