<svg xmlns="http://www.w3.org/2000/svg" xmlns:xlink="http://www.w3.org/1999/xlink" fill="none" version="1.1" width="24" height="24" viewBox="0 0 24 24"><g><g><g style="opacity:0.8999999761581421;"><path d="M14.7058,9.562999999999999C15.1158,7.823,15.4021,6.5645,15.5653,5.785C15.9758,3.8225,14.9098,2,12.7969,2C10.89159,2,9.934750000000001,2.8994999999999997,9.37054,4.6975L9.356069999999999,4.75C9.01738,6.2045,8.49948,7.332,7.81396,8.13875C7.09193,8.99061,6.01097,9.49633,4.859999999999999,9.52075L4.31948,9.531749999999999C3.0305299999999997,9.558,2,10.566,2,11.80075L2,19.25C2,20.7687,3.28553,22,4.87158,22L15.049,22C17.139499999999998,22,19.0056,20.7445,19.7148,18.8613L21.829,13.246C22.3669,11.81725,21.5937,10.24125,20.1019,9.725999999999999C19.7897,9.61816,19.46,9.562999999999999,19.1277,9.562999999999999L14.7058,9.562999999999999ZM12.7958,3.5C13.7642,3.5,14.2637,4.355,14.0266,5.4905C13.8398,6.3845,13.4842,7.938,12.9603,10.14675C12.849,10.616,13.2208,11.063,13.7229,11.063L19.1177,11.063C19.2682,11.063,19.4177,11.088,19.5595,11.13725C20.2366,11.37125,20.5877,12.0877,20.3435,12.7373L18.2324,18.3523C17.7479,19.6413,16.4729,20.5,15.0445,20.5L4.88237,20.5C4.16237,20.5,3.57895,19.9403,3.57895,19.25L3.57895,11.80075C3.57895,11.382,3.9279,11.04025,4.36421,11.0315L4.90369,11.0205C6.51331,10.986,8.02469,10.2778,9.03317,9.0855C9.88054,8.087,10.49238,6.758,10.88028,5.104C11.26239,3.8985000000000003,11.69291,3.5,12.7961,3.5L12.7958,3.5Z" fill="#000000" fill-opacity="1" style="mix-blend-mode:passthrough"/><path d="M20.3059,9.13524Q19.7349,8.937999999999999,19.1277,8.937999999999999L15.4945,8.937999999999999Q15.9687,6.90856,16.177,5.9130400000000005Q16.55,4.12984,15.6433,2.803775Q14.6663,1.375,12.7969,1.375Q9.75809,1.375,8.77421,4.51037L8.77093,4.52083L8.7502,4.59601L8.74735,4.60826Q8.27686,6.62879,7.33768,7.73404Q6.38049,8.86335,4.84675,8.89589L4.306760000000001,8.906880000000001Q3.09261,8.93161,2.2393359999999998,9.76628Q1.375,10.61178,1.375,11.80075L1.375,19.25Q1.375,20.6559,2.408731,21.6459Q3.43106,22.625,4.87158,22.625L15.049,22.625Q16.807499999999997,22.625,18.2487,21.6554Q19.6974,20.6809,20.2997,19.0815L22.4139,13.4662Q22.9125,12.1417,22.2877,10.86814Q21.6683,9.605789999999999,20.3059,9.13524ZM13.9164,10.188L19.1277,10.188Q19.5251,10.188,19.8978,10.31676Q20.7731,10.61907,21.1655,11.41873Q21.5523,12.2071,21.2441,13.0258L19.1299,18.641Q18.1003,21.375,15.049,21.375L4.87158,21.375Q3.93308,21.375,3.27331,20.7431Q2.625,20.1223,2.625,19.25L2.625,11.80075Q2.625,10.19139,4.332190000000001,10.15662L4.87326,10.14561Q6.96996,10.10112,8.290230000000001,8.54346Q9.42254,7.21092,9.96189,4.90414L9.97008,4.87444Q10.68073,2.625,12.7969,2.625Q14.0067,2.625,14.6114,3.50935Q15.2174,4.395519999999999,14.9535,5.65696Q14.7107,6.81728,14.0975,9.41966L13.9164,10.188ZM12.7958,4.125L12.7961,4.125Q13.1656,4.1251,13.3293,4.394159999999999Q13.5435,4.74647,13.4148,5.36275Q13.1335,6.70859,12.3522,10.00249Q12.1966,10.6584,12.6312,11.18063Q13.0534,11.688,13.7229,11.688L19.1177,11.688Q19.2402,11.688,19.3545,11.72767Q19.6195,11.81926,19.7357,12.0564Q19.8466,12.2828,19.7584,12.5173L17.647399999999998,18.1323Q16.9924,19.875,15.0445,19.875L4.88237,19.875Q4.5937,19.875,4.39329,19.6828Q4.20395,19.5012,4.20395,19.25L4.20395,11.80075Q4.20395,11.65984,4.3767499999999995,11.65637L4.91643,11.64537Q7.73769,11.58491,9.51036,9.48912Q10.86308,7.89515,11.48299,5.2712699999999995Q11.855,4.12516,12.7958,4.125ZM12.7958,2.875L12.7961,2.875Q13.8685,2.875107,14.3973,3.74471Q14.868,4.51878,14.6384,5.61825Q14.3537,6.9807,13.5684,10.29101Q13.557,10.33904,13.592,10.38105Q13.6394,10.438,13.7229,10.438L19.1177,10.438Q19.4511,10.438,19.7645,10.54683Q20.5152,10.80624,20.8582,11.50644Q21.2066,12.2175,20.9285,12.9572L18.8174,18.5722Q17.8579,21.125,15.0445,21.125L4.88237,21.125Q4.09113,21.125,3.52803,20.5849Q2.95395,20.0343,2.953951,19.25L2.95395,11.80075Q2.95395,10.43466,4.35168,10.40663L4.89095,10.39563Q7.14733,10.34728,8.55598,8.68188Q9.721260000000001,7.30876,10.27179,4.9613L10.27726,4.93798L10.28449,4.915150000000001Q10.93111,2.875144,12.7958,2.875Z" fill-rule="evenodd" fill="#000000" fill-opacity="1"/></g></g></g></svg>