<svg xmlns="http://www.w3.org/2000/svg" xmlns:xlink="http://www.w3.org/1999/xlink" fill="none" version="1.1" width="80" height="80" viewBox="0 0 80 80"><g><g><g transform="matrix(0,-1,1,0,-64.3330078125,75.6669921875)"><path d="M39.0002921875,73.33333C39.0002921875,71.49238,37.5079921875,70,35.6669921875,70C33.8259921875,70,32.3336921875,71.49238,32.3336921875,73.33333L32.3336921875,109.428L26.2388921875,103.3332C24.9371921875,102.0315,22.8265921875,102.0315,21.5248921875,103.3332C20.2230921875,104.63499999999999,20.2230921875,106.7457,21.5248921875,108.0473L32.7206921875,119.243C34.3478921875,120.8703,36.9860921875,120.8703,38.6132921875,119.243L49.8089921875,108.0473C51.1109921875,106.7457,51.1109921875,104.63499999999999,49.8089921875,103.3332C48.5072921875,102.0315,46.3969921875,102.0315,45.0949921875,103.3332L39.0002921875,109.428L39.0002921875,73.33333ZM12.3336621875,80C8.651762187500001,80,5.6669921875,82.9848,5.6669921875,86.66669999999999L5.6669921875,130C5.6669921875,133.68200000000002,8.651762187500001,136.6667,12.3336621875,136.6667L59.0002921875,136.6667C62.6822921875,136.6667,65.6669921875,133.68200000000002,65.6669921875,130L65.6669921875,86.66669999999999C65.6669921875,82.9848,62.6822921875,80,59.0002921875,80L49.0002921875,80L49.0002921875,86.66669999999999L59.0002921875,86.66669999999999L59.0002921875,130L12.3336621875,130L12.3336621875,86.66669999999999L22.3336921875,86.66669999999999L22.3336921875,80L12.3336621875,80Z" fill-rule="evenodd" fill="#000000" fill-opacity="0.8999999761581421"/><path d="M31.6936921875,73.33333L31.6936921875,107.8829L26.6913921875,102.88069999999999Q25.5276921875,101.7169,23.8818921875,101.7169Q22.2360921875,101.7169,21.0722921875,102.88069999999999Q19.9085921875,104.0445,19.9085921875,105.69030000000001Q19.9085921875,107.33619999999999,21.0722921875,108.4999L32.2681921875,119.69550000000001Q33.6759921875,121.1035,35.6669921875,121.1035Q37.6579921875,121.1035,39.0657921875,119.69550000000001L50.2614921875,108.4999Q51.4254921875,107.33619999999999,51.4254921875,105.69030000000001Q51.4254921875,104.0444,50.2614921875,102.8806Q49.0978921875,101.7169,47.4520921875,101.7169Q45.8063921875,101.7169,44.6424921875,102.8806L39.6402921875,107.8829L39.6402921875,73.33333Q39.6402921875,71.68752,38.4765921875,70.523763Q37.3127921875,69.36,35.6669921875,69.36Q34.0211921875,69.36,32.8573921875,70.523763Q31.6936921875,71.68752,31.6936921875,73.33333ZM32.3336921875,109.428L32.3336921875,73.33333C32.3336921875,71.49238,33.8259921875,70,35.6669921875,70C37.5079921875,70,39.0002921875,71.49238,39.0002921875,73.33333L39.0002921875,109.428L39.6402921875,108.788L45.0949921875,103.3332C46.3969921875,102.0315,48.5072921875,102.0315,49.8089921875,103.3332C51.1109921875,104.63499999999999,51.1109921875,106.7457,49.8089921875,108.0473L38.6132921875,119.243C36.9860921875,120.8703,34.3478921875,120.8703,32.7206921875,119.243L21.5248921875,108.0473C20.2230921875,106.7457,20.2230921875,104.63499999999999,21.5248921875,103.3332C22.8265921875,102.0315,24.9371921875,102.0315,26.2388921875,103.3332L31.6936921875,108.788L32.3336921875,109.428ZM5.0269921875,86.66669999999999L5.0269921875,130Q5.0269921875,133.0266,7.1670621875,135.16660000000002Q9.3071221875,137.3067,12.3336621875,137.3067L59.0002921875,137.3067Q62.0268921875,137.3067,64.1669921875,135.16660000000002Q66.3069921875,133.0266,66.3069921875,130L66.3069921875,86.66669999999999Q66.3069921875,83.6401,64.1669921875,81.5001Q62.0268921875,79.36,59.0002921875,79.36L48.3602921875,79.36L48.3602921875,87.3067L58.3602921875,87.3067L58.3602921875,129.36L12.9736621875,129.36L12.9736621875,87.3067L22.9736921875,87.3067L22.9736921875,79.36L12.3336621875,79.36Q9.3071421875,79.36,7.1670621875,81.5001Q5.0269921875,83.6401,5.0269921875,86.66669999999999ZM59.0002921875,130L59.0002921875,86.66669999999999L49.0002921875,86.66669999999999L49.0002921875,80.64L49.0002921875,80L59.0002921875,80C62.6822921875,80,65.6669921875,82.9848,65.6669921875,86.66669999999999L65.6669921875,130C65.6669921875,133.68200000000002,62.6822921875,136.6667,59.0002921875,136.6667L12.3336621875,136.6667C8.651762187500001,136.6667,5.6669921875,133.68200000000002,5.6669921875,130L5.6669921875,86.66669999999999C5.6669921875,82.9848,8.651762187500001,80,12.3336621875,80L22.3336921875,80L22.3336921875,86.66669999999999L12.3336621875,86.66669999999999L12.3336621875,129.36L12.3336621875,130L59.0002921875,130Z" fill-rule="evenodd" fill="#000000" fill-opacity="0.8999999761581421"/></g></g></g></svg>