<svg xmlns="http://www.w3.org/2000/svg" xmlns:xlink="http://www.w3.org/1999/xlink" fill="none" version="1.1" width="172.630859375" height="33.09375" viewBox="0 0 172.630859375 33.09375"><defs><filter id="master_svg0_402_0834" filterUnits="objectBoundingBox" color-interpolation-filters="sRGB" x="0" y="0" width="172.63095092773438" height="33.09375"><feFlood flood-opacity="0" result="BackgroundImageFix"/><feBlend mode="normal" in="SourceGraphic" in2="BackgroundImageFix" result="shape"/><feColorMatrix in="SourceAlpha" type="matrix" result="hardAlpha" values="0 0 0 0 0 0 0 0 0 0 0 0 0 0 0 0 0 0 127 0"/><feOffset dy="0" dx="0"/><feGaussianBlur stdDeviation="5"/><feComposite in2="hardAlpha" operator="arithmetic" k2="-1" k3="1"/><feColorMatrix type="matrix" values="0 0 0 0 0 0 0 0 0 0 0 0 0 0 0 0 0 0 0.019999999552965164 0"/><feBlend mode="normal" in2="shape" result="effect1_innerShadow"/></filter><clipPath id="master_svg1_402_0837"><rect x="0" y="0" width="37.96875" height="33.09375" rx="0"/></clipPath></defs><g filter="url(#master_svg0_402_0834)"><g style="opacity:0.8999999761581421;"><g><path d="M83.5849634375,9.73193359375L89.1124034375,9.73193359375C90.3680734375,9.73193359375,91.2067234375,10.82100359375,90.9852234375,12.16460359375C90.76377343749999,13.50820359375,89.5665534375,14.59727359375,88.3097534375,14.59727359375L82.7823134375,14.59727359375C81.5266454375,14.59727359375,80.6880284375,13.50820359375,80.9094892375,12.16460359375C81.1309434375,10.82100359375,82.3281634375,9.73193359375,83.5849634375,9.73193359375Z" fill="#000000" fill-opacity="1" style="mix-blend-mode:passthrough"/></g><g><path d="M87.75449390625,3.706453035625C88.41886390625,3.706453035625,88.86290390625,4.283086265625,88.74599390624999,4.993742265625L85.23302390625,26.305522265625C85.11612390625,27.017322265625,84.48209390625,27.592822265625,83.81660390625,27.592822265625L81.73918390625,27.592822265625C81.07481090625,27.592822265625,80.63077130625,27.016222265625,80.74768020625,26.305522265625L83.89417390625,7.215802265624999C84.21343390625,5.277552265625,85.94236390625,3.705322265625,87.75450390625,3.705322265625L87.75449390625,3.706453035625Z" fill="#000000" fill-opacity="1" style="mix-blend-mode:passthrough"/></g><g><path d="M79.53347272949219,30.094008713378905C79.06694872949218,30.221268713378905,78.66113262949219,29.921688713378906,78.64764340949219,29.438528713378908C78.58244082949219,27.131998713378906,80.25180772949219,24.849118713378907,82.47536772949219,24.206038713378906C82.61588772949219,24.165498713378906,82.76089772949219,24.123818713378906,82.90928772949219,24.079898713378906C84.67869772949219,23.565208713378905,86.17156772949218,23.120347713378905,87.38789772949218,22.745308913378906C87.87802772949219,22.594393713378906,88.30969772949219,22.911992713378908,88.31082772949219,23.424429713378906C88.3153177294922,25.830068713378907,86.54029772949218,28.163628713378905,84.22791772949219,28.788688713378907C83.65684772949218,28.942988713378906,82.97336772949218,29.128818713378905,82.12238772949219,29.361948713378908L79.53122972949218,30.094008713378905L79.53347272949219,30.094008713378905Z" fill="#000000" fill-opacity="1" style="mix-blend-mode:passthrough"/></g><g><path d="M88.7618936,28.67384921875C88.609011,27.705249218749998,88.866439,26.640949218750002,89.470106,25.738849218749998C90.63135,24.003309218749997,91.16645,23.03136921875,92.42325,21.17533921875C93.8408,19.08052921875,95.05713,16.73007921875,95.92385,15.02270121875C96.11608,14.64316021875,96.51402,14.41340691875,96.87825,14.46859147875L99.93255,14.93147321875C100.44295,15.00918421875,100.65985,15.59594921875,100.36645,16.11626921875C99.70885,17.28417921875,98.82755,18.73026921875,97.72135,20.45453921875C96.67926,22.07856921875,95.73385999999999,23.52577921875,94.88513,24.79394921875C94.47706,25.40324921875,94.81543,26.12964921875,95.47081,26.055349218750003L103.09365,25.18584921875C103.57255,25.13064921875,103.92105,25.52144921875,103.84455,26.02714921875L103.41965,28.84274921875C103.35335,29.28084921875,102.98915,29.653649218749997,102.57425,29.70764921875L92.19166,31.16274921875C90.51781,31.38124921875,89.026066,30.34404921875,88.763012,28.676049218750002L88.7618936,28.67384921875Z" fill="#000000" fill-opacity="1" style="mix-blend-mode:passthrough"/></g><g><path d="M94.15913916748048,12.187051773071289L108.97315916748047,12.187051773071289C109.41605916748047,12.187051773071289,109.71285916748047,12.57109877307129,109.63415916748048,13.04524377307129L109.58025916748048,13.374101773071288C109.24525916748047,15.40584177307129,107.43425916748046,17.05239177307129,105.53555916748047,17.05239177307129L90.41460416748046,17.05239177307129C89.97168916748046,17.05239177307129,89.67491266748047,16.66835177307129,89.75360446748047,16.19420177307129C90.11782716748047,13.98115177307129,92.09070916748047,12.188179113071289,94.15913916748048,12.188179113071289L94.15913916748048,12.187051773071289Z" fill="#000000" fill-opacity="1" style="mix-blend-mode:passthrough"/></g><g><path d="M96.43980276245117,2.963258743286133L106.87416276245118,2.963258743286133C108.12986276245117,2.963258743286133,108.96846276245117,4.052328743286132,108.74696276245118,5.395928743286133C108.52556276245117,6.739528743286133,107.32826276245117,7.828598743286133,106.07146276245118,7.828598743286133L95.63715276245117,7.828598743286133C94.38148476245117,7.828598743286133,93.54286776245117,6.739528743286133,93.76432856245117,5.395928743286133C93.98578276245117,4.052328743286132,95.18300276245117,2.963258743286133,96.43980276245117,2.963258743286133Z" fill="#000000" fill-opacity="1" style="mix-blend-mode:passthrough"/></g><g><path d="M102.87696950439454,19.515404407714843C104.08542950439453,19.096443407714844,105.22755950439453,19.715874407714843,105.46588950439453,20.917565407714843C105.70083950439454,22.100115407714846,105.96051950439453,23.474125407714844,106.24604950439453,25.040725407714845C106.51359950439453,26.509335407714843,106.74067950439454,27.818015407714846,106.92615950439453,28.966785407714845C107.13749950439453,30.276605407714843,106.20332950439453,31.700205407714844,104.89256950439453,32.06840540771484L104.64524950439453,32.138305407714846C103.42666950439452,32.48060540771485,102.33512950439453,31.780105407714842,102.17212950439453,30.551405407714846C101.99337950439453,29.205535407714844,101.78541950439453,27.740305407714843,101.54597550439453,26.156815407714845C101.34250450439453,24.806455407714843,101.15477350439453,23.616025407714844,100.98277560439453,22.584385407714844C100.77368550439454,21.327505407714845,101.62466650439453,19.948995407714843,102.87584950439454,19.515393407714843L102.87696950439454,19.515404407714843Z" fill="#000000" fill-opacity="1" style="mix-blend-mode:passthrough"/></g><g><path d="M119.62036140625,16.369755390625C120.11837140625,15.832541990625,120.87154140625,15.754831390625,121.29647140625,16.198569390625C121.82369140625,16.748173390625,122.41387140625,17.370980390625,123.06701140625,18.065870390625C123.24013140625,18.250570390625,123.40988140625,18.431890390625,123.57400140625,18.608710390625C124.71051140625,19.830680390624998,124.53402140625,21.973910390625,123.17604140625,23.427880390625C122.66119140625,23.979740390625,121.88215140625,24.038310390625,121.46847140625,23.557400390625C121.05367140625,23.074240390625,120.53430140625,22.482970390625,119.91153140625,21.783580390624998C119.18308140625,20.967050390625,118.55131140625,20.262030390625,118.01396540625,19.668500390625C117.61376140625,19.225890390625,117.68009630625,18.462310390625,118.16347140625,17.941980390624998L119.62036140625,16.370883390625L119.62036140625,16.369755390625Z" fill="#000000" fill-opacity="1" style="mix-blend-mode:passthrough"/></g><g><path d="M120.36027375,17.535675390625L118.01643375,31.753325390625C117.90289375,32.442525390625,117.28911375,33.000025390625,116.64497375,33.000025390625C114.88119175,33.000025390625,113.70419875,31.470625390625003,114.01446435,29.584125390624997L115.87381375,18.304895390625C115.96037375,17.776685390625,116.34932375,17.305915390625,116.84282375,17.129095390625L118.99669375,16.358753390625C119.80271375,16.070436390625,121.03253375,14.607455390625,120.35916375,17.534545390625L120.36027375,17.535675390625Z" fill="#000000" fill-opacity="1" style="mix-blend-mode:passthrough"/></g><g><path d="M111.67280004327148,23.141907412719725C111.56712985327148,20.99860741271973,112.57211835327148,18.75290741271973,114.31904835327148,17.247137412719727C114.69114835327149,16.926157412719725,115.04749835327148,16.602927412719726,115.38811835327148,16.275197412719727C115.97153835327148,15.715457412719726,116.85625835327149,14.832487412719725,117.48015835327149,14.157877412719728C118.23332835327149,13.343607412719727,118.03098835327148,12.389677412719728,117.04960835327148,12.389677412719728L114.47755835327149,12.389677412719728C113.83342835327149,12.389677412719728,113.40398835327149,11.831067412719726,113.51752835327149,11.142937412719727C113.81655835327149,9.330817412719727,115.43083835327148,7.862207412719727,117.12491835327148,7.862207412719727L122.54221835327148,7.862207412719727C123.56071835327148,7.862207412719727,124.24081835327148,8.745176412719726,124.06201835327148,9.835377412719726C123.74841835327149,11.740967412719726,122.92211835327149,13.602637412719726,121.69461835327148,15.204147412719728C120.57828835327149,16.661497412719726,119.38443835327149,18.088407412719725,118.11303835327149,19.483807412719727C116.60105835327148,21.143907412719727,115.04297835327148,22.591107412719726,113.43770835327149,23.826607412719724C112.67215835327148,24.415607412719726,111.71888715327148,24.042807412719725,111.67391843327148,23.140707412719728L111.67280004327148,23.141907412719725Z" fill="#000000" fill-opacity="1" style="mix-blend-mode:passthrough"/></g><g><path d="M136.33599109375,3.3999796093750003L132.16878109375,28.678399609375C132.05524109375,29.367599609375,131.44146109375,29.925099609375,130.79732109374999,29.925099609375L128.29609409375,29.925099609375C127.65195909375,29.925099609375,127.22252709375,29.366499609375,127.33606719375,28.678399609375L131.06262109375,6.074779609375C131.42011109375,3.909029609375,133.35026109375,2.152099609375,135.37598109375,2.152099609375C136.02011109375,2.152099609375,136.44954109374999,2.710711609375,136.33601109375,3.398839609375L136.33599109375,3.3999796093750003Z" fill="#000000" fill-opacity="1" style="mix-blend-mode:passthrough"/></g><g><path d="M138.66730256347657,27.963384287109374C138.33790256347658,29.961334287109374,136.55610256347657,31.581984287109375,134.68780256347657,31.581984287109375L121.39022556347656,31.581984287109375C120.74609056347656,31.581984287109375,120.31665856347657,31.023374287109377,120.43019866347656,30.335244287109376C120.75958056347656,28.337304287109376,122.54135256347656,26.716644287109375,124.40969256347657,26.716644287109375L137.70720256347656,26.716644287109375C138.35140256347657,26.716644287109375,138.78080256347656,27.275260287109376,138.66730256347657,27.963384287109374Z" fill="#000000" fill-opacity="1" style="mix-blend-mode:passthrough"/></g><g><path d="M140.5589853149414,11.306325571289062C140.21728531494142,13.379735571289062,138.3691853149414,15.060075571289062,136.43118531494142,15.060075571289062L125.5966083149414,15.060075571289062C124.9524733149414,15.060075571289062,124.52304131494141,14.501465571289064,124.6365814149414,13.813335571289063C124.97832731494141,11.739935571289063,126.8264153149414,10.059585571289062,128.76445531494142,10.059585571289062L139.59898531494142,10.059585571289062C140.2430853149414,10.059585571289062,140.67258531494141,10.618197571289063,140.5589853149414,11.306325571289062Z" fill="#000000" fill-opacity="1" style="mix-blend-mode:passthrough"/></g><g><path d="M172.5796272705078,6.444219836845398C172.4605272705078,7.166139836845398,171.8175272705078,7.750659836845398,171.14302727050782,7.750659836845398L152.70696727050782,7.750659836845398C152.0324772705078,7.750659836845398,151.38946727050782,8.335179836845398,151.27029727050783,9.057089836845398L148.49814727050781,25.8729798368454C148.37897727050782,26.594879836845397,148.8297672705078,27.1793798368454,149.50424727050782,27.1793798368454L166.37102727050782,27.1793798368454C168.2258272705078,27.1793798368454,169.4646272705078,28.7876798368454,169.1375272705078,30.772079836845396C169.01832727050783,31.493979836845398,168.37532727050782,32.078479836845396,167.7008272705078,32.078479836845396L143.89474727050782,32.078479836845396C143.22025927050782,32.078479836845396,142.7705997705078,31.493979836845398,142.8886408705078,30.772079836845396L146.5758572705078,8.401619836845398C147.08734727050782,5.299969836845397,149.85274727050782,2.785079836845398,152.75191727050782,2.785079836845398L169.7591272705078,2.785079836845398C171.6488272705078,2.785079836845398,172.9113272705078,4.423749836845398,172.57742727050783,6.4453498368453985L172.5796272705078,6.444219836845398Z" fill="#000000" fill-opacity="1" style="mix-blend-mode:passthrough"/></g><g><path d="M154.14451346875,9.74202203125C155.19446046875,8.73178703125,156.68509046875,8.67998103125,157.46861046875,9.63052603125C158.70630046875,11.13067703125,160.11036046875,12.88084703125,161.68080046875,14.879917031249999C163.40633046875,17.07945703125,165.06453046875,19.22270703125,166.65513046875,21.311807031249998C167.39143046875,22.27930703125,167.13963046875,23.834607031250002,166.09193046875,24.80990703125L165.82103046875,25.06110703125C164.72383046875,26.08150703125,163.18939046875,26.06460703125,162.44971046875,25.02390703125C161.02653046875,23.020407031250002,159.49096046875,20.91770703125,157.84295046875,18.714757031250002C156.27139046875,16.61545703125,154.87182046875,14.78756703125,153.64200846875,13.23110703125C152.89219646875,12.28168703125,153.11590136875,10.73311703125,154.14450046875,9.74315303125L154.14451346875,9.74202203125Z" fill="#000000" fill-opacity="1" style="mix-blend-mode:passthrough"/></g><g><path d="M150.8427029057617,24.488634992980955C150.2345349057617,23.378134992980957,150.67858190576172,21.79803499298096,151.83982590576173,20.924134992980957C153.8722759057617,19.39243499298096,155.99917590576172,17.602814992980957,158.2204859057617,15.555314992980957C160.50475590576173,13.448134992980957,162.60126590576172,11.342064992980957,164.50786590576172,9.234878992980956C165.49706590576173,8.142427992980958,167.00346590576171,7.930697992980957,167.91066590576173,8.764111992980958C168.85156590576173,9.627934992980958,168.7874659057617,11.280124992980957,167.76226590576172,12.414244992980958C165.70736590576172,14.691494992980957,163.46016590576173,16.970994992980955,161.02186590576173,19.255034992980956C158.6724159057617,21.454534992980957,156.4319959057617,23.381534992980956,154.29834590576172,25.037134992980956C153.0910159057617,25.974134992980957,151.55204690576173,25.787134992980956,150.91353890576173,24.62153499298096L150.84159190576173,24.490834992980957L150.8427029057617,24.488634992980955Z" fill="#000000" fill-opacity="1" style="mix-blend-mode:passthrough"/></g><g><path d="M62.88076835772705,17.528643640625C63.77221635772705,16.449710640625,65.25159635772705,16.367493640625,65.90584635772706,17.357456640625C66.85687635772705,18.795656640625,67.94617635772705,20.069436640625,69.17149635772705,21.181036640625C70.21807635772706,22.130446640625,71.43440635772706,23.073106640625,72.81939635772704,24.010136640625C74.51459635772704,25.157776640625002,74.75399635772705,27.721106640625003,73.36229635772705,29.744906640625C72.85309635772705,30.484906640625,71.92116635772705,30.719106640625,71.33548635772705,30.252906640625C69.36597635772705,28.687406640625,67.60668635772706,27.009306640625,66.05760635772705,25.217466640625C64.56023635772705,23.485316640625,63.36864635772705,21.706986640625,62.48505935772705,19.884736640625C62.14107035772705,19.175206640625,62.29620298772705,18.233676640625,62.87851135772705,17.528647640625L62.88076835772705,17.528643640625Z" fill="#000000" fill-opacity="1" style="mix-blend-mode:passthrough"/></g><g><path d="M77.00754100818634,14.652569500427246C76.69504100818634,16.550279500427244,75.00314100818633,18.088719500427246,73.22924100818634,18.088719500427246L50.48773100818634,18.088719500427246C49.73229800818634,18.088719500427246,49.22755700818634,17.433249500427245,49.36133050818634,16.625739500427247C49.67384400818634,14.728029500427246,51.36568100818634,13.189589500427246,53.13959100818634,13.189589500427246L75.88114100818635,13.189589500427246C76.63654100818634,13.189589500427246,77.14134100818634,13.845060500427246,77.00754100818634,14.652569500427246Z" fill="#000000" fill-opacity="1" style="mix-blend-mode:passthrough"/></g><g><path d="M59.38721772384643,7.390355468215942C58.68911772384644,6.568205468215942,57.82802772384643,5.312445468215943,57.16140772384644,4.516198468215943C56.84776772384644,4.141163468215942,56.34864772384643,3.9575858682159426,55.87312772384644,4.0713334682159426C55.86300772384644,4.0735846682159425,55.85401772384643,4.075839368215942,55.84389772384644,4.078090568215942C55.633687723846435,4.132151168215942,55.44145772384643,4.243647468215943,55.28182772384643,4.391184468215942C53.65180972384643,5.9070954682159424,53.360655723846435,7.962475468215942,54.410609723846434,9.874835468215942C54.45557472384643,9.955925468215941,54.515154723846436,10.027995468215941,54.556747723846435,10.111345468215942C56.63754772384644,14.342615468215943,61.340977723846436,10.601255468215943,59.51086772384644,7.557035468215942C59.47489772384644,7.497345468215942,59.43330772384643,7.442165468215943,59.38833772384643,7.389225468215942L59.38721772384643,7.390355468215942Z" fill="#000000" fill-opacity="1" style="mix-blend-mode:passthrough"/></g><g><path d="M67.6747221899414,3.4315518517684938L63.491762189941404,28.805631851768492C63.114052189941404,31.097531851768494,61.0714721899414,32.95473185176849,58.92884118994141,32.95473185176849C58.333044189941404,32.95473185176849,57.93397298994141,32.43773185176849,58.03964318994141,31.799231851768493L62.222602189941405,6.425091851768494C62.600312189941405,4.133191851768494,64.64290218994141,2.2760318517684937,66.7855221899414,2.2760318517684937C67.3813221899414,2.2760318517684937,67.78039218994141,2.792973851768494,67.6747221899414,3.4315518517684938Z" fill="#000000" fill-opacity="1" style="mix-blend-mode:passthrough"/></g><g><path d="M74.777870055542,4.107149660736084C73.425520055542,2.6430386607360843,71.796630055542,5.260418660736084,70.79839005554199,6.352868660736084C69.555078055542,7.713358660736084,67.82276805554199,9.540118660736084,69.20096905554199,11.121348660736084C70.519590055542,12.584328660736084,72.341840055542,11.340968660736085,73.50421005554199,10.046918660736084C73.66721005554199,9.865598660736083,73.83807005554199,9.693278660736084,74.016820055542,9.527728660736084C75.592880055542,8.070378660736084,76.235880055542,5.508188660736084,74.77674005554199,4.107149660736084L74.777870055542,4.107149660736084Z" fill="#000000" fill-opacity="1" style="mix-blend-mode:passthrough"/></g><g transform="matrix(0.6002658605575562,-0.7998005747795105,0.7987290620803833,0.6016908288002014,42.44201123993895,95.87254021532183)"><ellipse cx="119.9429714679718" cy="7.821707010269165" rx="2.804703950881958" ry="2.335299253463745" fill="#000000" fill-opacity="1" style="mix-blend-mode:passthrough"/></g><g><path d="M48.342655368652345,30.10609980926514C47.61195936865234,28.184799809265137,48.58322536865234,25.711569809265136,50.544865368652346,24.543669809265136C52.014125368652344,23.668579809265136,53.458655368652344,22.700019809265136,54.877335368652346,21.637979809265136C56.660235368652344,20.303379809265138,58.26331536865234,18.898969809265136,59.68531536865234,17.422471809265136C60.62731536865235,16.444898809265137,62.04261536865234,16.461791809265137,62.63961536865234,17.458511809265136C63.05891536865234,18.157899809265135,62.94201536865234,19.146739809265135,62.35401536865234,19.901319809265136C60.89601536865234,21.775379809265136,59.230015368652346,23.536809809265137,57.356085368652344,25.186749809265137C55.34273536865234,26.959399809265136,52.91232536865235,28.748999809265136,50.06372536865234,30.555499809265136C49.38586536865235,30.985699809265135,48.597839368652345,30.780799809265137,48.34153436865235,30.108399809265137L48.342655368652345,30.10609980926514Z" fill="#000000" fill-opacity="1" style="mix-blend-mode:passthrough"/></g></g><g clip-path="url(#master_svg1_402_0837)"><g><g><g><ellipse cx="11.109375" cy="11.109375" rx="11.109375" ry="11.109375" fill="#000000" fill-opacity="0.8999999761581421"/></g><g><ellipse cx="30.796875" cy="11.109375" rx="7.171875" ry="7.171875" fill="#000000" fill-opacity="0.8999999761581421"/></g><g><ellipse cx="23.90625" cy="26.53125" rx="6.5625" ry="6.5625" fill="#000000" fill-opacity="0.8999999761581421"/></g></g></g></g></g></svg>