<svg xmlns="http://www.w3.org/2000/svg" xmlns:xlink="http://www.w3.org/1999/xlink" fill="none" version="1.1" width="109.58848571777344" height="33.09375" viewBox="0 0 109.58848571777344 33.09375"><defs><filter id="master_svg0_42_1068" filterUnits="objectBoundingBox" color-interpolation-filters="sRGB" x="0" y="0" width="109.58848571777344" height="33.09375"><feFlood flood-opacity="0" result="BackgroundImageFix"/><feBlend mode="normal" in="SourceGraphic" in2="BackgroundImageFix" result="shape"/><feColorMatrix in="SourceAlpha" type="matrix" result="hardAlpha" values="0 0 0 0 0 0 0 0 0 0 0 0 0 0 0 0 0 0 127 0"/><feOffset dy="0" dx="0"/><feGaussianBlur stdDeviation="5"/><feComposite in2="hardAlpha" operator="arithmetic" k2="-1" k3="1"/><feColorMatrix type="matrix" values="0 0 0 0 0 0 0 0 0 0 0 0 0 0 0 0 0 0 0.019999999552965164 0"/><feBlend mode="normal" in2="shape" result="effect1_innerShadow"/></filter><clipPath id="master_svg1_42_1069"><rect x="0" y="0" width="37.96875" height="33.09375" rx="0"/></clipPath></defs><g filter="url(#master_svg0_42_1068)"><g><path d="M66.10576525878906,13.2585L67.71336525878905,3.52506L67.71226525878906,3.5261899999999997C67.81766525878906,2.8900040000000002,67.41936525878907,2.375,66.82476525878906,2.375C64.68616525878906,2.375,62.64746525878906,4.2252,62.27046525878906,6.50849L61.15596525878907,13.2585L53.120525258789066,13.2585C51.34998525878906,13.2585,49.661355258789065,14.7912,49.349435258789065,16.681800000000003C49.21591525878906,17.4863,49.71969525878906,18.1393,50.473695258789064,18.1393L58.98026525878906,18.1393C57.73464525878906,19.3621,56.36048525878906,20.5339,54.85840525878906,21.6562C53.442425258789065,22.7143,52.00063525878906,23.6792,50.53416525878906,24.551C48.576256258789066,25.7145,47.60683625878906,28.1785,48.33614525878906,30.0926L48.33502225878906,30.0949C48.59084125878906,30.7647,49.377375258789066,30.9689,50.053945258789064,30.5403C52.89712525878906,28.7406,55.32291525878906,26.9577,57.332445258789065,25.1917C58.09946525878906,24.5176,58.831465258789066,23.8249,59.52866525878906,23.1135L58.09656525878906,31.7863C57.99112525878906,32.4225,58.38946525878906,32.9375,58.98406525878906,32.9375C61.12266525878906,32.9375,63.16136525878906,31.0873,63.538365258789064,28.804L64.46456525878907,23.1958C64.95876525878906,23.8902,65.50046525878906,24.5776,66.08956525878907,25.2578C67.63576525878906,27.043,69.39166525878906,28.7148,71.35746525878906,30.2743C71.94206525878906,30.7389,72.87216525878907,30.5055,73.38046525878906,29.7683C74.76946525878907,27.7521,74.53056525878907,25.1984,72.83856525878906,24.055C71.45616525878907,23.1215,70.24216525878906,22.1824,69.19756525878907,21.2365C68.18116525878906,20.3162,67.25846525878906,19.2842,66.43086525878905,18.1393L73.17316525878906,18.1393C74.94366525878907,18.1393,76.63226525878906,16.6066,76.94426525878906,14.716L76.94306525878906,14.716C77.07656525878906,13.9115,76.57286525878907,13.2585,75.81886525878906,13.2585L66.10576525878906,13.2585ZM106.76776525878907,3.048203L96.35326525878907,3.048203C95.09886525878906,3.048203,93.90396525878907,4.13319,93.68286525878906,5.47175C93.46186525878906,6.81031,94.29886525878906,7.8953,95.55216525878906,7.8953L105.96666525878906,7.8953C107.22106525878905,7.8953,108.41606525878906,6.81031,108.63706525878906,5.47175C108.85806525878905,4.13319,108.02106525878906,3.048203,106.76776525878907,3.048203ZM71.39006525878906,5.74169C72.37376525878906,4.54254,73.68826525878906,2.94023,74.81156525878906,4.15412L74.81046525878907,4.15412C76.26686525878907,5.549910000000001,75.62506525878906,8.10248,74.05196525878907,9.554369999999999C73.87356525878906,9.71931,73.70306525878907,9.89097,73.54036525878907,10.07162C72.38016525878906,11.36081,70.56136525878907,12.5995,69.24526525878906,11.14202C67.89886525878906,9.60008,69.52686525878906,7.82379,70.76016525878906,6.47815C70.78686525878906,6.44904,70.81336525878906,6.42012,70.83966525878907,6.39142C71.00686525878906,6.20881,71.19166525878906,5.9834499999999995,71.39006525878906,5.74169ZM88.74606525878906,5.1172C88.86276525878907,4.40921,88.41956525878906,3.83474,87.75646525878906,3.83474L87.75646525878906,3.83362C85.94776525878906,3.83362,84.22216525878906,5.3999500000000005,83.90346525878905,7.33093L83.49886525878907,9.78121C82.26786525878907,9.816980000000001,81.10926525878907,10.88786,80.89196525878907,12.20384C80.67456525878907,13.52,81.48026525878906,14.5911,82.69876525878905,14.6265L81.00966525878906,24.8551C79.54246525878906,25.8611,78.56416525878906,27.6181,78.61436525878906,29.3891C78.62776525878905,29.8704,79.03286525878906,30.1689,79.49846525878905,30.0421L79.49626525878907,30.0421L82.08246525878906,29.3128C82.93186525878906,29.0805,83.61406525878905,28.8954,84.18396525878907,28.7417C86.49196525878907,28.119,88.26366525878906,25.7942,88.25916525878907,23.3976C88.25806525878906,22.887,87.82716525878907,22.5706,87.33796525878907,22.721Q86.61446525878907,22.9437,85.75996525878907,23.1993L87.17556525878906,14.6274L88.27816525878906,14.6274C89.53256525878906,14.6274,90.72746525878907,13.5424,90.94856525878906,12.20384C91.16956525878906,10.86527,90.33256525878906,9.78029,89.07926525878906,9.78029L87.97606525878906,9.78029L88.74606525878906,5.1172ZM59.398665258789066,7.51009C58.70186525878906,6.69102,57.84241525878906,5.43998,57.17705525878906,4.64672C56.86401525878907,4.27309,56.365845258789065,4.0902,55.89123525878906,4.20352C55.881135258789065,4.20577,55.87216525878906,4.20801,55.86206525878906,4.21025C55.652245258789065,4.2641100000000005,55.46038525878906,4.37519,55.30105525878906,4.52217C53.674135258789065,6.0324,53.38353525878906,8.080079999999999,54.43149525878906,9.98525C54.47637525878906,10.066040000000001,54.53584525878906,10.13785,54.57735525878906,10.220880000000001C56.65420525878906,14.4363,61.34866525878906,10.70895,59.52206525878906,7.67615C59.486165258789065,7.61668,59.44466525878906,7.56171,59.39976525878906,7.50897L59.398665258789066,7.51009ZM94.13026525878905,12.24872L108.91606525878906,12.24872C109.35816525878906,12.24872,109.65436525878906,12.6313,109.57586525878907,13.1037L109.52196525878907,13.4313C109.18766525878905,15.4554,107.38006525878906,17.0958,105.48496525878906,17.0958L99.78506525878906,17.0958C99.21216525878907,18.0658,98.51606525878907,19.1887,97.69616525878907,20.4643C96.65606525878906,22.0823,95.71236525878906,23.5241,94.86526525878907,24.7875C94.45796525878906,25.3945,94.79576525878906,26.1182,95.44986525878906,26.0441L101.41076525878907,25.3655C101.25466525878906,24.3493,101.10836525878906,23.4335,100.97206525878906,22.6174C100.76336525878907,21.3652,101.61276525878907,19.9919,102.86156525878906,19.5599L102.86266525878906,19.5599C104.06886525878906,19.1425,105.20886525878906,19.7596,105.44666525878907,20.9568C105.68116525878906,22.1349,105.94036525878906,23.5038,106.22536525878905,25.0645C106.49236525878906,26.5276,106.71906525878907,27.8314,106.90416525878906,28.9758C107.11516525878906,30.2807,106.18276525878906,31.699,104.87446525878906,32.0659L104.62766525878907,32.135400000000004C103.41136525878906,32.4765,102.32186525878906,31.7786,102.15916525878906,30.5545C102.12416525878906,30.2913,102.08806525878907,30.0236,102.05076525878906,29.7512L92.17696525878907,31.1324C90.50626525878906,31.3501,89.01736525878906,30.3167,88.75476525878906,28.655L88.75366525878906,28.6528C88.60106525878906,27.6879,88.85806525878905,26.6276,89.46056525878906,25.7288C90.61956525878907,23.9998,91.15366525878906,23.0315,92.40806525878907,21.1824C93.31386525878906,19.8463,94.13746525878906,18.4058,94.83976525878907,17.0958L90.39276525878907,17.0958C89.95076525878906,17.0958,89.65456525878906,16.7132,89.73306525878905,16.2408C90.09656525878907,14.0361,92.06576525878907,12.24984,94.13026525878905,12.24984L94.13026525878905,12.24872Z" fill-rule="evenodd" fill="#000000" fill-opacity="0.8999999761581421"/></g><g clip-path="url(#master_svg1_42_1069)"><g><g><g><ellipse cx="11.109375" cy="11.109375" rx="11.109375" ry="11.109375" fill="#000000" fill-opacity="0.8999999761581421"/></g><g><ellipse cx="30.796875" cy="11.109375" rx="7.171875" ry="7.171875" fill="#000000" fill-opacity="0.8999999761581421"/></g><g><ellipse cx="23.90625" cy="26.53125" rx="6.5625" ry="6.5625" fill="#000000" fill-opacity="0.8999999761581421"/></g></g></g></g></g></svg>