<svg xmlns="http://www.w3.org/2000/svg" xmlns:xlink="http://www.w3.org/1999/xlink" fill="none" version="1.1" width="30" height="30" viewBox="0 0 30 30"><defs><radialGradient cx="0" cy="0" r="1" gradientUnits="userSpaceOnUse" id="master_svg0_802_2203" gradientTransform="translate(15 23.994750981219113) rotate(90) scale(3.065185504965484 6.380462079847616)"><stop offset="0%" stop-color="#000000" stop-opacity="0.20000000298023224"/><stop offset="100%" stop-color="#000000" stop-opacity="0.11999999731779099"/></radialGradient></defs><g><g><rect x="0" y="0" width="30" height="30" rx="0" fill="#FFFFFF" fill-opacity="1"/></g><g><path d="M15,27.5Q17.077849999999998,27.5,19.145310000000002,26.810859999999998Q19.262059999999998,26.77193,19.369059999999998,26.71095Q19.476,26.64998,19.569000000000003,26.56932Q19.662,26.48865,19.7375,26.39139Q19.813000000000002,26.29413,19.86806,26.18402Q20,25.920090000000002,20,25.625L20,25.62049Q19.99925,25.41996,19.93587,25.229716Q19.90494,25.136952,19.85994,25.050125Q19.814999999999998,24.963298,19.75706,24.884524Q19.69913,24.805746,19.62969,24.736929Q19.56019,24.668117,19.48088,24.610949Q19.40156,24.553776,19.31431,24.50963Q19.22706,24.4654894,19.134,24.4354486Q19.04094,24.4054127,18.94437,24.3902063Q18.847810000000003,24.375,18.75,24.375Q18.73831,24.375,18.726689999999998,24.375219345Q18.535809999999998,24.37878132,18.354689999999998,24.4391441Q16.672150000000002,25,15,25Q13.32785,25,11.64529,24.4391441Q11.45285,24.375,11.25,24.375Q11.215489999999999,24.375,11.18103,24.37690735Q11.08773,24.38206196,10.99623,24.4010305Q10.904732,24.4199991,10.817074999999999,24.4523621Q10.729415,24.484725,10.647542,24.529762Q10.56567,24.5748,10.4914,24.631505Q10.417137,24.68821,10.352125000000001,24.75533Q10.287113,24.822454,10.232806,24.898496Q10.178494,24.974532,10.136094,25.057802Q10.0936937,25.141068,10.0641441,25.229716Q10,25.42215,10,25.625Q10,25.65951,10.00190735,25.69397Q10.00706196,25.78728,10.0260305,25.87877Q10.0449991,25.97027,10.0773621,26.05793Q10.109725,26.14559,10.154762,26.22746Q10.1998,26.30933,10.256507,26.3836Q10.313213,26.45786,10.38033,26.52287Q10.447457,26.58789,10.523493,26.64219Q10.599532,26.69651,10.6828,26.73891Q10.766068,26.78131,10.854714,26.810859999999998Q12.92216,27.5,15,27.5Z" fill-rule="evenodd" fill="url(#master_svg0_802_2203)" fill-opacity="1"/></g></g></svg>