<svg xmlns="http://www.w3.org/2000/svg" xmlns:xlink="http://www.w3.org/1999/xlink" fill="none" version="1.1" width="48" height="48" viewBox="0 0 48 48"><defs><filter id="master_svg0_636_1417" filterUnits="objectBoundingBox" color-interpolation-filters="sRGB" x="0" y="0" width="48" height="48"><feFlood flood-opacity="0" result="BackgroundImageFix"/><feBlend mode="normal" in="SourceGraphic" in2="BackgroundImageFix" result="shape"/><feColorMatrix in="SourceAlpha" type="matrix" result="hardAlpha" values="0 0 0 0 0 0 0 0 0 0 0 0 0 0 0 0 0 0 127 0"/><feOffset dy="0" dx="0"/><feGaussianBlur stdDeviation="5"/><feComposite in2="hardAlpha" operator="arithmetic" k2="-1" k3="1"/><feColorMatrix type="matrix" values="0 0 0 0 0 0 0 0 0 0 0 0 0 0 0 0 0 0 0.019999999552965164 0"/><feBlend mode="normal" in2="shape" result="effect1_innerShadow"/></filter><clipPath id="master_svg1_636_1422"><rect x="11" y="11" width="26" height="26" rx="0"/></clipPath></defs><g><g filter="url(#master_svg0_636_1417)"><ellipse cx="24" cy="24" rx="24" ry="24" fill="#FF6326" fill-opacity="1"/></g><g clip-path="url(#master_svg1_636_1422)"><g><path d="M27.471710176086425,14.783685114440917C27.686610176086425,14.876832114440917,27.882010176086425,15.009788114440918,28.047410176086427,15.175542114440917L32.91131017608643,20.044350114440917C33.832610176086426,20.966920114440917,33.54141017608643,22.52684011444092,32.34921017608643,23.054780114440916L30.625810176086425,23.818070114440918L27.392510176086425,27.05510011444092L27.136210176086426,30.615800114440916C27.083910176086427,31.340900114440917,26.613410176086425,31.968800114440917,25.932110176086425,32.22250011444092C25.25091017608643,32.47630011444092,24.484310176086424,32.309300114440916,23.970400176086425,31.795100114440917L20.830590176086424,28.652200114440916L16.480070176086425,33.02750011444092L14.822110176086426,33.37210011444092L15.164062176086425,31.716900114440918L19.517590176086426,27.33860011444092L16.269440176086427,24.087970114440918C15.756415176086426,23.574460114440917,15.589585176086425,22.809120114440915,15.842350176086425,22.128680114440918C16.095120176086425,21.448240114440917,16.721160176086425,20.977430114440917,17.445020176086427,20.923400114440916L21.107300176086426,20.64978011444092L24.283020176086424,17.47035011444092L25.029010176086423,15.749400114440919C25.436710176086425,14.808073114440917,26.530510176086423,14.375669114440917,27.471710176086425,14.783685114440917ZM26.733210176086423,16.487920114440918L25.846710176086425,18.532640114440916L21.934350176086426,22.45121011444092L17.582440176086426,22.77497011444092L25.284010176086426,30.482100114440918L25.589810176086424,26.23170011444092L29.556710176086426,22.259920114440916L31.597710176086427,21.35612011444092L26.733210176086423,16.487920114440918Z" fill="#FFFFFF" fill-opacity="1"/><path d="M27.662610176086424,14.343284114440918L27.662610176086424,14.343277114440918Q26.774310176086423,13.958184114440918,25.873810176086426,14.314156114440918Q24.973410176086425,14.670131814440918,24.588560176086425,15.558503114440917L23.87891017608643,17.195710114440917L20.893710176086426,20.18440011444092L17.409280176086426,20.44473011444092Q16.726070176086427,20.495730114440917,16.178520176086426,20.907510114440917Q15.630973176086426,21.319300114440917,15.392398176086425,21.96153011444092Q15.153823176086426,22.603760114440917,15.299738176086425,23.273150114440917Q15.445653176086426,23.94255011444092,15.929900176086425,24.427250114440916L18.839860176086425,27.33940011444092L14.722906876086427,31.479800114440916L14.204150176086426,33.99090011444092L16.718840176086427,33.468100114440915L20.831380176086427,29.332200114440916L23.630910176086424,32.13450011444092Q24.115970176086428,32.61970011444092,24.786360176086426,32.76580011444092Q25.456710176086425,32.91180011444092,26.099710176086425,32.672300114440915Q26.742710176086426,32.43280011444092,27.154110176086427,31.883800114440916Q27.565610176086423,31.334700114440917,27.615010176086425,30.650300114440917L27.858410176086426,27.267800114440917L30.902110176086424,24.220670114440917L32.543610176086425,23.493670114440917Q33.668810176086424,22.99538011444092,33.89471017608643,21.78565011444092Q34.12051017608643,20.57592011444092,33.25091017608642,19.705110114440917L28.387110176086424,14.836413114440917Q28.071910176086426,14.520702114440917,27.662610176086424,14.343284114440918ZM21.107300176086426,20.64978011444092L24.283020176086424,17.47035011444092L25.029010176086423,15.749400114440919C25.436710176086425,14.808073114440917,26.530510176086423,14.375669114440917,27.471710176086425,14.783685114440917C27.686610176086425,14.876832114440917,27.882010176086425,15.009788114440918,28.047410176086427,15.175542114440917L32.91131017608643,20.044350114440917C33.832610176086426,20.966920114440917,33.54141017608643,22.52684011444092,32.34921017608643,23.054780114440916L30.625810176086425,23.818070114440918L27.392510176086425,27.05510011444092L27.136210176086426,30.615800114440916C27.083910176086427,31.340900114440917,26.613410176086425,31.968800114440917,25.932110176086425,32.22250011444092C25.25091017608643,32.47630011444092,24.484310176086424,32.309300114440916,23.970400176086425,31.795100114440917L21.169830176086425,28.99180011444092L20.830590176086424,28.652200114440916L20.492140176086426,28.99260011444092L16.480070176086425,33.02750011444092L15.334241176086426,33.26570011444092L14.822110176086426,33.37210011444092L14.927938176086426,32.85990011444092L15.164062176086425,31.716900114440918L19.517590176086426,27.33860011444092L16.269440176086427,24.087970114440918C15.756415176086426,23.574460114440917,15.589585176086425,22.809120114440915,15.842350176086425,22.128680114440918C16.095120176086425,21.448240114440917,16.721160176086425,20.977430114440917,17.445020176086427,20.923400114440916L21.107300176086426,20.64978011444092ZM31.127310176086425,21.564430114440917L29.556710176086426,22.259920114440916L25.589810176086424,26.23170011444092L25.329610176086426,29.848700114440916L25.284010176086426,30.482100114440918L24.835110176086424,30.03290011444092L18.030140176086427,23.22299011444092L17.582440176086426,22.77497011444092L18.214060176086427,22.727980114440918L21.934350176086426,22.45121011444092L25.846710176086425,18.532640114440916L26.527910176086426,16.96152011444092L26.733210176086423,16.487920114440918L27.098110176086426,16.853070114440918L31.234010176086425,20.992190114440916L31.597710176086427,21.35612011444092L31.127310176086425,21.564430114440917ZM25.123910176086426,26.019000114440917L24.880710176086424,29.399400114440915L18.661760176086425,23.176000114440917L22.147930176086426,22.91665011444092L26.250810176086425,18.80724011444092L26.892710176086425,17.32666011444092L30.763610176086424,21.200500114440917L29.280410176086427,21.857320114440917L25.123910176086426,26.019000114440917Z" fill-rule="evenodd" fill="#FFFFFF" fill-opacity="1"/></g></g></g></svg>