<svg xmlns="http://www.w3.org/2000/svg" xmlns:xlink="http://www.w3.org/1999/xlink" fill="none" version="1.1" width="54.000003814697266" height="54" viewBox="0 0 54.000003814697266 54"><defs><clipPath id="master_svg0_199_0231"><rect x="0" y="0" width="54.000003814697266" height="54" rx="0"/></clipPath><filter id="master_svg1_199_0233" filterUnits="objectBoundingBox" color-interpolation-filters="sRGB" x="0" y="0" width="54.000003814697266" height="54"><feFlood flood-opacity="0" result="BackgroundImageFix"/><feBlend mode="normal" in="SourceGraphic" in2="BackgroundImageFix" result="shape"/><feColorMatrix in="SourceAlpha" type="matrix" result="hardAlpha" values="0 0 0 0 0 0 0 0 0 0 0 0 0 0 0 0 0 0 127 0"/><feOffset dy="0" dx="0"/><feGaussianBlur stdDeviation="5"/><feComposite in2="hardAlpha" operator="arithmetic" k2="-1" k3="1"/><feColorMatrix type="matrix" values="0 0 0 0 0 0 0 0 0 0 0 0 0 0 0 0 0 0 0.019999999552965164 0"/><feBlend mode="normal" in2="shape" result="effect1_innerShadow"/></filter><filter id="master_svg2_199_0234" filterUnits="objectBoundingBox" color-interpolation-filters="sRGB" x="-48" y="-48" width="144.00000381469727" height="144"><feFlood flood-opacity="0" result="BackgroundImageFix"/><feColorMatrix in="SourceAlpha" type="matrix" values="0 0 0 0 0 0 0 0 0 0 0 0 0 0 0 0 0 0 127 0"/><feOffset dy="0" dx="0"/><feGaussianBlur stdDeviation="12"/><feColorMatrix type="matrix" values="0 0 0 0 0 0 0 0 0 0 0 0 0 0 0 0 0 0 0.009999999776482582 0"/><feBlend mode="normal" in2="BackgroundImageFix" result="effect1_dropShadow"/><feBlend mode="normal" in="SourceGraphic" in2="effect1_dropShadow" result="shape"/></filter></defs><g clip-path="url(#master_svg0_199_0231)"><g filter="url(#master_svg1_199_0233)"><ellipse cx="27.000001907348633" cy="27" rx="27.000001907348633" ry="27" fill="#F2F2F2" fill-opacity="1"/></g><g filter="url(#master_svg2_199_0234)"><ellipse cx="27.000001907348633" cy="27" rx="24.000001907348633" ry="24" fill="#FFFFFF" fill-opacity="1"/></g><g><g><path d="M36.3333740234375,17.416671752929688L17.6667040234375,17.416671752929688Q16.5966540234375,17.416671752929688,15.8400140234375,18.173312752929686Q15.0833740234375,18.92995175292969,15.0833740234375,20.000001752929688L15.0833740234375,33.99997175292969Q15.0833740234375,35.07007175292969,15.8400140234375,35.826671752929684Q16.5966540234375,36.583371752929686,17.6667040234375,36.583371752929686L36.3333740234375,36.583371752929686Q37.4034740234375,36.583371752929686,38.1600740234375,35.826671752929684Q38.9166740234375,35.07007175292969,38.9166740234375,33.99997175292969L38.9166740234375,20.000001752929688Q38.9166740234375,18.92995175292969,38.1600740234375,18.173312752929686Q37.4034740234375,17.416671752929688,36.3333740234375,17.416671752929688ZM34.0794740234375,20.250001752929688L19.9210340234375,20.250001752929688L27.0002740234375,27.329221752929687L34.0794740234375,20.250001752929688ZM17.9167040234375,33.74997175292969L36.0833740234375,33.74997175292969L36.0833740234375,22.253041752929686L28.0018740234375,30.334571752929687Q27.5871740234375,30.749671752929686,27.0002740234375,30.74957175292969Q26.413274023437502,30.749671752929686,25.9982740234375,30.334671752929687L17.9167040234375,22.252671752929686L17.9167040234375,33.74997175292969Z" fill-rule="evenodd" fill="#000000" fill-opacity="0.8999999761581421"/></g></g></g></svg>