<svg xmlns="http://www.w3.org/2000/svg" xmlns:xlink="http://www.w3.org/1999/xlink" fill="none" version="1.1" width="144" height="144" viewBox="0 0 144 144"><defs><filter id="master_svg0_199_4328" filterUnits="objectBoundingBox" color-interpolation-filters="sRGB" x="0" y="0" width="144" height="144"><feFlood flood-opacity="0" result="BackgroundImageFix"/><feBlend mode="normal" in="SourceGraphic" in2="BackgroundImageFix" result="shape"/><feColorMatrix in="SourceAlpha" type="matrix" result="hardAlpha" values="0 0 0 0 0 0 0 0 0 0 0 0 0 0 0 0 0 0 127 0"/><feOffset dy="0" dx="0"/><feGaussianBlur stdDeviation="5"/><feComposite in2="hardAlpha" operator="arithmetic" k2="-1" k3="1"/><feColorMatrix type="matrix" values="0 0 0 0 0 0 0 0 0 0 0 0 0 0 0 0 0 0 0.019999999552965164 0"/><feBlend mode="normal" in2="shape" result="effect1_innerShadow"/></filter></defs><g><g filter="url(#master_svg0_199_4328)"><ellipse cx="72" cy="72" rx="72" ry="72" fill="#000000" fill-opacity="0.05000000074505806"/></g><g><g><path d="M94.66715859375,48.72625732421875L49.33386859375,48.72625732421875Q46.735168593750004,48.72625732421875,44.89761859375,50.56381732421875Q43.06005859375,52.401367324218754,43.06005859375,55.00006732421875L43.06005859375,89.00005732421874Q43.06005859375,91.59875732421875,44.89761859375,93.43635732421875Q46.735168593750004,95.27385732421875,49.33386859375,95.27385732421875L94.66715859375,95.27385732421875Q97.26585859375001,95.27385732421875,99.10345859374999,93.43635732421875Q100.94095859375,91.59875732421875,100.94095859375,89.00005732421874L100.94095859375,55.00006732421875Q100.94105859375,52.401367324218754,99.10345859374999,50.56381732421875Q97.26585859375001,48.72625732421875,94.66715859375,48.72625732421875ZM89.19345859375,55.60720732421875L54.808658593749996,55.60720732421875L72.00105859375,72.79955732421875L89.19345859375,55.60720732421875ZM49.94100859375,88.39295732421874L94.06005859375,88.39295732421874L94.06005859375,60.47175732421875L74.43355859375,80.09825732421875Q73.42635859375,81.10635732421875,72.00095859375,81.10615732421874Q70.57565859375,81.10635732421875,69.56775859375,80.09845732421874L49.94100859375,60.47085732421875L49.94100859375,88.39295732421874Z" fill-rule="evenodd" fill="#000000" fill-opacity="0.6000000238418579"/></g></g></g></svg>