<svg xmlns="http://www.w3.org/2000/svg" xmlns:xlink="http://www.w3.org/1999/xlink" fill="none" version="1.1" width="56" height="56" viewBox="0 0 56 56"><g><g><g><path d="M9.333328247070312,11.083418046875C9.333328247070312,8.506088046875,11.422658247070313,6.416748046875,13.999988247070313,6.416748046875C13.999988247070313,6.416748046875,42.00002824707031,6.416748046875,42.00002824707031,6.416748046875C44.577428247070316,6.416748046875,46.666628247070314,8.506088046875,46.666628247070314,11.083418046875C46.666628247070314,11.083418046875,46.666628247070314,44.916748046875,46.666628247070314,44.916748046875C46.666628247070314,47.494148046875,44.577428247070316,49.583448046875,42.00002824707031,49.583448046875C42.00002824707031,49.583448046875,13.999988247070313,49.583448046875,13.999988247070313,49.583448046875C11.422658247070313,49.583448046875,9.333328247070312,47.494148046875,9.333328247070312,44.916748046875C9.333328247070312,44.916748046875,9.333328247070312,11.083418046875,9.333328247070312,11.083418046875C9.333328247070312,11.083418046875,9.333328247070312,11.083418046875,9.333328247070312,11.083418046875ZM42.00002824707031,11.083418046875C42.00002824707031,11.083418046875,13.999988247070313,11.083418046875,13.999988247070313,11.083418046875C13.999988247070313,11.083418046875,13.999988247070313,44.916748046875,13.999988247070313,44.916748046875C13.999988247070313,44.916748046875,42.00002824707031,44.916748046875,42.00002824707031,44.916748046875C42.00002824707031,44.916748046875,42.00002824707031,11.083418046875,42.00002824707031,11.083418046875C42.00002824707031,11.083418046875,42.00002824707031,11.083418046875,42.00002824707031,11.083418046875ZM18.666658247070313,21.000048046875C18.666658247070313,19.711448046875,19.711328247070313,18.666748046875,21.00002824707031,18.666748046875C21.00002824707031,18.666748046875,35.00002824707031,18.666748046875,35.00002824707031,18.666748046875C36.28872824707031,18.666748046875,37.33332824707031,19.711448046875,37.33332824707031,21.000048046875C37.33332824707031,22.288748046875,36.28872824707031,23.333448046875,35.00002824707031,23.333448046875C35.00002824707031,23.333448046875,21.00002824707031,23.333448046875,21.00002824707031,23.333448046875C19.711328247070313,23.333448046875,18.666658247070313,22.288748046875,18.666658247070313,21.000048046875C18.666658247070313,21.000048046875,18.666658247070313,21.000048046875,18.666658247070313,21.000048046875ZM21.00002824707031,30.333448046875C19.711328247070313,30.333448046875,18.666658247070313,31.378048046875,18.666658247070313,32.666748046875C18.666658247070313,33.955448046875,19.711328247070313,35.000048046875,21.00002824707031,35.000048046875C21.00002824707031,35.000048046875,28.00002824707031,35.000048046875,28.00002824707031,35.000048046875C29.288628247070314,35.000048046875,30.333328247070312,33.955448046875,30.333328247070312,32.666748046875C30.333328247070312,31.378048046875,29.288628247070314,30.333448046875,28.00002824707031,30.333448046875C28.00002824707031,30.333448046875,21.00002824707031,30.333448046875,21.00002824707031,30.333448046875C21.00002824707031,30.333448046875,21.00002824707031,30.333448046875,21.00002824707031,30.333448046875Z" fill-rule="evenodd" fill="#000000" fill-opacity="0.6000000238418579"/><path d="M8.333328247070312,11.083418046875L8.333328247070312,44.916748046875Q8.333328247070312,47.264048046875,9.993058247070312,48.923748046875Q11.652768247070313,50.583448046875,13.999988247070313,50.583448046875L42.00002824707031,50.583448046875Q44.34722824707031,50.583448046875,46.00692824707031,48.923748046875Q47.666628247070314,47.264048046875,47.666628247070314,44.916748046875L47.666628247070314,11.083418046875Q47.666628247070314,8.736188046875,46.00692824707031,7.076480046875Q44.34722824707031,5.416748046875,42.00002824707031,5.416748046875L13.999988247070313,5.416748046875Q11.652778247070312,5.416748046875,9.993053247070312,7.076478046875Q8.333328247070312,8.736208046875,8.333328247070312,11.083418046875ZM13.999988247070313,6.416748046875C11.422658247070313,6.416748046875,9.333328247070312,8.506088046875,9.333328247070312,11.083418046875L9.333328247070312,44.916748046875C9.333328247070312,47.494148046875,11.422658247070313,49.583448046875,13.999988247070313,49.583448046875L42.00002824707031,49.583448046875C44.577428247070316,49.583448046875,46.666628247070314,47.494148046875,46.666628247070314,44.916748046875L46.666628247070314,11.083418046875C46.666628247070314,8.506088046875,44.577428247070316,6.416748046875,42.00002824707031,6.416748046875L13.999988247070313,6.416748046875ZM42.00002824707031,11.083418046875L13.999988247070313,11.083418046875L13.999988247070313,44.916748046875L42.00002824707031,44.916748046875L42.00002824707031,11.083418046875ZM14.999988247070313,43.916748046875L14.999988247070313,12.083418046875L41.00002824707031,12.083418046875L41.00002824707031,43.916748046875L14.999988247070313,43.916748046875ZM17.666658247070313,21.000048046875Q17.666658247070313,22.380748046875,18.64297824707031,23.357148046875Q19.619328247070314,24.333448046875,21.00002824707031,24.333448046875L35.00002824707031,24.333448046875Q36.38072824707031,24.333448046875,37.35702824707032,23.357048046875Q38.33332824707031,22.380748046875,38.33332824707031,21.000048046875Q38.33332824707031,19.619348046875,37.35702824707032,18.643048046875002Q36.38072824707031,17.666748046875,35.00002824707031,17.666748046875L21.00002824707031,17.666748046875Q19.619328247070314,17.666748046875,18.64297824707031,18.643048046875002Q17.666658247070313,19.619348046875,17.666658247070313,21.000048046875ZM21.00002824707031,18.666748046875C19.711328247070313,18.666748046875,18.666658247070313,19.711448046875,18.666658247070313,21.000048046875C18.666658247070313,22.288748046875,19.711328247070313,23.333448046875,21.00002824707031,23.333448046875L35.00002824707031,23.333448046875C36.28872824707031,23.333448046875,37.33332824707031,22.288748046875,37.33332824707031,21.000048046875C37.33332824707031,19.711448046875,36.28872824707031,18.666748046875,35.00002824707031,18.666748046875L21.00002824707031,18.666748046875ZM17.666658247070313,32.666748046875Q17.666658247070313,34.047448046875004,18.64297824707031,35.023748046875Q19.619328247070314,36.000048046875,21.00002824707031,36.000048046875L28.00002824707031,36.000048046875Q29.380728247070312,36.000048046875,30.357028247070314,35.023748046875Q31.333328247070312,34.047448046875004,31.333328247070312,32.666748046875Q31.333328247070312,31.286048046875,30.357028247070314,30.309748046875Q29.380728247070312,29.333448046875,28.00002824707031,29.333448046875L21.00002824707031,29.333448046875Q19.619328247070314,29.333448046875,18.64297824707031,30.309748046875Q17.666658247070313,31.286048046875,17.666658247070313,32.666748046875ZM18.666658247070313,32.666748046875C18.666658247070313,31.378048046875,19.711328247070313,30.333448046875,21.00002824707031,30.333448046875L28.00002824707031,30.333448046875C29.288628247070314,30.333448046875,30.333328247070312,31.378048046875,30.333328247070312,32.666748046875C30.333328247070312,33.955448046875,29.288628247070314,35.000048046875,28.00002824707031,35.000048046875L21.00002824707031,35.000048046875C19.711328247070313,35.000048046875,18.666658247070313,33.955448046875,18.666658247070313,32.666748046875Z" fill-rule="evenodd" fill="#000000" fill-opacity="0.6000000238418579"/></g></g></g></svg>