<svg xmlns="http://www.w3.org/2000/svg" xmlns:xlink="http://www.w3.org/1999/xlink" fill="none" version="1.1" width="144" height="144" viewBox="0 0 144 144"><defs><filter id="master_svg0_9_1885" filterUnits="objectBoundingBox" color-interpolation-filters="sRGB" x="0" y="0" width="144" height="144"><feFlood flood-opacity="0" result="BackgroundImageFix"/><feBlend mode="normal" in="SourceGraphic" in2="BackgroundImageFix" result="shape"/><feColorMatrix in="SourceAlpha" type="matrix" result="hardAlpha" values="0 0 0 0 0 0 0 0 0 0 0 0 0 0 0 0 0 0 127 0"/><feOffset dy="0" dx="0"/><feGaussianBlur stdDeviation="5"/><feComposite in2="hardAlpha" operator="arithmetic" k2="-1" k3="1"/><feColorMatrix type="matrix" values="0 0 0 0 0 0 0 0 0 0 0 0 0 0 0 0 0 0 0.019999999552965164 0"/><feBlend mode="normal" in2="shape" result="effect1_innerShadow"/></filter></defs><g><g filter="url(#master_svg0_9_1885)"><ellipse cx="72" cy="72" rx="72" ry="72" fill="#000000" fill-opacity="0.05000000074505806"/></g><g><g><path d="M48,50.25C48,46.9363,50.68628,44.25,53.99999,44.25C53.99999,44.25,90,44.25,90,44.25C93.3138,44.25,96,46.93629,96,50.25C96,50.25,96,93.75,96,93.75C96,97.0638,93.3138,99.75,90,99.75C90,99.75,53.99999,99.75,53.99999,99.75C50.68629,99.75,48,97.0638,48,93.75C48,93.75,48,50.25,48,50.25C48,50.25,48,50.25,48,50.25ZM90,50.25C90,50.25,53.99999,50.25,53.99999,50.25C53.99999,50.25,53.99999,93.75,53.99999,93.75C53.99999,93.75,90,93.75,90,93.75C90,93.75,90,50.25,90,50.25C90,50.25,90,50.25,90,50.25ZM60,63C60,61.343199999999996,61.343199999999996,60,63,60C63,60,81,60,81,60C82.65690000000001,60,84,61.343199999999996,84,63C84,64.6568,82.65690000000001,66,81,66C81,66,63,66,63,66C61.343199999999996,66,60,64.6568,60,63C60,63,60,63,60,63ZM63,75C61.343199999999996,75,60,76.34309999999999,60,78C60,79.65690000000001,61.343199999999996,81,63,81C63,81,72,81,72,81C73.6568,81,75,79.65690000000001,75,78C75,76.34309999999999,73.6568,75,72,75C72,75,63,75,63,75C63,75,63,75,63,75Z" fill-rule="evenodd" fill="#000000" fill-opacity="0.6000000238418579"/><path d="M47,50.25L47,93.75Q47,96.64959999999999,49.05025,98.69980000000001Q51.10048,100.75,53.99999,100.75L90,100.75Q92.89959999999999,100.75,94.94980000000001,98.69980000000001Q97,96.64959999999999,97,93.75L97,50.25Q97,47.35049,94.94980000000001,45.30026Q92.89959999999999,43.25,90,43.25L53.99999,43.25Q51.1005,43.250001,49.05025,45.30026Q47,47.35051,47,50.25ZM53.99999,44.25C50.68628,44.25,48,46.9363,48,50.25L48,93.75C48,97.0638,50.68629,99.75,53.99999,99.75L90,99.75C93.3138,99.75,96,97.0638,96,93.75L96,50.25C96,46.93629,93.3138,44.25,90,44.25L53.99999,44.25ZM90,50.25L53.99999,50.25L53.99999,93.75L90,93.75L90,50.25ZM54.99999,92.75L54.99999,51.25L89,51.25L89,92.75L54.99999,92.75ZM59,63Q59,64.6568,60.1716,65.8284Q61.343199999999996,67,63,67L81,67Q82.65690000000001,67,83.8284,65.8284Q85,64.65690000000001,85,63Q85,61.343199999999996,83.8284,60.1716Q82.65690000000001,59,81,59L63,59Q61.343199999999996,59,60.1716,60.1716Q59,61.343199999999996,59,63ZM63,60C61.343199999999996,60,60,61.343199999999996,60,63C60,64.6568,61.343199999999996,66,63,66L81,66C82.65690000000001,66,84,64.6568,84,63C84,61.343199999999996,82.65690000000001,60,81,60L63,60ZM59,78Q59,79.65690000000001,60.1716,80.8284Q61.343199999999996,82,63,82L72,82Q73.65690000000001,82,74.8284,80.8284Q76,79.65690000000001,76,78Q76,76.34309999999999,74.8284,75.1716Q73.65690000000001,74,72,74L63,74Q61.343199999999996,74,60.1716,75.1716Q59,76.34309999999999,59,78ZM60,78C60,76.34309999999999,61.343199999999996,75,63,75L72,75C73.6568,75,75,76.34309999999999,75,78C75,79.65690000000001,73.6568,81,72,81L63,81C61.343199999999996,81,60,79.65690000000001,60,78Z" fill-rule="evenodd" fill="#000000" fill-opacity="0.6000000238418579"/></g></g></g></svg>