<svg xmlns="http://www.w3.org/2000/svg" xmlns:xlink="http://www.w3.org/1999/xlink" fill="none" version="1.1" width="32" height="32" viewBox="0 0 32 32"><g><g><g><path d="M5.33331298828125,6.33335701171875C5.33331298828125,4.86059701171875,6.52721298828125,3.66668701171875,7.99997298828125,3.66668701171875C7.99997298828125,3.66668701171875,24.00001298828125,3.66668701171875,24.00001298828125,3.66668701171875C25.47281298828125,3.66668701171875,26.66661298828125,4.86059701171875,26.66661298828125,6.33335701171875C26.66661298828125,6.33335701171875,26.66661298828125,25.66668701171875,26.66661298828125,25.66668701171875C26.66661298828125,27.13948701171875,25.47281298828125,28.33338701171875,24.00001298828125,28.33338701171875C24.00001298828125,28.33338701171875,7.99997298828125,28.33338701171875,7.99997298828125,28.33338701171875C6.52722298828125,28.33338701171875,5.33331298828125,27.13948701171875,5.33331298828125,25.66668701171875C5.33331298828125,25.66668701171875,5.33331298828125,6.33335701171875,5.33331298828125,6.33335701171875C5.33331298828125,6.33335701171875,5.33331298828125,6.33335701171875,5.33331298828125,6.33335701171875ZM24.00001298828125,6.33335701171875C24.00001298828125,6.33335701171875,7.99997298828125,6.33335701171875,7.99997298828125,6.33335701171875C7.99997298828125,6.33335701171875,7.99997298828125,25.66668701171875,7.99997298828125,25.66668701171875C7.99997298828125,25.66668701171875,24.00001298828125,25.66668701171875,24.00001298828125,25.66668701171875C24.00001298828125,25.66668701171875,24.00001298828125,6.33335701171875,24.00001298828125,6.33335701171875C24.00001298828125,6.33335701171875,24.00001298828125,6.33335701171875,24.00001298828125,6.33335701171875ZM10.66664298828125,12.00001701171875C10.66664298828125,11.26364701171875,11.26360298828125,10.66668701171875,11.99998298828125,10.66668701171875C11.99998298828125,10.66668701171875,20.00001298828125,10.66668701171875,20.00001298828125,10.66668701171875C20.736412988281252,10.66668701171875,21.33331298828125,11.26364701171875,21.33331298828125,12.00001701171875C21.33331298828125,12.73639701171875,20.736412988281252,13.33335701171875,20.00001298828125,13.33335701171875C20.00001298828125,13.33335701171875,11.99998298828125,13.33335701171875,11.99998298828125,13.33335701171875C11.26360298828125,13.33335701171875,10.66664298828125,12.73639701171875,10.66664298828125,12.00001701171875C10.66664298828125,12.00001701171875,10.66664298828125,12.00001701171875,10.66664298828125,12.00001701171875ZM11.99998298828125,17.33338701171875C11.26360298828125,17.33338701171875,10.66664298828125,17.93028701171875,10.66664298828125,18.66668701171875C10.66664298828125,19.40308701171875,11.26360298828125,19.99998701171875,11.99998298828125,19.99998701171875C11.99998298828125,19.99998701171875,16.00001298828125,19.99998701171875,16.00001298828125,19.99998701171875C16.73631298828125,19.99998701171875,17.33331298828125,19.40308701171875,17.33331298828125,18.66668701171875C17.33331298828125,17.93028701171875,16.73631298828125,17.33338701171875,16.00001298828125,17.33338701171875C16.00001298828125,17.33338701171875,11.99998298828125,17.33338701171875,11.99998298828125,17.33338701171875C11.99998298828125,17.33338701171875,11.99998298828125,17.33338701171875,11.99998298828125,17.33338701171875Z" fill-rule="evenodd" fill="#000000" fill-opacity="0.8999999761581421"/><path d="M4.83331298828125,25.66668701171875Q4.83331298828125,26.97838701171875,5.76080898828125,27.90588701171875Q6.68829298828125,28.83338701171875,7.99997298828125,28.83338701171875L24.00001298828125,28.83338701171875Q25.31171298828125,28.83338701171875,26.23921298828125,27.90588701171875Q27.16661298828125,26.97838701171875,27.16661298828125,25.66668701171875L27.16661298828125,6.33335701171875Q27.16661298828125,5.02167701171875,26.23921298828125,4.09418401171875Q25.31171298828125,3.16668701171875,24.00001298828125,3.16668701171875L7.99997298828125,3.16668701171875Q6.68830298828125,3.16668701171875,5.76080598828125,4.09418301171875Q4.83331298828125,5.02167701171875,4.83331298828125,6.33335701171875L4.83331298828125,25.66668701171875ZM7.99997298828125,3.66668701171875C6.52721298828125,3.66668701171875,5.33331298828125,4.86059701171875,5.33331298828125,6.33335701171875L5.33331298828125,25.66668701171875C5.33331298828125,27.13948701171875,6.52722298828125,28.33338701171875,7.99997298828125,28.33338701171875L24.00001298828125,28.33338701171875C25.47281298828125,28.33338701171875,26.66661298828125,27.13948701171875,26.66661298828125,25.66668701171875L26.66661298828125,6.33335701171875C26.66661298828125,4.86059701171875,25.47281298828125,3.66668701171875,24.00001298828125,3.66668701171875L7.99997298828125,3.66668701171875ZM24.00001298828125,6.33335701171875L7.99997298828125,6.33335701171875L7.99997298828125,25.66668701171875L24.00001298828125,25.66668701171875L24.00001298828125,6.33335701171875ZM8.49997298828125,25.16668701171875L8.49997298828125,6.83335701171875L23.50001298828125,6.83335701171875L23.50001298828125,25.16668701171875L8.49997298828125,25.16668701171875ZM10.16664298828125,12.00001701171875Q10.16664298828125,12.75940701171875,10.70362298828125,13.29637701171875Q11.24059298828125,13.83338701171875,11.99998298828125,13.83338701171875L20.00001298828125,13.83338701171875Q20.759412988281248,13.83338701171875,21.29631298828125,13.29637701171875Q21.83331298828125,12.75940701171875,21.83331298828125,12.00001701171875Q21.83331298828125,11.24062701171875,21.29631298828125,10.70366701171875Q20.759412988281248,10.16668701171875,20.00001298828125,10.16668701171875L11.99998298828125,10.16668701171875Q11.24059298828125,10.16668701171875,10.70362298828125,10.70365701171875Q10.16664298828125,11.24063701171875,10.16664298828125,12.00001701171875ZM11.99998298828125,10.66668701171875C11.26360298828125,10.66668701171875,10.66664298828125,11.26364701171875,10.66664298828125,12.00001701171875C10.66664298828125,12.73639701171875,11.26360298828125,13.33335701171875,11.99998298828125,13.33335701171875L20.00001298828125,13.33335701171875C20.736412988281252,13.33335701171875,21.33331298828125,12.73639701171875,21.33331298828125,12.00001701171875C21.33331298828125,11.26364701171875,20.736412988281252,10.66668701171875,20.00001298828125,10.66668701171875L11.99998298828125,10.66668701171875ZM10.16664298828125,18.66668701171875Q10.16664298828125,19.42608701171875,10.70362298828125,19.96308701171875Q11.24059298828125,20.49998701171875,11.99998298828125,20.49998701171875L16.00001298828125,20.49998701171875Q16.759412988281248,20.49998701171875,17.29631298828125,19.96308701171875Q17.83331298828125,19.42608701171875,17.83331298828125,18.66668701171875Q17.83331298828125,17.90728701171875,17.29631298828125,17.37028701171875Q16.759412988281248,16.83338701171875,16.00001298828125,16.83338701171875L11.99998298828125,16.83338701171875Q11.24059298828125,16.83338701171875,10.70362298828125,17.37028701171875Q10.16664298828125,17.90728701171875,10.16664298828125,18.66668701171875ZM10.66664298828125,18.66668701171875C10.66664298828125,17.93028701171875,11.26360298828125,17.33338701171875,11.99998298828125,17.33338701171875L16.00001298828125,17.33338701171875C16.73631298828125,17.33338701171875,17.33331298828125,17.93028701171875,17.33331298828125,18.66668701171875C17.33331298828125,19.40308701171875,16.73631298828125,19.99998701171875,16.00001298828125,19.99998701171875L11.99998298828125,19.99998701171875C11.26360298828125,19.99998701171875,10.66664298828125,19.40308701171875,10.66664298828125,18.66668701171875Z" fill-rule="evenodd" fill="#000000" fill-opacity="0.8999999761581421"/></g></g></g></svg>