<svg xmlns="http://www.w3.org/2000/svg" xmlns:xlink="http://www.w3.org/1999/xlink" fill="none" version="1.1" width="24" height="24" viewBox="0 0 24 24"><defs><clipPath id="master_svg0_819_03178"><rect x="0" y="0" width="24" height="24" rx="0"/></clipPath></defs><g clip-path="url(#master_svg0_819_03178)"><g><g><g><path d="M7.59982390625,14.79993C7.30527290625,15.02087,7.24557990625,15.43873,7.46649690625,15.733270000000001C7.68741390625,16.02787,8.10527390625,16.08753,8.39983390625,15.8666C9.818223906250001,14.802800000000001,10.59618390625,13.70788,10.99447390625,12.70419C11.38421390625,11.72207,11.39299390625,10.87139,11.332853906250001,10.29473C11.31224390625,9.02387,10.27561390625,8,8.99983390625,8C7.71117390625,8,6.66650390625,9.04467,6.66650390625,10.33333C6.66650390625,11.622,7.71117390625,12.66667,8.99983390625,12.66667C9.20075390625,12.66667,9.39573390625,12.641269999999999,9.58175390625,12.59352C9.24045390625,13.2577,8.64247390625,14.01797,7.59982390625,14.79993C7.59982390625,14.79993,7.59982390625,14.79993,7.59982390625,14.79993ZM13.59983390625,14.79993C13.305273906250001,15.02087,13.24557390625,15.43873,13.46650390625,15.733270000000001C13.68743390625,16.02787,14.10530390625,16.08753,14.399833906249999,15.8666C15.81823390625,14.802800000000001,16.59617390625,13.70788,16.99450390625,12.70419C17.38420390625,11.72207,17.39300390625,10.87139,17.33280390625,10.29472C17.312203906249998,9.02387,16.27563390625,8,14.99983390625,8C13.71117390625,8,12.66650390625,9.04467,12.66650390625,10.33333C12.66650390625,11.622,13.71117390625,12.66667,14.99983390625,12.66667C15.20077390625,12.66667,15.39570390625,12.641269999999999,15.58177390625,12.59352C15.24043390625,13.2577,14.642503906249999,14.01797,13.59983390625,14.79993C13.59983390625,14.79993,13.59983390625,14.79993,13.59983390625,14.79993Z" fill="#000000" fill-opacity="0.8999999761581421"/><path d="M7.14186990625,15.21072Q7.09110390625,15.566099999999999,7.30650190625,15.85327Q7.52187690625,16.14049,7.8772639062500005,16.19125Q8.23264390625,16.24201,8.51983390625,16.026600000000002Q10.47232390625,14.56222,11.18037390625,12.77796Q11.66379390625,11.55977,11.53267390625,10.28264Q11.51287390625,9.25265,10.77737390625,8.528294Q10.03787390625,7.8,8.99983390625,7.8Q7.95049390625,7.8,7.20849890625,8.541995Q6.46650390625,9.28399,6.46650390625,10.33333Q6.46650390625,11.38268,7.20849890625,12.12467Q7.95049390625,12.86667,8.99983390625,12.86667Q9.10033390625,12.86667,9.19958390625,12.85894Q8.60911390625,13.79299,7.47982490625,14.63993L7.47981690625,14.63994Q7.19263490625,14.85534,7.14186990625,15.21072ZM13.14187390625,15.21072Q13.09110390625,15.566099999999999,13.30651390625,15.85328Q13.52190390625,16.14049,13.87729390625,16.19125Q14.23266390625,16.24201,14.519853906249999,16.02659Q16.47226390625,14.56229,17.18040390625,12.77797Q17.66380390625,11.55986,17.53270390625,10.28264Q17.51290390625,9.25265,16.77740390625,8.528294Q16.037883906250002,7.8,14.99983390625,7.8Q13.95049390625,7.8,13.20850390625,8.541995Q12.46650390625,9.28399,12.46650390625,10.33333Q12.46650390625,11.38268,13.20850390625,12.12467Q13.95049390625,12.86667,14.99983390625,12.86667Q15.10032390625,12.86667,15.19958390625,12.85894Q14.60905390625,13.79306,13.47984390625,14.63993L13.47983390625,14.63994Q13.19263390625,14.85534,13.14187390625,15.21072ZM8.99983390625,8C10.27561390625,8,11.31224390625,9.02387,11.332853906250001,10.29473C11.39299390625,10.87139,11.38421390625,11.72207,10.99447390625,12.70419C10.59618390625,13.70788,9.818223906250001,14.802800000000001,8.39983390625,15.8666C8.10527390625,16.08753,7.68741390625,16.02787,7.46649690625,15.733270000000001C7.24557990625,15.43873,7.30527290625,15.02087,7.59982390625,14.79993C8.52268390625,14.10781,9.09718390625,13.432680000000001,9.45367390625,12.826139999999999C9.49994390625,12.747399999999999,9.54254390625,12.669830000000001,9.58175390625,12.59352C9.49879390625,12.61482,9.41405390625,12.63167,9.327793906250001,12.643799999999999C9.22064390625,12.65887,9.11114390625,12.66667,8.99983390625,12.66667C7.71117390625,12.66667,6.66650390625,11.622,6.66650390625,10.33333C6.66650390625,9.04467,7.71117390625,8,8.99983390625,8ZM14.99983390625,8C16.27563390625,8,17.312203906249998,9.02387,17.33280390625,10.29472C17.39300390625,10.87139,17.38420390625,11.72207,16.99450390625,12.70419C16.59617390625,13.70788,15.81823390625,14.802800000000001,14.399833906249999,15.8666C14.10530390625,16.08753,13.68743390625,16.02787,13.46650390625,15.733270000000001C13.24557390625,15.43873,13.305273906250001,15.02087,13.59983390625,14.79993C14.52271390625,14.107800000000001,15.09717390625,13.432680000000001,15.45367390625,12.82613C15.49995390625,12.747399999999999,15.54255390625,12.669830000000001,15.58177390625,12.59352C15.49879390625,12.61482,15.41405390625,12.63166,15.32780390625,12.643799999999999C15.22064390625,12.65887,15.11116390625,12.66667,14.99983390625,12.66667C13.71117390625,12.66667,12.66650390625,11.622,12.66650390625,10.33333C12.66650390625,9.04467,13.71117390625,8,14.99983390625,8Z" fill-rule="evenodd" fill="#000000" fill-opacity="0.8999999761581421"/></g></g><g><path d="M1,17.2C1,18.8802,1.00340128,19.7392,1.3348550000000001,20.3787C1.62015,20.9291,2.0709400000000002,21.3799,2.62133,21.6651C3.26077,21.9966,4.11984,22,5.8,22L15,22C17.8003,22,19.2321,21.9943,20.2978,21.4419C21.2151,20.9664,21.9664,20.2151,22.4419,19.2978C22.9943,18.2321,23,16.8003,23,14L23,10C23,7.19973,22.9943,5.76795,22.4419,4.70221C21.9664,3.78489,21.2151,3.0335799999999997,20.2978,2.558091C19.2321,2.00566876,17.8003,2,15,2L9,2C6.19973,2,4.76795,2.00566864,3.70221,2.558091C2.78489,3.0335799999999997,2.0335799999999997,3.78489,1.5580910000000001,4.70221C1.00566864,5.76795,1,7.19973,1,10L1,17.2ZM3.5,17.2Q3.5,19.1232,3.55439,19.2282Q3.62862,19.3714,3.77182,19.4456Q3.87676,19.5,5.8,19.5L15,19.5Q17.3367,19.5,18.0906,19.4368Q18.8575,19.3726,19.1473,19.2224Q19.8553,18.8553,20.2224,18.1473Q20.3726,17.8575,20.4368,17.090600000000002Q20.5,16.3367,20.5,14L20.5,10Q20.5,7.6633,20.4368,6.90936Q20.3726,6.14254,20.2224,5.85271Q19.8553,5.14465,19.1473,4.77763Q18.8575,4.6274,18.0906,4.56316Q17.3367,4.5,15,4.5L9,4.5Q6.6633,4.5,5.90936,4.56316Q5.14253,4.6274,4.85271,4.77763Q4.14465,5.14465,3.77763,5.85271Q3.6274,6.14253,3.56316,6.90936Q3.5,7.6633,3.5,10L3.5,17.2Z" fill-rule="evenodd" fill="#000000" fill-opacity="0.8999999761581421"/></g></g></g></svg>