<svg xmlns="http://www.w3.org/2000/svg" xmlns:xlink="http://www.w3.org/1999/xlink" fill="none" version="1.1" width="24" height="24" viewBox="0 0 24 24"><defs><clipPath id="master_svg0_819_03178"><rect x="0" y="0" width="24" height="24" rx="0"/></clipPath></defs><g clip-path="url(#master_svg0_819_03178)"><g><g><g><path d="M7.64576596875,14.770603906249999C7.35428296875,14.98923390625,7.29521196875,15.40275390625,7.51382796875,15.694213906249999C7.73243796875,15.98574390625,8.14595796875,16.04479390625,8.43743796875,15.826163906249999C9.84105796875,14.77344390625,10.61091796875,13.68992390625,11.00505796875,12.696693906250001C11.39072796875,11.72480390625,11.39941796875,10.88298390625,11.339907968750001,10.31232390625C11.319517968749999,9.05470390625,10.29367796875,8.04150390625,9.03119796875,8.04150390625C7.75594796875,8.04150390625,6.72216796875,9.07528390625,6.72216796875,10.35053390625C6.72216796875,11.62577390625,7.75594796875,12.65956390625,9.03119796875,12.65956390625C9.23001796875,12.65956390625,9.422967968750001,12.634433906249999,9.60705796875,12.587173906250001C9.26930796875,13.24443390625,8.67754796875,13.99678390625,7.64576596875,14.770603906249999C7.64576596875,14.770603906249999,7.64576596875,14.770603906249999,7.64576596875,14.770603906249999ZM13.58327796875,14.770603906249999C13.29177796875,14.98923390625,13.232707968749999,15.40275390625,13.45133796875,15.694213906249999C13.66996796875,15.98574390625,14.08347796875,16.04479390625,14.37494796875,15.826163906249999C15.77856796875,14.77344390625,16.548397968750002,13.68992390625,16.942567968749998,12.696693906250001C17.328267968749998,11.72480390625,17.33686796875,10.88298390625,17.27736796875,10.31232390625C17.25696796875,9.05470390625,16.23120796875,8.04150390625,14.96869796875,8.04150390625C13.69344796875,8.04150390625,12.65966796875,9.07528390625,12.65966796875,10.35053390625C12.65966796875,11.62577390625,13.69344796875,12.65956390625,14.96869796875,12.65956390625C15.16753796875,12.65956390625,15.36043796875,12.634433906249999,15.54456796875,12.587173906250001C15.20678796875,13.24443390625,14.61508796875,13.99678390625,13.58327796875,14.770603906249999C13.58327796875,14.770603906249999,13.58327796875,14.770603906249999,13.58327796875,14.770603906249999Z" fill="#000000" fill-opacity="0.8999999761581421"/><path d="M7.19051996875,15.17681390625Q7.14015996875,15.52934390625,7.35383196875,15.81422390625Q7.56748096875,16.09913390625,7.92002796875,16.14949390625Q8.27254796875,16.199843906250003,8.557447968750001,15.98615390625Q10.490067968750001,14.536683906250001,11.19095796875,12.77046390625Q11.66950796875,11.564523906249999,11.53972796875,10.30024390625Q11.520097968750001,9.28019390625,10.791677968750001,8.56281090625Q10.05926796875,7.84150390625,9.03119796875,7.84150390625Q7.99191796875,7.84150390625,7.25704396875,8.57637990625Q6.52216796875,9.31125390625,6.52216796875,10.35053390625Q6.52216796875,11.38980390625,7.25704396875,12.124683906249999Q7.99191796875,12.85955390625,9.03119796875,12.85956390625Q9.12862796875,12.85956390625,9.22487796875,12.85222390625Q8.64086796875,13.77429390625,7.52576696875,14.610603906249999L7.52575796875,14.61061390625Q7.2408779687500004,14.82429390625,7.19051996875,15.17681390625ZM13.128017968750001,15.17681390625Q13.07765796875,15.52935390625,13.29133796875,15.81422390625Q13.50500796875,16.09913390625,13.85754796875,16.14949390625Q14.21007796875,16.199843906250003,14.49495796875,15.98615390625Q16.42749796875,14.536743906249999,17.12846796875,12.77047390625Q17.60696796875,11.56460390625,17.477167968750003,10.30022390625Q17.45756796875,9.28018390625,16.729167968749998,8.56281090625Q15.99677796875,7.84150390625,14.96869796875,7.84150390625Q13.92942796875,7.84150390625,13.194547968750001,8.57637990625Q12.45966796875,9.31125390625,12.45966796875,10.35053390625Q12.45966796875,11.38980390625,13.194547968750001,12.124683906249999Q13.92941796875,12.85955390625,14.96869796875,12.85956390625Q15.06612796875,12.85956390625,15.16238796875,12.85222390625Q14.57830796875,13.77437390625,13.463277968749999,14.610603906249999L13.463277968749999,14.610603906249999Q13.178377968749999,14.824283906249999,13.128017968750001,15.17681390625ZM9.03119796875,8.04150390625C10.29367796875,8.04150390625,11.319517968749999,9.05470390625,11.339907968750001,10.31232390625C11.39941796875,10.88298390625,11.39072796875,11.72480390625,11.00505796875,12.696693906250001C10.61091796875,13.68992390625,9.84105796875,14.77344390625,8.43743796875,15.826163906249999C8.14595796875,16.04479390625,7.73243796875,15.98574390625,7.51382796875,15.694213906249999C7.29521196875,15.40275390625,7.35428296875,14.98923390625,7.64576596875,14.770603906249999C8.55780796875,14.086583906249999,9.12602796875,13.419353906249999,9.47890796875,12.81973390625C9.52523796875,12.74101390625,9.56785796875,12.66345390625,9.60705796875,12.587173906250001C9.52412796875,12.60846390625,9.43939796875,12.62526390625,9.353147968750001,12.637293906250001C9.24792796875,12.65197390625,9.14044796875,12.65956390625,9.03119796875,12.65956390625C7.75594796875,12.65956390625,6.72216796875,11.62577390625,6.72216796875,10.35053390625C6.72216796875,9.07528390625,7.75594796875,8.04150390625,9.03119796875,8.04150390625ZM14.96869796875,8.04150390625C16.23120796875,8.04150390625,17.25696796875,9.05470390625,17.27736796875,10.31232390625C17.33686796875,10.88298390625,17.328267968749998,11.72480390625,16.942567968749998,12.696693906250001C16.548397968750002,13.68992390625,15.77856796875,14.77344390625,14.37494796875,15.826163906249999C14.08347796875,16.04479390625,13.66996796875,15.98574390625,13.45133796875,15.694213906249999C13.232707968749999,15.40275390625,13.29177796875,14.98923390625,13.58327796875,14.770603906249999C14.49533796875,14.086583906249999,15.06352796875,13.419343906249999,15.41641796875,12.81973390625C15.46274796875,12.74100390625,15.50536796875,12.66345390625,15.54456796875,12.587173906250001C15.46161796875,12.60846390625,15.37689796875,12.62525390625,15.29065796875,12.637293906250001C15.18543796875,12.65197390625,15.07796796875,12.65956390625,14.96869796875,12.65956390625C13.69344796875,12.65956390625,12.65966796875,11.62577390625,12.65966796875,10.35053390625C12.65966796875,9.07528390625,13.69344796875,8.04150390625,14.96869796875,8.04150390625Z" fill-rule="evenodd" fill="#000000" fill-opacity="0.8999999761581421"/></g></g><g><path d="M1.11474609375,10.104248046875L1.11474609375,17.095948046875C1.11474609375,18.776048046875,1.11814737375,19.635148046875,1.4496010937500001,20.274548046875C1.73489609375,20.824948046875,2.1856860937500002,21.275748046875,2.73607609375,21.561048046875C3.37551609375,21.892548046875,4.23458609375,21.895948046875,5.91474609375,21.895948046875L14.88554609375,21.895948046875C17.68584609375,21.895948046875,19.11764609375,21.890248046875,20.18334609375,21.337848046875C21.10064609375,20.862348046875,21.85194609375,20.111048046875,22.32744609375,19.193748046875C22.87994609375,18.127948046875,22.88554609375,16.696148046875003,22.88554609375,13.895948046875L22.88554609375,10.104248046875C22.88554609375,7.303978046875,22.87994609375,5.872198046875,22.32744609375,4.806458046875C21.85194609375,3.889138046875,21.10064609375,3.1378280468749997,20.18334609375,2.662339046875C19.11764609375,2.109916806875,17.68584609375,2.104248046875,14.88554609375,2.104248046875L9.11474609375,2.104248046875C6.31447609375,2.104248046875,4.88269609375,2.109916686875,3.81695609375,2.662339046875C2.89963609375,3.1378280468749997,2.1483260937499997,3.889138046875,1.6728370937500001,4.806458046875C1.12041473375,5.872198046875,1.11474609375,7.303978046875,1.11474609375,10.104248046875ZM3.61474609375,10.104248046875L3.61474609375,17.095948046875Q3.61474609375,19.019148046875,3.66914609375,19.124048046875Q3.74336609375,19.267248046875,3.88656609375,19.341548046875Q3.99150609375,19.395948046875,5.91474609375,19.395948046875L14.88554609375,19.395948046875Q18.49724609375,19.395948046875,19.03284609375,19.118248046875Q19.74094609375,18.751248046875,20.10794609375,18.043248046875Q20.38554609375,17.507648046874998,20.38554609375,13.895948046875L20.38554609375,10.104248046875Q20.38554609375,6.492558046875,20.10794609375,5.956958046875Q19.74094609375,5.248898046875,19.03284609375,4.881878046875Q18.49724609375,4.604248046875,14.88554609375,4.604248046875L9.11474609375,4.604248046875Q5.50306609375,4.604248046875,4.96745609375,4.881878046875Q4.25939609375,5.248898046875,3.89237609375,5.956958046875Q3.61474609375,6.492558046875,3.61474609375,10.104248046875Z" fill-rule="evenodd" fill="#000000" fill-opacity="0.8999999761581421"/></g></g></g></svg>