<svg xmlns="http://www.w3.org/2000/svg" xmlns:xlink="http://www.w3.org/1999/xlink" fill="none" version="1.1" width="24" height="24" viewBox="0 0 24 24"><g><g><g transform="matrix(-1,0,0,1,43.9521484375,0)"><path d="M29.92954421875,16.454899609374998C29.92954421875,16.454899609374998,30.158724218750002,20.055899609375,30.158724218750002,20.055899609375C30.23867421875,20.865799609375,31.09095421875,21.419399609375,31.87543421875,20.976899609375C34.076974218749996,19.734499609375,36.09847421875,18.184599609375,38.051574218750005,16.585999609375C39.27867421875,15.563399609375,40.46787421875,14.488599609375,41.57217421875,13.333319609375C42.037874218750005,12.845909609375,42.08397421875,12.038799609375,41.596474218750004,11.528529609375C40.474674218749996,10.354379609375,38.88877421875,8.883819609375,36.91487421875,7.3251596093749995C35.31517421875,6.073559609375,33.66047421875,4.904299609375,31.907434218749998,3.877447609375C31.06434421875,3.397006609375,30.22800421875,4.056214609375,30.15126421875,4.857329609375C30.15126421875,4.857329609375,29.92652421875,8.444989609375,29.92652421875,8.444989609375C25.37521421875,8.920539609375,21.97607421875,12.936069609375,21.97607421875,17.460399609375C21.97607421875,20.155799609375,23.05170421875,19.889899609375,24.91170421875,18.291399609375C26.32860421875,17.122399609375,28.10018421875,16.493399609375,29.92954421875,16.454899609374998C29.92954421875,16.454899609374998,29.92954421875,16.454899609374998,29.92954421875,16.454899609374998ZM24.06690421875,16.395699609375C25.66795421875,15.216099609375,27.59011421875,14.529199609375,29.62009421875,14.446199609375C29.62009421875,14.446199609375,29.63993421875,14.445399609375,29.63993421875,14.445399609375C29.63993421875,14.445399609375,31.35726421875,14.409299609375,31.35726421875,14.409299609375C31.62883421875,14.403499609375,31.85603421875,14.614199609375,31.87089421875,14.885399609375C31.87089421875,14.885399609375,32.069274218749996,18.507999609375,32.069274218749996,18.507999609375C33.68447421875,17.479099609374998,35.22427421875,16.295899609375,36.76837421875,15.032299609375C37.765574218750004,14.200999609375,38.727474218750004,13.333229609375,39.64727421875,12.417289609375C38.635474218750005,11.405259609375001,37.29437421875,10.192649609375,35.66957421875,8.909359609374999C34.49507421875,7.990599609375,33.30347421875,7.128329609375,32.07447421875,6.342559609375C32.07447421875,6.342559609375,31.88149421875,9.840549609375,31.88149421875,9.840549609375C31.86786421875,10.087569609374999,31.67689421875,10.288139609375001,31.43084421875,10.313849609375C31.43084421875,10.313849609375,30.05919421875,10.457159609375001,30.05919421875,10.457159609375001C26.97109421875,10.825669609375,24.52143421875,13.239959609375,24.06690421875,16.395699609375C24.06690421875,16.395699609375,24.06690421875,16.395699609375,24.06690421875,16.395699609375Z" fill-rule="evenodd" fill="#000000" fill-opacity="0.8999999761581421"/><path d="M29.69546421875,16.712999609375L29.90950421875,20.076099609375L29.90993421875,20.080399609375Q29.98423421875,20.833099609375,30.62843421875,21.202899609375Q31.30013421875,21.588399609375,31.998274218749998,21.194599609375Q34.63037421875,19.709199609375,38.20987421875,16.779499609375Q40.24487421875,15.083499609375,41.75287421875,13.506069609375Q42.17507421875,13.064249609375,42.191674218749995,12.446229609375Q42.20887421875,11.807659609375,41.77727421875,11.355849609375Q39.79447421875,9.280499609375,37.06977421875,7.128949609375001Q34.43927421875,5.070759609375,32.03377421875,3.661731209375Q31.29555421875,3.241025609375,30.608364218749998,3.675497109375Q29.97496421875,4.075959609375,29.90240421875,4.833489609375L29.90200421875,4.837589609375L29.690084218750002,8.220599609375Q26.34456421875,8.642639609375,24.05603421875,11.270199609375Q21.72607221875,13.945299609375,21.72607421875,17.460399609375Q21.72607421875,19.594899609375,22.71151321875,19.733699609375Q23.48953421875,19.843299609375,25.07465421875,18.480999609375Q27.06631421875,16.837799609375,29.69546421875,16.712999609375ZM21.97607421875,17.460399609375C21.97607421875,12.936069609375,25.37521421875,8.920539609375,29.92652421875,8.444989609375L30.15126421875,4.857329609375C30.22800421875,4.056214609375,31.06434421875,3.397006609375,31.907434218749998,3.877447609375C33.66047421875,4.904299609375,35.31517421875,6.073559609375,36.91487421875,7.3251596093749995C38.88877421875,8.883819609375,40.474674218749996,10.354379609375,41.596474218750004,11.528529609375C42.08397421875,12.038799609375,42.037874218750005,12.845909609375,41.57217421875,13.333319609375C40.46787421875,14.488599609375,39.27867421875,15.563399609375,38.051574218750005,16.585999609375C36.09847421875,18.184599609375,34.076974218749996,19.734499609375,31.87543421875,20.976899609375C31.09095421875,21.419399609375,30.23867421875,20.865799609375,30.158724218750002,20.055899609375L29.92954421875,16.454899609374998C28.10018421875,16.493399609375,26.32860421875,17.122399609375,24.91170421875,18.291399609375C23.05170421875,19.889899609375,21.97607421875,20.155799609375,21.97607421875,17.460399609375ZM29.62009421875,14.446199609375C27.70944421875,14.524299609375,25.89431421875,15.137399609375,24.35254421875,16.192799609375C24.25625421875,16.258699609375,24.16102421875,16.326399609375002,24.06690421875,16.395699609375C24.08389421875,16.277799609375002,24.103654218750002,16.160999609375,24.12613421875,16.045199609375C24.70536421875,13.062419609375,27.08646421875,10.811899609375,30.05919421875,10.457159609375001L31.43084421875,10.313849609375C31.67689421875,10.288139609375001,31.86786421875,10.087569609374999,31.88149421875,9.840549609375L32.05867421875,6.629489609375L32.07447421875,6.342559609375C32.15527421875,6.394189609375,32.23587421875,6.446149609375,32.316274218749996,6.498439609375C33.45997421875,7.241889609375,34.572274218749996,8.050969609374999,35.66957421875,8.909359609374999C37.20117421875,10.119019609375,38.48057421875,11.265879609375,39.46987421875,12.241139609375C39.53007421875,12.300499609375,39.58927421875,12.359229609375,39.64727421875,12.417289609375C39.58827421875,12.476099609375,39.52897421875,12.534719609375,39.46957421875,12.593129609375C38.603774218750004,13.444519609375,37.70147421875,14.254399609375,36.76837421875,15.032299609375C35.30147421875,16.232699609375,33.83857421875,17.360499609374997,32.31107421875,18.352499609375002C32.230674218749996,18.404699609375,32.15007421875,18.456499609375,32.069274218749996,18.507999609375L32.05357421875,18.221199609375L31.87089421875,14.885399609375C31.85603421875,14.614199609375,31.62883421875,14.403499609375,31.35726421875,14.409299609375L29.63993421875,14.445399609375L29.62009421875,14.446199609375ZM29.60988421875,14.196399609375Q26.76522421875,14.312699609375,24.42270421875,15.844199609375Q24.42345421875,15.840899609375,24.42419421875,15.837599609375Q24.85650421875,13.938999609375,26.25129421875,12.558929609375Q27.85521421875,10.971939609375,30.085174218749998,10.705809609374999L31.45683421875,10.562499609375Q31.73294421875,10.533649609375,31.92438421875,10.332579609375Q32.11577421875,10.131529609375,32.13107421875,9.854329609375L32.30037421875,6.786649609375Q32.33487421875,6.809289609375,32.36927421875,6.831959609375Q33.88117421875,7.827799609375,35.51457421875,9.105549609375Q37.62567421875,10.772849609375001,39.29217421875,12.416939609375Q39.21527421875,12.492519609375,39.137774218749996,12.567919609375Q37.959674218749996,13.713669609375,36.61007421875,14.838799609375Q34.19317421875,16.816599609375,32.29527421875,18.063899609375L32.12047421875,14.871799609375Q32.10387421875,14.567399609375,31.88031421875,14.360099609375Q31.65674421875,14.152899609375,31.35199421875,14.159299609375L29.62978421875,14.195599609375L29.60988421875,14.196399609375Z" fill-rule="evenodd" fill="#000000" fill-opacity="0.8999999761581421"/></g></g></g></svg>