<svg xmlns="http://www.w3.org/2000/svg" xmlns:xlink="http://www.w3.org/1999/xlink" fill="none" version="1.1" width="108" height="108" viewBox="0 0 108 108"><defs><filter id="master_svg0_364_0505" filterUnits="objectBoundingBox" color-interpolation-filters="sRGB" x="0" y="0" width="108" height="108"><feFlood flood-opacity="0" result="BackgroundImageFix"/><feBlend mode="normal" in="SourceGraphic" in2="BackgroundImageFix" result="shape"/><feColorMatrix in="SourceAlpha" type="matrix" result="hardAlpha" values="0 0 0 0 0 0 0 0 0 0 0 0 0 0 0 0 0 0 127 0"/><feOffset dy="0" dx="0"/><feGaussianBlur stdDeviation="5"/><feComposite in2="hardAlpha" operator="arithmetic" k2="-1" k3="1"/><feColorMatrix type="matrix" values="0 0 0 0 0 0 0 0 0 0 0 0 0 0 0 0 0 0 0.019999999552965164 0"/><feBlend mode="normal" in2="shape" result="effect1_innerShadow"/></filter></defs><g><g filter="url(#master_svg0_364_0505)"><rect x="0" y="0" width="108" height="108" rx="54" fill="#F2F2F2" fill-opacity="1"/></g><g><ellipse cx="54.000003814697266" cy="54" rx="48.000003814697266" ry="48" fill="#FFFFFF" fill-opacity="1"/></g><g><g><path d="M57.0311548828125,34.55000019073486C55.6838548828125,32.21666019073486,52.3159548828125,32.216674190734864,50.9688548828125,34.55000019073486L30.8228878828125,69.44380019073486C29.4757338828125,71.77720019073487,31.1596838828125,74.69380019073486,33.8539848828125,74.69380019073486L74.1458548828125,74.69380019073486C76.8401548828125,74.69380019073486,78.5241548828125,71.77720019073487,77.1768548828125,69.44380019073486L57.0311548828125,34.55000019073486ZM35.8746948828125,70.02720019073487L53.9998548828125,38.63333019073487L72.1252548828125,70.02720019073487L35.8746948828125,70.02720019073487ZM56.3332548828125,49.709900190734864C56.3332548828125,48.42130019073486,55.288554882812505,47.37010019073486,53.9998548828125,47.37010019073486C52.7112548828125,47.37010019073486,51.6666548828125,48.42130019073486,51.6666548828125,49.709900190734864L51.6666548828125,58.04000019073486C51.6666548828125,59.328700190734864,52.7112548828125,60.37010019073486,53.9998548828125,60.37010019073486C55.288554882812505,60.37010019073486,56.3332548828125,59.328700190734864,56.3332548828125,58.04000019073486L56.3332548828125,49.709900190734864ZM56.3332548828125,65.04000019073487C56.3332548828125,66.32870019073486,55.288554882812505,67.37010019073486,53.9998548828125,67.37010019073486C52.7112548828125,67.37010019073486,51.6666548828125,66.32870019073486,51.6666548828125,65.04000019073487C51.6666548828125,63.75130019073487,52.7112548828125,62.709900190734864,53.9998548828125,62.709900190734864C55.288554882812505,62.709900190734864,56.3332548828125,63.75130019073487,56.3332548828125,65.04000019073487Z" fill-rule="evenodd" fill="#000000" fill-opacity="0.8999999761581421"/><path d="M29.7093778828125,71.25970019073486Q29.7280608828125,72.32750019073487,30.2686343828125,73.26380019073486Q30.8092078828125,74.20010019073487,31.7246248828125,74.75020019073486Q32.6958348828125,75.33380019073486,33.8539848828125,75.33380019073486L74.1458548828125,75.33380019073486Q75.3040548828125,75.33380019073486,76.2752548828125,74.75020019073486Q77.19065488281251,74.20010019073487,77.7312548828125,73.26380019073486Q78.2717548828125,72.32750019073487,78.2904548828125,71.25970019073486Q78.3102548828125,70.12680019073485,77.73115488281249,69.12380019073487L57.585354882812496,34.23000019073486Q57.0062548828125,33.226999190734865,56.015154882812496,32.67772519073486Q55.081054882812495,32.159999190734865,53.9999548828125,32.16000019073486Q52.9187548828125,32.160002190734865,51.9846548828125,32.67773419073486Q50.9936548828125,33.22701819073486,50.414554882812496,34.23000019073486L30.2686317828125,69.12380019073487Q29.6895568828125,70.12680019073485,29.7093778828125,71.25970019073486ZM50.9688548828125,34.55000019073486C52.3159548828125,32.216674190734864,55.6838548828125,32.21666019073486,57.0311548828125,34.55000019073486L77.1768548828125,69.44380019073486C78.5241548828125,71.77720019073487,76.8401548828125,74.69380019073486,74.1458548828125,74.69380019073486L33.8539848828125,74.69380019073486C31.1596838828125,74.69380019073486,29.4757338828125,71.77720019073487,30.8228878828125,69.44380019073486L50.9688548828125,34.55000019073486ZM36.2441948828125,69.38720019073486L53.6303548828125,39.27333019073486L53.9998548828125,38.63333019073487L54.3693548828125,39.27333019073486L71.7557548828125,69.38720019073486L72.1252548828125,70.02720019073487L35.8746948828125,70.02720019073487L36.2441948828125,69.38720019073486ZM36.9832048828125,69.38720019073486L53.9998548828125,39.91333019073486L71.0166548828125,69.38720019073486L36.9832048828125,69.38720019073486ZM51.0266548828125,49.709900190734864L51.0266548828125,58.04000019073486Q51.0266548828125,59.27170019073486,51.8979548828125,60.14130019073487Q52.7683548828125,61.01010019073486,53.9998548828125,61.01010019073486Q55.2314548828125,61.01010019073486,56.1019548828125,60.14130019073487Q56.9732548828125,59.27170019073486,56.9732548828125,58.04000019073486L56.9732548828125,49.709900190734864Q56.9732548828125,48.47840019073486,56.1032548828125,47.60510019073486Q55.2315548828125,46.73010019073486,53.9998548828125,46.73010019073486Q52.7682548828125,46.73010019073486,51.8966548828125,47.60510019073486Q51.0266548828125,48.47840019073486,51.0266548828125,49.709900190734864ZM53.9998548828125,47.37010019073486C55.288554882812505,47.37010019073486,56.3332548828125,48.42130019073486,56.3332548828125,49.709900190734864L56.3332548828125,58.04000019073486C56.3332548828125,59.328700190734864,55.288554882812505,60.37010019073486,53.9998548828125,60.37010019073486C52.7112548828125,60.37010019073486,51.6666548828125,59.328700190734864,51.6666548828125,58.04000019073486L51.6666548828125,49.709900190734864C51.6666548828125,48.42130019073486,52.7112548828125,47.37010019073486,53.9998548828125,47.37010019073486ZM56.1019548828125,67.14130019073485Q56.9732548828125,66.27170019073486,56.9732548828125,65.04000019073487Q56.9732548828125,63.80830019073486,56.1019548828125,62.93870019073486Q55.2314548828125,62.06990019073486,53.9998548828125,62.06990019073486Q52.7683548828125,62.06990019073486,51.8979548828125,62.93870019073486Q51.0266548828125,63.80830019073486,51.0266548828125,65.04000019073487Q51.0266548828125,66.27160019073486,51.8979548828125,67.14130019073485Q52.7683548828125,68.01010019073486,53.9998548828125,68.01010019073486Q55.2314548828125,68.01010019073486,56.1019548828125,67.14130019073485ZM53.9998548828125,67.37010019073486C55.288554882812505,67.37010019073486,56.3332548828125,66.32870019073486,56.3332548828125,65.04000019073487C56.3332548828125,63.75130019073487,55.288554882812505,62.709900190734864,53.9998548828125,62.709900190734864C52.7112548828125,62.709900190734864,51.6666548828125,63.75130019073487,51.6666548828125,65.04000019073487C51.6666548828125,66.32870019073486,52.7112548828125,67.37010019073486,53.9998548828125,67.37010019073486Z" fill-rule="evenodd" fill="#000000" fill-opacity="0.8999999761581421"/></g></g></g></svg>