<svg xmlns="http://www.w3.org/2000/svg" xmlns:xlink="http://www.w3.org/1999/xlink" fill="none" version="1.1" width="24" height="24" viewBox="0 0 24 24"><g><g><path d="M13.29906953125,3.75C12.72166953125,2.749997,11.27828953125,2.750003,10.70094953125,3.75L2.06696953125,18.7045C1.48961753125,19.7045,2.21131053125,20.9545,3.36600953125,20.9545L20.63396953125,20.9545C21.78866953125,20.9545,22.51036953125,19.7045,21.93296953125,18.7045L13.29906953125,3.75ZM4.232029531249999,18.9545L11.99996953125,5.5L19.76796953125,18.9545L4.232029531249999,18.9545ZM12.99996953125,9.60229C12.99996953125,9.05001,12.55226953125,8.60229,11.99996953125,8.60229C11.44771953125,8.60229,10.99999953125,9.05001,10.99999953125,9.60229L10.99999953125,13.6023C10.99999953125,14.1546,11.44771953125,14.6023,11.99996953125,14.6023C12.55226953125,14.6023,12.99996953125,14.1546,12.99996953125,13.6023L12.99996953125,9.60229ZM12.99996953125,16.6023C12.99996953125,17.154600000000002,12.55226953125,17.6023,11.99996953125,17.6023C11.44771953125,17.6023,10.99999953125,17.154600000000002,10.99999953125,16.6023C10.99999953125,16.05,11.44771953125,15.6023,11.99996953125,15.6023C12.55226953125,15.6023,12.99996953125,16.05,12.99996953125,16.6023Z" fill-rule="evenodd" fill="#000000" fill-opacity="0.8999999761581421"/><path d="M1.85912338125,18.5845Q1.3568265312499999,19.4545,1.85912441125,20.3245Q2.36142053125,21.1945,3.36600953125,21.1945L20.63396953125,21.1945Q21.63856953125,21.1945,22.14086953125,20.3245Q22.64316953125,19.4545,22.14076953125,18.5845L13.50686953125,3.630001Q13.00456953125,2.759998,11.99996953125,2.76Q10.99538953125,2.760002,10.49309953125,3.630001L1.85912338125,18.5845ZM13.29906953125,3.75L21.93296953125,18.7045C22.51036953125,19.7045,21.78866953125,20.9545,20.63396953125,20.9545L3.36600953125,20.9545C2.21131053125,20.9545,1.48961753125,19.7045,2.06696953125,18.7045L10.70094953125,3.75C11.27828953125,2.750003,12.72166953125,2.749997,13.29906953125,3.75ZM4.370589531249999,18.7145L11.86140953125,5.74L11.99996953125,5.5L12.13856953125,5.74L19.62936953125,18.7145L19.76796953125,18.9545L4.232029531249999,18.9545L4.370589531249999,18.7145ZM4.64771953125,18.7145L11.99996953125,5.98L19.35226953125,18.7145L4.64771953125,18.7145ZM10.75999953125,9.60229L10.75999953125,13.6023Q10.75999953125,14.1159,11.12317953125,14.4791Q11.48635953125,14.8423,11.99996953125,14.8423Q12.51356953125,14.8423,12.87676953125,14.4791Q13.23996953125,14.1159,13.23996953125,13.6023L13.23996953125,9.60229Q13.23996953125,9.08867,12.87676953125,8.725480000000001Q12.51356953125,8.36229,11.99996953125,8.36229Q11.48636953125,8.36229,11.12317953125,8.725480000000001Q10.75999953125,9.08867,10.75999953125,9.60229ZM11.99996953125,8.60229C12.55226953125,8.60229,12.99996953125,9.05001,12.99996953125,9.60229L12.99996953125,13.6023C12.99996953125,14.1546,12.55226953125,14.6023,11.99996953125,14.6023C11.44771953125,14.6023,10.99999953125,14.1546,10.99999953125,13.6023L10.99999953125,9.60229C10.99999953125,9.05001,11.44771953125,8.60229,11.99996953125,8.60229ZM12.87676953125,17.479100000000003Q13.23996953125,17.1159,13.23996953125,16.6023Q13.23996953125,16.0887,12.87676953125,15.7255Q12.51356953125,15.3623,11.99996953125,15.3623Q11.48635953125,15.3623,11.12317953125,15.7255Q10.75999953125,16.0887,10.75999953125,16.6023Q10.75999953125,17.1159,11.12317953125,17.479100000000003Q11.48635953125,17.8423,11.99996953125,17.8423Q12.51356953125,17.8423,12.87676953125,17.479100000000003ZM11.99996953125,17.6023C12.55226953125,17.6023,12.99996953125,17.154600000000002,12.99996953125,16.6023C12.99996953125,16.05,12.55226953125,15.6023,11.99996953125,15.6023C11.44771953125,15.6023,10.99999953125,16.05,10.99999953125,16.6023C10.99999953125,17.154600000000002,11.44771953125,17.6023,11.99996953125,17.6023Z" fill-rule="evenodd" fill="#000000" fill-opacity="0.8999999761581421"/></g></g></svg>