<svg xmlns="http://www.w3.org/2000/svg" xmlns:xlink="http://www.w3.org/1999/xlink" fill="none" version="1.1" width="80" height="80" viewBox="0 0 80 80"><g><g><path d="M7.899993896484375,25.7811140625Q7.899989843364375,27.3867140625,8.685145896484375,28.7572140625Q9.521033896484376,30.2162140625,11.041373896484375,31.0247140625L14.549473896484376,32.890314062499996L11.041373896484375,34.7558140625Q9.521043896484375,35.5643140625,8.685155896484375,37.023414062499995Q7.899997949604375,38.3939140625,7.899993896484375,39.9994140625Q7.899989902974375,41.6050140625,8.685147896484375,42.9755140625Q9.521043896484375,44.4345140625,11.041363896484375,45.2430140625L14.549453896484376,47.1086140625L11.041353896484376,48.9740140625Q9.521033896484376,49.7825140625,8.685151896484374,51.2416140625Q7.899997830394375,52.6122140625,7.899993896484375,54.2177140625Q7.899989902974375,55.8233140625,8.685147896484375,57.1937140625Q9.521033896484376,58.6528140625,11.041373896484375,59.4612140625L36.41589389648438,72.9550140625Q38.097593896484376,73.8493140625,39.99989389648437,73.8493140625Q41.90229389648437,73.8493140625,43.58399389648437,72.9550140625L68.95849389648438,59.4612140625Q70.47889389648438,58.6528140625,71.31479389648437,57.1938140625Q72.09999389648438,55.8233140625,72.09999389648438,54.2177140625Q72.09999389648438,52.6122140625,71.31479389648437,51.2416140625Q70.47889389648438,49.7825140625,68.95849389648438,48.9739140625L65.45049389648437,47.1086140625L68.95849389648438,45.2430140625Q70.47889389648438,44.4345140625,71.31479389648437,42.9755140625Q72.09999389648438,41.6050140625,72.09999389648438,39.9994140625Q72.09999389648438,38.3939140625,71.31479389648437,37.023414062499995Q70.47889389648438,35.5643140625,68.95849389648438,34.7558140625L65.45049389648437,32.890314062499996L68.95849389648438,31.0247140625Q70.47889389648438,30.2162140625,71.31479389648437,28.7572140625Q72.09999389648438,27.3867140625,72.09999389648438,25.7811140625Q72.09999389648438,24.1756140625,71.31479389648437,22.8051140625Q70.47889389648438,21.3461140625,68.95849389648438,20.537614062499998L43.58399389648437,7.0437090625Q41.90229389648437,6.1494140625,39.99989389648437,6.1494140625Q38.097593896484376,6.1494140625,36.41589389648438,7.0437100625L11.041373896484375,20.537614062499998Q9.521053896484375,21.3461140625,8.685157896484375,22.8051140625Q7.899997949604375,24.1756140625,7.899993896484375,25.7811140625ZM36.69759389648438,7.5734640625C38.76369389648438,6.4748290625,41.23619389648437,6.4748300625,43.30229389648437,7.5734640625C41.23609389648438,6.4747320625,38.76369389648438,6.4747310625,36.69759389648438,7.5734640625ZM39.99989389648437,14.5381040625L61.141893896484376,25.7811140625L39.99989389648437,37.0242140625L18.857993896484373,25.7811140625L39.99989389648437,14.5381040625ZM43.58399389648437,44.5185140625L56.611893896484375,37.5904140625L61.141893896484376,39.9994140625L39.99989389648437,51.2423140625L18.857993896484373,39.9994140625L23.387893896484375,37.5904140625L36.41589389648438,44.5185140625Q38.097593896484376,45.4128140625,39.99989389648437,45.4128140625Q41.90229389648437,45.4128140625,43.58399389648437,44.5185140625ZM43.58399389648437,58.7368140625L56.611893896484375,51.8088140625L61.141893896484376,54.2178140625L39.99989389648437,65.4606140625L18.857993896484373,54.2177140625L23.387893896484375,51.8088140625L36.41589389648438,58.7368140625Q38.097593896484376,59.6311140625,39.99989389648437,59.6311140625Q41.90229389648437,59.6311140625,43.58399389648437,58.7368140625Z" fill-rule="evenodd" fill="#000000" fill-opacity="0.8999999761581421"/></g></g></svg>