<svg xmlns="http://www.w3.org/2000/svg" xmlns:xlink="http://www.w3.org/1999/xlink" fill="none" version="1.1" width="80" height="80" viewBox="0 0 80 80"><g><g><path d="M67.3112,21.9691078125C70.8963,23.8755078125,70.8963,29.0414078125,67.3112,30.9478078125C67.3112,30.9478078125,63.0215,33.229107812500004,63.0215,33.229107812500004C63.0215,33.229107812500004,67.3112,35.5103078125,67.3112,35.5103078125C70.8963,37.4167078125,70.8963,42.5827078125,67.3112,44.4890078125C67.3112,44.4890078125,63.0215,46.7704078125,63.0215,46.7704078125C63.0215,46.7704078125,67.3112,49.0514078125,67.3112,49.0514078125C70.8963,50.9580078125,70.8963,56.1239078125,67.3112,58.0302078125C67.3112,58.0302078125,43.145,70.88150781249999,43.145,70.88150781249999C41.1773,71.9279078125,38.8226,71.9279078125,36.8549,70.88150781249999C36.8549,70.88150781249999,12.68866,58.0302078125,12.68866,58.0302078125C9.103766,56.1239078125,9.103793,50.9580078125,12.68866,49.0514078125C12.68866,49.0514078125,16.97845,46.7704078125,16.97845,46.7704078125C16.97845,46.7704078125,12.68866,44.4890078125,12.68866,44.4890078125C9.103766,42.5827078125,9.103793,37.4167078125,12.68866,35.5103078125C12.68866,35.5103078125,16.97845,33.229107812500004,16.97845,33.229107812500004C16.97845,33.229107812500004,12.68866,30.9478078125,12.68866,30.9478078125C9.103766,29.0414078125,9.103793,23.8755078125,12.68866,21.9691078125C12.68866,21.9691078125,36.8549,9.1178148125,36.8549,9.1178148125C38.8226,8.0714048125,41.1773,8.0714058125,43.145,9.1178148125C43.145,9.1178148125,67.3112,21.9691078125,67.3112,21.9691078125C67.3112,21.9691078125,67.3112,21.9691078125,67.3112,21.9691078125ZM61.3522,26.4585078125C61.3522,26.4585078125,40,15.1036078125,40,15.1036078125C40,15.1036078125,18.64771,26.4585078125,18.64771,26.4585078125C18.64771,26.4585078125,40,37.8133078125,40,37.8133078125C40,37.8133078125,61.3522,26.4585078125,61.3522,26.4585078125C61.3522,26.4585078125,61.3522,26.4585078125,61.3522,26.4585078125ZM24.179000000000002,50.5995078125C24.179000000000002,50.5995078125,18.64771,53.5410078125,18.64771,53.5410078125C18.64771,53.5410078125,40,64.8956078125,40,64.8956078125C40,64.8956078125,61.3522,53.5410078125,61.3522,53.5410078125C61.3522,53.5410078125,55.8208,50.5995078125,55.8208,50.5995078125C55.8208,50.5995078125,43.145,57.3403078125,43.145,57.3403078125C41.1773,58.3867078125,38.8226,58.3867078125,36.8549,57.3403078125C36.8549,57.3403078125,24.179000000000002,50.5995078125,24.179000000000002,50.5995078125C24.179000000000002,50.5995078125,24.179000000000002,50.5995078125,24.179000000000002,50.5995078125ZM43.145,43.7991078125C43.145,43.7991078125,55.8208,37.0582078125,55.8208,37.0582078125C55.8208,37.0582078125,61.3522,39.9997078125,61.3522,39.9997078125C61.3522,39.9997078125,40,51.3544078125,40,51.3544078125C40,51.3544078125,18.64771,39.9997078125,18.64771,39.9997078125C18.64771,39.9997078125,24.179000000000002,37.0582078125,24.179000000000002,37.0582078125C24.179000000000002,37.0582078125,36.8549,43.7991078125,36.8549,43.7991078125C38.8226,44.8455078125,41.1773,44.8455078125,43.145,43.7991078125C43.145,43.7991078125,43.145,43.7991078125,43.145,43.7991078125Z" fill-rule="evenodd" fill="#000000" fill-opacity="1"/><path d="M9,26.4585078125Q8.99999,30.1188078125,12.21913,31.8307078125L14.84864,33.229107812500004L12.21914,34.627407812499996Q9.000009,36.339307812499996,9,39.9997078125Q8.99999,43.6602078125,12.21912,45.3719078125L14.84859,46.7703078125L12.219100000000001,48.1685078125Q9.000009,49.8805078125,9,53.5409078125Q8.99999,57.2013078125,12.21913,58.9131078125L36.385400000000004,71.7644078125Q40,73.6866078125,43.6145,71.7644078125L67.7807,58.9132078125Q71,57.2014078125,71,53.5409078125Q71,49.8805078125,67.7807,48.1684078125L65.1514,46.7703078125L67.7807,45.3720078125Q71,43.6602078125,71,39.9997078125Q71,36.339307812499996,67.7807,34.627407812499996L65.15129999999999,33.229107812500004L67.7807,31.8307078125Q71,30.1188078125,71,26.4585078125Q71,22.7981078125,67.7807,21.0862078125L43.6145,8.2348943125Q40,6.312707812499999,36.385400000000004,8.2348961125L12.21914,21.0862078125Q9.000009,22.7981078125,9,26.4585078125ZM16.97845,33.229107812500004L15.913540000000001,32.6628078125L12.68866,30.9478078125C9.103766,29.0414078125,9.103793,23.8755078125,12.68866,21.9691078125L36.8549,9.1178148125C38.8226,8.0714048125,41.1773,8.0714058125,43.145,9.1178148125L67.3112,21.9691078125C70.8963,23.8755078125,70.8963,29.0414078125,67.3112,30.9478078125L64.0864,32.6628078125L63.0215,33.229107812500004L64.0864,33.7954078125L67.3112,35.5103078125C70.8963,37.4167078125,70.8963,42.5827078125,67.3112,44.4890078125L64.0864,46.2040078125L63.0215,46.7704078125L64.0865,47.3366078125L67.3112,49.0514078125C70.8963,50.9580078125,70.8963,56.1239078125,67.3112,58.0302078125L43.145,70.88150781249999C41.1773,71.9279078125,38.8226,71.9279078125,36.8549,70.88150781249999L12.68866,58.0302078125C9.103766,56.1239078125,9.103793,50.9580078125,12.68866,49.0514078125L15.913499999999999,47.3366078125L16.97845,46.7704078125L15.913540000000001,46.2040078125L12.68866,44.4890078125C9.103766,42.5827078125,9.103793,37.4167078125,12.68866,35.5103078125L15.913540000000001,33.7954078125L16.97845,33.229107812500004ZM60.2873,25.8922078125L61.3522,26.4585078125L60.2873,27.0248078125L40,37.8133078125L19.71262,27.0248078125L18.64771,26.4585078125L19.71262,25.8922078125L40,15.1036078125L60.2873,25.8922078125ZM40,16.2362178125L59.2224,26.4585078125L40,36.6807078125L20.7775,26.4585078125L40,16.2362178125ZM55.8208,37.0582078125L43.145,43.7991078125C41.1773,44.8455078125,38.8226,44.8455078125,36.8549,43.7991078125L24.179000000000002,37.0582078125L19.71262,39.4334078125L18.64771,39.9997078125L19.71263,40.5660078125L40,51.3544078125L60.2873,40.5660078125L61.3522,39.9997078125L60.2873,39.4334078125L55.8208,37.0582078125ZM20.7775,39.9997078125L24.179000000000002,38.1908078125L36.385400000000004,44.6820078125Q40,46.6042078125,43.6145,44.6820078125L55.8209,38.1908078125L59.2224,39.9997078125L40,50.2218078125L20.7775,39.9997078125ZM24.179000000000002,50.5995078125L36.8549,57.3403078125C38.8226,58.3867078125,41.1773,58.3867078125,43.145,57.3403078125L55.8208,50.5995078125L60.2873,52.9747078125L61.3522,53.5410078125L60.2873,54.1073078125L40,64.8956078125L19.71262,54.1073078125L18.64771,53.5410078125L19.71262,52.9747078125L24.179000000000002,50.5995078125ZM43.6145,58.2232078125L55.8208,51.7321078125L59.2224,53.5410078125L40,63.7630078125L20.7775,53.5410078125L24.179000000000002,51.7321078125L36.385400000000004,58.2232078125Q40,60.1454078125,43.6145,58.2232078125Z" fill-rule="evenodd" fill="#000000" fill-opacity="1"/></g></g></svg>