<svg xmlns="http://www.w3.org/2000/svg" xmlns:xlink="http://www.w3.org/1999/xlink" fill="none" version="1.1" width="80" height="80" viewBox="0 0 80 80"><g><g><path d="M8.430023193359375,26.12029765625Q8.430014456809374,29.74899765625,11.620883193359376,31.44589765625L14.656493193359374,33.06019765625L11.620893193359375,34.67449765625Q8.430031929909376,36.37129765625,8.430023193359375,40.00009765625Q8.430014456809374,43.62889765625,11.620873193359376,45.32559765625L14.656453193359376,46.93989765625L11.620863193359375,48.55409765625Q8.430031929909376,50.25109765625,8.430023193359375,53.87979765625Q8.430014456809374,57.50859765625,11.620883193359376,59.20529765625L36.39122319335938,72.37789765625Q40.000023193359375,74.29689765625,43.608723193359374,72.37789765625L68.37902319335937,59.20529765625Q71.57002319335938,57.50859765625,71.57002319335938,53.87979765625Q71.57002319335938,50.25109765625,68.37902319335937,48.55399765625L65.34352319335937,46.93989765625L68.37902319335937,45.32559765625Q71.57002319335938,43.62889765625,71.57002319335938,40.00009765625Q71.57002319335938,36.37129765625,68.37902319335937,34.67449765625L65.34352319335937,33.06019765625L68.37902319335937,31.44589765625Q71.57002319335938,29.74899765625,71.57002319335938,26.12029765625Q71.57002319335938,22.49159765625,68.37902319335937,20.79469765625L43.608723193359374,7.62212265625Q40.000023193359375,5.70307165625,36.39122319335938,7.62212365625L11.620893193359375,20.79469765625Q8.430031929909376,22.49159765625,8.430023193359375,26.12029765625ZM36.77622319335937,71.65389765625C38.793223193359374,72.72619765625,41.20672319335937,72.72619765625,43.22362319335937,71.65389765625C41.20672319335937,72.72649765625,38.793223193359374,72.72649765625,36.77622319335937,71.65389765625ZM40.000023193359375,15.41028765625L60.13952319335937,26.12029765625L40.000023193359375,36.830297656249996L19.860323193359378,26.12029765625L40.000023193359375,15.41028765625ZM43.22362319335937,43.89439765625C41.20672319335937,44.96669765625,38.793223193359374,44.96669765625,36.77622319335937,43.89439765625C38.793223193359374,44.96699765625,41.20672319335937,44.96699765625,43.22362319335937,43.89439765625ZM19.860423193359374,39.99999765625L23.783423193359376,37.91379765625L36.39122319335938,44.61839765625Q39.99992319335938,46.53749765625,43.608723193359374,44.61839765625L56.216423193359375,37.91379765625L60.13952319335937,39.99999765625L40.000023193359375,50.70989765625L19.860423193359374,39.99999765625ZM36.77622319335937,57.77419765625C38.793223193359374,58.84669765625,41.20672319335937,58.84669765625,43.22362319335937,57.77419765625C41.20672319335937,58.84649765625,38.793223193359374,58.84649765625,36.77622319335937,57.77419765625ZM19.860423193359374,53.87979765625L23.783423193359376,51.79359765625L36.39122319335938,58.49819765625Q39.99992319335938,60.41719765625,43.608723193359374,58.49819765625L56.216423193359375,51.79359765625L60.13952319335937,53.87989765625L40.000023193359375,64.58959765624999L19.860423193359374,53.87979765625Z" fill-rule="evenodd" fill="#000000" fill-opacity="1"/></g></g></svg>