<svg xmlns="http://www.w3.org/2000/svg" xmlns:xlink="http://www.w3.org/1999/xlink" fill="none" version="1.1" width="144" height="144" viewBox="0 0 144 144"><defs><filter id="master_svg0_42_7474" filterUnits="objectBoundingBox" color-interpolation-filters="sRGB" x="0" y="0" width="144" height="144"><feFlood flood-opacity="0" result="BackgroundImageFix"/><feBlend mode="normal" in="SourceGraphic" in2="BackgroundImageFix" result="shape"/><feColorMatrix in="SourceAlpha" type="matrix" result="hardAlpha" values="0 0 0 0 0 0 0 0 0 0 0 0 0 0 0 0 0 0 127 0"/><feOffset dy="0" dx="0"/><feGaussianBlur stdDeviation="5"/><feComposite in2="hardAlpha" operator="arithmetic" k2="-1" k3="1"/><feColorMatrix type="matrix" values="0 0 0 0 0 0 0 0 0 0 0 0 0 0 0 0 0 0 0.019999999552965164 0"/><feBlend mode="normal" in2="shape" result="effect1_innerShadow"/></filter></defs><g><g filter="url(#master_svg0_42_7474)"><ellipse cx="72" cy="72" rx="72" ry="72" fill="#000000" fill-opacity="0.05000000074505806"/></g><g><g><path d="M98.37858898925782,54.69022109375C101.84118898925782,56.52042109375,101.84118898925782,61.47992109375,98.37858898925782,63.31012109375L75.03808898925782,75.64772109375C73.13758898925781,76.65232109375,70.86338898925781,76.65232109375,68.9628889892578,75.64772109375L45.62237898925781,63.31012109375C42.159976989257814,61.47992109375,42.16000298925781,56.52042109375,45.622388989257814,54.69022109375L68.9628889892578,42.35256209375C70.86338898925781,41.34797409375,73.13758898925781,41.34797409375,75.03808898925782,42.35256209375L98.37858898925782,54.69022109375ZM98.79688898925781,67.93702109375C98.66368898925782,68.02462109375,98.52418898925782,68.10702109375,98.37858898925782,68.18402109375L75.03808898925782,80.52182109374999C73.13758898925781,81.52632109375,70.86338898925781,81.52632109375,68.9628889892578,80.52182109374999L45.622388989257814,68.18402109375C45.47689898925781,68.10712109375,45.33752898925781,68.02472109375,45.20426898925781,67.93722109375C42.16637398925781,69.93192109374999,42.305807989257815,74.55672109375,45.622638989257815,76.31012109375L68.96318898925782,88.64772109375C70.8635889892578,89.65232109375,73.13788898925782,89.65232109375,75.03838898925781,88.64772109375L98.3789889892578,76.31012109375C101.69588898925781,74.55672109375,101.8352889892578,69.93172109375,98.79688898925781,67.93702109375ZM98.79688898925781,80.93712109375C98.66368898925782,81.02452109375,98.52418898925782,81.10712109375001,98.37858898925782,81.18412109375001L75.03808898925782,93.52182109374999C73.13758898925781,94.52632109375,70.86338898925781,94.52632109375,68.9628889892578,93.52182109374999L45.622388989257814,81.18412109375001C45.47689898925781,81.10712109375001,45.33752898925781,81.02452109375,45.20426898925781,80.93712109375C42.16637398925781,82.93202109375,42.305807989257815,87.55672109375,45.622638989257815,89.31012109375L68.96318898925782,101.64772109375C70.8635889892578,102.65232109375,73.13788898925782,102.65232109375,75.03838898925781,101.64772109375L98.3789889892578,89.31012109375C101.69588898925781,87.55672109375,101.8352889892578,82.93162109375001,98.79688898925781,80.93712109375Z" fill-rule="evenodd" fill="#000000" fill-opacity="0.6000000238418579"/></g></g><g transform="matrix(0.7071067690849304,0.7071067690849304,-0.7071067690849304,0.7071067690849304,27.952115102161997,-48.482700607687775)"><g></g></g></g></svg>