<svg xmlns="http://www.w3.org/2000/svg" xmlns:xlink="http://www.w3.org/1999/xlink" fill="none" version="1.1" width="48" height="48" viewBox="0 0 48 48"><defs><filter id="master_svg0_42_1493" filterUnits="objectBoundingBox" color-interpolation-filters="sRGB" x="0" y="0" width="48" height="48"><feFlood flood-opacity="0" result="BackgroundImageFix"/><feBlend mode="normal" in="SourceGraphic" in2="BackgroundImageFix" result="shape"/><feColorMatrix in="SourceAlpha" type="matrix" result="hardAlpha" values="0 0 0 0 0 0 0 0 0 0 0 0 0 0 0 0 0 0 127 0"/><feOffset dy="0" dx="0"/><feGaussianBlur stdDeviation="5"/><feComposite in2="hardAlpha" operator="arithmetic" k2="-1" k3="1"/><feColorMatrix type="matrix" values="0 0 0 0 0 0 0 0 0 0 0 0 0 0 0 0 0 0 0.019999999552965164 0"/><feBlend mode="normal" in2="shape" result="effect1_innerShadow"/></filter></defs><g><g filter="url(#master_svg0_42_1493)"><rect x="0" y="0" width="48" height="48" rx="24" fill="#F2F2F2" fill-opacity="1"/></g><g><ellipse cx="24.000001907348633" cy="24" rx="21.000001907348633" ry="21" fill="#FFFFFF" fill-opacity="1"/></g><g transform="matrix(-1,0,0,1,76,0)"><g transform="matrix(-1,0,0,1,125.381103515625,0)"><path d="M71.2136817578125,28.319456494140624C71.2136817578125,28.319456494140624,71.4592817578125,32.17835649414063,71.4592817578125,32.17835649414063C71.5449517578125,33.046356494140625,72.4582817578125,33.63955649414062,73.2989517578125,33.165356494140624C75.6581517578125,31.833956494140626,77.8244517578125,30.173056494140624,79.9174517578125,28.459956494140627C81.2324517578125,27.364156494140623,82.5067517578125,26.212256494140625,83.6902517578125,24.974356494140626C84.1892517578125,24.451986494140627,84.2386517578125,23.587066494140625,83.7162517578125,23.040256494140625C82.5141517578125,21.781996494140625,80.8145517578125,20.206116494140623,78.69935175781251,18.535816494140626C76.9850517578125,17.194576494140627,75.2117517578125,15.941566494140625,73.3332517578125,14.841167494140626C72.4297517578125,14.326316494140626,71.5335217578125,15.032739494140625,71.4512817578125,15.891236494140625C71.4512817578125,15.891236494140625,71.2104417578125,19.735856494140627,71.2104417578125,19.735856494140627C66.3331517578125,20.245466494140626,62.6905517578125,24.548606494140625,62.6905517578125,29.396956494140625C62.6905517578125,32.285456494140625,63.8432217578125,32.000556494140625,65.8364417578125,30.287456494140624C67.3548317578125,29.034756494140623,69.2532917578125,28.360756494140624,71.2136817578125,28.319456494140624C71.2136817578125,28.319456494140624,71.2136817578125,28.319456494140624,71.2136817578125,28.319456494140624ZM64.9311417578125,28.256056494140623C66.6468617578125,26.991956494140624,68.70669175781251,26.255756494140627,70.8820617578125,26.166956494140624C70.8820617578125,26.166956494140624,70.9033317578125,26.166056494140626,70.9033317578125,26.166056494140626C70.9033317578125,26.166056494140626,72.7436517578125,26.127356494140624,72.7436517578125,26.127356494140624C73.0346517578125,26.121156494140624,73.2781517578125,26.346956494140628,73.2940517578125,26.637556494140625C73.2940517578125,26.637556494140625,73.5066517578125,30.519656494140627,73.5066517578125,30.519656494140627C75.2376517578125,29.417056494140624,76.8875517578125,28.149056494140623,78.5423517578125,26.794956494140624C79.6109517578125,25.904156494140626,80.6417517578125,24.974256494140626,81.62745175781251,23.992666494140625C80.5431517578125,22.908156494140627,79.10605175781251,21.608686494140624,77.3648517578125,20.233486494140625C76.1062517578125,19.248926494140626,74.8292517578125,18.324896494140624,73.51225175781249,17.482836494140624C73.51225175781249,17.482836494140624,73.3054517578125,21.231376494140626,73.3054517578125,21.231376494140626C73.2908517578125,21.496086494140627,73.0861517578125,21.711016494140626,72.8225517578125,21.738576494140624C72.8225517578125,21.738576494140624,71.3526117578125,21.892146494140626,71.3526117578125,21.892146494140626C68.0433317578125,22.287046494140625,65.4182217578125,24.874256494140624,64.9311417578125,28.256056494140623C64.9311417578125,28.256056494140623,64.9311417578125,28.256056494140623,64.9311417578125,28.256056494140623Z" fill-rule="evenodd" fill="#000000" fill-opacity="0.8999999761581421"/><path d="M70.7458917578125,28.841556494140626L70.9608417578125,32.218856494140624L70.9616917578125,32.227456494140625Q71.0530617578125,33.15305649414063,71.8470917578125,33.60875649414062Q72.6814517578125,34.087656494140624,73.5445517578125,33.60085649414063Q76.3827517578125,31.999156494140625,80.2341517578125,28.846956494140628Q82.4265517578125,27.019756494140623,84.0516517578125,25.319856494140623Q84.5658517578125,24.781656494140627,84.5860517578125,24.029926494140625Q84.6071517578125,23.248976494140624,84.0777517578125,22.694876494140622Q81.9417517578125,20.459126494140627,79.0091517578125,18.143406494140624Q76.1771517578125,15.927566494140624,73.5859517578125,14.409735494140625Q72.6713317578125,13.888494494140625,71.8170917578125,14.428579494140624Q71.0421717578125,14.918519494140625,70.9535617578125,15.843556494140625L70.9527717578125,15.851756494140625L70.7373317578125,19.290906494140625Q67.1898517578125,19.803346494140627,64.7444717578125,22.610986494140626Q62.1905517578125,25.543256494140625,62.1905517578125,29.396956494140625Q62.1905517578125,31.886056494140625,63.4462867578125,32.06295649414062Q64.3840317578125,32.19505649414063,66.1623417578125,30.666656494140625Q68.1468417578125,29.029456494140625,70.7458917578125,28.841556494140626ZM62.6905517578125,29.396956494140625C62.6905517578125,24.548606494140625,66.3331517578125,20.245466494140626,71.2104417578125,19.735856494140627L71.4512817578125,15.891236494140625C71.5335217578125,15.032739494140625,72.4297517578125,14.326316494140626,73.3332517578125,14.841167494140626C75.2117517578125,15.941566494140625,76.9850517578125,17.194576494140627,78.69935175781251,18.535816494140626C80.8145517578125,20.206116494140623,82.5141517578125,21.781996494140625,83.7162517578125,23.040256494140625C84.2386517578125,23.587066494140625,84.1892517578125,24.451986494140627,83.6902517578125,24.974356494140626C82.5067517578125,26.212256494140625,81.2324517578125,27.364156494140623,79.9174517578125,28.459956494140627C77.8244517578125,30.173056494140624,75.6581517578125,31.833956494140626,73.2989517578125,33.165356494140624C72.4582817578125,33.63955649414062,71.5449517578125,33.046356494140625,71.4592817578125,32.17835649414063L71.2136817578125,28.319456494140624C69.2532917578125,28.360756494140624,67.3548317578125,29.034756494140623,65.8364417578125,30.287456494140624C63.8432217578125,32.000556494140625,62.6905517578125,32.285456494140625,62.6905517578125,29.396956494140625ZM70.8820617578125,26.166956494140624C68.9453117578125,26.246056494140625,67.1001417578125,26.838256494140623,65.5078617578125,27.859256494140624C65.3116817578125,27.985056494140625,65.1193417578125,28.117356494140623,64.9311417578125,28.256056494140623C64.9656517578125,28.016456494140627,65.0109017578125,27.780756494140626,65.0663717578125,27.549656494140624C65.7936817578125,24.518616494140623,68.27783175781249,22.259066494140626,71.3526117578125,21.892146494140626L72.8225517578125,21.738576494140624C73.0861517578125,21.711016494140626,73.2908517578125,21.496086494140627,73.3054517578125,21.231376494140626L73.48055175781249,18.057246494140625L73.51225175781249,17.482836494140624C73.6739517578125,17.586246494140624,73.8351517578125,17.690896494140624,73.9956517578125,17.796736494140625C75.1426517578125,18.552766494140624,76.2607517578125,19.369836494140625,77.3648517578125,20.233486494140625C78.9218517578125,21.463216494140624,80.2356517578125,22.632386494140626,81.2715517578125,23.641446494140624C81.3941517578125,23.760816494140627,81.5127517578125,23.877946494140623,81.62745175781251,23.992666494140625C81.5093517578125,24.110316494140626,81.3905517578125,24.227216494140627,81.2710517578125,24.343396494140627C80.39405175781249,25.196556494140623,79.4828517578125,26.010956494140625,78.5423517578125,26.794956494140624C77.0423517578125,28.022456494140627,75.5462517578125,29.179156494140624,73.9902517578125,30.206056494140626C73.8296517578125,30.311956494140624,73.6685517578125,30.416556494140625,73.5066517578125,30.519656494140627L73.4751517578125,29.945356494140626L73.2940517578125,26.637556494140625C73.2781517578125,26.346956494140628,73.0346517578125,26.121156494140624,72.7436517578125,26.127356494140624L70.9033317578125,26.166056494140626L70.8820617578125,26.166956494140624ZM70.8616517578125,25.667356494140627Q68.0510117578125,25.782156494140626,65.6883317578125,27.159856494140627Q65.6891917578125,27.157056494140626,65.6900617578125,27.154356494140625Q66.1970817578125,25.534556494140624,67.4352217578125,24.309446494140623Q69.0973917578125,22.664816494140624,71.4045717578125,22.389446494140625L72.8744517578125,22.235866494140623Q73.2553517578125,22.196056494140624,73.5194517578125,21.918686494140626Q73.7835517578125,21.641326494140625,73.80465175781251,21.258916494140625L73.9637517578125,18.375916494140625Q74.0636517578125,18.442786494140627,74.1640517578125,18.510846494140626Q75.5617517578125,19.457806494140627,77.0549517578125,20.625866494140624Q79.2008517578125,22.320686494140624,80.9151517578125,23.992036494140624Q80.8276517578125,24.077196494140622,80.7391517578125,24.162186494140627Q79.5608517578125,25.294856494140625,78.2256517578125,26.408056494140624Q75.8574517578125,28.345956494140623,73.9584517578125,29.625456494140625L73.7933517578125,26.610256494140625Q73.7703517578125,26.190356494140623,73.4619517578125,25.904456494140625Q73.1535517578125,25.618556494140627,72.7331517578125,25.627456494140624L70.88304175781249,25.666456494140625L70.8616517578125,25.667356494140627Z" fill-rule="evenodd" fill="#000000" fill-opacity="0.8999999761581421"/></g></g></g></svg>