<svg xmlns="http://www.w3.org/2000/svg" xmlns:xlink="http://www.w3.org/1999/xlink" fill="none" version="1.1" width="80" height="80" viewBox="0 0 80 80"><g><g><g><path d="M23.3333,13.33333C23.3333,11.49238,24.825699999999998,10,26.6667,10C28.5076,10,30,11.49238,30,13.33333L30,16.66667L50,16.66667L50,13.33333C50,11.49238,51.4923,10,53.3333,10C55.1743,10,56.6667,11.49238,56.6667,13.33333L56.6667,16.66667L63.3333,16.66667C67.0153,16.66667,70,19.651429999999998,70,23.3333L70,63.3333C70,67.0153,67.0153,70,63.3333,70L16.66667,70C12.984770000000001,70,10,67.0153,10,63.3333L10,23.3333C10,19.651429999999998,12.984770000000001,16.66667,16.66667,16.66667L23.3333,16.66667L23.3333,13.33333ZM63.333,30.3333L63.3333,23.3333L16.66667,23.3333L16.66699,30.3333L63.333,30.3333ZM16.66667,63.3333L16.66699,37L63.333,37L63.3333,63.3333L16.66667,63.3333ZM37.171099999999996,51.3841L46.4342,42.121Q47.2836,41.2716,48.4848,41.2716Q49.686,41.2716,50.5354,42.121Q51.3848,42.9704,51.3848,44.1716Q51.3848,45.3728,50.5354,46.2222L39.2924,57.4652Q38.4137,58.3439,37.171099999999996,58.3439Q35.9285,58.3439,35.049800000000005,57.4652L29.4636,51.8791Q28.6143,51.0297,28.6143,49.8285Q28.6143,48.6272,29.4636,47.7779Q30.313,46.9285,31.5142,46.9285Q32.7155,46.9285,33.5649,47.7779L37.171099999999996,51.3841Z" fill-rule="evenodd" fill="#000000" fill-opacity="1"/><path d="M22.7333,13.33333L22.7333,16.066670000000002L16.66667,16.066670000000002Q13.65672,16.066670000000002,11.52836,18.19502Q9.4,20.3234,9.4,23.3333L9.4,63.3333Q9.4,66.3434,11.52836,68.4717Q13.6567,70.6,16.66667,70.6L63.3333,70.6Q66.3434,70.6,68.4717,68.4717Q70.6,66.3434,70.6,63.3333L70.6,23.3333Q70.6,20.3234,68.4717,18.19503Q66.3434,16.066670000000002,63.3333,16.066670000000002L57.2667,16.066670000000002L57.2667,13.33333Q57.2667,11.70409,56.1146,10.552049Q54.9626,9.4,53.3333,9.4Q51.7041,9.4,50.552,10.552048Q49.4,11.70409,49.4,13.33333L49.4,16.066670000000002L30.6,16.066670000000002L30.6,13.33333Q30.6,11.7041,29.4479,10.552046Q28.2959,9.4,26.6667,9.4Q25.037399999999998,9.4,23.8854,10.552046Q22.7333,11.7041,22.7333,13.33333ZM16.66667,16.66667L23.3333,16.66667L23.3333,13.33333C23.3333,11.49238,24.825699999999998,10,26.6667,10C28.5076,10,30,11.49238,30,13.33333L30,16.66667L50,16.66667L50,13.33333C50,11.49238,51.4923,10,53.3333,10C55.1743,10,56.6667,11.49238,56.6667,13.33333L56.6667,16.66667L63.3333,16.66667C67.0153,16.66667,70,19.651429999999998,70,23.3333L70,63.3333C70,67.0153,67.0153,70,63.3333,70L16.66667,70C12.984770000000001,70,10,67.0153,10,63.3333L10,23.3333C10,19.651429999999998,12.984770000000001,16.66667,16.66667,16.66667ZM16.66699,30.3333L63.333,30.3333L63.333,29.7333L63.3333,23.9333L63.3333,23.3333L16.66667,23.3333L16.66669,23.9333L16.66696,29.7333L16.66699,30.3333ZM17.26696,29.7333L62.733,29.7333L62.7333,23.9333L17.26669,23.9333L17.26696,29.7333ZM16.66667,62.7333L16.66667,63.3333L17.26667,63.3333L62.7333,63.3333L63.3333,63.3333L63.3333,62.7333L63.333,37.6L63.333,37L16.66699,37L16.66698,37.6L16.66667,62.7333ZM62.733,37.6L62.7333,62.7333L17.26667,62.7333L17.26698,37.6L62.733,37.6ZM28.0143,49.8285Q28.0143,51.2782,29.0394,52.3034L34.6255,57.8895Q35.68,58.9439,37.171099999999996,58.9439Q38.6622,58.9439,39.7167,57.8895L50.9597,46.6465Q51.9848,45.6214,51.9848,44.1716Q51.9848,42.7219,50.9597,41.696799999999996Q49.9346,40.6716,48.4848,40.6716Q47.0351,40.6716,46.0099,41.696799999999996L37.171099999999996,50.5356L33.9891,47.3536Q32.964,46.3285,31.5142,46.3285Q30.0645,46.3285,29.0394,47.3536Q28.0143,48.3787,28.0143,49.8285ZM46.4342,42.121L37.171099999999996,51.3841L36.7468,50.9599L33.5649,47.7779Q32.7155,46.9285,31.5142,46.9285Q30.313,46.9285,29.4636,47.7779Q28.6143,48.6272,28.6143,49.8285Q28.6143,51.0297,29.4636,51.8791L35.049800000000005,57.4652Q35.9285,58.3439,37.171099999999996,58.3439Q38.4137,58.3439,39.2924,57.4652L50.5354,46.2222Q51.3848,45.3728,51.3848,44.1716Q51.3848,42.9704,50.5354,42.121Q49.686,41.2716,48.4848,41.2716Q47.2836,41.2716,46.4342,42.121Z" fill-rule="evenodd" fill="#000000" fill-opacity="1"/></g></g></g></svg>