<svg xmlns="http://www.w3.org/2000/svg" xmlns:xlink="http://www.w3.org/1999/xlink" fill="none" version="1.1" width="108" height="108" viewBox="0 0 108 108"><defs><filter id="master_svg0_999_4664" filterUnits="objectBoundingBox" color-interpolation-filters="sRGB" x="0" y="0" width="1" height="1"><feFlood flood-opacity="0" result="BackgroundImageFix"/><feBlend mode="normal" in="SourceGraphic" in2="BackgroundImageFix" result="shape"/><feColorMatrix in="SourceAlpha" type="matrix" result="hardAlpha" values="0 0 0 0 0 0 0 0 0 0 0 0 0 0 0 0 0 0 127 0"/><feOffset dy="0" dx="0"/><feGaussianBlur stdDeviation="5"/><feComposite in2="hardAlpha" operator="arithmetic" k2="-1" k3="1"/><feColorMatrix type="matrix" values="0 0 0 0 0 0 0 0 0 0 0 0 0 0 0 0 0 0 0.019999999552965164 0"/><feBlend mode="normal" in2="shape" result="effect1_innerShadow"/></filter></defs><g><g filter="url(#master_svg0_999_4664)"><path d="M0 54C3.924219170633544e-15 24.17662350913715 24.17662350913716 0 54 0L54 0C83.82337649086284 0 108 24.17662350913716 108 54L108 54C108 83.82337649086284 83.82337649086284 108 54 108L54 108C24.17662350913716 108 3.924219170633544e-15 83.82337649086284 0 54.00000000000001Z" fill="#F2F2F2" fill-opacity="1"/></g><g><ellipse cx="54.000003814697266" cy="54" rx="48.000003814697266" ry="48" fill="#FFFFFF" fill-opacity="1"/></g><g></g><g style="opacity:0.8999999761581421;"><g><g><g><path d="M39.83870424880982,31.21350640684128C39.83870424880982,29.709456406841277,41.106804248809816,28.490196406841278,42.671004248809815,28.490196406841278C44.235204248809815,28.490196406841278,45.50330424880981,29.709456406841277,45.50330424880981,31.21350640684128L45.50330424880981,33.93682640684128L62.49670424880981,33.93682640684128L62.49670424880981,31.21350640684128C62.49670424880981,29.709456406841277,63.764704248809814,28.490196406841278,65.3289042488098,28.490196406841278C66.89320424880981,28.490196406841278,68.16120424880981,29.709456406841277,68.16120424880981,31.21350640684128L68.16120424880981,33.93682640684128L73.82570424880981,33.93682640684128C76.95420424880982,33.93682640684128,79.49020424880982,36.37535640684128,79.49020424880982,39.38339640684128L79.49020424880982,72.06319640684129C79.49020424880982,75.07129640684127,76.95420424880982,77.50979640684128,73.82570424880981,77.50979640684128L34.174294248809815,77.50979640684128C31.045884248809813,77.50979640684128,28.509804248809814,75.07129640684127,28.509804248809814,72.06319640684129L28.509804248809814,39.38339640684128C28.509804248809814,36.37535640684128,31.045884248809813,33.93682640684128,34.174294248809815,33.93682640684128L39.83870424880982,33.93682640684128L39.83870424880982,31.21350640684128ZM73.82540424880982,45.10239640684128L73.82570424880981,39.38339640684128L34.174294248809815,39.38339640684128L34.174564248809816,45.10239640684128L73.82540424880982,45.10239640684128ZM34.174294248809815,72.06319640684129L34.174564248809816,50.54899640684128L73.82540424880982,50.54899640684128L73.82570424880981,72.06319640684129L34.174294248809815,72.06319640684129ZM51.59640424880982,62.300696406841276L59.467004248809815,54.732796406841274Q60.18870424880981,54.038896406841275,61.209304248809815,54.038896406841275Q62.22990424880982,54.038896406841275,62.951604248809815,54.732796406841274Q63.67340424880982,55.42679640684128,63.67340424880982,56.40819640684128Q63.67340424880982,57.389496406841275,62.951604248809815,58.08349640684128L53.39880424880981,67.26899640684127Q52.65220424880981,67.98689640684128,51.59640424880982,67.98689640684128Q50.540604248809814,67.98689640684128,49.79390424880981,67.26899640684127L45.047504248809815,62.70519640684128Q44.32590424880981,62.01119640684128,44.32590424880981,61.02979640684128Q44.32590424880981,60.04839640684128,45.047504248809815,59.35449640684128Q45.769204248809814,58.660496406841276,46.789804248809816,58.660496406841276Q47.81060424880981,58.660496406841276,48.532304248809815,59.35449640684128L51.59640424880982,62.300696406841276Z" fill-rule="evenodd" fill="#000000" fill-opacity="1" style="mix-blend-mode:passthrough"/></g><g><path d="M39.328900000000004,31.21351L39.328900000000004,33.44663L34.17429,33.44663Q31.61682,33.44663,29.80841,35.18548Q28,36.924350000000004,28,39.3834L28,72.0632Q28,74.5224,29.80841,76.2612Q31.6168,78,34.17429,78L73.8257,78Q76.38329999999999,78,78.1916,76.2612Q80,74.5224,80,72.0632L80,39.3834Q80,36.924350000000004,78.1916,35.18548Q76.38329999999999,33.44663,73.8257,33.44663L68.6711,33.44663L68.6711,31.21351Q68.6711,29.88243,67.69210000000001,28.941217Q66.7133,28,65.3289,28Q63.9447,28,62.9658,28.941216Q61.9869,29.88243,61.9869,31.21351L61.9869,33.44663L46.0131,33.44663L46.0131,31.21351Q46.0131,29.88243,45.0342,28.941214Q44.0553,28,42.671099999999996,28Q41.286699999999996,28,40.307900000000004,28.941214Q39.328900000000004,29.88243,39.328900000000004,31.21351ZM34.17429,33.93682L39.8388,33.93682L39.8388,31.21351C39.8388,29.70946,41.1068,28.490196,42.671099999999996,28.490196C44.2352,28.490196,45.503299999999996,29.70946,45.503299999999996,31.21351L45.503299999999996,33.93682L62.4967,33.93682L62.4967,31.21351C62.4967,29.70946,63.7647,28.490196,65.3289,28.490196C66.89320000000001,28.490196,68.16120000000001,29.70946,68.16120000000001,31.21351L68.16120000000001,33.93682L73.8257,33.93682C76.9542,33.93682,79.4902,36.37535,79.4902,39.3834L79.4902,72.0632C79.4902,75.07130000000001,76.9542,77.5098,73.8257,77.5098L34.17429,77.5098C31.04588,77.5098,28.509804,75.07130000000001,28.509804,72.0632L28.509804,39.3834C28.509804,36.37535,31.04588,33.93682,34.17429,33.93682ZM34.17457,45.1024L73.8254,45.1024L73.8254,44.6122L73.8257,39.873599999999996L73.8257,39.3834L34.17429,39.3834L34.17431,39.873599999999996L34.17454,44.6122L34.17457,45.1024ZM34.68435,44.6122L73.3156,44.6122L73.3159,39.873599999999996L34.68412,39.873599999999996L34.68435,44.6122ZM34.17429,71.57300000000001L34.17429,72.0632L34.6841,72.0632L73.3159,72.0632L73.8257,72.0632L73.8257,71.57300000000001L73.8254,51.0392L73.8254,50.549L34.17457,50.549L34.17456,51.0392L34.17429,71.57300000000001ZM73.3156,51.0392L73.3159,71.57300000000001L34.6841,71.57300000000001L34.68436,51.0392L73.3156,51.0392ZM43.8161,61.0298Q43.8161,62.2142,44.6871,63.0518L49.4334,67.6156Q50.3294,68.477,51.5964,68.477Q52.863299999999995,68.477,53.759299999999996,67.6156L63.3122,58.430099999999996Q64.1832,57.592600000000004,64.1832,56.4082Q64.1832,55.2238,63.3122,54.3863Q62.4412,53.5487,61.2093,53.5487Q59.9775,53.5487,59.1065,54.3863L51.5964,61.6075L48.892700000000005,59.0078Q48.021699999999996,58.1703,46.7898,58.1703Q45.558099999999996,58.1703,44.6871,59.0078Q43.8161,59.8453,43.8161,61.0298ZM59.467,54.7328L51.5964,62.3007L51.2358,61.9542L48.5323,59.3545Q47.8106,58.6605,46.7898,58.6605Q45.7692,58.6605,45.0475,59.3545Q44.325900000000004,60.0484,44.325900000000004,61.0298Q44.325900000000004,62.0112,45.0475,62.7052L49.7939,67.269Q50.5406,67.9868,51.5964,67.9868Q52.6522,67.9868,53.3988,67.269L62.9516,58.0835Q63.6734,57.3895,63.6734,56.4082Q63.6734,55.4268,62.9516,54.7328Q62.2299,54.0389,61.2093,54.0389Q60.1887,54.0389,59.467,54.7328Z" fill-rule="evenodd" fill="#000000" fill-opacity="1" style="mix-blend-mode:passthrough"/></g></g></g></g></g></svg>