<svg xmlns="http://www.w3.org/2000/svg" xmlns:xlink="http://www.w3.org/1999/xlink" fill="none" version="1.1" width="26" height="26" viewBox="0 0 26 26"><g><g><g><path d="M12.015835703125,2.13710578125C12.518095703125,1.23619878125,13.763795703125,1.23619878125,14.266095703125,2.13710578125C14.266095703125,2.13710578125,17.177595703125,7.35941578125,17.177595703125,7.35941578125C17.177595703125,7.35941578125,22.831295703125,8.638475781250001,22.831295703125,8.638475781250001C23.806595703125,8.85912578125,24.191595703125,10.09693578125,23.526595703125,10.87438578125C23.526595703125,10.87438578125,19.672395703125,15.38102578125,19.672395703125,15.38102578125C19.672395703125,15.38102578125,20.255095703125,21.39382578125,20.255095703125,21.39382578125C20.355595703125,22.43112578125,19.347795703125,23.19612578125,18.434595703125,22.77572578125C18.434595703125,22.77572578125,13.140995703125,20.33862578125,13.140995703125,20.33862578125C13.140995703125,20.33862578125,7.847415703125,22.77572578125,7.847415703125,22.77572578125C6.934205703125,23.19612578125,5.9263657031250006,22.43112578125,6.026885703125,21.39382578125C6.026885703125,21.39382578125,6.609615703125,15.38102578125,6.609615703125,15.38102578125C6.609615703125,15.38102578125,2.7552857031249998,10.87438578125,2.7552857031249998,10.87438578125C2.090370703125,10.09693578125,2.475335103125,8.85913578125,3.450665703125,8.638475781250001C3.450665703125,8.638475781250001,9.104375703125001,7.35941578125,9.104375703125001,7.35941578125C9.104375703125001,7.35941578125,12.015835703125,2.13710578125,12.015835703125,2.13710578125C12.015835703125,2.13710578125,12.015835703125,2.13710578125,12.015835703125,2.13710578125Z" fill="#FFFFFF" fill-opacity="1"/></g></g></g></svg>