<svg xmlns="http://www.w3.org/2000/svg" xmlns:xlink="http://www.w3.org/1999/xlink" fill="none" version="1.1" width="26" height="26" viewBox="0 0 26 26"><path d="M17.054477952316283,7.8979869L14.143019952316283,2.67567992C13.640728952316284,1.77477336,12.394999952316285,1.77477336,11.892738152316284,2.67567992L8.981281052316284,7.8979869L3.327569052316284,9.177052C2.352239400316284,9.3977094,1.9672752623162841,10.6355066,2.6321898123162843,11.4129562L6.486520552316284,15.919622L5.9037916523162846,21.932421C5.803270852316285,22.96965,6.811114552316284,23.734701,7.724322552316284,23.314308L13.017915952316285,20.877234L18.311456952316284,23.314308C19.224684952316284,23.734701,20.232496952316286,22.96965,20.131977952316284,21.932421L19.549267952316285,15.919622L23.403538952316286,11.4129562C24.068538952316285,10.6355066,23.683538952316283,9.3976984,22.708225952316283,9.177052L17.054477952316283,7.8979869ZM12.843192952316285,7.1317282L10.949461652316284,10.528532L6.977686152316284,11.427084C6.830845152316284,11.4603043,6.771971452316285,11.6377325,6.869824652316284,11.7521467L9.595589352316285,14.93924L9.202020852316284,19.000225C9.187131152316283,19.153862,9.344514152316284,19.265739,9.484726152316284,19.201189L13.017922952316285,17.574571L16.551050952316285,19.201174C16.691263952316284,19.265726,16.848647952316284,19.153849,16.833757952316283,19.000212L16.440202952316284,14.93925L19.165937952316284,11.7521429C19.263790952316285,11.6377277,19.204916952316285,11.4603014,19.058075952316283,11.4270811L15.086299952316285,10.5285339L13.192565952316285,7.1317282C13.116290952316284,6.9949131,12.919467952316284,6.9949131,12.843192952316285,7.1317282" fill-rule="evenodd" fill="#000000" fill-opacity="0.6000000238418579"/></svg>