<svg xmlns="http://www.w3.org/2000/svg" xmlns:xlink="http://www.w3.org/1999/xlink" fill="none" version="1.1" width="80" height="80" viewBox="0 0 80 80"><defs><filter id="master_svg0_914_4096" filterUnits="objectBoundingBox" color-interpolation-filters="sRGB" x="0" y="0" width="80" height="80"><feFlood flood-opacity="0" result="BackgroundImageFix"/><feBlend mode="normal" in="SourceGraphic" in2="BackgroundImageFix" result="shape"/><feColorMatrix in="SourceAlpha" type="matrix" result="hardAlpha" values="0 0 0 0 0 0 0 0 0 0 0 0 0 0 0 0 0 0 127 0"/><feOffset dy="0" dx="0"/><feGaussianBlur stdDeviation="5"/><feComposite in2="hardAlpha" operator="arithmetic" k2="-1" k3="1"/><feColorMatrix type="matrix" values="0 0 0 0 1 0 0 0 0 1 0 0 0 0 1 0 0 0 0.019999999552965164 0"/><feBlend mode="normal" in2="shape" result="effect1_innerShadow"/></filter><filter id="master_svg1_914_4091" filterUnits="objectBoundingBox" color-interpolation-filters="sRGB" x="0" y="0" width="80" height="80"><feFlood flood-opacity="0" result="BackgroundImageFix"/><feBlend mode="normal" in="SourceGraphic" in2="BackgroundImageFix" result="shape"/><feColorMatrix in="SourceAlpha" type="matrix" result="hardAlpha" values="0 0 0 0 0 0 0 0 0 0 0 0 0 0 0 0 0 0 127 0"/><feOffset dy="0" dx="0"/><feGaussianBlur stdDeviation="5"/><feComposite in2="hardAlpha" operator="arithmetic" k2="-1" k3="1"/><feColorMatrix type="matrix" values="0 0 0 0 0 0 0 0 0 0 0 0 0 0 0 0 0 0 0.019999999552965164 0"/><feBlend mode="normal" in2="shape" result="effect1_innerShadow"/></filter></defs><g><g filter="url(#master_svg0_914_4096)"><ellipse cx="40" cy="40" rx="40" ry="40" fill="#FFFFFF" fill-opacity="0.23999999463558197"/></g><g><g transform="matrix(0.7071067690849304,0.7071067690849304,-0.7071067690849304,0.7071067690849304,26.00082495211427,-26.662228709517876)"><path d="M62.6012703125,18.054656982421875C64.1199703125,18.054656982421875,65.35127031249999,19.285876982421875,65.35127031249999,20.804656982421875C65.35127031249999,20.804656982421875,65.35127031249999,49.954656982421874,65.35127031249999,49.954656982421874C65.35127031249999,51.574756982421874,64.0379703125,52.887956982421876,62.4178703125,52.887956982421876C62.4178703125,52.887956982421876,47.9345703125,52.887956982421876,47.9345703125,52.887956982421876C46.4157903125,52.887956982421876,45.1845703125,51.656756982421875,45.1845703125,50.137956982421876C45.1845703125,48.619256982421874,46.4157903125,47.387956982421876,47.9345703125,47.387956982421876C47.9345703125,47.387956982421876,59.8512703125,47.387956982421876,59.8512703125,47.387956982421876C59.8512703125,47.387956982421876,59.8512703125,20.804656982421875,59.8512703125,20.804656982421875C59.8512703125,19.285876982421875,61.0824703125,18.054656982421875,62.6012703125,18.054656982421875C62.6012703125,18.054656982421875,62.6012703125,18.054656982421875,62.6012703125,18.054656982421875Z" fill-rule="evenodd" fill="#FFFFFF" fill-opacity="1"/><path d="M58.6512703125,20.804656982421875L58.6512703125,46.18795698242187L47.9345703125,46.18795698242187Q46.2984303125,46.18795698242187,45.1414934125,47.34495698242188Q43.9845703125,48.50185698242187,43.9845703125,50.137956982421876Q43.9845703125,51.774056982421875,45.1414928125,52.93105698242187Q46.2984303125,54.08795698242187,47.9345703125,54.08795698242187L62.4178703125,54.08795698242187Q64.1300703125,54.08795698242187,65.3406703125,52.87735698242187Q66.55127031250001,51.66675698242187,66.55127031250001,49.954656982421874L66.55127031250001,20.804656982421875Q66.55127031250001,19.168516982421874,65.3942703125,18.011579882421874Q64.2373703125,16.854656982421876,62.6012703125,16.854656982421876Q60.9650703125,16.854656982421876,59.808170312499996,18.011585982421874Q58.6512703125,19.168516982421874,58.6512703125,20.804656982421875ZM47.9345703125,47.387956982421876L58.6512703125,47.387956982421876L59.8512703125,47.387956982421876L59.8512703125,20.804656982421875C59.8512703125,19.285876982421875,61.0824703125,18.054656982421875,62.6012703125,18.054656982421875C64.1199703125,18.054656982421875,65.35127031249999,19.285876982421875,65.35127031249999,20.804656982421875L65.35127031249999,49.954656982421874C65.35127031249999,51.574756982421874,64.0379703125,52.887956982421876,62.4178703125,52.887956982421876L47.9345703125,52.887956982421876C46.4157903125,52.887956982421876,45.1845703125,51.656756982421875,45.1845703125,50.137956982421876C45.1845703125,48.619256982421874,46.4157903125,47.387956982421876,47.9345703125,47.387956982421876Z" fill-rule="evenodd" fill="#FFFFFF" fill-opacity="1"/></g></g><g><g filter="url(#master_svg1_914_4091)"></g></g></g></svg>