<svg xmlns="http://www.w3.org/2000/svg" xmlns:xlink="http://www.w3.org/1999/xlink" fill="none" version="1.1" width="72" height="72" viewBox="0 0 72 72"><defs><filter id="master_svg0_9_2984" filterUnits="objectBoundingBox" color-interpolation-filters="sRGB" x="0" y="0" width="72" height="72"><feFlood flood-opacity="0" result="BackgroundImageFix"/><feBlend mode="normal" in="SourceGraphic" in2="BackgroundImageFix" result="shape"/><feColorMatrix in="SourceAlpha" type="matrix" result="hardAlpha" values="0 0 0 0 0 0 0 0 0 0 0 0 0 0 0 0 0 0 127 0"/><feOffset dy="0" dx="0"/><feGaussianBlur stdDeviation="5"/><feComposite in2="hardAlpha" operator="arithmetic" k2="-1" k3="1"/><feColorMatrix type="matrix" values="0 0 0 0 0 0 0 0 0 0 0 0 0 0 0 0 0 0 0.019999999552965164 0"/><feBlend mode="normal" in2="shape" result="effect1_innerShadow"/></filter></defs><g><g filter="url(#master_svg0_9_2984)"><ellipse cx="36" cy="36" rx="36" ry="36" fill="#000000" fill-opacity="0.05000000074505806"/></g><g><g><path d="M36,21C31.85787,21,28.5,24.35787,28.5,28.5C28.5,32.6421,31.85787,36,36,36C40.1421,36,43.5,32.6421,43.5,28.5C43.5,24.35787,40.1421,21,36,21C36,21,36,21,36,21ZM30,39C25.85787,39,22.5,42.3579,22.5,46.5C22.5,46.5,22.5,48,22.5,48C22.5,49.6569,23.84315,51,25.5,51C25.5,51,46.5,51,46.5,51C48.1569,51,49.5,49.6569,49.5,48C49.5,48,49.5,46.5,49.5,46.5C49.5,42.3579,46.1421,39,42,39C42,39,30,39,30,39C30,39,30,39,30,39Z" fill="#000000" fill-opacity="0.6000000238418579"/></g></g></g></svg>