<svg xmlns="http://www.w3.org/2000/svg" xmlns:xlink="http://www.w3.org/1999/xlink" fill="none" version="1.1" width="24" height="24" viewBox="0 0 24 24"><defs><clipPath id="master_svg0_820_4601"><rect x="0" y="0" width="24" height="24" rx="0"/></clipPath></defs><g style="opacity:0.8999999761581421;" clip-path="url(#master_svg0_820_4601)"><g><path d="M6.1101600000000005,6.250005L4.09375,6.250005C3.696191,6.250005,3.375,6.5711949999999995,3.375,6.968745L3.375,7.687505C3.375,7.786325,3.4558595,7.867185,3.554688,7.867185L4.9113299999999995,7.867185L5.4661100000000005,19.614225C5.5020500000000006,20.380125,6.1354500000000005,20.984425,6.90137,20.984425L17.098599999999998,20.984425C17.866799999999998,20.984425,18.4979,20.382425,18.5339,19.614225L18.5763,18.716025000000002L17.029600000000002,17.169325L16.9257,19.367225L7.07432,19.367225L6.53076,7.867185L7.72737,7.867185L6.1101600000000005,6.250005ZM17.2227,13.082925L17.4692,7.867185L12.00692,7.867185L10.389710000000001,6.250005L15.4141,6.250005L15.4141,4.632815L15.5938,4.632815C15.4949,4.632815,15.4141,4.5519549999999995,15.4141,4.453125L15.4141,4.632815L8.7725,4.632815L7.4877,3.348026C7.73693,3.140539,8.05723,3.015625,8.40625,3.015625L15.5938,3.015625C16.3866,3.015625,17.0312,3.660254,17.0312,4.453125L17.0312,6.250005L19.9062,6.250005C20.3038,6.250005,20.625,6.5711949999999995,20.625,6.968745L20.625,7.687505C20.625,7.786325,20.5441,7.867185,20.4453,7.867185L19.0887,7.867185L18.7693,14.629525L17.2227,13.082925Z" fill-rule="evenodd" fill="#000000" fill-opacity="1"/><path d="M6.1101600000000005,6.690005L4.09375,6.690005Q3.815,6.690005,3.815,6.968745L3.815,7.687505Q3.815,7.427185,3.554688,7.427185L5.33104,7.427185L5.90562,19.593525Q5.92432,19.991925,6.21378,20.268225Q6.50312,20.544325,6.90137,20.544325L17.098599999999998,20.544325Q17.4986,20.544325,17.787100000000002,20.269025Q18.075699999999998,19.993625,18.0944,19.593725L18.1368,18.695225L18.5763,18.716025000000002L18.2652,19.027125L16.718400000000003,17.480425L17.029600000000002,17.169325L17.469099999999997,17.190025L17.345399999999998,19.807225L6.6546199999999995,19.807225L6.06947,7.427185L7.72737,7.427185L7.72737,7.867185L7.41624,8.178315L5.79903,6.5611250000000005L6.1101600000000005,6.250005L6.1101600000000005,6.690005ZM6.29241,5.809995L8.789629999999999,8.307185L6.53076,8.307185L6.53076,7.867185L6.97027,7.846415L7.51383,19.346425L7.07432,19.367225L7.07432,18.927225L16.9257,18.927225L16.9257,19.367225L16.4862,19.346425L16.637,16.154525L19.025,18.542425L18.973399999999998,19.634825Q18.938200000000002,20.386925,18.3946,20.905725Q17.851100000000002,21.424425,17.098599999999998,21.424425L6.90137,21.424425Q6.15058,21.424425,5.60621,20.904825Q5.0618,20.385225,5.0266,19.635025L4.47182,7.887945L4.9113299999999995,7.867185L4.9113299999999995,8.307185L3.554688,8.307185Q3.2983129,8.307185,3.116656,8.125535Q2.935,7.943875,2.935,7.687505L2.935,6.968745Q2.935,6.488325,3.274164,6.149165Q3.613327,5.809995,4.09375,5.809995L6.1101600000000005,5.809995L6.29241,5.809995ZM16.7832,13.062125L17.0297,7.846415L17.4692,7.867185L17.4692,8.307185L11.82466,8.307185L9.327449999999999,5.809995L15.4141,5.809995L15.4141,6.250005L14.9741,6.250005L14.9741,4.1928149999999995L15.5938,4.1928149999999995L15.5938,5.072815Q15.3374,5.072815,15.1557,4.8911549999999995Q14.9741,4.709495,14.9741,4.453125L15.8541,4.453125L15.8541,5.072815L8.590250000000001,5.072815L6.835710000000001,3.318295L7.20618,3.00987205Q7.72779,2.575625,8.40625,2.575625L15.5938,2.575625Q16.3707,2.575625,16.921,3.125921Q17.4712,3.676218,17.4712,4.453125L17.4712,6.250005L17.0312,6.250005L17.0312,5.809995L19.9062,5.809995Q20.3867,5.809995,20.7258,6.149165Q21.065,6.488325,21.065,6.968745L21.065,7.687505Q21.065,7.943875,20.8833,8.125535Q20.7017,8.307185,20.4453,8.307185L19.0887,8.307185L19.0887,7.867185L19.5282,7.887945L19.1619,15.644325L16.774,13.256525L16.7832,13.062125ZM17.6622,13.103725L17.2227,13.082925L17.5338,12.771795L19.080399999999997,14.318325L18.7693,14.629525L18.3298,14.608725L18.669,7.427185L20.4453,7.427185Q20.185,7.427185,20.185,7.687505L20.185,6.968745Q20.185,6.690005,19.9062,6.690005L16.5913,6.690005L16.5913,4.453125Q16.5913,4.040725,16.2987,3.748175Q16.0061,3.455625,15.5938,3.455625L8.40625,3.455625Q8.04616,3.455625,7.76922,3.686179L7.4877,3.348026L7.79883,3.0368968L9.08363,4.321685L8.7725,4.632815L8.7725,4.1928149999999995L15.4141,4.1928149999999995L15.4141,4.632815L14.9741,4.632815L14.9741,4.453125L15.4141,4.453125L15.8541,4.453125Q15.8541,4.344995,15.778,4.268905Q15.7019,4.1928149999999995,15.5938,4.1928149999999995L15.5938,4.632815L15.5938,5.072815L15.4141,5.072815L15.4141,4.632815L15.8541,4.632815L15.8541,6.690005L10.389710000000001,6.690005L10.389710000000001,6.250005L10.70084,5.9388749999999995L12.31804,7.556055L12.00692,7.867185L12.00692,7.427185L17.930500000000002,7.427185L17.6622,13.103725Z" fill="#000000" fill-opacity="1"/></g><g transform="matrix(0.7071109414100647,0.7071025967597961,-0.7071025967597961,0.7071109414100647,2.0857656002044678,-2.0355255007743835)"><rect x="3.5" y="1.5" width="26.0341796875" height="3.0260820388793945" rx="1.5130410194396973" fill="#000000" fill-opacity="1"/></g></g></svg>