<svg xmlns="http://www.w3.org/2000/svg" xmlns:xlink="http://www.w3.org/1999/xlink" fill="none" version="1.1" width="28" height="28" viewBox="0 0 28 28"><g><g><g><path d="M12.6587,25.2832C12.9582,25.7328,13.4596,26,14,26C14.5404,26,15.0418,25.7263,15.3283,25.2767L16.917,22.8851C17.2035,22.4616,17.7048,22.2531,18.2062,22.3508L21.019,22.9177C21.5529,23.0285,22.0933,22.8656,22.4775,22.4811C22.8551,22.0967,23.0179,21.5493,22.9137,21.0215L22.3473,18.2129C22.2496,17.711100000000002,22.4579,17.2028,22.8812,16.9226L25.2838,15.3456C25.733,15.0459,26,14.5441,26,14.0033C26,13.4624,25.733,12.9606,25.2838,12.6609L22.8942,11.07087C22.471,10.78414,22.2626,10.28238,22.3603,9.78061L22.9268,6.96552C23.0374,6.43769,22.8747,5.8903099999999995,22.4905,5.51235C22.1063,5.134399999999999,21.5594,4.97149,21.032,5.07575L18.2192,5.64268C17.7179,5.74043,17.21,5.5319,16.93,5.10834L15.3413,2.716807C15.0418,2.267173,14.5404,2,14,2C13.4596,2,12.9582,2.267173,12.6587,2.716807L11.06999,5.0953C10.78351,5.51887,10.28215,5.73391,9.78079,5.62965L6.96799,5.0627200000000006C6.43408,4.9519400000000005,5.89365,5.114850000000001,5.5095,5.49932C5.13185,5.87727,4.96907,6.42465,5.07325,6.95248L5.6397200000000005,9.767579999999999C5.7373899999999995,10.26935,5.5290300000000006,10.77763,5.10581,11.05783L2.716224,12.6478C2.266956,12.9476,2,13.4494,2,13.9902C2,14.5311,2.266956,15.0329,2.716224,15.3326L5.10581,16.9226C5.5290300000000006,17.2093,5.73738,17.711100000000002,5.6397200000000005,18.2129L5.07325,21.028C4.96256,21.5623,5.12534,22.1032,5.5095,22.4876C5.89365,22.8656,6.44059,23.0285,6.96799,22.9242L9.78079,22.3573C10.28215,22.2596,10.79002,22.4681,11.06999,22.8917L12.6587,25.2832ZM13.1088,18.5999Q13.6646,18.5999,14.0615,18.2047L14.0682,18.1981L19.2205,12.7385Q19.6044,12.3305,19.6,11.76672Q19.5955,11.20225,19.2055,10.80498Q18.8034,10.39517,18.2381,10.39996Q17.6724,10.40474,17.2821,10.81974L13.0417,15.3099L10.64174,13.1031Q10.22344,12.7211,9.66092,12.7569Q9.09583,12.7929,8.72569,13.2307Q8.36952,13.6531,8.40244,14.2126Q8.43572,14.7782,8.84684,15.1548L12.2043,18.2413Q12.5834,18.5999,13.1088,18.5999Z" fill-rule="evenodd" fill="#FFFFFF" fill-opacity="1" style="mix-blend-mode:passthrough"/></g></g></g></svg>