<svg xmlns="http://www.w3.org/2000/svg" xmlns:xlink="http://www.w3.org/1999/xlink" fill="none" version="1.1" width="72" height="72" viewBox="0 0 72 72"><defs><filter id="master_svg0_42_8230" filterUnits="objectBoundingBox" color-interpolation-filters="sRGB" x="0" y="0" width="72" height="72"><feFlood flood-opacity="0" result="BackgroundImageFix"/><feBlend mode="normal" in="SourceGraphic" in2="BackgroundImageFix" result="shape"/><feColorMatrix in="SourceAlpha" type="matrix" result="hardAlpha" values="0 0 0 0 0 0 0 0 0 0 0 0 0 0 0 0 0 0 127 0"/><feOffset dy="0" dx="0"/><feGaussianBlur stdDeviation="5"/><feComposite in2="hardAlpha" operator="arithmetic" k2="-1" k3="1"/><feColorMatrix type="matrix" values="0 0 0 0 0 0 0 0 0 0 0 0 0 0 0 0 0 0 0.019999999552965164 0"/><feBlend mode="normal" in2="shape" result="effect1_innerShadow"/></filter></defs><g><g filter="url(#master_svg0_42_8230)"><ellipse cx="36" cy="36" rx="36" ry="36" fill="#000000" fill-opacity="0.05000000074505806"/></g><g><g><path d="M24.780598046875,23.04200203125C25.377458046875,22.24618803125,26.314178046875,21.77783203125,27.308938046875,21.77783203125C27.308938046875,21.77783203125,44.691198046875,21.77783203125,44.691198046875,21.77783203125C45.685998046875,21.77783203125,46.622698046875,22.24618703125,47.219598046875,23.04200203125C47.219598046875,23.04200203125,51.467198046875,28.70546203125,51.467198046875,28.70546203125C51.694198046875,29.00822203125,51.793798046875,29.34818203125,51.788998046875,29.678872031250002C51.788998046875,29.678872031250002,51.802198046875,29.678872031250002,51.802198046875,29.678872031250002C51.802198046875,29.678872031250002,51.802198046875,31.25908203125,51.802198046875,31.25908203125C51.802198046875,32.86213203125,51.205498046875,34.32573203125,50.221998046875,35.44003203125C50.221998046875,35.44003203125,50.221998046875,47.06113203125,50.221998046875,47.06113203125C50.221998046875,48.806632031250004,48.806998046875,50.221632031249996,47.061498046875,50.221632031249996C47.061498046875,50.221632031249996,24.938618046875,50.221632031249996,24.938618046875,50.221632031249996C23.193168046875,50.221632031249996,21.778208046875,48.806632031250004,21.778208046875,47.06113203125C21.778208046875,47.06113203125,21.778208046875,35.44003203125,21.778208046875,35.44003203125C20.794743046875,34.32573203125,20.197998046875,32.86213203125,20.197998046875,31.25908203125C20.197998046875,31.25908203125,20.197998046875,29.678872031250002,20.197998046875,29.678872031250002C20.197998046875,29.678872031250002,20.211042146875,29.678872031250002,20.211042146875,29.678872031250002C20.206347156875,29.34820203125,20.305914046875,29.00825203125,20.533002046875,28.70546203125C20.533002046875,28.70546203125,24.780598046875,23.04200203125,24.780598046875,23.04200203125C24.780598046875,23.04200203125,24.780598046875,23.04200203125,24.780598046875,23.04200203125ZM24.938618046875,37.38073203125C24.938618046875,37.38073203125,24.938618046875,47.06113203125,24.938618046875,47.06113203125C24.938618046875,47.06113203125,47.061498046875,47.06113203125,47.061498046875,47.06113203125C47.061498046875,47.06113203125,47.061498046875,37.38073203125,47.061498046875,37.38073203125C46.556498046875,37.510832031250004,46.026998046875,37.579932031249996,45.481298046875,37.579932031249996C43.593498046875,37.579932031249996,41.898798046875,36.75223203125,40.740698046874996,35.44003203125C39.582598046875,36.75223203125,37.887998046875,37.579932031249996,36.000098046874996,37.579932031249996C34.112198046875,37.579932031249996,32.417698046875,36.75223203125,31.259498046875002,35.44003203125C30.101258046875,36.75223203125,28.406688046875,37.579932031249996,26.518828046875,37.579932031249996C25.973188046875002,37.579932031249996,25.443688046875,37.510832031250004,24.938618046875,37.38073203125C24.938618046875,37.38073203125,24.938618046875,37.38073203125,24.938618046875,37.38073203125ZM45.481298046875,34.41953203125C43.735798046875004,34.41953203125,42.320898046875,33.00453203125,42.320898046875,31.25908203125C42.320898046875,31.25908203125,48.641798046874996,31.25908203125,48.641798046874996,31.25908203125C48.641798046874996,33.00453203125,47.226798046875004,34.41953203125,45.481298046875,34.41953203125C45.481298046875,34.41953203125,45.481298046875,34.41953203125,45.481298046875,34.41953203125ZM36.000098046874996,34.41953203125C34.254598046875,34.41953203125,32.839698046875,33.00453203125,32.839698046875,31.25908203125C32.839698046875,31.25908203125,39.160498046875,31.25908203125,39.160498046875,31.25908203125C39.160498046875,33.00453203125,37.745598046875,34.41953203125,36.000098046874996,34.41953203125C36.000098046874996,34.41953203125,36.000098046874996,34.41953203125,36.000098046874996,34.41953203125ZM29.679248046875,31.25908203125C29.679248046875,33.00453203125,28.264278046875,34.41953203125,26.518828046875,34.41953203125C24.773378046875,34.41953203125,23.358418046875,33.00453203125,23.358418046875,31.25908203125C23.358418046875,31.25908203125,29.679248046875,31.25908203125,29.679248046875,31.25908203125C29.679248046875,31.25908203125,29.679248046875,31.25908203125,29.679248046875,31.25908203125ZM44.691198046875,24.93825203125C44.691198046875,24.93825203125,27.308938046875,24.93825203125,27.308938046875,24.93825203125C27.308938046875,24.93825203125,24.938618046875,28.09866203125,24.938618046875,28.09866203125C24.938618046875,28.09866203125,47.061498046875,28.09866203125,47.061498046875,28.09866203125C47.061498046875,28.09866203125,44.691198046875,24.93825203125,44.691198046875,24.93825203125C44.691198046875,24.93825203125,44.691198046875,24.93825203125,44.691198046875,24.93825203125Z" fill-rule="evenodd" fill="#000000" fill-opacity="0.6000000238418579"/><path d="M20.077998046875,29.55887203125L20.077998046875,31.25908203125Q20.077997046875,33.67223203125,21.658208046875,35.48523203125L21.658208046875,47.06113203125Q21.658208046875,48.42003203125,22.619018046875,49.38083203125Q23.579818046875,50.34163203125,24.938618046875,50.34163203125L47.061498046875,50.34163203125Q48.420398046875,50.34163203125,49.381198046875,49.38083203125Q50.341998046875,48.42003203125,50.341998046875,47.06113203125L50.341998046875,35.48523203125Q51.922198046874996,33.67233203125,51.922198046874996,31.25908203125L51.922198046874996,29.55887203125L51.906698046875,29.55886203125Q51.879398046875,29.05513203125,51.563198046875,28.633462031249998L47.315598046874996,22.97000203125Q46.331498046875,21.65783203125,44.691198046875,21.65783203125L27.308938046875,21.65783203125Q25.668728046875,21.65783203125,24.684608046875,22.97000203125L20.437002046875,28.633462031249998Q20.120730046875,29.05516203125,20.093446046875,29.55887203125L20.077998046875,29.55887203125ZM21.778208046875,47.06113203125L21.778208046875,35.44003203125C20.794743046875,34.32573203125,20.197998046875,32.86213203125,20.197998046875,31.25908203125L20.197998046875,29.678872031250002L20.211042146875,29.678872031250002C20.210831446875,29.66403203125,20.210830746875,29.64917203125,20.211042146875,29.63430203125C20.215541246875,29.31776203125,20.316106046875,28.99466203125,20.533002046875,28.70546203125L24.780598046875,23.04200203125C25.377458046875,22.24618803125,26.314178046875,21.77783203125,27.308938046875,21.77783203125L44.691198046875,21.77783203125C45.685998046875,21.77783203125,46.622698046875,22.24618703125,47.219598046875,23.04200203125L51.467198046875,28.70546203125C51.683898046875,28.99449203125,51.784498046875,29.31744203125,51.788998046875,29.63385203125C51.789298046875004,29.64887203125,51.789298046875004,29.66388203125,51.788998046875,29.678872031250002L51.802198046875,29.678872031250002L51.802198046875,31.25908203125C51.802198046875,32.86213203125,51.205498046875,34.32573203125,50.221998046875,35.44003203125L50.221998046875,47.06113203125C50.221998046875,48.806632031250004,48.806998046875,50.221632031249996,47.061498046875,50.221632031249996L24.938618046875,50.221632031249996C23.193168046875,50.221632031249996,21.778208046875,48.806632031250004,21.778208046875,47.06113203125ZM44.691198046875,24.93825203125L27.308938046875,24.93825203125L25.028628046875,27.97866203125L24.938618046875,28.09866203125L47.061498046875,28.09866203125L46.971498046875,27.97866203125L44.691198046875,24.93825203125ZM25.178628046874998,27.97866203125L27.368938046875,25.05825203125L44.631198046875,25.05825203125L46.821498046875,27.97866203125L25.178628046874998,27.97866203125ZM29.679248046875,31.25908203125C29.679248046875,31.299262031250002,29.678498046875,31.33926203125,29.677008046875002,31.37908203125C29.613928046875,33.06893203125,28.224098046875,34.41953203125,26.518828046875,34.41953203125C24.813558046875002,34.41953203125,23.423738046875002,33.06893203125,23.360648046875,31.37908203125C23.359168046875,31.33926203125,23.358418046875,31.299262031250002,23.358418046875,31.25908203125L29.679248046875,31.25908203125ZM39.158298046875004,31.37908203125C39.095198046875,33.06893203125,37.705398046875004,34.41953203125,36.000098046874996,34.41953203125C34.294798046875,34.41953203125,32.904998046875,33.06893203125,32.841898046875,31.37908203125C32.840398046875,31.33926203125,32.839698046875,31.299262031250002,32.839698046875,31.25908203125L39.160498046875,31.25908203125C39.160498046875,31.299262031250002,39.159798046875,31.33926203125,39.158298046875004,31.37908203125ZM48.639498046875005,31.37908203125C48.576398046875,33.06893203125,47.186698046875,34.41953203125,45.481298046875,34.41953203125C43.775998046875,34.41953203125,42.386198046874995,33.06893203125,42.323198046875,31.37908203125C42.321698046875,31.33926203125,42.320898046875,31.299262031250002,42.320898046875,31.25908203125L48.641798046874996,31.25908203125C48.641798046874996,31.299262031250002,48.640998046875,31.33926203125,48.639498046875005,31.37908203125ZM24.368928046875,33.40893203125Q23.521138046875,32.56123203125,23.480468046875,31.37908203125L29.557198046875,31.37908203125Q29.556578046875,31.39710203125,29.555768046875002,31.415062031250002Q29.503588046875002,32.57413203125,28.668728046875,33.40893203125Q27.778218046875,34.299532031249996,26.518828046875,34.299532031249996Q25.259448046875,34.299532031249996,24.368928046875,33.40893203125ZM33.850198046875,33.40893203125Q33.002398046875,32.56123203125,32.961698046875,31.37908203125L39.038398046875,31.37908203125Q39.037798046875,31.39711203125,39.036998046875,31.415062031250002Q38.984798046875,32.57413203125,38.149998046875,33.40893203125Q37.259498046874995,34.299532031249996,36.000098046874996,34.299532031249996Q34.740698046874996,34.299532031249996,33.850198046875,33.40893203125ZM43.331398046875,33.40893203125Q42.483598046875,32.56123203125,42.442998046875005,31.37908203125L48.519698046875,31.37908203125Q48.519098046875,31.39709203125,48.518298046875,31.415062031250002Q48.466098046875004,32.57413203125,47.631298046875,33.40893203125Q46.740798046875,34.299532031249996,45.481298046875,34.299532031249996Q44.221898046875,34.299532031249996,43.331398046875,33.40893203125ZM24.938618046875,47.06113203125L24.938618046875,37.38073203125C24.978468046875,37.39103203125,25.018478046875,37.40093203125,25.058618046875,37.41043203125C25.527348046874998,37.52123203125,26.016238046875,37.579932031249996,26.518828046875,37.579932031249996C28.363258046875,37.579932031249996,30.023188046875,36.789932031250004,31.178698046875,35.52983203125C31.205898046875,35.500132031250004,31.232798046875,35.47023203125,31.259498046875002,35.44003203125C31.286098046875,35.47023203125,31.312998046875002,35.500132031250004,31.340198046875003,35.52983203125C32.495698046875,36.789932031250004,34.155698046875,37.579932031249996,36.000098046874996,37.579932031249996C37.844498046875,37.579932031249996,39.504498046875,36.789932031250004,40.659898046875,35.52983203125C40.687098046875,35.500132031250004,40.714098046875,35.47023203125,40.740698046874996,35.44003203125C40.767398046875,35.47023203125,40.794298046875,35.500132031250004,40.821498046875,35.52983203125C41.976898046875,36.789932031250004,43.636898046875004,37.579932031249996,45.481298046875,37.579932031249996C45.983898046875,37.579932031249996,46.472798046875,37.52123203125,46.941498046875,37.41043203125C46.981698046874996,37.40093203125,47.021698046875,37.39103203125,47.061498046875,37.38073203125L47.061498046875,47.06113203125L24.938618046875,47.06113203125ZM25.058618046875,46.94113203125L25.058618046875,37.53363203125Q25.082418046875,37.53923203125,25.106318046875,37.54453203125Q25.799788046875,37.69993203125,26.518828046875,37.69993203125Q27.935998046875,37.69993203125,29.213018046875,37.11103203125Q30.385898046875,36.57023203125,31.259498046875002,35.619332031249996Q31.328898046875,35.69493203125,31.400298046875,35.76803203125Q32.226298046875,36.61323203125,33.305898046875,37.11103203125Q34.582898046875,37.69993203125,36.000098046874996,37.69993203125Q37.417298046875004,37.69993203125,38.694298046875005,37.11103203125Q39.867198046875004,36.57013203125,40.740698046874996,35.619332031249996Q40.810198046875,35.69493203125,40.881598046875,35.76803203125Q41.707498046875,36.61323203125,42.787098046875,37.11103203125Q44.064098046875,37.69993203125,45.481298046875,37.69993203125Q46.225198046875,37.69993203125,46.941498046875,37.53363203125L46.941498046875,46.94113203125L25.058618046875,46.94113203125Z" fill-rule="evenodd" fill="#000000" fill-opacity="0.6000000238418579"/></g></g></g></svg>