<svg xmlns="http://www.w3.org/2000/svg" xmlns:xlink="http://www.w3.org/1999/xlink" fill="none" version="1.1" width="144" height="144" viewBox="0 0 144 144"><defs><filter id="master_svg0_42_7541" filterUnits="objectBoundingBox" color-interpolation-filters="sRGB" x="0" y="0" width="144" height="144"><feFlood flood-opacity="0" result="BackgroundImageFix"/><feBlend mode="normal" in="SourceGraphic" in2="BackgroundImageFix" result="shape"/><feColorMatrix in="SourceAlpha" type="matrix" result="hardAlpha" values="0 0 0 0 0 0 0 0 0 0 0 0 0 0 0 0 0 0 127 0"/><feOffset dy="0" dx="0"/><feGaussianBlur stdDeviation="5"/><feComposite in2="hardAlpha" operator="arithmetic" k2="-1" k3="1"/><feColorMatrix type="matrix" values="0 0 0 0 0 0 0 0 0 0 0 0 0 0 0 0 0 0 0.019999999552965164 0"/><feBlend mode="normal" in2="shape" result="effect1_innerShadow"/></filter></defs><g><g filter="url(#master_svg0_42_7541)"><ellipse cx="72" cy="72" rx="72" ry="72" fill="#000000" fill-opacity="0.05000000074505806"/></g><g><g><path d="M49.25,46C45.66015,46,42.75,48.91015,42.75,52.5L42.75,91.5C42.75,95.09,45.66015,98,49.25,98L94.75,98C98.34,98,101.25,95.09,101.25,91.5L101.25,88.25L81.75,88.25C72.7754,88.25,65.5,80.97460000000001,65.5,72C65.5,63.025400000000005,72.7754,55.75,81.75,55.75L101.25,55.75L101.25,52.5C101.25,48.91015,98.34,46,94.75,46L49.25,46ZM81.75,62.25C76.3651,62.25,72,66.6152,72,72C72,77.3848,76.3651,81.75,81.75,81.75L98,81.75C101.59,81.75,104.5,78.84,104.5,75.25L104.5,68.75C104.5,65.1602,101.59,62.25,98,62.25L81.75,62.25ZM81.75,75.25C83.545,75.25,85,73.7949,85,72C85,70.2051,83.545,68.75,81.75,68.75C79.955,68.75,78.5,70.2051,78.5,72C78.5,73.7949,79.955,75.25,81.75,75.25Z" fill-rule="evenodd" fill="#000000" fill-opacity="0.6000000238418579"/></g></g></g></svg>