<svg xmlns="http://www.w3.org/2000/svg" xmlns:xlink="http://www.w3.org/1999/xlink" fill="none" version="1.1" width="24" height="24" viewBox="0 0 24 24"><g><g><path d="M12,17C12.5523,17,13,16.552300000000002,13,16C13,15.4477,12.5523,15,12,15C11.44775,15,11,15.4477,11,16C11,16.552300000000002,11.44775,17,12,17C12,17,12,17,12,17ZM11.99997,7C12.55227,7,12.99997,7.44772,12.99997,8C12.99997,8,12.99997,12.00001,12.99997,12.00001C12.99997,12.55231,12.55227,13.00001,11.99997,13.00001C11.447721,13.00001,11,12.55231,11,12.00001C11,12.00001,11,8,11,8C11,7.44772,11.447721,7,11.99997,7C11.99997,7,11.99997,7,11.99997,7Z" fill="#000000" fill-opacity="0.8999999761581421"/><path d="M10.76,8L10.76,12.00001Q10.76,12.513639999999999,11.123185,12.87683Q11.486365,13.24001,11.99997,13.24001Q12.51361,13.24001,12.87679,12.87683Q13.23997,12.51365,13.23997,12.00001L13.23997,8Q13.23997,7.486376,12.87679,7.123191Q12.5136,6.76,11.99997,6.76Q11.486368,6.76,11.123184,7.123191Q10.76,7.486383,10.76,8ZM12.99997,8C12.99997,7.44772,12.55227,7,11.99997,7C11.447721,7,11,7.44772,11,8L11,12.00001C11,12.55231,11.447721,13.00001,11.99997,13.00001C12.55227,13.00001,12.99997,12.55231,12.99997,12.00001L12.99997,8ZM11.123204,16.876820000000002Q11.486396,17.240000000000002,12,17.240000000000002Q12.51364,17.240000000000002,12.87682,16.876820000000002Q13.24,16.513640000000002,13.24,16Q13.24,15.48636,12.87682,15.12318Q12.51364,14.76,12,14.76Q11.486396,14.76,11.123204,15.12318Q10.76,15.48637,10.76,16Q10.76,16.51363,11.123204,16.876820000000002ZM13,16C13,16.552300000000002,12.5523,17,12,17C11.44775,17,11,16.552300000000002,11,16C11,15.4477,11.44775,15,12,15C12.5523,15,13,15.4477,13,16Z" fill-rule="evenodd" fill="#000000" fill-opacity="0.8999999761581421"/></g><g><path d="M12,2C6.47715,2,2,6.47715,2,12C2,17.5228,6.47715,22,12,22C17.5228,22,22,17.5228,22,12C22,6.47715,17.5228,2,12,2C12,2,12,2,12,2ZM4,12C4,7.58172,7.58172,4,12,4C16.418300000000002,4,20,7.58172,20,12C20,16.418300000000002,16.418300000000002,20,12,20C7.58172,20,4,16.418300000000002,4,12C4,12,4,12,4,12Z" fill-rule="evenodd" fill="#000000" fill-opacity="0.8999999761581421"/><path d="M1.76,12Q1.76,14.0831,2.564808,15.9859Q3.34208,17.8236,4.7592300000000005,19.2408Q6.17637,20.6579,8.014050000000001,21.4352Q9.91685,22.24,12,22.24Q14.0831,22.24,15.9859,21.4352Q17.8236,20.6579,19.2408,19.2408Q20.6579,17.8236,21.4352,15.9859Q22.24,14.0831,22.24,12Q22.24,9.91685,21.4352,8.014050000000001Q20.6579,6.17637,19.2408,4.7592300000000005Q17.8236,3.34208,15.9859,2.564809Q14.0831,1.76,12,1.76Q9.91684,1.76,8.01406,2.564808Q6.17637,3.34208,4.7592300000000005,4.7592300000000005Q3.34208,6.17637,2.564808,8.014050000000001Q1.76,9.91684,1.76,12ZM2,12C2,6.47715,6.47715,2,12,2C17.5228,2,22,6.47715,22,12C22,17.5228,17.5228,22,12,22C6.47715,22,2,17.5228,2,12ZM12,4C7.58172,4,4,7.58172,4,12C4,16.418300000000002,7.58172,20,12,20C16.418300000000002,20,20,16.418300000000002,20,12C20,7.58172,16.418300000000002,4,12,4ZM4.24,12Q4.24,8.785689999999999,6.51285,6.51285Q8.7857,4.24,12,4.24Q15.2143,4.24,17.4872,6.51285Q19.76,8.7857,19.76,12Q19.76,15.2143,17.4872,17.4872Q15.2143,19.76,12,19.76Q8.7857,19.76,6.51285,17.4872Q4.24,15.2143,4.24,12Z" fill-rule="evenodd" fill="#000000" fill-opacity="1"/></g></g></svg>